<?xml version="1.0" encoding="UTF-8"?>
<svg version="1.1" xmlns="http://www.w3.org/2000/svg" width="525" height="615">
<path d="M0 0 C2.82080078 1.35107422 2.82080078 1.35107422 5.6953125 3.0546875 C6.74074219 3.66957031 7.78617187 4.28445312 8.86328125 4.91796875 C9.93964844 5.56378906 11.01601563 6.20960938 12.125 6.875 C13.20910156 7.51308594 14.29320312 8.15117187 15.41015625 8.80859375 C18.2909865 10.51430165 21.16523882 12.21875212 24 14 C24.7530542 14.39251953 25.5061084 14.78503906 26.28198242 15.18945312 C29.02813799 18.08351163 28.79051154 21.48867481 28.91796875 25.2890625 C28.94788406 26.1069223 28.97779938 26.9247821 29.00862122 27.76742554 C29.05954627 29.50040354 29.09826995 31.23377659 29.12573242 32.96728516 C29.18695966 35.60175023 29.34928135 38.21790222 29.51367188 40.84765625 C29.9201906 52.74678028 29.9201906 52.74678028 26.60534668 56.63653564 C23.03681734 59.53415117 19.04261619 61.42156303 14.82913208 63.20318604 C12.48417572 64.22470547 10.36806112 65.51375015 8.2109375 66.8828125 C6.93319286 67.63174797 5.65459929 68.37923773 4.375 69.125 C3.39466797 69.72054687 3.39466797 69.72054687 2.39453125 70.328125 C-0.25791052 71.86064691 -2.35649077 72.99181546 -5.45703125 73.03125 C-9.21978961 71.50533878 -12.60319001 69.48988924 -16.0625 67.375 C-17.46980847 66.52824082 -18.87736682 65.68189681 -20.28515625 64.8359375 C-21.01726318 64.37050537 -21.74937012 63.90507324 -22.50366211 63.42553711 C-25.0460808 61.89282763 -25.0460808 61.89282763 -28.17016602 60.76391602 C-36.07091918 57.32857549 -36.07091918 57.32857549 -37.73617554 53.15490723 C-39.04342108 47.5530967 -38.96095942 41.9063279 -38.8125 36.1875 C-38.80526917 35.3187323 -38.79803833 34.4499646 -38.79058838 33.55487061 C-38.54295843 17.3767573 -38.54295843 17.3767573 -33.66015625 12.55859375 C-30.14560313 10.18860453 -26.36440977 8.89786471 -22.30517578 7.75244141 C-18.60728262 6.5453977 -15.55254833 4.42240239 -12.3125 2.3125 C-7.54063106 -0.63062875 -5.43270885 -1.32538821 0 0 Z " fill="#5A5A5A" transform="translate(348,1)"/>
<path d="M0 0 C1.89501953 0.00585938 1.89501953 0.00585938 4.2578125 0.34375 C8.43531135 0.87774985 12.46912094 1.02645573 16.6796875 1.03125 C24.28652482 1.37023842 31.44807749 1.82037767 38 6 C45.12028439 14.52080534 48.33473473 28.22624967 50 39 C49.53279388 43.49060692 48.12307521 45.38264067 45 48.625 C36.38935768 57.63784334 36.38935768 57.63784334 29.42578125 67.88671875 C27 70 27 70 24.77392578 70.10888672 C22.89341664 69.92586464 21.01755173 69.6912173 19.14794922 69.41845703 C15.87642924 68.98357373 12.7396033 68.9447216 9.44140625 68.93359375 C2.12901151 68.56007879 -4.7280703 68.05943298 -11 64 C-18.24101589 55.32088629 -22.24794837 40.33302701 -23.24902344 29.24072266 C-22.82683589 25.44186258 -20.05612934 23.08048677 -17.5625 20.375 C-16.46111989 19.13901768 -15.36087203 17.90202555 -14.26171875 16.6640625 C-13.71177246 16.05079102 -13.16182617 15.43751953 -12.59521484 14.80566406 C-9.52880163 11.33471332 -6.65190932 7.71188773 -3.7421875 4.109375 C-2 2 -2 2 0 0 Z " fill="#5A5A5A" transform="translate(23,260)"/>
<path d="M0 0 C4.12236867 0.51863782 5.79789814 2.64572457 8.32421875 5.69140625 C8.79279297 6.22958984 9.26136719 6.76777344 9.74414062 7.32226562 C11.18705281 8.99167012 12.60209613 10.68134392 14.01171875 12.37890625 C14.66986572 13.16273682 14.66986572 13.16273682 15.34130859 13.96240234 C17.94317455 17.06612075 20.5021649 20.20013804 23.01171875 23.37890625 C23.60984375 23.99765625 24.20796875 24.61640625 24.82421875 25.25390625 C26.62251616 28.47191214 25.68257993 30.81270106 25.01171875 34.37890625 C24.33247413 36.6435526 23.59150443 38.89040498 22.796875 41.1171875 C22.35794922 42.34888672 21.91902344 43.58058594 21.46679688 44.84960938 C21.23806885 45.4800415 21.00934082 46.11047363 20.77368164 46.76000977 C20.07084896 48.7007111 19.38147841 50.64583637 18.69335938 52.59179688 C15.26968519 62.12093981 15.26968519 62.12093981 13.01171875 64.37890625 C10.50583764 64.98442279 8.05545901 65.48543835 5.51953125 65.921875 C4.77718231 66.05459305 4.03483337 66.1873111 3.26998901 66.3240509 C1.69875304 66.60270679 0.12679492 66.8773164 -1.44580078 67.14819336 C-3.84898904 67.56393376 -6.24863043 67.99685727 -8.6484375 68.43164062 C-10.17559806 68.70026232 -11.70293671 68.96787385 -13.23046875 69.234375 C-13.947258 69.36450485 -14.66404724 69.4946347 -15.40255737 69.62870789 C-21.85303347 70.71737814 -21.85303347 70.71737814 -24.98828125 69.37890625 C-26.9609375 67.33203125 -26.9609375 67.33203125 -29.05078125 64.62890625 C-29.82679688 63.6440625 -30.6028125 62.65921875 -31.40234375 61.64453125 C-31.81645508 61.11666016 -32.23056641 60.58878906 -32.65722656 60.04492188 C-35.46872503 56.52590766 -38.42705012 53.12780921 -41.35766602 49.70800781 C-43.38620794 47.32720412 -45.25042248 44.98569441 -46.98828125 42.37890625 C-46.47456522 39.27441249 -45.80875118 36.4067291 -44.98828125 33.37890625 C-44.72821289 32.32364746 -44.46814453 31.26838867 -44.20019531 30.18115234 C-38.73740108 9.06293522 -38.73740108 9.06293522 -32.75390625 4.77929688 C-27.75330175 2.784629 -22.67291221 2.47751416 -17.33203125 2.43115234 C-14.17721453 2.36082622 -11.19803957 1.76513765 -8.11328125 1.12890625 C-5.41479257 0.66170522 -2.71683907 0.34448809 0 0 Z " fill="#0097AE" transform="translate(460.98828125,20.62109375)"/>
<path d="M0 0 C1.24595947 0.42200684 1.24595947 0.42200684 2.51708984 0.85253906 C9.15093589 3.3311189 15.73973174 6.14129515 20 12 C22.54062739 21.66677739 21.2127469 32.20473655 20 42 C16.30733308 44.21479526 12.5937081 46.39176015 8.875 48.5625 C7.82828125 49.19091797 6.7815625 49.81933594 5.703125 50.46679688 C4.17558594 51.35141602 4.17558594 51.35141602 2.6171875 52.25390625 C1.68503418 52.80377197 0.75288086 53.3536377 -0.20751953 53.92016602 C-3.67399276 55.2606286 -5.44946447 55.00819847 -9 54 C-11.5012207 52.80078125 -11.5012207 52.80078125 -13.92578125 51.3125 C-14.80427734 50.77882812 -15.68277344 50.24515625 -16.58789062 49.6953125 C-17.48701172 49.13585937 -18.38613281 48.57640625 -19.3125 48 C-20.23095703 47.44054687 -21.14941406 46.88109375 -22.09570312 46.3046875 C-28.79526786 42.20473214 -28.79526786 42.20473214 -30 41 C-31.79331715 31.73762761 -32.92091013 21.0805234 -30 12 C-23.4223061 3.93363276 -10.2235978 -4.25503022 0 0 Z " fill="#0097AE" transform="translate(142,202)"/>
<path d="M0 0 C2.47949219 1.19921875 2.47949219 1.19921875 5.046875 2.6875 C5.97371094 3.22117187 6.90054688 3.75484375 7.85546875 4.3046875 C8.81066406 4.86414063 9.76585937 5.42359375 10.75 6 C12.20599609 6.83917969 12.20599609 6.83917969 13.69140625 7.6953125 C20.82693106 11.82693106 20.82693106 11.82693106 22 13 C25.49700809 36.87543291 25.49700809 36.87543291 20.43994141 44.28613281 C16.52500769 47.68530944 12.03180677 49.5584416 7.15576172 51.19580078 C4.96627395 52.01258138 3.166139 53.03661046 1.19140625 54.27734375 C-2 56 -2 56 -3.89013672 55.77563477 C-6.41344831 54.8480068 -8.6189246 53.65504543 -10.94921875 52.3125 C-11.87927734 51.77882812 -12.80933594 51.24515625 -13.76757812 50.6953125 C-14.73115234 50.13585937 -15.69472656 49.57640625 -16.6875 49 C-17.66267578 48.44054687 -18.63785156 47.88109375 -19.64257812 47.3046875 C-26.8458282 43.1541718 -26.8458282 43.1541718 -28 42 C-28.38624599 37.9613384 -28.48506824 33.91914893 -28.56982422 29.86401367 C-28.60638368 28.50468114 -28.66086051 27.14570361 -28.73388672 25.7878418 C-29.32840162 14.56192102 -29.32840162 14.56192102 -26.20703125 10.8918457 C-23.8736717 9.32443031 -21.5611076 8.15175436 -19 7 C-17.73378738 6.22738772 -16.47742453 5.43825908 -15.234375 4.62890625 C-14.07476121 3.93700335 -12.91333372 3.24812994 -11.75 2.5625 C-11.16476562 2.19962891 -10.57953125 1.83675781 -9.9765625 1.46289062 C-6.11898506 -0.79889525 -4.24630416 -1.23176144 0 0 Z " fill="#5A5A5A" transform="translate(347,82)"/>
<path d="M0 0 C0.84022705 0.48227051 1.6804541 0.96454102 2.54614258 1.46142578 C3.59697021 2.06970215 4.64779785 2.67797852 5.73046875 3.3046875 C9.09234375 5.2434375 12.45421875 7.1821875 15.91796875 9.1796875 C15.91796875 19.0796875 15.91796875 28.9796875 15.91796875 39.1796875 C10.41109375 42.428125 10.41109375 42.428125 4.79296875 45.7421875 C3.07376221 46.77388062 3.07376221 46.77388062 1.31982422 47.82641602 C0.40088379 48.35678467 -0.51805664 48.88715332 -1.46484375 49.43359375 C-2.39699707 49.98345947 -3.32915039 50.5333252 -4.28955078 51.09985352 C-7.76049739 52.44204593 -9.52547712 52.18683259 -13.08203125 51.1796875 C-15.69091797 49.96459961 -15.69091797 49.96459961 -18.26171875 48.45703125 C-19.18984375 47.91884766 -20.11796875 47.38066406 -21.07421875 46.82617188 C-22.02554687 46.26220703 -22.976875 45.69824219 -23.95703125 45.1171875 C-24.9315625 44.54935547 -25.90609375 43.98152344 -26.91015625 43.39648438 C-29.30573505 41.99906341 -31.69599387 40.59331769 -34.08203125 39.1796875 C-35.5586711 29.36381875 -37.05448203 18.82225013 -34.08203125 9.1796875 C-25.09387122 -1.99040191 -12.27478201 -7.07870864 0 0 Z " fill="#0097AE" transform="translate(353.08203125,562.8203125)"/>
<path d="M0 0 C3.19841044 0.43307109 6.39069387 0.89219037 9.58203125 1.375 C11.04511462 1.49157902 12.50870115 1.60196422 13.97265625 1.70703125 C25.19566723 2.74461446 25.19566723 2.74461446 28.6015625 6.75 C29.93229452 9.92685867 30.76370145 13.03035849 31.58203125 16.375 C32.03435574 17.63589579 32.50634524 18.88988194 32.99609375 20.13671875 C33.2394043 20.75957764 33.48271484 21.38243652 33.73339844 22.02416992 C34.09159668 22.94033081 34.09159668 22.94033081 34.45703125 23.875 C36.9592459 30.52759464 36.9592459 30.52759464 35.58203125 34.375 C34.33862305 36.12670898 34.33862305 36.12670898 32.78125 37.87109375 C32.21599609 38.51240234 31.65074219 39.15371094 31.06835938 39.81445312 C30.17793945 40.80348633 30.17793945 40.80348633 29.26953125 41.8125 C28.10595447 43.12297352 26.94317628 44.4341566 25.78125 45.74609375 C25.26393311 46.32286865 24.74661621 46.89964355 24.21362305 47.49389648 C22.26903376 49.73586274 20.42425032 52.04855191 18.58203125 54.375 C8.89661768 54.07464799 -1.58545141 53.70823143 -10.41796875 49.375 C-16.72136771 42.359707 -18.84570599 31.95081934 -19.64624023 22.75195312 C-19.36994404 19.8749267 -18.64241079 18.89906109 -16.71484375 16.78125 C-16.14636719 16.14316406 -15.57789062 15.50507813 -14.9921875 14.84765625 C-14.08919922 13.87119141 -14.08919922 13.87119141 -13.16796875 12.875 C-11.99538202 11.57355758 -10.82349155 10.27148744 -9.65234375 8.96875 C-9.08942627 8.35644531 -8.52650879 7.74414062 -7.9465332 7.11328125 C-6.24052513 5.23511769 -6.24052513 5.23511769 -4.3203125 2.40625 C-2.41796875 0.375 -2.41796875 0.375 0 0 Z " fill="#0097AE" transform="translate(100.41796875,279.625)"/>
<path d="M0 0 C1.09248047 0.185625 1.09248047 0.185625 2.20703125 0.375 C3.49867188 0.57802734 3.49867188 0.57802734 4.81640625 0.78515625 C5.8734375 0.97980469 6.93046875 1.17445313 8.01953125 1.375 C9.46184913 1.6053231 10.90459147 1.83299754 12.34765625 2.05859375 C13.88444823 2.30784735 15.42090779 2.55915899 16.95703125 2.8125 C17.70299561 2.93431641 18.44895996 3.05613281 19.2175293 3.18164062 C22.74123468 3.80179349 25.00248196 4.36363381 28.01953125 6.375 C32.38496266 14.50606362 38.58847804 26.9893954 35.91796875 36.15625 C33.50462386 38.97596568 30.93037686 41.08028996 28.01953125 43.375 C26.5076793 45.43473675 25.02763962 47.51824224 23.58203125 49.625 C19.80754704 54.16991924 19.80754704 54.16991924 16.828125 54.9453125 C14.10414053 54.71485696 11.66480334 54.07471713 9.01953125 53.375 C7.58572525 53.12518308 6.14919973 52.89070158 4.7109375 52.66796875 C-7.3945653 50.7656023 -7.3945653 50.7656023 -10.98046875 48.375 C-12.92338519 44.3894289 -14.30350026 40.17330018 -15.79296875 36 C-16.22544922 34.85015625 -16.65792969 33.7003125 -17.10351562 32.515625 C-17.50248047 31.40960937 -17.90144531 30.30359375 -18.3125 29.1640625 C-18.68093018 28.15037598 -19.04936035 27.13668945 -19.42895508 26.09228516 C-19.98046875 23.375 -19.98046875 23.375 -19.25219727 21.21801758 C-18.00950218 19.4170759 -16.7412598 17.74473433 -15.30078125 16.09765625 C-14.78386719 15.50146484 -14.26695312 14.90527344 -13.734375 14.29101562 C-12.92806641 13.37352539 -12.92806641 13.37352539 -12.10546875 12.4375 C-11.04481321 11.2207139 -9.98490299 10.00327765 -8.92578125 8.78515625 C-8.41797119 8.20781738 -7.91016113 7.63047852 -7.38696289 7.03564453 C-6.13777149 5.560727 -4.98989257 4.00132806 -3.859375 2.43359375 C-1.98046875 0.375 -1.98046875 0.375 0 0 Z " fill="#0097AE" transform="translate(181.98046875,503.625)"/>
<path d="M0 0 C4.08379252 0.64295158 8.16694875 1.28985905 12.25 1.9375 C13.98830078 2.21110352 13.98830078 2.21110352 15.76171875 2.49023438 C16.87675781 2.66748047 17.99179687 2.84472656 19.140625 3.02734375 C20.68024902 3.27085571 20.68024902 3.27085571 22.25097656 3.51928711 C23.1581543 3.67792236 24.06533203 3.83655762 25 4 C26.09828125 4.11758667 26.09828125 4.11758667 27.21875 4.23754883 C29 5 29 5 30.28027344 7.23730469 C30.63637695 8.20571289 30.99248047 9.17412109 31.359375 10.171875 C31.94912109 11.75742188 31.94912109 11.75742188 32.55078125 13.375 C32.94652344 14.48875 33.34226562 15.6025 33.75 16.75 C34.16121094 17.84828125 34.57242188 18.9465625 34.99609375 20.078125 C38.4332117 29.48737813 38.4332117 29.48737813 38 34 C36.3125 36.32421875 36.3125 36.32421875 34 38.6875 C30.61921276 42.18413976 27.84827676 45.66473433 25.125 49.6875 C21.81154281 53.82445829 21.81154281 53.82445829 18.65234375 54.5078125 C15.66298539 54.28237069 12.92075708 53.68336003 10 53 C8.53033544 52.74400919 7.0587998 52.49861927 5.5859375 52.26171875 C-6.36534111 50.31732945 -6.36534111 50.31732945 -9 49 C-10.8227397 45.00196053 -12.20835413 40.82316443 -13.6875 36.6875 C-14.11611328 35.53314453 -14.54472656 34.37878906 -14.98632812 33.18945312 C-15.38658203 32.07892578 -15.78683594 30.96839844 -16.19921875 29.82421875 C-16.75355591 28.29414185 -16.75355591 28.29414185 -17.3190918 26.7331543 C-18.02920805 23.88275936 -18.13402044 22.67018575 -17 20 C-15.7565918 18.24829102 -15.7565918 18.24829102 -14.19921875 16.50390625 C-13.63396484 15.86259766 -13.06871094 15.22128906 -12.48632812 14.56054688 C-11.89271484 13.90119141 -11.29910156 13.24183594 -10.6875 12.5625 C-9.52392322 11.25202648 -8.36114503 9.9408434 -7.19921875 8.62890625 C-6.37429932 7.70102295 -6.37429932 7.70102295 -5.53271484 6.75439453 C-3.61515292 4.5594917 -1.79284678 2.29749994 0 0 Z " fill="#0097AE" transform="translate(487,138)"/>
<path d="M0 0 C2.2109375 2.22265625 2.2109375 2.22265625 4.375 5.0625 C7.64549868 9.30975835 10.9954626 13.16680563 14.8828125 16.85546875 C16.66106377 20.26896507 15.73009616 23.38796533 15 27 C14.85449707 27.8360376 14.70899414 28.6720752 14.55908203 29.53344727 C13.24892199 36.15030085 11.56192441 42.86596067 7 48 C-0.95101778 52.24327464 -11.71889589 53.67107788 -20.65527344 52.71630859 C-23.39706124 51.8786987 -24.37068404 50.9809085 -26.19140625 48.796875 C-26.74376953 48.14589844 -27.29613281 47.49492188 -27.86523438 46.82421875 C-28.42533203 46.13972656 -28.98542969 45.45523438 -29.5625 44.75 C-30.40844727 43.74646484 -30.40844727 43.74646484 -31.27148438 42.72265625 C-32.36784086 41.41728677 -33.45371013 40.10302236 -34.52783203 38.77929688 C-35.78064481 37.26511784 -37.11531895 35.819282 -38.46484375 34.390625 C-40 32 -40 32 -39.92578125 29.3828125 C-39.46751953 27.70832031 -39.46751953 27.70832031 -39 26 C-38.73968994 24.77555176 -38.73968994 24.77555176 -38.47412109 23.52636719 C-36.96283908 16.7250017 -35.24149692 9.64103159 -31 4 C-25.6527359 0.67791459 -19.38444303 0.33831267 -13.22167969 0.10693359 C-10.80533735 0.03988716 -10.80533735 0.03988716 -7.6953125 -0.60546875 C-4.67781874 -1.04715987 -2.86929492 -1.05145172 0 0 Z " fill="#0097AE" transform="translate(509,505)"/>
<path d="M0 0 C2.52942044 2.12785186 4.44470793 4.54568906 6.5625 7.08203125 C8.96980858 10.03876542 8.96980858 10.03876542 11.6875 12.76171875 C17.92868327 19.43103197 17.92868327 19.43103197 18.10546875 23.3203125 C17.32012824 26.0299669 16.18062948 28.4357675 15 31 C14.51815623 32.43973418 14.05473501 33.88570726 13.60546875 35.3359375 C13.11208994 36.89066016 12.61859974 38.44534747 12.125 40 C11.89353271 40.75490723 11.66206543 41.50981445 11.42358398 42.28759766 C9.58939111 47.70224816 9.58939111 47.70224816 6.71655273 49.15356445 C2.19377466 50.5627917 -2.40616719 51.34723669 -7.0625 52.1875 C-8.05572266 52.37763672 -9.04894531 52.56777344 -10.07226562 52.76367188 C-11.02939453 52.93833984 -11.98652344 53.11300781 -12.97265625 53.29296875 C-13.84156494 53.4530542 -14.71047363 53.61313965 -15.60571289 53.77807617 C-18.08220525 54.00761951 -19.67862808 53.86774424 -22 53 C-24.42835601 50.48491699 -26.46433004 47.78020288 -28.578125 44.99609375 C-30.86907951 41.97188241 -30.86907951 41.97188241 -33.609375 39.78515625 C-36.47378015 37.19689474 -37.83029113 35.71235787 -39 32 C-38.07974964 24.65300937 -34.94804689 17.72939311 -32 11 C-31.56300781 9.83984375 -31.12601562 8.6796875 -30.67578125 7.484375 C-29 5 -29 5 -25.8515625 3.7265625 C-24.58054687 3.48679687 -23.30953125 3.24703125 -22 3 C-21.31389648 2.86045898 -20.62779297 2.72091797 -19.92089844 2.57714844 C-17.74377671 2.14251613 -15.5624869 1.75375215 -13.375 1.375 C-12.63765625 1.2409375 -11.9003125 1.106875 -11.140625 0.96875 C-2.95617642 -0.46866212 -2.95617642 -0.46866212 0 0 Z " fill="#5A5A5A" transform="translate(436,97)"/>
<path d="M0 0 C25.42584092 1.72766265 25.42584092 1.72766265 31.01220703 6.84228516 C33.78062392 11.18926344 34.78824358 15.86128913 35.58544922 20.90185547 C36.12529305 23.63413924 37.38558955 25.80534683 38.6875 28.25 C39.3515625 30.50390625 39.3515625 30.50390625 39 33 C36.27631735 37.65055784 32.43970259 41.48558956 28.64770508 45.27148438 C26.93612543 47.06700726 25.44778319 48.96378293 23.921875 50.91796875 C21.36615502 53.92009173 21.36615502 53.92009173 18.38671875 54.5703125 C16.44467773 54.24991789 14.50335225 53.92517507 12.5625 53.59765625 C9.81794603 53.13722121 7.44056228 52.92875268 4.6875 52.87109375 C0.1968601 52.64316974 -4.08083055 52.37518954 -8 50 C-11.64748828 45.42943729 -12.99233758 39.7101889 -14.39648438 34.13476562 C-15.14843 31.4749709 -16.39844511 29.15696384 -17.625 26.6875 C-18.28125 24.421875 -18.28125 24.421875 -18 22 C-15.30524444 17.79203555 -12.13997838 14.35712237 -8.65722656 10.80029297 C-5.52768794 7.40058498 -2.78274434 3.68468392 0 0 Z " fill="#0097AE" transform="translate(415,545)"/>
<path d="M0 0 C2.37109375 2.0546875 2.37109375 2.0546875 4.4375 4.875 C7.76479135 9.37461916 7.76479135 9.37461916 11.45703125 13.5703125 C16.97535304 19.41766541 16.97535304 19.41766541 17.0390625 23.5078125 C16.28302125 26.48750449 15.1909816 29.16483142 14 32 C13.53785787 33.39114557 13.08669753 34.78597065 12.64453125 36.18359375 C12.16100037 37.64394154 11.67532684 39.10358165 11.1875 40.5625 C10.85274658 41.61751709 10.85274658 41.61751709 10.51123047 42.69384766 C9.35283838 45.9154534 8.59986286 47.69021167 5.50390625 49.2890625 C4.34761719 49.52367187 3.19132812 49.75828125 2 50 C1.18233154 50.2271167 0.36466309 50.4542334 -0.4777832 50.68823242 C-18.09876625 55.54754371 -18.09876625 55.54754371 -24.44921875 52.16015625 C-27.03866874 49.26176089 -28.98941752 46.32148226 -31 43 C-32.54666691 41.23599101 -34.10831323 39.48495689 -35.6875 37.75 C-38.21068769 34.90835173 -39.00958555 33.75629969 -38.9609375 29.91796875 C-37.88691518 24.63277986 -35.83325638 19.59493101 -33.9375 14.5625 C-33.37192383 13.03592773 -33.37192383 13.03592773 -32.79492188 11.47851562 C-31.86946564 8.98329819 -30.93769349 6.49063881 -30 4 C-26.31425142 3.32340219 -22.62616051 2.66052239 -18.9375 2 C-17.89916016 1.80921875 -16.86082031 1.6184375 -15.79101562 1.421875 C-4.33579046 -0.61460947 -4.33579046 -0.61460947 0 0 Z " fill="#0097AE" transform="translate(120,363)"/>
<path d="M0 0 C1.87697957 0.4076565 3.75161168 0.82614589 5.625 1.25 C7.12342103 1.42670704 8.62367728 1.58821112 10.125 1.73828125 C11.75014238 1.92847487 13.37514217 2.11989063 15 2.3125 C15.78552246 2.3837207 16.57104492 2.45494141 17.38037109 2.52832031 C22.8453483 3.29777028 22.8453483 3.29777028 24.93530273 5.8503418 C26.01764401 7.94545451 26.84025685 10.0268015 27.625 12.25 C27.91375 12.96470459 28.2025 13.67940918 28.5 14.41577148 C29.36325869 16.57416234 30.1568053 18.74803291 30.9375 20.9375 C31.21400391 21.67033203 31.49050781 22.40316406 31.77539062 23.15820312 C34.27070932 30.12875335 34.27070932 30.12875335 32.625 34.25 C30.83984375 36.828125 30.83984375 36.828125 28.5625 39.5 C27.46228516 40.80710937 27.46228516 40.80710937 26.33984375 42.140625 C25.91848145 42.60621826 25.49711914 43.07181152 25.06298828 43.55151367 C23.5196664 45.31490356 23.5196664 45.31490356 21.97998047 47.66137695 C20.01524494 50.32427968 18.31954966 52.31840946 15.625 54.25 C11.15587184 54.82765004 7.232238 53.94945458 2.875 52.9375 C1.75222656 52.72287109 0.62945312 52.50824219 -0.52734375 52.28710938 C-10.36573725 50.33000959 -10.36573725 50.33000959 -13.375 48.25 C-14.67114258 45.88330078 -14.67114258 45.88330078 -15.76953125 42.9453125 C-16.16720703 41.88699219 -16.56488281 40.82867187 -16.97460938 39.73828125 C-17.37486328 38.62839844 -17.77511719 37.51851562 -18.1875 36.375 C-18.60708984 35.27285156 -19.02667969 34.17070312 -19.45898438 33.03515625 C-22.82831174 23.89856179 -22.82831174 23.89856179 -21.375 20.25 C-19.33678657 17.41790913 -17.10064461 14.81422152 -14.8359375 12.16015625 C-13.28098665 10.32136517 -11.77742446 8.43669738 -10.3515625 6.49609375 C-5.05232125 -0.41454944 -5.05232125 -0.41454944 0 0 Z " fill="#5A5A5A" transform="translate(256.375,96.75)"/>
<path d="M0 0 C18.87469798 2.0830668 18.87469798 2.0830668 23.26831055 6.71435547 C24.50791954 9.84308104 25.18794775 12.73643268 25.7409668 16.05029297 C26.33228309 17.54324443 26.95295603 19.02526921 27.6159668 20.48779297 C28.82012898 24.30097322 28.98922898 25.3590799 27.7409668 29.05029297 C26.10281326 31.41729224 24.22543447 33.53597444 22.3034668 35.67529297 C18.3107809 40.19400582 18.3107809 40.19400582 14.7409668 45.05029297 C12.26103706 44.76426426 9.7821744 44.47158808 7.3034668 44.17529297 C6.61575195 44.09666016 5.92803711 44.01802734 5.21948242 43.93701172 C3.7998846 43.76533942 2.38248234 43.57460907 0.96777344 43.36645508 C-0.5684717 43.14833892 -2.11281311 42.98300125 -3.65966797 42.86108398 C-6.14726249 42.54857211 -8.01555851 42.17859345 -10.2590332 41.05029297 C-12.36613744 38.17803073 -13.3107274 35.1281516 -14.3215332 31.73779297 C-14.61479492 30.8825 -14.90805664 30.02720703 -15.21020508 29.14599609 C-16.57200488 25.02870442 -17.7052856 21.42802462 -17.2590332 17.05029297 C-16.09741211 15.13745117 -16.09741211 15.13745117 -14.4855957 13.35107422 C-13.9080957 12.69945312 -13.3305957 12.04783203 -12.7355957 11.37646484 C-12.12458008 10.71195313 -11.51356445 10.04744141 -10.8840332 9.36279297 C-10.28075195 8.68667969 -9.6774707 8.01056641 -9.0559082 7.31396484 C-2.55706938 0.05692816 -2.55706938 0.05692816 0 0 Z " fill="#0096AD" transform="translate(449.259033203125,192.94970703125)"/>
<path d="M0 0 C0.928125 0.94649414 0.928125 0.94649414 1.875 1.91210938 C6.1156989 6.6234688 6.1156989 6.6234688 6.14086914 10.17944336 C5.64027389 12.52531126 4.94995138 14.68642521 4.125 16.9375 C3.75134241 18.22712449 3.38008996 19.5174493 3.01171875 20.80859375 C2.61597656 21.98550781 2.22023438 23.16242187 1.8125 24.375 C1.42449219 25.56996094 1.03648437 26.76492188 0.63671875 27.99609375 C-0.875 30.9375 -0.875 30.9375 -3.0078125 32.2421875 C-6.80237454 33.16239464 -10.59100365 33.95475214 -14.4375 34.625 C-15.19224609 34.76744141 -15.94699219 34.90988281 -16.72460938 35.05664062 C-23.34503954 36.22906923 -23.34503954 36.22906923 -26.875 34.9375 C-28.86252047 32.89517127 -30.65066969 30.89149852 -32.4375 28.6875 C-33.15969727 27.82705078 -33.15969727 27.82705078 -33.89648438 26.94921875 C-34.83331084 25.81781072 -35.75216448 24.67124496 -36.65112305 23.50952148 C-37.67091696 22.19963659 -38.76135017 20.94513539 -39.8671875 19.70703125 C-42.18861228 13.32761199 -38.69815713 5.91389916 -36.20703125 -0.06640625 C-33.93565131 -4.25630849 -32.09227515 -5.92746589 -27.57421875 -7.46484375 C-14.89662368 -10.31727634 -8.67313263 -9.58362382 0 0 Z " fill="#5A5A5A" transform="translate(301.875,497.0625)"/>
<path d="M0 0 C0.83144531 0.8971875 1.66289062 1.794375 2.51953125 2.71875 C3.27621094 3.6365625 4.03289062 4.554375 4.8125 5.5 C5.58207031 6.4178125 6.35164063 7.335625 7.14453125 8.28125 C9.07460873 11.10932142 9.61138247 12.64731333 10 16 C9.31510935 19.35406073 8.02455251 22.48989825 6.8125 25.6875 C6.50763672 26.55439453 6.20277344 27.42128906 5.88867188 28.31445312 C5.58123047 29.14267578 5.27378906 29.97089844 4.95703125 30.82421875 C4.53901245 31.95476685 4.53901245 31.95476685 4.11254883 33.1081543 C2.40169817 36.01738883 0.22707544 36.67136607 -2.93530273 37.51831055 C-5.10123985 37.91762626 -7.26740994 38.31130164 -9.4375 38.6875 C-10.18837891 38.82994141 -10.93925781 38.97238281 -11.71289062 39.11914062 C-19.3624536 40.47143804 -19.3624536 40.47143804 -23 39 C-25.31640625 36.671875 -25.31640625 36.671875 -27.5625 33.75 C-28.30628906 32.79609375 -29.05007813 31.8421875 -29.81640625 30.859375 C-30.53699219 29.91578125 -31.25757813 28.9721875 -32 28 C-32.77214844 27.20078125 -33.54429687 26.4015625 -34.33984375 25.578125 C-36 23 -36 23 -35.91796875 19.70703125 C-34.90293126 15.6080075 -33.74398228 11.65811538 -32.3125 7.6875 C-32.08111328 6.97271484 -31.84972656 6.25792969 -31.61132812 5.52148438 C-30.38137872 2.11423551 -29.61105945 0.31043604 -26.32421875 -1.359375 C-25.22722656 -1.57078125 -24.13023437 -1.7821875 -23 -2 C-22.34684814 -2.16395264 -21.69369629 -2.32790527 -21.02075195 -2.49682617 C-18.85662825 -3.03979359 -16.68644179 -3.49367922 -14.5 -3.9375 C-13.39978516 -4.20143555 -13.39978516 -4.20143555 -12.27734375 -4.47070312 C-6.6218435 -5.58865085 -3.87356864 -4.31878209 0 0 Z " fill="#0097AE" transform="translate(416,168)"/>
<path d="M0 0 C1.55706349 1.54883956 3.05325767 3.16014189 4.5 4.8125 C5.2528125 5.66457031 6.005625 6.51664062 6.78125 7.39453125 C7.5134375 8.25433594 8.245625 9.11414063 9 10 C9.7734375 10.78761719 10.546875 11.57523437 11.34375 12.38671875 C13 15 13 15 12.921875 18.29296875 C11.90041787 22.40043831 10.70738043 26.34150635 9.25 30.3125 C9.01023437 31.02728516 8.77046875 31.74207031 8.5234375 32.47851562 C7.40959593 35.5243556 6.62294078 37.60307203 3.8359375 39.37890625 C0.02528802 40.21346998 -3.77716264 40.98150501 -7.625 41.625 C-8.7696875 41.82609375 -8.7696875 41.82609375 -9.9375 42.03125 C-12.99370175 42.55670223 -15.89328164 43 -19 43 C-21.0859375 40.8046875 -21.0859375 40.8046875 -23.375 37.875 C-25.86090085 34.69857113 -28.31430498 31.63964713 -31.125 28.75 C-33 26 -33 26 -32.80859375 22.88671875 C-31.88231807 18.43433083 -30.51013158 14.3206463 -28.9375 10.0625 C-28.65583984 9.28326172 -28.37417969 8.50402344 -28.08398438 7.70117188 C-27.39532294 5.79859875 -26.69850097 3.89898275 -26 2 C-22.42072329 1.27002769 -18.83624927 0.5698358 -15.25 -0.125 C-14.23421875 -0.33253906 -13.2184375 -0.54007812 -12.171875 -0.75390625 C-11.1921875 -0.94082031 -10.2125 -1.12773437 -9.203125 -1.3203125 C-8.30239258 -1.49836426 -7.40166016 -1.67641602 -6.47363281 -1.85986328 C-3.6165949 -2.02172074 -2.37564113 -1.54634153 0 0 Z " fill="#5A5A5A" transform="translate(465,460)"/>
<path d="M0 0 C1.01707031 1.21623047 1.01707031 1.21623047 2.0546875 2.45703125 C2.84230469 3.34519531 3.62992188 4.23335937 4.44140625 5.1484375 C5.20066406 6.09589844 5.95992187 7.04335937 6.7421875 8.01953125 C7.50917969 8.96957031 8.27617187 9.91960937 9.06640625 10.8984375 C13.09006273 16.07622728 13.09006273 16.07622728 12.85546875 18.6015625 C11.76434737 22.49234167 10.54908202 26.32113514 9.2421875 30.14453125 C8.8699707 31.30178711 8.8699707 31.30178711 8.49023438 32.48242188 C6.59699388 37.99835155 6.59699388 37.99835155 4.3828125 39.87109375 C0.81204984 40.76977563 -2.75472004 41.51557927 -6.3828125 42.14453125 C-7.13369141 42.28697266 -7.88457031 42.42941406 -8.65820312 42.57617188 C-16.42893232 43.94988917 -16.42893232 43.94988917 -19.9453125 42.45703125 C-22.27065435 40.42011573 -24.22132205 38.14267418 -26.1953125 35.76953125 C-26.73671875 35.15658203 -27.278125 34.54363281 -27.8359375 33.91210938 C-30.9699446 30.21789851 -33.06224126 27.48496798 -32.9453125 22.45703125 C-32.04021492 18.90224382 -30.80612235 15.50996046 -29.5078125 12.08203125 C-29.16943359 11.15519531 -28.83105469 10.22835937 -28.48242188 9.2734375 C-27.64907552 6.99640662 -26.80316536 4.72491813 -25.9453125 2.45703125 C-22.22328 1.66817323 -18.49259148 0.93292711 -14.7578125 0.20703125 C-13.70271484 -0.01726562 -12.64761719 -0.2415625 -11.56054688 -0.47265625 C-3.73102867 -1.95458399 -3.73102867 -1.95458399 0 0 Z " fill="#0096AE" transform="translate(242.9453125,194.54296875)"/>
<path d="M0 0 C3.41770695 0.46291708 6.82927488 0.94481778 10.23828125 1.46875 C13.86023331 2.03641063 13.86023331 2.03641063 16.98046875 2.15625 C19.73799837 2.38986824 21.57209076 2.65680306 24 4 C26.45449844 7.76475002 27.70318462 11.72103426 29 16 C29.49306641 17.31291016 29.49306641 17.31291016 29.99609375 18.65234375 C32.35087058 24.94221431 32.35087058 24.94221431 31 29 C29.74072266 30.81518555 29.74072266 30.81518555 28.1640625 32.63671875 C27.59429687 33.29607422 27.02453125 33.95542969 26.4375 34.63476562 C25.5403125 35.65086914 25.5403125 35.65086914 24.625 36.6875 C24.03460938 37.37650391 23.44421875 38.06550781 22.8359375 38.77539062 C18.38653996 43.87115335 18.38653996 43.87115335 15 45 C7.70036272 45.15531143 -0.47787446 44.43578584 -7 41 C-11.52404759 35.78459966 -12.97636587 28.67725612 -14 22 C-14.15339844 21.113125 -14.30679688 20.22625 -14.46484375 19.3125 C-13.71372788 15.57585634 -11.18373637 13.17297214 -8.6875 10.4375 C-7.69057207 9.31193621 -6.69445711 8.18565176 -5.69921875 7.05859375 C-5.2304834 6.53378418 -4.76174805 6.00897461 -4.27880859 5.46826172 C-2.75216085 3.71544394 -1.35339531 1.88921052 0 0 Z " fill="#0097AE" transform="translate(224,458)"/>
<path d="M0 0 C0.92425781 0.1959375 1.84851563 0.391875 2.80078125 0.59375 C4.94645146 0.90736806 7.09228653 1.2198602 9.23828125 1.53125 C12.91805635 2.10216687 14.65023445 2.49338547 17.80078125 4.59375 C19.36737529 7.58528612 20.40944471 10.79367387 21.55078125 13.96875 C22.04384766 15.26425781 22.04384766 15.26425781 22.546875 16.5859375 C22.85238281 17.42125 23.15789062 18.2565625 23.47265625 19.1171875 C23.8917627 20.2606665 23.8917627 20.2606665 24.31933594 21.42724609 C24.8757195 23.93097211 24.71506997 25.21101218 23.80078125 27.59375 C22.03741352 29.86093708 20.26270862 32.01064526 18.36328125 34.15625 C14.37564391 38.71115351 14.37564391 38.71115351 10.80078125 43.59375 C2.82366103 44.24081679 -5.56403468 42.8945485 -13.19921875 40.59375 C-15.76191581 38.04893223 -16.32835492 36.06174619 -17.19921875 32.59375 C-17.73675781 31.44777344 -18.27429688 30.30179687 -18.828125 29.12109375 C-20.60929584 25.21713004 -21.74386249 21.89284881 -22.19921875 17.59375 C-20.05412536 12.99144646 -16.85862156 10.03921849 -13.19921875 6.59375 C-12.20514697 5.18750212 -11.22346108 3.77230294 -10.26171875 2.34375 C-7.14688317 -1.23191058 -4.44984591 -0.8102906 0 0 Z " fill="#5A5A5A" transform="translate(172.19921875,296.40625)"/>
<path d="M0 0 C3.41770695 0.46291708 6.82927488 0.94481778 10.23828125 1.46875 C13.86023331 2.03641063 13.86023331 2.03641063 16.98046875 2.15625 C19.74040635 2.39007225 21.57166611 2.65195153 24 4 C26.42532872 7.77273357 27.67897284 11.73741439 29 16 C29.61675245 17.48262451 30.24040687 18.96242353 30.875 20.4375 C32.08688544 24.27513724 32.2859775 25.29085829 31 29 C29.17792416 31.55827186 27.10831594 33.8630088 25 36.1875 C23.8942381 37.42957125 22.78999737 38.6729989 21.6875 39.91796875 C21.19636719 40.46219482 20.70523438 41.0064209 20.19921875 41.56713867 C18.90007788 43.00725507 18.90007788 43.00725507 18 45 C14.58449361 44.53738098 11.17385464 44.0569629 7.765625 43.54296875 C5.51264977 43.21811029 3.25212613 42.93509385 0.984375 42.73828125 C-1.60518168 42.43978445 -3.63791433 42.10664644 -6 41 C-8.14405922 38.25215399 -8.98997124 35.30333079 -10 32 C-10.38027344 31.05511719 -10.76054687 30.11023438 -11.15234375 29.13671875 C-14.65442507 20.42278576 -14.65442507 20.42278576 -13 16 C-11.17084313 13.44656112 -9.10854061 11.1372389 -7 8.8125 C-5.8942381 7.57042875 -4.78999737 6.3270011 -3.6875 5.08203125 C-3.19636719 4.53780518 -2.70523437 3.9935791 -2.19921875 3.43286133 C-0.90007788 1.99274493 -0.90007788 1.99274493 0 0 Z " fill="#0097AE" transform="translate(394,488)"/>
<path d="M0 0 C2.28125 2.1953125 2.28125 2.1953125 4.5 5.125 C6.94692074 8.32072759 9.33890923 11.40967359 12.125 14.3125 C14 17 14 17 13.80078125 19.65234375 C12.84349319 23.65427481 11.52871925 27.41040428 10.0625 31.25 C9.79759766 31.96929687 9.53269531 32.68859375 9.25976562 33.4296875 C7.25352444 38.74647556 7.25352444 38.74647556 5 41 C2.24058419 41.63454921 -0.46155226 42.16572626 -3.25 42.625 C-4.00152344 42.7590625 -4.75304687 42.893125 -5.52734375 43.03125 C-14.33494249 44.53761069 -14.33494249 44.53761069 -18 44 C-21.80614653 40.78337692 -24.79963344 36.80970788 -28 33 C-28.61359375 32.43410156 -29.2271875 31.86820312 -29.859375 31.28515625 C-31.3125 29.9375 -31.3125 29.9375 -33 27 C-32.75474528 24.38394968 -32.07220453 22.30521021 -31.09765625 19.86328125 C-29.88714226 16.96526855 -29.88714226 16.96526855 -29.37109375 13.60546875 C-28.43737737 9.58642867 -27.64030586 7.2013152 -25 4 C-17.68884109 0.6520893 -8.00400254 -0.55638796 0 0 Z " fill="#0097AE" transform="translate(183,356)"/>
<path d="M0 0 C20.90343248 0.81476794 20.90343248 0.81476794 25.80761719 5.859375 C28.3967187 10.2150894 29.7391048 14.94417724 30.62329102 19.91210938 C30.98490542 22.19763553 30.98490542 22.19763553 32.0234375 25.0859375 C31.98497551 29.86804433 28.8510099 32.39885216 25.6875 35.75 C25.07970703 36.42160156 24.47191406 37.09320313 23.84570312 37.78515625 C21.61223929 40.24270521 19.34822863 42.65177137 17 45 C13.83984375 44.828125 13.83984375 44.828125 9.9375 44.25 C8.66777344 44.06953125 7.39804687 43.8890625 6.08984375 43.703125 C5.43234131 43.58437012 4.77483887 43.46561523 4.09741211 43.34326172 C1.96944855 42.96018996 1.96944855 42.96018996 -0.32983398 42.84814453 C-2.89155009 42.56324414 -4.70791268 42.19334418 -7 41 C-9.43861921 37.72354718 -10.64998951 34.22507971 -11.9375 30.375 C-12.32873047 29.40175781 -12.71996094 28.42851562 -13.12304688 27.42578125 C-15.60847139 20.41754439 -15.60847139 20.41754439 -14.01953125 16.71582031 C-12.47531939 14.63608369 -10.82568568 12.83510299 -9 11 C-8.13649209 9.94718519 -7.28373696 8.88539765 -6.4453125 7.8125 C-5.29675781 6.4203125 -5.29675781 6.4203125 -4.125 5 C-3.34382813 4.05125 -2.56265625 3.1025 -1.7578125 2.125 C-1.17773438 1.42375 -0.59765625 0.7225 0 0 Z " fill="#5A5A5A" transform="translate(276,163)"/>
<path d="M0 0 C0.79921875 0.44794922 1.5984375 0.89589844 2.421875 1.35742188 C3.246875 1.82599609 4.071875 2.29457031 4.921875 2.77734375 C5.76234375 3.24978516 6.6028125 3.72222656 7.46875 4.20898438 C9.53886376 5.37342336 11.60642514 6.54215825 13.671875 7.71484375 C14.83780007 15.91408198 16.04638886 24.65760845 13.671875 32.71484375 C9.27115682 38.33798365 1.61242262 42.21517531 -5.328125 43.71484375 C-13.32360953 42.69378207 -22.22742092 39.12685942 -27.328125 32.71484375 C-30.4419707 24.86672435 -30.5392323 15.54056176 -27.328125 7.71484375 C-20.31147015 -0.65215171 -9.75906127 -5.50689886 0 0 Z " fill="#5A5A5A" transform="translate(201.328125,414.28515625)"/>
<path d="M0 0 C3.80577636 1.84777004 7.47306368 3.90014366 11.14453125 6 C11.88509766 6.42023438 12.62566406 6.84046875 13.38867188 7.2734375 C15.20472136 8.30448495 17.01859658 9.33936046 18.83203125 10.375 C19.0943675 14.41542673 19.25353616 18.45366481 19.39453125 22.5 C19.46994141 23.64210938 19.54535156 24.78421875 19.62304688 25.9609375 C19.84093279 34.2890213 19.84093279 34.2890213 16.9753418 37.37353516 C14.6598008 38.90148865 12.31352906 40.14015006 9.83203125 41.375 C8.90777344 42.14070312 7.98351562 42.90640625 7.03125 43.6953125 C3.80302455 46.01481508 1.81699838 46.91860928 -2.16796875 47.375 C-9.9259281 45.71486055 -17.29943146 41.70761225 -22.16796875 35.375 C-25.14419787 27.76922741 -24.92070371 19.03169228 -22.16796875 11.375 C-19.02484165 6.84065271 -14.19881784 5.19905055 -9.16796875 3.375 C-7.81412384 2.53208439 -6.47489397 1.66397443 -5.16796875 0.75 C-2.16796875 -0.625 -2.16796875 -0.625 0 0 Z " fill="#5A5A5A" transform="translate(345.16796875,497.625)"/>
<path d="M0 0 C0.67998047 0.41185547 1.35996094 0.82371094 2.06054688 1.24804688 C7.01797672 4.26797672 7.01797672 4.26797672 8.1875 5.4375 C9.68258485 13.15389677 10.55314849 21.85734724 8.1875 29.4375 C3.7322192 34.98744439 -3.89886745 38.89618853 -10.8125 40.4375 C-14.22743097 40.05952022 -16.80091807 39.10507651 -19.765625 37.40625 C-20.466875 37.00792969 -21.168125 36.60960937 -21.890625 36.19921875 C-22.96570313 35.57466797 -22.96570313 35.57466797 -24.0625 34.9375 C-25.16078125 34.31294922 -25.16078125 34.31294922 -26.28125 33.67578125 C-31.64143669 30.60856331 -31.64143669 30.60856331 -32.8125 29.4375 C-34.30825239 21.38683271 -35.18669118 12.35624853 -32.8125 4.4375 C-23.2790794 -7.88766333 -11.86156052 -7.32523689 0 0 Z " fill="#0097AE" transform="translate(206.8125,244.5625)"/>
<path d="M0 0 C0.70125 0.39832031 1.4025 0.79664063 2.125 1.20703125 C2.84171875 1.62339844 3.5584375 2.03976563 4.296875 2.46875 C5.0290625 2.88511719 5.76125 3.30148438 6.515625 3.73046875 C11.87581169 6.79768669 11.87581169 6.79768669 13.046875 7.96875 C14.54262739 16.01941729 15.42106618 25.05000147 13.046875 32.96875 C8.5966332 38.72218933 1.09802959 42.45795256 -5.953125 43.96875 C-11.06830398 43.18965907 -15.3997724 40.10243019 -19.765625 37.40625 C-20.44560547 36.99439453 -21.12558594 36.58253906 -21.82617188 36.15820312 C-26.78360172 33.13827328 -26.78360172 33.13827328 -27.953125 31.96875 C-29.44820985 24.25235323 -30.31877349 15.54890276 -27.953125 7.96875 C-21.28142378 -0.34218984 -9.63829392 -5.52290314 0 0 Z " fill="#0097AE" transform="translate(350.953125,155.03125)"/>
<path d="M0 0 C0.94875 0.46921875 1.8975 0.9384375 2.875 1.421875 C3.93460938 1.75960938 4.99421875 2.09734375 6.0859375 2.4453125 C9.84350447 4.05039666 12.11550595 5.37573583 14.875 8.421875 C17.1909809 14.74789386 17.29907727 22.12089285 14.875 28.421875 C11.2426417 33.04024782 5.54601762 36.06062396 -0.125 37.421875 C-6.54946858 37.15965179 -13.14876429 34.46812792 -17.94580078 30.13818359 C-21.89077386 24.39632837 -19.91458124 14.96278471 -19.125 8.421875 C-16.59639529 6.85426021 -14.05590889 5.31878222 -11.5 3.796875 C-10.78714844 3.35085938 -10.07429687 2.90484375 -9.33984375 2.4453125 C-3.93525738 -0.72802262 -3.93525738 -0.72802262 0 0 Z " fill="#0097AE" transform="translate(240.125,390.578125)"/>
<path d="M0 0 C1.90331099 1.0281334 3.75965502 2.10982255 5.61791992 3.2175293 C7.82479492 4.5169043 10.03166992 5.8162793 12.30541992 7.1550293 C12.30541992 13.7550293 12.30541992 20.3550293 12.30541992 27.1550293 C8.46916992 29.4134668 8.46916992 29.4134668 4.55541992 31.7175293 C3.75652344 32.19649658 2.95762695 32.67546387 2.13452148 33.16894531 C1.49482422 33.53689209 0.85512695 33.90483887 0.19604492 34.28393555 C-0.45332031 34.66622314 -1.10268555 35.04851074 -1.77172852 35.44238281 C-4.20440182 36.34397923 -5.28648249 36.04912494 -7.69458008 35.1550293 C-10.14853711 33.84199573 -12.54836139 32.50249944 -14.94458008 31.0925293 C-15.91911133 30.52695312 -15.91911133 30.52695312 -16.91333008 29.94995117 C-18.50963099 29.02268814 -20.10245536 28.08944474 -21.69458008 27.1550293 C-22.61801923 20.58677234 -23.55304662 13.61616617 -21.69458008 7.1550293 C-16.84054945 0.71364549 -7.49390402 -3.73669526 0 0 Z " fill="#5A5A5A" transform="translate(242.694580078125,269.844970703125)"/>
<path d="M0 0 C4.28246129 3.69696854 8.39063552 7.92037857 11 13 C11.21274504 16.9693745 9.82904177 19.54704264 8 23 C7.40923511 24.69876599 6.84500184 26.40707951 6.3125 28.125 C5.87655299 29.41719164 5.43966502 30.70906867 5 32 C2.43944242 32.53257191 -0.12266329 33.05131844 -2.6875 33.5625 C-3.7693457 33.78969727 -3.7693457 33.78969727 -4.87304688 34.02148438 C-12.34916069 35.48939713 -12.34916069 35.48939713 -16 34 C-20.28246129 30.30303146 -24.39063552 26.07962143 -27 21 C-27.21274504 17.0306255 -25.82904177 14.45295736 -24 11 C-23.40923511 9.30123401 -22.84500184 7.59292049 -22.3125 5.875 C-21.87655299 4.58280836 -21.43966502 3.29093133 -21 2 C-18.43944242 1.46742809 -15.87733671 0.94868156 -13.3125 0.4375 C-12.2306543 0.21030273 -12.2306543 0.21030273 -11.12695312 -0.02148438 C-3.65083931 -1.48939713 -3.65083931 -1.48939713 0 0 Z " fill="#0097AD" transform="translate(310,446)"/>
<path d="M0 0 C4.32393406 0.62841175 6.24285412 3.26349475 8.8671875 6.48828125 C9.62612305 7.33036133 9.62612305 7.33036133 10.40039062 8.18945312 C13.03767409 11.3376428 13.94802157 12.70915844 13.83984375 16.9375 C13.53949219 18.08863281 13.23914063 19.23976563 12.9296875 20.42578125 C12.73375 21.555 12.5378125 22.68421875 12.3359375 23.84765625 C11.29625837 27.66578823 10.35840017 30.27536926 7.9296875 33.42578125 C1.87211489 36.30129213 -5.48629297 36.42578125 -12.0703125 36.42578125 C-14.26171875 34.08984375 -14.26171875 34.08984375 -16.6328125 31.05078125 C-19.70222455 27.10548047 -19.70222455 27.10548047 -23.0703125 23.42578125 C-23.01627398 20.50770114 -22.71444518 18.2449647 -22.0703125 15.42578125 C-21.84085937 14.40613281 -21.61140625 13.38648438 -21.375 12.3359375 C-20.30070588 8.84659636 -19.29674188 6.33153456 -17.0703125 3.42578125 C-11.49882706 0.95629435 -5.94341579 0.82421415 0 0 Z " fill="#5A5A5A" transform="translate(427.0703125,423.57421875)"/>
<path d="M0 0 C1.77925034 0.46916832 3.55091038 0.96834908 5.3125 1.5 C6.53839844 1.50193359 6.53839844 1.50193359 7.7890625 1.50390625 C10.67717407 1.57635052 11.9486522 1.79455468 14.3125 3.5 C17.25092338 8.27183608 20.86580994 15.96215712 19.98901367 21.56835938 C18.9356865 24.57591064 17.01464918 26.67840476 15 29.125 C14.22011719 30.08664062 13.44023437 31.04828125 12.63671875 32.0390625 C9.18156019 35.69746568 9.18156019 35.69746568 6.3125 36.5 C0.57896498 36.44306321 -5.43375454 35.97844602 -10.6875 33.5 C-13.72291758 29.79371115 -14.68885447 26.12649341 -15.6875 21.5 C-16.15671875 20.37078125 -16.6259375 19.2415625 -17.109375 18.078125 C-17.73286041 14.21925586 -17.66748414 13.78251747 -15.64453125 10.71875 C-14.63175385 9.45007984 -13.58138742 8.21072015 -12.5 7 C-11.94916748 6.37287109 -11.39833496 5.74574219 -10.83081055 5.09960938 C-7.4350293 1.54198539 -5.16652663 -0.46968424 0 0 Z " fill="#0096AE" transform="translate(263.6875,423.5)"/>
<path d="M0 0 C2.32421875 2.46875 2.32421875 2.46875 4.6875 5.5 C5.47511719 6.5003125 6.26273437 7.500625 7.07421875 8.53125 C7.70972656 9.3459375 8.34523438 10.160625 9 11 C9.495 11.495 9.495 11.495 10 12 C9.73569976 19.00395631 8.32325211 26.35764537 4 32 C-0.58577025 34.03258174 -5.01980734 34.66387901 -10 35 C-11.01320313 35.14050781 -12.02640625 35.28101563 -13.0703125 35.42578125 C-17.39424656 34.7973695 -19.31316662 32.1622865 -21.9375 28.9375 C-22.44345703 28.37611328 -22.94941406 27.81472656 -23.47070312 27.23632812 C-26.10798659 24.08813845 -27.01833407 22.71662281 -26.91015625 18.48828125 C-26.45962891 16.76158203 -26.45962891 16.76158203 -26 15 C-25.70609375 13.30617187 -25.70609375 13.30617187 -25.40625 11.578125 C-24.36733311 7.76279227 -23.4218301 5.15140102 -21 2 C-15.08959979 -0.88212549 -6.23383177 -2.16821964 0 0 Z " fill="#0097AE" transform="translate(394,216)"/>
<path d="M0 0 C2.5636947 0.28318132 5.12561526 0.57622493 7.6875 0.875 C8.40873047 0.95363281 9.12996094 1.03226562 9.87304688 1.11328125 C17.9293875 2.06974178 17.9293875 2.06974178 21 4 C22.58203125 7.08203125 22.58203125 7.08203125 23.8125 10.8125 C24.23144531 12.03582031 24.65039062 13.25914062 25.08203125 14.51953125 C26.4353986 19.65080916 26.73493355 21.64379847 24.15625 26.40234375 C17.71615392 35.44577635 17.71615392 35.44577635 12.97314453 36.41357422 C8.13738004 36.45912128 3.62697766 35.31020326 -1 34 C-1.69641602 33.8851123 -2.39283203 33.77022461 -3.11035156 33.65185547 C-5 33 -5 33 -6.73828125 29.578125 C-7.27964839 28.14157337 -7.80376472 26.69842928 -8.3125 25.25 C-8.58900391 24.53328125 -8.86550781 23.8165625 -9.15039062 23.078125 C-10.6015235 19.10121676 -11.68089149 16.08809412 -10 12 C-7.96875 9.39453125 -7.96875 9.39453125 -5.5 6.8125 C-2.38154906 3.6654128 -2.38154906 3.6654128 0 0 Z " fill="#0097AE" transform="translate(378,445)"/>
<path d="M0 0 C3.63689591 0.52395958 6.93949426 1.28721973 10.4375 2.40625 C12.02304687 2.71755859 12.02304687 2.71755859 13.640625 3.03515625 C17.21376357 4.78679261 17.83294348 6.40027505 19.1953125 10.02539062 C19.44023437 10.74919922 19.68515625 11.47300781 19.9375 12.21875 C20.21335937 12.93095703 20.48921875 13.64316406 20.7734375 14.37695312 C21.92721054 17.59145997 22.59559288 19.66811979 21.87109375 23.05078125 C18.72954665 28.21250578 15.23009327 32.68378372 10.4375 36.40625 C6.43521675 37.20782774 3.3400064 36.39328744 -0.5625 35.40625 C-1.38234375 35.42042969 -2.2021875 35.43460938 -3.046875 35.44921875 C-5.98312741 35.39502617 -7.19147779 35.19138256 -9.5625 33.40625 C-12.54737775 28.34392068 -14.72376466 22.2256424 -15.5625 16.40625 C-14.97265625 14.265625 -14.97265625 14.265625 -13.5625 12.40625 C-12.93859375 11.38789063 -12.3146875 10.36953125 -11.671875 9.3203125 C-5.68336639 0.64810318 -5.68336639 0.64810318 0 0 Z " fill="#0097AE" transform="translate(298.5625,214.59375)"/>
<path d="M0 0 C2.35683138 0.35901553 4.7073053 0.72746492 7.0546875 1.14453125 C7.87453125 1.25925781 8.694375 1.37398437 9.5390625 1.4921875 C15.50912492 2.49695291 15.50912492 2.49695291 17.9765625 5.42578125 C18.51023437 6.7715625 18.51023437 6.7715625 19.0546875 8.14453125 C19.45171875 9.04171875 19.84875 9.93890625 20.2578125 10.86328125 C20.60328125 11.78109375 20.94875 12.69890625 21.3046875 13.64453125 C21.83835937 15.02125 21.83835937 15.02125 22.3828125 16.42578125 C23.50407005 20.96296295 22.55244449 23.2872831 20.2265625 27.29296875 C14.1656002 35.7457756 14.1656002 35.7457756 8.74609375 36.76953125 C5.38801828 36.52107249 2.32190822 35.9431852 -0.9453125 35.14453125 C-1.67363281 35.09941406 -2.40195312 35.05429687 -3.15234375 35.0078125 C-4.9453125 34.83203125 -4.9453125 34.83203125 -7.9453125 33.14453125 C-11.33308022 27.34453101 -13.74759414 20.88976902 -13.9453125 14.14453125 C-12.1796875 11.16015625 -12.1796875 11.16015625 -9.6953125 8.39453125 C-8.88578125 7.4715625 -8.07625 6.54859375 -7.2421875 5.59765625 C-6.48421875 4.788125 -5.72625 3.97859375 -4.9453125 3.14453125 C-4.25937012 2.32033691 -4.25937012 2.32033691 -3.55957031 1.47949219 C-1.9453125 0.14453125 -1.9453125 0.14453125 0 0 Z " fill="#0096AE" transform="translate(417.9453125,235.85546875)"/>
<path d="M0 0 C0.73734375 0.93457031 1.4746875 1.86914062 2.234375 2.83203125 C2.99621094 3.5384375 3.75804687 4.24484375 4.54296875 4.97265625 C10.10964705 10.48826411 10.10964705 10.48826411 10.44140625 14.0625 C9.9444635 16.46226628 9.14863261 18.55966483 8.234375 20.83203125 C8.03714844 21.71761719 7.83992188 22.60320312 7.63671875 23.515625 C6.85199754 26.4701218 6.12766823 28.42076158 4.234375 30.83203125 C-0.00522113 32.72389404 -4.16085465 33.41776125 -8.765625 33.83203125 C-9.94898438 33.95835937 -11.13234375 34.0846875 -12.3515625 34.21484375 C-16.92793379 33.70170372 -18.15293985 32.05767893 -21.078125 28.58203125 C-21.91988281 27.6075 -22.76164063 26.63296875 -23.62890625 25.62890625 C-24.33402344 24.7059375 -25.03914062 23.78296875 -25.765625 22.83203125 C-26.49072266 21.91550781 -26.49072266 21.91550781 -27.23046875 20.98046875 C-28.14935126 17.29152438 -26.39778505 14.09574821 -25.015625 10.70703125 C-24.59796875 9.61455078 -24.59796875 9.61455078 -24.171875 8.5 C-22.07009878 3.13650503 -22.07009878 3.13650503 -19.765625 0.83203125 C-16.9785746 0.06610204 -14.28248251 -0.55945239 -11.453125 -1.10546875 C-10.69322266 -1.28142578 -9.93332031 -1.45738281 -9.15039062 -1.63867188 C-3.47944686 -2.72753249 -3.47944686 -2.72753249 0 0 Z " fill="#0097AE" transform="translate(273.765625,238.16796875)"/>
<path d="M0 0 C1.79880627 0.45162611 3.59112712 0.93008727 5.375 1.4375 C6.19355469 1.4375 7.01210937 1.4375 7.85546875 1.4375 C10.73715735 1.51473119 12.01440152 1.73896492 14.375 3.4375 C17.70356335 8.78833508 20.47071549 15.77904137 20.3046875 22.125 C19.04778367 25.25141626 17.19730858 27.19612979 14.875 29.625 C11.75654906 32.7720872 11.75654906 32.7720872 9.375 36.4375 C7.27571547 36.231013 5.17707842 36.01143468 3.0859375 35.734375 C0.35966271 35.38354197 0.35966271 35.38354197 -2.4609375 35.453125 C-5.72884793 35.29196777 -7.73961432 35.01822827 -10.625 33.4375 C-14.05679786 27.87402771 -17.83230038 20.07765212 -16.625 13.4375 C-12.87626858 7.18719732 -8.1035536 -0.74502261 0 0 Z " fill="#0097AE" transform="translate(221.625,308.5625)"/>
<path d="M0 0 C1.3046875 1.4296875 1.3046875 1.4296875 2.6875 3.1875 C3.32945312 3.89132812 3.97140625 4.59515625 4.6328125 5.3203125 C9.74715534 11.23690519 9.74715534 11.23690519 9.5078125 15.05078125 C8.03487117 20.68302833 6.52994516 26.07109871 3.6875 31.1875 C0.30068204 32.85120005 -0.77748026 33.02947759 -4.3125 33.1875 C-5.23546875 33.43886719 -6.1584375 33.69023437 -7.109375 33.94921875 C-10.58127769 34.72724876 -12.82055083 34.95136388 -16.3125 34.1875 C-18.78117551 32.48325549 -20.68120717 30.46088836 -22.625 28.1875 C-23.35456909 27.34143188 -23.35456909 27.34143188 -24.09887695 26.47827148 C-26.54949351 23.28638287 -27.32419857 21.77697819 -27.2421875 17.64453125 C-26.34275915 14.30001825 -25.39092231 11.09920989 -24.125 7.875 C-23.73957031 6.84761719 -23.35414063 5.82023437 -22.95703125 4.76171875 C-20.79365514 1.37534143 -19.17236028 1.07352409 -15.3125 0.1875 C-14.3225 -0.07933594 -13.3325 -0.34617187 -12.3125 -0.62109375 C-4.23124696 -2.3152106 -4.23124696 -2.3152106 0 0 Z " fill="#0097AE" transform="translate(232.3125,352.8125)"/>
<path d="M0 0 C1.04671875 0.6290625 2.0934375 1.258125 3.171875 1.90625 C4.22890625 2.5353125 5.2859375 3.164375 6.375 3.8125 C8.921875 5.40625 8.921875 5.40625 9.921875 6.40625 C11.17134604 12.82714287 11.78133466 20.08097509 9.921875 26.40625 C6.48930872 31.02916127 0.55192717 34.30895386 -5.078125 35.40625 C-8.171875 34.75 -8.171875 34.75 -11.078125 33.40625 C-12.13773437 33.06851563 -13.19734375 32.73078125 -14.2890625 32.3828125 C-18.04662947 30.77772834 -20.31863095 29.45238917 -23.078125 26.40625 C-25.3922843 20.08520677 -25.51157393 12.70007056 -23.078125 6.40625 C-17.29336401 -0.86674734 -8.35022956 -4.32346911 0 0 Z " fill="#0097AE" transform="translate(350.078125,209.59375)"/>
<path d="M0 0 C0.78375 0.46792969 1.5675 0.93585938 2.375 1.41796875 C3.40238281 1.74410156 4.42976563 2.07023437 5.48828125 2.40625 C9.36793632 4.01211455 11.60412161 5.21779935 14.375 8.41796875 C15.93970525 15.24450227 15.09866742 22.51436709 14.375 29.41796875 C12.17769616 30.79354116 9.97010062 32.14260127 7.75 33.48046875 C7.13253906 33.87041016 6.51507813 34.26035156 5.87890625 34.66210938 C2.79081776 36.49870937 1.00165945 37.43411977 -2.65625 37.33984375 C-15.16360649 33.45598042 -15.16360649 33.45598042 -18.625 28.41796875 C-20.26187853 21.92605696 -19.41887912 14.99448219 -18.625 8.41796875 C-16.07421084 6.85332487 -13.51246037 5.31687915 -10.9375 3.79296875 C-10.21626953 3.34695313 -9.49503906 2.9009375 -8.75195312 2.44140625 C-3.31665466 -0.7353892 -3.31665466 -0.7353892 0 0 Z " fill="#0097AE" transform="translate(345.625,451.58203125)"/>
</svg>
