<?xml version="1.0" encoding="UTF-8"?>
<svg version="1.1" xmlns="http://www.w3.org/2000/svg" width="512" height="512">
<path d="M0 0 C6.45965548 3.98485241 11.2736869 9.6623777 13.47167969 16.94726562 C14.53024774 21.43586078 14.66427381 25.74835074 14.640625 30.34375 C14.64253845 31.17910278 14.6444519 32.01445557 14.64642334 32.87512207 C14.64777581 34.62980452 14.64414544 36.3844973 14.63574219 38.13916016 C14.62502915 40.80524446 14.63566947 43.47065508 14.6484375 46.13671875 C14.64711574 47.85156397 14.644553 49.56640877 14.640625 51.28125 C14.64467346 52.06794067 14.64872192 52.85463135 14.65289307 53.66516113 C14.57721952 62.72035907 12.52930787 70.4356738 6.375 77.3125 C4.78258038 78.34380602 3.15599068 79.32420994 1.5 80.25 C-0.85167801 81.56440084 -0.85167801 81.56440084 -2.625 83.3125 C-3.20445017 85.92676356 -3.06712617 88.07262237 -2.83203125 90.734375 C-2.18755473 98.75993163 -5.53752949 105.30321717 -10.625 111.3125 C-16.73884127 117.07577698 -23.55734508 118.5859986 -31.87890625 118.41015625 C-33.24153181 118.40609488 -34.60416527 118.40420673 -35.96679688 118.40429688 C-38.08344349 118.39618146 -40.19636428 118.37475453 -42.31225586 118.31616211 C-50.64809256 117.8135479 -50.64809256 117.8135479 -57.80004883 121.27514648 C-59.40305954 123.62601243 -59.40305954 123.62601243 -60.50732422 126.08984375 C-63.09176649 131.22937245 -68.49340826 133.35635477 -73.625 135.3125 C-73.1196875 136.29992187 -72.614375 137.28734375 -72.09375 138.3046875 C-71.43728987 139.59885176 -70.78105133 140.89312845 -70.125 142.1875 C-69.79113281 142.83847656 -69.45726562 143.48945313 -69.11328125 144.16015625 C-66.625 149.0859375 -66.625 149.0859375 -66.625 151.3125 C-65.67246338 151.27322388 -65.67246338 151.27322388 -64.70068359 151.2331543 C-61.80071122 151.12869605 -58.9011353 151.06402253 -56 151 C-54.50146484 150.9371582 -54.50146484 150.9371582 -52.97265625 150.87304688 C-51.99941406 150.85693359 -51.02617187 150.84082031 -50.0234375 150.82421875 C-49.13317871 150.79803467 -48.24291992 150.77185059 -47.32568359 150.74487305 C-43.49678981 151.54962608 -41.09624129 153.38325743 -38.625 156.3125 C-37.01755109 159.14910443 -35.9017998 162.09534683 -34.79296875 165.15625 C-34.30984978 166.42631897 -34.30984978 166.42631897 -33.81697083 167.7220459 C-32.79864162 170.41287399 -31.80583021 173.11235805 -30.8125 175.8125 C-30.12720433 177.62688952 -29.44037009 179.44069871 -28.75195312 181.25390625 C-22.43912682 198.01909492 -22.43912682 198.01909492 -22.90234375 207.33203125 C-23.05945293 215.28444782 -20.80442142 221.01429479 -17.1875 228 C-16.3015275 229.80663073 -15.41562852 231.61329895 -14.53219604 233.4211731 C-13.58005516 235.36006065 -12.6153267 237.29230669 -11.64892578 239.22412109 C-8.39199647 245.76510265 -5.31419989 252.39200773 -2.209198 259.00601196 C-0.76404641 262.08038108 0.68868205 265.15114301 2.14134216 268.2219696 C10.09031803 285.02898364 17.94465848 301.88083802 25.625 318.8125 C25.99625 319.62589844 26.3675 320.43929688 26.75 321.27734375 C27.08515625 322.02113281 27.4203125 322.76492188 27.765625 323.53125 C28.05469727 324.16998047 28.34376953 324.80871094 28.64160156 325.46679688 C29.97024911 328.81053038 30.42559749 330.93117895 29.9453125 334.55078125 C28.02778273 349.55407934 35.60360269 361.53736934 42.30599976 374.3682251 C45.66922331 380.81509216 48.7311176 387.38535728 51.75 394 C55.9729214 403.16551731 60.25222167 412.30158016 64.57885742 421.41845703 C67.10936144 426.75247908 69.61806941 432.09670623 72.12702942 437.44088745 C74.28624126 442.03045361 76.47992313 446.60155294 78.70074463 451.16160583 C80.1283416 454.10569052 81.53207427 457.06076557 82.93121338 460.01846313 C83.58941708 461.39633136 84.25763038 462.76947378 84.93695068 464.13705444 C89.89263957 474.12976259 92.68087387 483.73448392 89.69384766 494.84643555 C87.18278961 501.16622882 80.97275287 506.46549309 75.0390625 509.51171875 C66.63803074 512.03695557 57.35604733 511.15838526 49.62109375 507.1875 C42.37052686 501.13485285 38.74261801 492.43678352 34.8125 484.0625 C34.19765758 482.76931001 33.58216584 481.47642856 32.96606445 480.18383789 C28.40504392 470.59148108 23.93109472 460.95763897 19.47558594 451.31591797 C16.45542241 444.78126733 13.41554199 438.25665338 10.34375 431.74609375 C9.82154373 430.63915665 9.82154373 430.63915665 9.28878784 429.50985718 C7.49836735 425.71811632 5.70242088 421.92909467 3.89892578 418.14355469 C0.57640865 411.15964442 -2.7126773 404.1680265 -5.85096741 397.09899902 C-7.24040633 393.97275646 -8.64975388 390.85566354 -10.06015015 387.73883057 C-10.71875729 386.26777751 -11.36739093 384.79221079 -12.0050354 383.31195068 C-15.49586498 375.2148634 -18.48525103 369.5221379 -26.29345703 364.81274414 C-34.32578502 359.64429854 -37.76202865 349.38761559 -41.6875 341.0625 C-42.34909017 339.67590143 -43.01129179 338.28959446 -43.67407227 336.90356445 C-48.93266221 325.88048947 -54.07674679 314.80349257 -59.1953125 303.71484375 C-63.23352695 294.97741909 -67.33511984 286.2699388 -71.4375 277.5625 C-71.97901199 276.41290298 -71.97901199 276.41290298 -72.53146362 275.24008179 C-74.56164959 270.93041937 -76.59285115 266.62123718 -78.625 262.3125 C-78.66463867 262.86599121 -78.70427734 263.41948242 -78.74511719 263.98974609 C-80.41374861 286.13829299 -80.41374861 286.13829299 -86.17054749 294.57846069 C-87.82284132 297.68439659 -87.99730441 299.53568403 -87.99389648 303.02978516 C-88.00077988 304.15510651 -88.00766327 305.28042786 -88.01475525 306.43984985 C-88.00859695 307.64821503 -88.00243866 308.8565802 -87.99609375 310.1015625 C-88.01348445 312.67838669 -88.03106874 315.25520958 -88.04882812 317.83203125 C-88.06187002 321.88037311 -88.06250777 325.92869258 -88.06079102 329.97705078 C-88.06438087 333.89381785 -88.0918071 337.80991546 -88.12109375 341.7265625 C-88.11291122 342.92278229 -88.1047287 344.11900208 -88.09629822 345.35147095 C-88.16677115 353.38665866 -88.92532744 361.82182043 -94.23570251 368.26757812 C-96.05758882 370.94923212 -96.00308226 372.70724119 -96.00976562 375.93212891 C-96.01987671 377.06075348 -96.02998779 378.18937805 -96.04040527 379.35220337 C-96.03738403 380.56886688 -96.03436279 381.7855304 -96.03125 383.0390625 C-96.04208618 384.29705658 -96.05292236 385.55505066 -96.06408691 386.85116577 C-96.09839746 390.88000318 -96.11454674 394.90855031 -96.125 398.9375 C-96.13878878 404.22161402 -96.17344143 409.50509758 -96.21875 414.7890625 C-96.21572876 415.99358063 -96.21270752 417.19809875 -96.20959473 418.43911743 C-96.29882373 428.56598735 -97.48719999 437.11451162 -104.66015625 444.62109375 C-111.07136051 450.1400827 -118.28323322 451.86861779 -126.625 451.3125 C-134.42358564 449.5564355 -140.83014178 446.2875355 -145.4375 439.625 C-150.11570793 431.18188316 -149.89717452 421.78092838 -149.86328125 412.3671875 C-149.87869004 409.88410905 -149.89499285 407.40103602 -149.91210938 404.91796875 C-149.92859053 401.04268341 -149.93746419 397.16779819 -149.93041992 393.29248047 C-149.92779817 389.52526431 -149.95591682 385.75924363 -149.98828125 381.9921875 C-149.97807449 380.83991669 -149.96786774 379.68764587 -149.95735168 378.50045776 C-150.03417324 372.16096385 -150.68861663 368.22858556 -154.40208435 363.0622406 C-158.80675698 356.76006061 -157.8726637 348.68258729 -157.828125 341.36328125 C-157.83867581 338.79752097 -157.85043264 336.23176542 -157.86328125 333.66601562 C-157.87589746 329.64838231 -157.87715549 325.63112379 -157.85498047 321.61352539 C-157.84012762 317.71704822 -157.86277083 313.82215719 -157.890625 309.92578125 C-157.86757294 308.14860466 -157.86757294 308.14860466 -157.84405518 306.33552551 C-157.93113485 298.77989206 -159.3982831 293.61258594 -163.21014404 287.06925964 C-165.60726385 282.39861942 -166.06425822 277.47402676 -166.625 272.3125 C-166.79621232 270.91671946 -166.96974148 269.52122168 -167.14526367 268.12597656 C-167.30357666 266.8675293 -167.46188965 265.60908203 -167.625 264.3125 C-170.35613055 270.06156901 -173.08516349 275.81163012 -175.8125 281.5625 C-176.22204926 282.4260611 -176.63159851 283.28962219 -177.05355835 284.17935181 C-182.22966919 295.09775214 -187.36904806 306.03121149 -192.4375 317 C-193.97457426 320.31188784 -195.51361662 323.62284819 -197.05419922 326.93310547 C-198.14738108 329.28495864 -199.23762471 331.63801184 -200.32470703 333.99267578 C-202.0335986 337.69032396 -203.76615577 341.37648672 -205.5 345.0625 C-206.01151611 346.17584717 -206.52303223 347.28919434 -207.05004883 348.4362793 C-210.79831112 356.34089798 -214.65348972 363.38298709 -222.64453125 367.49609375 C-228.58964056 370.94989192 -230.62331364 377.34622888 -233.3125 383.375 C-233.91671513 384.68255434 -234.52312185 385.98909794 -235.1315918 387.29467773 C-236.38024001 389.98371876 -237.61545014 392.67829344 -238.83886719 395.37890625 C-240.47622101 398.99268084 -242.14294379 402.59209208 -243.8203125 406.1875 C-245.93757064 410.72628296 -248.04465199 415.26955765 -250.14453125 419.81640625 C-254.44318361 429.11102245 -258.83346327 438.36245287 -263.21661377 447.61743164 C-266.97050095 455.54481144 -270.71441849 463.47583764 -274.38671875 471.44140625 C-274.8280162 472.39761368 -274.8280162 472.39761368 -275.27822876 473.37313843 C-276.63743537 476.31992124 -277.99218956 479.26861665 -279.33984375 482.22070312 C-289.50166951 504.30628411 -289.50166951 504.30628411 -299.9140625 509.44140625 C-306.38938858 511.5220946 -315.73249703 511.63649532 -322.0625 508.875 C-328.15878748 505.13985669 -333.45278769 499.13652545 -335.625 492.3125 C-338.61349741 478.48597083 -331.49036819 467.08988201 -325.49023438 455.08349609 C-322.5087955 449.09375323 -319.7082971 443.01771886 -316.87759399 436.95578003 C-315.18573691 433.33903834 -313.48126224 429.72825843 -311.77734375 426.1171875 C-311.08575539 424.65072527 -310.39418641 423.1842539 -309.70263672 421.71777344 C-309.35964539 420.99054077 -309.01665405 420.26330811 -308.66326904 419.51403809 C-305.58617522 412.98939085 -302.51102735 406.46382798 -299.4375 399.9375 C-298.94227341 398.88616882 -298.94227341 398.88616882 -298.43704224 397.81359863 C-293.14832383 386.58337804 -287.90293997 375.33355954 -282.6965332 364.06494141 C-282.20241943 362.99679199 -281.70830566 361.92864258 -281.19921875 360.828125 C-280.55859497 359.44028809 -280.55859497 359.44028809 -279.9050293 358.02441406 C-278.9806285 356.06594676 -277.99537197 354.13581047 -276.97363281 352.22631836 C-275.69970703 349.47390992 -275.28657873 348.12571077 -275.47265625 345.17578125 C-275.50037109 344.43263672 -275.52808594 343.68949219 -275.55664062 342.92382812 C-275.64278508 341.4105143 -275.73380321 339.89746875 -275.83007812 338.38476562 C-276.26574937 326.02657893 -269.08128239 314.61749951 -263.875 303.75 C-263.11825106 302.16042465 -262.36207664 300.57057568 -261.60644531 298.98046875 C-260.04940268 295.7046688 -258.49028488 292.42986956 -256.9296875 289.15576172 C-253.3877674 281.71917685 -249.88090662 274.26611141 -246.375 266.8125 C-246.0473465 266.11651703 -245.71969299 265.42053406 -245.3821106 264.70346069 C-240.11228856 253.50950713 -234.88560629 242.29595422 -229.69628906 231.06445312 C-228.95523926 229.4624707 -228.95523926 229.4624707 -228.19921875 227.828125 C-227.77213623 226.90290039 -227.34505371 225.97767578 -226.9050293 225.02441406 C-225.97659628 223.05740396 -224.99168032 221.11673926 -223.97363281 219.19458008 C-221.78203363 214.51104851 -222.61945862 209.93535246 -222.91015625 204.87109375 C-222.83863288 198.7158768 -220.61293985 193.07307467 -218.625 187.3125 C-218.19711182 186.06782959 -217.76922363 184.82315918 -217.32836914 183.54077148 C-216.19408122 180.2800314 -215.02639062 177.03237013 -213.84326172 173.7890625 C-213.11670442 171.78967165 -212.40412174 169.78561028 -211.69140625 167.78125 C-211.2222008 166.48927555 -210.75217881 165.19759728 -210.28125 163.90625 C-209.86681641 162.75833984 -209.45238281 161.61042969 -209.02539062 160.42773438 C-207.31466153 156.62213757 -205.45022461 153.2251123 -201.625 151.3125 C-199.9575394 151.22823906 -198.28674813 151.20524857 -196.6171875 151.21484375 C-195.63105469 151.21806641 -194.64492187 151.22128906 -193.62890625 151.22460938 C-192.59636719 151.23298828 -191.56382812 151.24136719 -190.5 151.25 C-188.93958984 151.25676758 -188.93958984 151.25676758 -187.34765625 151.26367188 C-184.77338038 151.27548048 -182.19921854 151.29194925 -179.625 151.3125 C-179.34914062 150.43335938 -179.07328125 149.55421875 -178.7890625 148.6484375 C-177.71996898 145.58465943 -176.48006662 142.81973499 -175 139.9375 C-174.55398437 139.06351563 -174.10796875 138.18953125 -173.6484375 137.2890625 C-173.31070313 136.63679687 -172.97296875 135.98453125 -172.625 135.3125 C-173.14449219 135.07015625 -173.66398438 134.8278125 -174.19921875 134.578125 C-181.96247012 130.8471724 -187.36732983 126.87717691 -190.72111511 118.61080933 C-191.75833 114.8259739 -191.9131591 111.30511389 -191.8996582 107.41455078 C-191.90476913 106.64623932 -191.90988007 105.87792786 -191.91514587 105.08633423 C-191.92898448 102.56007988 -191.92808933 100.03410013 -191.92578125 97.5078125 C-191.92967158 95.74193217 -191.93400694 93.97605276 -191.93876648 92.21017456 C-191.94621655 88.51329512 -191.9459464 84.8165112 -191.94067383 81.11962891 C-191.93488348 76.39653085 -191.95180553 71.67382549 -191.9750185 66.95079231 C-191.98979522 63.30465431 -191.99062215 59.65861 -191.98750877 56.01244736 C-191.98802009 54.27183124 -191.99322211 52.53120961 -192.00332069 50.79062271 C-192.01574336 48.34990643 -192.00885891 45.90994372 -191.99731445 43.46923828 C-192.00495819 42.75936768 -192.01260193 42.04949707 -192.02047729 41.31811523 C-191.94964673 34.49733039 -190.03175581 28.27292456 -185.5 23.0625 C-184.98179687 22.43859375 -184.46359375 21.8146875 -183.9296875 21.171875 C-177.47978961 15.96822856 -170.74796242 14.72042209 -162.65820312 14.79492188 C-161.70574203 14.7879126 -160.75328094 14.78090332 -159.7719574 14.77368164 C-156.64975096 14.75619689 -153.52846431 14.76769072 -150.40625 14.78125 C-148.22106758 14.77855236 -146.03588634 14.77466767 -143.85070801 14.76965332 C-139.28137735 14.76377114 -134.71236046 14.77228011 -130.14306641 14.79101562 C-124.3024116 14.81380406 -118.46249218 14.80067414 -112.62186432 14.77672577 C-108.11267614 14.76223331 -103.6036607 14.76688964 -99.09446716 14.77723694 C-96.94160372 14.77989468 -94.7887243 14.77666819 -92.63587952 14.76731873 C-89.62076604 14.75709641 -86.60682371 14.77273392 -83.59179688 14.79492188 C-82.27295753 14.78277649 -82.27295753 14.78277649 -80.92747498 14.77038574 C-73.86514783 14.86608644 -67.83593619 16.67300161 -62.3203125 21.20703125 C-61.80210937 21.83996094 -61.28390625 22.47289063 -60.75 23.125 C-60.21632813 23.75019531 -59.68265625 24.37539063 -59.1328125 25.01953125 C-53.94358175 32.9109262 -54.22934196 40.28430039 -54.33203125 49.43359375 C-54.33763382 50.90332097 -54.34190079 52.37305384 -54.34489441 53.8427887 C-54.35629131 57.69143426 -54.38571318 61.53973451 -54.41900635 65.38824463 C-54.44981917 69.32323538 -54.46342359 73.25828249 -54.47851562 77.19335938 C-54.51058861 84.89989618 -54.56172146 92.60614951 -54.625 100.3125 C-50.0407377 100.26071052 -45.45837172 100.16564829 -40.875 100.0625 C-38.92207031 100.04123047 -38.92207031 100.04123047 -36.9296875 100.01953125 C-35.05410156 99.97119141 -35.05410156 99.97119141 -33.140625 99.921875 C-31.98852539 99.90092773 -30.83642578 99.87998047 -29.64941406 99.85839844 C-26.02337925 99.20390911 -24.85383037 98.19154307 -22.625 95.3125 C-21.2085865 91.23023507 -20.81765581 87.56787667 -21.625 83.3125 C-23.89649225 80.97446012 -26.22253801 79.57838488 -29.0390625 77.94921875 C-34.75427284 74.33188774 -36.64184216 68.91565852 -38.19494629 62.55659485 C-38.89931133 58.88109591 -38.91046264 55.26742005 -38.890625 51.53515625 C-38.89253845 50.72437119 -38.8944519 49.91358612 -38.89642334 49.07823181 C-38.89777558 47.37482388 -38.8941468 45.67140531 -38.88574219 43.96801758 C-38.87504283 41.38533971 -38.88566302 38.80335951 -38.8984375 36.22070312 C-38.89711546 34.55468599 -38.89455216 32.88866928 -38.890625 31.22265625 C-38.89467346 30.46300064 -38.89872192 29.70334503 -38.90289307 28.92066956 C-38.82471468 19.81494851 -37.43506065 12.0923087 -30.76171875 5.4609375 C-22.48102145 -2.1180058 -10.65331402 -5.03129744 0 0 Z M-151.28515625 56.4296875 C-156.61841674 64.4218038 -157.98782201 73.30370111 -156.16015625 82.703125 C-153.28710153 92.42731021 -147.21552666 100.45199077 -138.484375 105.56640625 C-129.84094011 109.67346885 -119.35462957 109.96498759 -110.3125 106.875 C-100.85089486 102.38073756 -94.24903825 95.07211929 -90.625 85.3125 C-87.81223115 76.28590193 -89.25348773 67.2765716 -93.22265625 58.8984375 C-97.53661909 50.94344195 -104.45453361 45.82721431 -112.80078125 42.42578125 C-128.09435288 38.10435119 -141.73736317 44.25344315 -151.28515625 56.4296875 Z M-151.625 135.3125 C-154.265 140.5925 -156.905 145.8725 -159.625 151.3125 C-135.535 151.3125 -111.445 151.3125 -86.625 151.3125 C-89.265 146.0325 -91.905 140.7525 -94.625 135.3125 C-113.435 135.3125 -132.245 135.3125 -151.625 135.3125 Z M-192.625 169.3125 C-194.419375 174.18 -196.21375 179.0475 -198.0625 184.0625 C-198.62767334 185.59229492 -199.19284668 187.12208984 -199.77514648 188.69824219 C-200.21930908 189.90641602 -200.66347168 191.11458984 -201.12109375 192.359375 C-201.57669678 193.59526367 -202.0322998 194.83115234 -202.50170898 196.10449219 C-205.37735603 204.31705516 -205.33863638 211.3486562 -201.625 219.3125 C-197.88473031 225.4845622 -192.44741398 229.13124933 -185.625 231.3125 C-178.31422072 232.49881379 -172.53095745 231.43461231 -165.9765625 228.08984375 C-159.60264963 223.27235146 -156.36402393 217.35879401 -153.4375 210.0625 C-152.88654663 208.73255005 -152.88654663 208.73255005 -152.32446289 207.37573242 C-151.52108538 205.42991441 -150.72408315 203.48145513 -149.93261719 201.53076172 C-148.75846954 198.64099056 -147.57073292 195.75719249 -146.37672424 192.87557983 C-145.10048852 189.79403368 -143.83144042 186.7095582 -142.5625 183.625 C-142.07305908 182.43680664 -141.58361816 181.24861328 -141.0793457 180.02441406 C-140.62906006 178.91936523 -140.17877441 177.81431641 -139.71484375 176.67578125 C-139.31128662 175.68876221 -138.90772949 174.70174316 -138.49194336 173.68481445 C-137.5105865 171.42037759 -137.5105865 171.42037759 -137.625 169.3125 C-155.775 169.3125 -173.925 169.3125 -192.625 169.3125 Z M-108.625 169.3125 C-103.64080695 182.41380743 -98.63965117 195.50829799 -93.375 208.5 C-92.98779785 209.48355469 -92.6005957 210.46710938 -92.20166016 211.48046875 C-89.30260702 218.54116475 -85.78764469 225.48923345 -78.4375 228.6875 C-77.78394531 228.98398438 -77.13039063 229.28046875 -76.45703125 229.5859375 C-70.1252884 232.09703381 -63.3727242 232.47811018 -56.82421875 230.44140625 C-49.46217906 227.03408894 -44.60596197 222.52160785 -41.75 214.875 C-39.4256196 207.83506625 -40.43631647 201.56838574 -43.1875 194.875 C-43.66316406 193.65941406 -44.13882813 192.44382813 -44.62890625 191.19140625 C-47.6148064 183.89318847 -50.6226343 176.60395956 -53.625 169.3125 C-71.775 169.3125 -89.925 169.3125 -108.625 169.3125 Z M-211.625 236.3125 C-216.9978954 246.94676117 -222.20045778 257.64625084 -227.25 268.4375 C-227.94193545 269.91281757 -228.63399526 271.38807682 -229.32617188 272.86328125 C-231.0858622 276.61515432 -232.84283118 280.36829545 -234.59924316 284.1217041 C-235.59601176 286.25058736 -236.59409984 288.37884575 -237.59277344 290.50683594 C-241.12233656 298.02808383 -244.63763524 305.55557124 -248.12988281 313.09423828 C-249.50098455 316.04555492 -250.88609516 318.98989003 -252.2734375 321.93359375 C-253.0166139 323.53860497 -253.75888945 325.14403383 -254.5 326.75 C-254.82806641 327.43513672 -255.15613281 328.12027344 -255.49414062 328.82617188 C-257.78082679 333.85483519 -258.44687124 338.18722647 -257.03125 343.5703125 C-254.42335466 348.94347617 -251.25335776 352.14085046 -245.625 354.3125 C-240.77669437 355.3447745 -236.90753881 354.80861308 -232.63671875 352.27734375 C-228.16994162 349.33760772 -226.19816307 346.00340941 -223.9375 341.25 C-223.52508057 340.4262085 -223.11266113 339.60241699 -222.68774414 338.75366211 C-221.30191827 335.95408376 -219.95847478 333.13737334 -218.625 330.3125 C-218.1496582 329.30735352 -217.67431641 328.30220703 -217.18457031 327.26660156 C-214.51598349 321.59519836 -211.88495206 315.90700844 -209.26953125 310.2109375 C-205.16487991 301.27498757 -200.95745475 292.38788919 -196.75 283.5 C-194.3677285 278.46718166 -191.98700775 273.43364912 -189.61096191 268.39788818 C-188.59795377 266.25529506 -187.57980005 264.11519115 -186.56152344 261.97509766 C-185.91323432 260.60457597 -185.26511506 259.23397391 -184.6171875 257.86328125 C-184.31459015 257.2307695 -184.0119928 256.59825775 -183.70022583 255.94657898 C-182.12564187 252.76807713 -182.12564187 252.76807713 -181.625 249.3125 C-182.51960938 249.16554687 -183.41421875 249.01859375 -184.3359375 248.8671875 C-192.59923879 247.3343363 -198.76056622 245.11995448 -205.625 240.3125 C-207.62358954 238.9770534 -209.62344907 237.643504 -211.625 236.3125 Z M-39.5 240.0625 C-46.8856362 245.48183045 -54.50228804 248.50159227 -63.625 249.3125 C-62.13413882 254.15638524 -60.17360708 258.60291136 -57.984375 263.15625 C-57.62568329 263.90977249 -57.26699158 264.66329498 -56.89743042 265.43965149 C-56.12705894 267.05720833 -55.35515092 268.67403412 -54.58184814 270.29019165 C-52.52952503 274.5795397 -50.48813552 278.87409036 -48.4453125 283.16796875 C-48.03409149 284.03153488 -47.62287048 284.89510101 -47.19918823 285.78483582 C-43.79589565 292.93713983 -40.43864747 300.11009185 -37.10165405 307.29351807 C-35.15951524 311.47008734 -33.20594718 315.64133172 -31.25537109 319.81396484 C-30.14692992 322.19251562 -29.04234792 324.57244812 -27.94384766 326.95556641 C-26.32817879 330.45500434 -24.69690697 333.9467829 -23.0625 337.4375 C-22.58570801 338.48139893 -22.10891602 339.52529785 -21.61767578 340.60083008 C-18.53361583 347.13730246 -15.56840761 351.54902377 -8.625 354.3125 C-3.76761522 355.17989014 0.35895402 354.71544982 4.6875 352.3125 C8.69979611 349.47746443 11.12259664 346.07492856 12.375 341.3125 C13.18589202 334.5804069 10.73533174 329.89983861 7.875 324 C7.38942627 322.9702002 6.90385254 321.94040039 6.40356445 320.87939453 C5.03578008 317.982335 3.65644494 315.09105289 2.2744751 312.20074463 C0.69434289 308.88361427 -0.8651643 305.5568137 -2.42578125 302.23046875 C-4.78286957 297.20848176 -7.14362028 292.18827106 -9.51100159 287.17112732 C-12.55105951 280.72782889 -15.57904399 274.27915994 -18.5859375 267.8203125 C-18.90271957 267.14003998 -19.21950165 266.45976746 -19.54588318 265.75888062 C-21.03953551 262.5503156 -22.53133908 259.3409061 -24.02075195 256.13037109 C-27.11888121 249.46979106 -30.29279248 242.85934065 -33.625 236.3125 C-35.71409962 236.3125 -37.96273705 238.8692704 -39.5 240.0625 Z M-139.625 311.3125 C-139.69936251 316.89922194 -139.75370254 322.48565339 -139.78979492 328.07275391 C-139.80484691 329.97189353 -139.82529316 331.87099859 -139.85131836 333.77001953 C-139.88785992 336.50562081 -139.90476238 339.240761 -139.91796875 341.9765625 C-139.93345261 342.82054596 -139.94893646 343.66452942 -139.96488953 344.53408813 C-139.96655188 350.40590434 -139.03127576 354.70387832 -134.90625 359.17578125 C-134.02453125 359.89314453 -134.02453125 359.89314453 -133.125 360.625 C-132.5371875 361.11613281 -131.949375 361.60726562 -131.34375 362.11328125 C-127.22198634 364.98914816 -122.44599635 364.90686941 -117.625 364.3125 C-112.3214772 361.61070537 -108.52667702 358.01753105 -106.625 352.3125 C-106.53932754 350.94657817 -106.50726353 349.57685142 -106.51147461 348.20825195 C-106.51155014 347.38762772 -106.51162567 346.56700348 -106.51170349 345.72151184 C-106.51686478 344.84017075 -106.52202606 343.95882965 -106.52734375 343.05078125 C-106.5287587 342.14498825 -106.53017365 341.23919525 -106.53163147 340.30595398 C-106.53722999 337.41226909 -106.54978219 334.51866151 -106.5625 331.625 C-106.56751519 329.66341258 -106.57207807 327.70182394 -106.57617188 325.74023438 C-106.58719893 320.93095979 -106.60446253 316.121743 -106.625 311.3125 C-107.8632251 311.63702148 -109.1014502 311.96154297 -110.37719727 312.29589844 C-114.47988991 313.37115681 -118.30909588 313.57922922 -122.5625 313.5625 C-123.87089844 313.56765625 -125.17929688 313.5728125 -126.52734375 313.578125 C-129.58713039 313.47360313 -132.39961631 312.98677058 -135.38110352 312.29589844 C-136.17944107 312.11267029 -136.97777863 311.92944214 -137.80030823 311.74066162 C-138.40245651 311.59936829 -139.0046048 311.45807495 -139.625 311.3125 Z " fill="#000000" transform="translate(378.625,1.6875)"/>
<path d="M0 0 C3.85220735 2.64082139 6.37450751 5.81102252 7.86328125 10.27734375 C8.64645165 16.57627137 8.18201407 21.37566127 4.3984375 26.58203125 C1.08601325 30.24002647 -1.86756544 31.95604771 -6.78515625 32.65234375 C-13.1123017 32.92969807 -17.11703354 32.17016085 -22.13671875 28.27734375 C-26.64764503 22.46062302 -28.00264029 17.50538331 -27.13671875 10.27734375 C-25.05082089 4.46176981 -21.13573923 0.85577558 -15.76171875 -1.97265625 C-9.80746328 -3.6738721 -5.31875356 -2.90207719 0 0 Z " fill="#000000" transform="translate(265.13671875,61.72265625)"/>
</svg>
