<?xml version="1.0" encoding="UTF-8"?>
<svg version="1.1" xmlns="http://www.w3.org/2000/svg" width="512" height="512">
<path d="M0 0 C0.72635434 -0.00382555 1.45270869 -0.00765109 2.20107377 -0.01159257 C4.62371729 -0.02187316 7.04612162 -0.01793988 9.46878052 -0.01396179 C11.21035989 -0.01831102 12.95193734 -0.02349488 14.69351196 -0.02944946 C19.41670528 -0.04282848 24.13981852 -0.04341931 28.8630271 -0.04088616 C32.80928189 -0.03981564 36.75552053 -0.04470196 40.70177186 -0.04949158 C50.01376882 -0.06058314 59.32572545 -0.06102626 68.63772583 -0.05497742 C78.23644219 -0.04893809 87.83501195 -0.06124843 97.4337033 -0.08254749 C105.68187355 -0.10017519 113.92999719 -0.10616297 122.17818558 -0.10290974 C127.10130241 -0.10109849 132.02431467 -0.10371724 136.9474144 -0.11762428 C141.57841327 -0.13021688 146.209184 -0.12824496 150.84017944 -0.11521339 C152.5364604 -0.11285113 154.23275748 -0.11556975 155.92901993 -0.12383652 C158.25144515 -0.13433572 160.57310927 -0.12617855 162.89550781 -0.11352539 C164.84170674 -0.113777 164.84170674 -0.113777 166.82722282 -0.1140337 C174.37088031 0.64028905 180.53216518 3.57820369 185.57473755 9.26069641 C190.92691849 17.24031164 190.72283214 25.77068208 190.70845032 35.05764771 C190.71071587 36.13463084 190.71298143 37.21161398 190.71531564 38.32123297 C190.72163802 41.92451885 190.7208274 45.52776694 190.72000122 49.13105774 C190.7229938 51.71681771 190.72639656 54.30257724 190.73017883 56.88833618 C190.73847144 63.17998858 190.74123304 69.47163161 190.74179121 75.76328901 C190.74226702 80.87936126 190.744325 85.99543042 190.74749184 91.11150169 C190.75629451 105.62859709 190.7609118 120.1456851 190.76016136 134.66278318 C190.76012141 135.44476496 190.76008145 136.22674673 190.76004028 137.03242493 C190.7599994 137.81536561 190.75995852 138.5983063 190.7599164 139.40497246 C190.75951001 152.09157597 190.76907881 164.7781498 190.78317865 177.46474472 C190.79755467 190.50309981 190.80444816 203.54144043 190.80358487 216.57980365 C190.80325333 223.89509154 190.80598155 231.2103483 190.81676292 238.52562904 C190.82683915 245.4063379 190.82652005 252.28698007 190.81924629 259.16769218 C190.81820101 261.69037599 190.82055998 264.21306389 190.82660675 266.73574066 C190.83433745 270.18483554 190.82967453 273.6337041 190.82197571 277.08279419 C190.82711927 278.07610129 190.83226283 279.06940838 190.83756226 280.0928157 C190.79332121 289.08966509 190.25763977 297.3444404 184.3598938 304.50288391 C178.241435 310.52762453 172.23323193 312.41479255 163.7986145 312.3742218 C162.99536586 312.37434234 162.19211721 312.37446287 161.3645277 312.37458706 C158.76399658 312.37384057 156.1635371 312.36622433 153.5630188 312.35835266 C151.95767247 312.35688242 150.35232566 312.35586222 148.74697876 312.3553009 C142.79372438 312.35005749 136.84048026 312.3360963 130.88723755 312.32319641 C117.58411255 312.30257141 104.28098755 312.28194641 90.57473755 312.26069641 C90.57473755 339.32069641 90.57473755 366.38069641 90.57473755 394.26069641 C157.56473755 394.26069641 224.55473755 394.26069641 293.57473755 394.26069641 C293.57473755 311.43069641 293.57473755 228.60069641 293.57473755 143.26069641 C284.00473755 143.26069641 274.43473755 143.26069641 264.57473755 143.26069641 C255.3458738 138.64626454 251.50132976 136.11388084 247.19973755 127.51069641 C246.23895742 122.51463976 246.57473755 117.34829708 246.57473755 112.26069641 C282.87473755 112.26069641 319.17473755 112.26069641 356.57473755 112.26069641 C356.57473755 129.66767316 356.57473755 129.66767316 349.89505005 137.13960266 C344.51395003 142.10217268 339.16660631 143.52300713 331.86380005 143.45600891 C330.61985474 143.4495636 329.37590942 143.44311829 328.0942688 143.43647766 C326.16647583 143.41134094 326.16647583 143.41134094 324.19973755 143.38569641 C322.89133911 143.37667297 321.58294067 143.36764954 320.2348938 143.35835266 C317.01465385 143.33484726 313.79479048 143.30198729 310.57473755 143.26069641 C310.57644629 144.08250709 310.57644629 144.08250709 310.57818955 144.92092001 C310.64531461 177.38783324 310.69679258 209.8547281 310.72793354 242.32169471 C310.73168569 246.21949357 310.73556865 250.11729229 310.73953247 254.01509094 C310.7403194 254.79107692 310.74110633 255.5670629 310.74191711 256.3665636 C310.75497327 268.93345949 310.77862827 281.50031424 310.80619594 294.06718571 C310.83424429 306.96065361 310.8509126 319.85409995 310.85700303 332.7475971 C310.86112066 340.70445284 310.87412882 348.66119229 310.89848695 356.61801223 C310.91621004 362.71792365 310.91810461 368.81773488 310.91406059 374.91767502 C310.9148873 377.42107612 310.92087284 379.92448154 310.93235397 382.42785645 C310.94724494 385.84158869 310.94370315 389.25482039 310.9355011 392.66856384 C310.94423962 393.66273335 310.95297815 394.65690286 310.96198148 395.68119872 C310.92771706 400.94509687 310.59453071 404.73701196 307.57473755 409.26069641 C304.21093453 410.94259792 300.40534412 410.40864384 296.7053833 410.40786743 C295.31047851 410.41338246 295.31047851 410.41338246 293.88739383 410.41900891 C290.75208234 410.43007638 287.61680396 410.43389474 284.48147583 410.43769836 C282.24139296 410.4439606 280.00131114 410.45060718 277.76123047 410.45761108 C271.6621049 410.4750408 265.56298718 410.48557777 259.46384287 410.49381661 C255.65697371 410.49896155 251.85010702 410.50503744 248.04323959 410.51132774 C237.50722904 410.52819879 226.97121962 410.5428347 216.43519783 410.55007648 C213.70062382 410.55198643 210.96604981 410.55390676 208.23147583 410.55586243 C207.21195595 410.55658804 207.21195595 410.55658804 206.1718397 410.55732831 C195.15565609 410.56563282 184.13958092 410.59097705 173.12344469 410.6234431 C161.81871851 410.65648868 150.51404546 410.67418994 139.20926464 410.67772073 C132.85983664 410.68007677 126.51058005 410.6891094 120.16119766 410.7141819 C114.1907513 410.73737702 108.22059027 410.74173038 102.25011063 410.73142052 C100.05547642 410.73092299 97.86082857 410.73730681 95.66623688 410.75097656 C92.67649763 410.76856135 89.68779738 410.76165554 86.69805908 410.7484436 C85.82393848 410.75941285 84.94981787 410.7703821 84.04920876 410.78168374 C80.23908086 410.74086409 78.21589915 410.70932832 75.03459358 408.48331356 C73.47498688 406.10882695 73.07873215 405.01370554 73.09371948 402.21107483 C73.08822083 401.41464569 73.08272217 400.61821655 73.07705688 399.7976532 C73.09143799 398.93306488 73.10581909 398.06847656 73.12063599 397.1776886 C73.12005188 396.26026886 73.11946777 395.34284912 73.11886597 394.39762878 C73.12165124 391.3672239 73.15276447 388.33780433 73.18411255 385.30757141 C73.19157335 383.20579058 73.19726704 381.1040028 73.20126343 379.00221252 C73.21653231 373.47168251 73.25582527 367.94157303 73.30007935 362.41120911 C73.3410048 356.76734608 73.35926864 351.12341507 73.37942505 345.47944641 C73.42231803 334.40634503 73.49058481 323.3335557 73.57473755 312.26069641 C72.56964142 312.27179947 71.56454529 312.28290253 70.5289917 312.29434204 C61.02557866 312.39599835 51.52227691 312.47079573 42.01844215 312.51975727 C37.13316695 312.5457759 32.24833305 312.58103154 27.36331177 312.63789368 C22.64297566 312.69249078 17.9230622 312.72217503 13.20243454 312.73508263 C11.40759001 312.74427304 9.61276684 312.76221938 7.81810379 312.78934669 C-11.05232402 313.06306415 -11.05232402 313.06306415 -18.42526245 307.26069641 C-23.30583656 302.04792586 -26.66816686 296.67231196 -26.68532467 289.3629961 C-26.69239026 288.39779067 -26.69945585 287.43258524 -26.70673555 286.43813115 C-26.70432047 285.38561483 -26.70190538 284.3330985 -26.69941711 283.24868774 C-26.70465379 282.12441083 -26.70989047 281.00013391 -26.71528584 279.84178799 C-26.7303132 276.06643068 -26.7309916 272.29120856 -26.73165894 268.51582336 C-26.7381975 265.8121272 -26.74765691 263.10844278 -26.75688171 260.40475464 C-26.77971983 253.05337464 -26.78765118 245.70202354 -26.79270816 238.35061288 C-26.79596684 233.75822473 -26.8024904 229.16584495 -26.80970955 224.57346153 C-26.82927465 211.85243277 -26.84567914 199.13141179 -26.84858608 186.41036701 C-26.84877365 185.59649753 -26.84896122 184.78262805 -26.84915448 183.94409586 C-26.84952072 182.29425728 -26.84988442 180.64441871 -26.85024559 178.99458013 C-26.8504284 178.1756236 -26.85061121 177.35666707 -26.85079956 176.51289368 C-26.85098011 175.69293461 -26.85116066 174.87297555 -26.85134668 174.02816924 C-26.85488716 160.74645806 -26.88190201 147.46490914 -26.91929745 134.18325422 C-26.95740482 120.53926923 -26.97674374 106.89536469 -26.9770456 93.25132531 C-26.97762965 85.5938842 -26.98608805 77.9366366 -27.01504326 70.27924538 C-27.03958984 63.75784741 -27.04681817 57.23671353 -27.03179573 50.71528182 C-27.02463952 47.39023455 -27.02816262 44.06613151 -27.04820633 40.74107361 C-27.06864737 37.12947033 -27.05812418 33.51920979 -27.03999329 29.90762329 C-27.05319325 28.86626057 -27.06639322 27.82489786 -27.07999319 26.7519787 C-26.99893687 19.66506966 -25.47264406 14.15073282 -21.42526245 8.26069641 C-15.06748368 2.13086687 -8.84082238 0.01399621 0 0 Z M99.13723755 60.91304016 C96.50194855 64.36628232 93.82444994 67.78527519 91.13723755 71.19819641 C90.67752563 71.78230286 90.21781372 72.3664093 89.74417114 72.96821594 C88.35481364 74.73273399 86.96481537 76.49674579 85.57473755 78.26069641 C79.55077518 85.90887461 73.54793265 93.57277818 67.57473755 101.26069641 C62.04023311 108.38398919 56.48165595 115.48766333 50.90139771 122.57514954 C48.62387549 125.46878468 46.34949748 128.36488964 44.07473755 131.26069641 C43.15808525 132.42737437 42.2414186 133.59404105 41.32473755 134.76069641 C40.87098755 135.33819641 40.41723755 135.91569641 39.94973755 136.51069641 C35.82473755 141.76069641 35.82473755 141.76069641 34.44778442 143.51313782 C33.53757059 144.67162122 32.62741368 145.83014935 31.71731567 146.98872375 C29.32740252 150.03097691 26.93630005 153.07228548 24.54348755 156.11225891 C23.79808716 157.05971985 23.79808716 157.05971985 23.03762817 158.02632141 C22.08877602 159.2323391 21.13957817 160.4380849 20.18997192 161.64350891 C18.98150435 163.17991146 17.77791205 164.72014528 16.57473755 166.26069641 C15.69108521 167.33964172 15.69108521 167.33964172 14.7895813 168.44038391 C12.80935556 171.40753888 13.14331678 173.80933023 13.57473755 177.26069641 C14.88335212 179.82054715 14.88335212 179.82054715 17.57473755 181.26069641 C25.54678884 182.47492691 33.58735425 182.58118415 41.63723755 182.82319641 C42.99336771 182.86649269 44.34948765 182.91011007 45.70559692 182.95405579 C48.99522426 183.05941752 52.28491813 183.16154593 55.57473755 183.26069641 C54.08464512 188.69814762 52.59388677 194.13541552 51.10232544 199.57246399 C49.82879934 204.2150181 48.55743685 208.85815781 47.28738403 213.50166321 C44.36755641 224.16594304 41.43251228 234.82400027 38.3833313 245.45210266 C37.91032892 247.11123008 37.43750337 248.77040793 36.96487427 250.42964172 C36.30884546 252.73233686 35.64890343 255.03344321 34.97470093 257.33088684 C34.36306288 259.41521526 33.76632734 261.5032982 33.1723938 263.59272766 C32.83731812 264.74490784 32.50224243 265.89708801 32.15701294 267.08418274 C31.41374832 271.13894834 31.54824526 274.54987592 33.69973755 278.13569641 C37.06561006 280.15521992 38.70168994 280.07278704 42.57473755 279.26069641 C46.05204069 276.31885925 48.77213345 272.83643268 51.57473755 269.26069641 C52.37008911 268.24878235 53.16544067 267.23686829 53.9848938 266.19429016 C55.66487064 264.03422429 57.32569476 261.86065075 58.9770813 259.67866516 C61.61522072 256.19480162 64.30732768 252.75535623 67.01223755 249.32319641 C67.4696936 248.74215149 67.92714966 248.16110657 68.39846802 247.56245422 C69.32664622 246.38374284 70.255032 245.2051949 71.18362427 244.02680969 C73.48347992 241.10698593 75.77889699 238.18367748 78.07473755 235.26069641 C78.99138265 234.0940128 79.90804932 232.92734614 80.82473755 231.76069641 C81.27848755 231.18319641 81.73223755 230.60569641 82.19973755 230.01069641 C86.32473755 224.76069641 86.32473755 224.76069641 87.69900513 223.01167297 C88.61817068 221.84179625 89.5372785 220.67187418 90.45632935 219.50190735 C92.70929848 216.63398484 94.96317478 213.76678651 97.2192688 210.90132141 C102.35900147 204.37083755 107.47594097 197.82320282 112.57473755 191.26069641 C118.10475331 184.14318087 123.65897148 177.04540822 129.2348938 169.96382141 C130.63108206 168.18907481 132.02505517 166.41260745 133.41848755 164.63569641 C133.89020386 164.03459045 134.36192017 163.4334845 134.84793091 162.81416321 C135.77945305 161.62632374 136.70998024 160.43770323 137.63943481 159.24824524 C139.72949222 156.57944938 141.84022254 153.94151782 144.0083313 151.33491516 C144.73149536 150.46479797 145.45465942 149.59468079 146.19973755 148.69819641 C146.83137817 147.95440735 147.4630188 147.21061829 148.11380005 146.44429016 C149.76331691 143.97883581 150.31489457 142.20558352 150.57473755 139.26069641 C148.95318126 135.7743504 147.81020463 134.41767447 144.57473755 132.26069641 C141.82792267 131.95126351 139.16233089 131.74719472 136.4067688 131.62788391 C135.61195602 131.58632172 134.81714325 131.54475952 133.99824524 131.50193787 C131.46159111 131.37126812 128.92452636 131.2533302 126.38723755 131.13569641 C124.66649213 131.04929509 122.94578808 130.96206549 121.22512817 130.87397766 C117.00875107 130.65993942 112.79196133 130.45731684 108.57473755 130.26069641 C110.0845491 121.79762482 112.35401995 113.60006868 114.7058773 105.34246254 C115.412231 102.85854673 116.11210179 100.37288852 116.81004333 97.88659668 C118.79262519 90.8249285 120.77954053 83.76455325 122.78787231 76.7101593 C124.02095058 72.37713073 125.24060565 68.04051478 126.45166969 63.70128441 C126.91356962 62.05611488 127.38044721 60.41233414 127.85248375 58.77004433 C128.51176415 56.47446556 129.15381447 54.17468973 129.79226685 51.87324524 C129.98908554 51.20346649 130.18590424 50.53368774 130.38868713 49.84361267 C131.61236649 45.33979085 131.61586944 41.80394762 130.57473755 37.26069641 C128.48847712 34.95090808 127.16656074 34.38209604 124.13723755 33.76069641 C114.8379483 35.57519187 104.94632681 53.29509891 99.13723755 60.91304016 Z " fill="#000000" transform="translate(80.42526245117188,77.73930358886719)"/>
<path d="M0 0 C2.96991701 0.60983922 4.20486489 1.94625545 5.90234375 4.390625 C6.89087336 7.4460941 7.02394838 10.23519047 7.01586914 13.43457031 C7.01574829 14.44922363 7.01562744 15.46387695 7.01550293 16.50927734 C7.01038696 17.56840332 7.005271 18.6275293 7 19.71875 C6.99899292 20.69763184 6.99798584 21.67651367 6.99694824 22.68505859 C6.9917216 26.336926 6.97776033 29.98877669 6.96484375 33.640625 C6.94421875 41.808125 6.92359375 49.975625 6.90234375 58.390625 C29.67234375 58.390625 52.44234375 58.390625 75.90234375 58.390625 C75.74409827 40.79907044 75.74409827 40.79907044 75.54199219 23.20800781 C75.53031017 21.00326306 75.52011719 18.7985097 75.51171875 16.59375 C75.49125488 15.44825684 75.47079102 14.30276367 75.44970703 13.12255859 C75.44922363 12.02669434 75.44874023 10.93083008 75.44824219 9.80175781 C75.43935974 8.85133606 75.43047729 7.90091431 75.42132568 6.92169189 C76.04460586 3.64205662 77.34264741 2.46000659 79.90234375 0.390625 C82.64323603 -0.33742451 85.13255581 -0.18380741 87.90234375 0.390625 C90.87092532 2.59803181 91.73100166 3.87659873 92.90234375 7.390625 C92.98989173 9.06283471 93.0200037 10.73834699 93.01586914 12.4128418 C93.01579361 13.43367355 93.01571808 14.45450531 93.01564026 15.50627136 C93.01047897 16.60635025 93.00531769 17.70642914 93 18.83984375 C92.99787758 20.53147392 92.99787758 20.53147392 92.99571228 22.25727844 C92.99010845 25.86425412 92.97755528 29.47116804 92.96484375 33.078125 C92.95982924 35.52148348 92.95526625 37.96484293 92.95117188 40.40820312 C92.94013778 46.40236487 92.9233959 52.39649052 92.90234375 58.390625 C93.48725586 58.36967773 94.07216797 58.34873047 94.67480469 58.32714844 C97.3338084 58.24382385 99.9925373 58.19191603 102.65234375 58.140625 C103.57273437 58.10710937 104.493125 58.07359375 105.44140625 58.0390625 C106.33085937 58.02617188 107.2203125 58.01328125 108.13671875 58 C109.36213379 57.9685791 109.36213379 57.9685791 110.61230469 57.93652344 C113.90779494 58.59000018 114.97534403 59.64708475 116.90234375 62.390625 C117.29710444 65.15773282 117.44999699 67.52727292 117.41992188 70.29272461 C117.42693115 71.08507004 117.43394043 71.87741547 117.44116211 72.69377136 C117.45875354 75.31052803 117.44711468 77.92620125 117.43359375 80.54296875 C117.43628862 82.36373604 117.44017099 84.18450192 117.44519043 86.00526428 C117.45108724 89.82095036 117.44251772 93.63626179 117.42382812 97.4519043 C117.40105456 102.33917334 117.4141502 107.22556297 117.43811798 112.11279964 C117.4525849 115.87295637 117.44796561 119.63290527 117.43760681 123.39306831 C117.43494115 125.19476997 117.43820364 126.99649058 117.44752502 128.79817009 C117.4577037 131.31899717 117.44217158 133.83840898 117.41992188 136.35913086 C117.4280188 137.10163086 117.43611572 137.84413086 117.44445801 138.60913086 C117.38736104 142.10731421 116.98997111 144.24404167 115.18249512 147.26759338 C111.2461549 150.93268986 107.52990639 151.64022221 102.25428772 151.65132141 C101.12858871 151.65840622 100.00288971 151.66549103 98.84307861 151.67279053 C97.00468414 151.6690744 97.00468414 151.6690744 95.12915039 151.6652832 C93.18204414 151.6729496 93.18204414 151.6729496 91.19560242 151.68077087 C87.64186123 151.69414178 84.08822651 151.6947417 80.53446507 151.69220757 C77.5648038 151.6911366 74.59516397 151.69602444 71.6255073 151.700813 C64.61824176 151.7119015 57.61102983 151.71234924 50.60375977 151.70629883 C43.38110542 151.70025823 36.15864584 151.71257363 28.93602473 151.7338689 C22.72865022 151.75149608 16.52133764 151.75748452 10.31393903 151.75423115 C6.60928928 151.75241999 2.90477848 151.75503778 -0.79984856 151.76894569 C-4.93171675 151.7838777 -9.0631895 151.77454419 -13.19506836 151.76293945 C-14.41864044 151.77058319 -15.64221252 151.77822693 -16.90286255 151.78610229 C-27.66803645 151.71919132 -27.66803645 151.71919132 -32.09765625 148.390625 C-35.43557448 144.42214989 -35.53781317 140.54538617 -35.51757812 135.55859375 C-35.53028244 134.39911728 -35.53028244 134.39911728 -35.54324341 133.21621704 C-35.56657581 130.67001743 -35.56763663 128.12442327 -35.56640625 125.578125 C-35.57350916 123.80362711 -35.58120835 122.02913151 -35.58947754 120.25463867 C-35.60291299 116.53916026 -35.60449492 112.82389432 -35.59863281 109.10839844 C-35.59273183 104.34997217 -35.62334855 99.59256449 -35.66374969 94.83433533 C-35.68961079 91.17112751 -35.69250569 87.50816567 -35.68885803 83.84487915 C-35.6905502 82.09060095 -35.70020206 80.33631151 -35.71800232 78.5821228 C-35.7401662 76.12827475 -35.73050598 73.67649786 -35.71289062 71.22265625 C-35.72615387 70.50042877 -35.73941711 69.77820129 -35.75308228 69.03408813 C-35.68983596 65.23788848 -35.17451857 63.49240826 -32.86315918 60.43164062 C-29.92312441 58.2618158 -28.80869392 57.78704314 -25.234375 57.90234375 C-23.9050293 57.92651367 -23.9050293 57.92651367 -22.54882812 57.95117188 C-21.18081055 58.01401367 -21.18081055 58.01401367 -19.78515625 58.078125 C-18.85380859 58.10068359 -17.92246094 58.12324219 -16.96289062 58.14648438 C-14.67281665 58.20520422 -12.3860775 58.28725642 -10.09765625 58.390625 C-10.1065387 57.72299133 -10.11542114 57.05535767 -10.12457275 56.36749268 C-10.21300098 49.42476962 -10.27337201 42.48220629 -10.31738281 35.5390625 C-10.33751 32.94719954 -10.36481441 30.35538204 -10.39941406 27.76367188 C-10.44788126 24.04025051 -10.47061441 20.31742901 -10.48828125 16.59375 C-10.50892639 15.43321106 -10.52957153 14.27267212 -10.55084229 13.07696533 C-10.55114441 11.99614685 -10.55144653 10.91532837 -10.55175781 9.80175781 C-10.56064026 8.85133606 -10.56952271 7.90091431 -10.57867432 6.92169189 C-9.44978229 0.98157977 -5.36448418 -0.2797124 0 0 Z " fill="#000000" transform="translate(341.09765625,23.609375)"/>
<path d="M0 0 C1.07246475 -0.00571014 2.1449295 -0.01142029 3.24989319 -0.01730347 C4.42657562 -0.01842133 5.60325806 -0.01953918 6.81559753 -0.02069092 C8.05485489 -0.02565582 9.29411224 -0.03062073 10.57092285 -0.03573608 C13.9718818 -0.04784634 17.37277925 -0.05530334 20.77375245 -0.05974674 C22.89934889 -0.06267908 25.02493995 -0.06678421 27.15053368 -0.07125092 C33.80337779 -0.08492385 40.45620959 -0.09459135 47.10906678 -0.09845281 C54.78439302 -0.10293239 62.45954107 -0.12047639 70.13481313 -0.1494534 C76.07037845 -0.17108313 82.00589368 -0.18115778 87.94149798 -0.18249393 C91.4852262 -0.18354109 95.02878686 -0.18942974 98.57247353 -0.20731354 C102.52727102 -0.22688386 106.48184655 -0.22250007 110.43669128 -0.21600342 C111.60730103 -0.2252182 112.77791077 -0.23443298 113.98399353 -0.243927 C120.83782572 -0.20861459 125.64667871 0.24077492 130.90226746 5.04278564 C131.47332214 5.71438721 132.04437683 6.38598877 132.63273621 7.07794189 C133.21668152 7.74696533 133.80062683 8.41598877 134.40226746 9.10528564 C139.98549392 17.11867679 136.82023621 32.25371912 136.82023621 39.14044189 C85.34023621 39.14044189 33.86023621 39.14044189 -19.17976379 39.14044189 C-19.17976379 11.67377523 -19.17976379 11.67377523 -13.36335754 5.08184814 C-12.78714661 4.62680908 -12.21093567 4.17177002 -11.61726379 3.70294189 C-11.03847473 3.22985596 -10.45968567 2.75677002 -9.86335754 2.26934814 C-6.62846875 0.10024638 -3.77328215 0.01202566 0 0 Z " fill="#000000" transform="translate(103.17976379394531,23.85955810546875)"/>
<path d="M0 0 C0.99 0.495 0.99 0.495 2 1 C1.79733017 1.70299728 1.59466034 2.40599457 1.385849 3.1302948 C-0.52403579 9.7625469 -2.42313763 16.39780151 -4.31023502 23.03657055 C-5.28074556 26.44936872 -6.25535755 29.86088146 -7.23950195 33.26977539 C-8.37127433 37.19070891 -9.48490266 41.11659502 -10.59765625 45.04296875 C-10.952798 46.26396774 -11.30793976 47.48496674 -11.67384338 48.7429657 C-11.99425095 49.8837709 -12.31465851 51.02457611 -12.64477539 52.19995117 C-12.93123428 53.20144699 -13.21769318 54.20294281 -13.51283264 55.23478699 C-14.03623766 58.20568877 -13.87492591 60.1277084 -13 63 C-10.2786834 66.00399149 -7.63231818 66.39833142 -3.66790771 66.64482117 C-2.64893402 66.68721672 -2.64893402 66.68721672 -1.609375 66.73046875 C-0.90476135 66.770616 -0.20014771 66.81076324 0.52581787 66.85212708 C2.76673551 66.9768452 5.00808397 67.08242521 7.25 67.1875 C8.77350549 67.26891981 10.29694481 67.35158817 11.8203125 67.43554688 C15.54621747 67.63816774 19.27274906 67.82364265 23 68 C21.74349699 70.64185966 20.38803366 72.98660698 18.63671875 75.328125 C18.16862793 75.95485107 17.70053711 76.58157715 17.21826172 77.22729492 C16.71311035 77.8947876 16.20795898 78.56228027 15.6875 79.25 C15.15914551 79.95165283 14.63079102 80.65330566 14.08642578 81.3762207 C9.75537856 87.08833841 5.26659739 92.66087007 0.72192383 98.20361328 C-3.47190936 103.32374971 -7.52766314 108.53220486 -11.54296875 113.79296875 C-14.14402661 117.19854229 -16.78698071 120.57034673 -19.4375 123.9375 C-19.89455322 124.51830322 -20.35160645 125.09910645 -20.82250977 125.69750977 C-22.67933227 128.05584086 -24.53744811 130.41315145 -26.39550781 132.77050781 C-32.98786228 141.13683854 -39.5239853 149.54325196 -46 158 C-47.22877099 154.46647519 -46.7562625 152.23741711 -45.72070312 148.68408203 C-45.41708862 147.6226297 -45.11347412 146.56117737 -44.80065918 145.46755981 C-44.46425415 144.3258432 -44.12784912 143.18412659 -43.78125 142.0078125 C-43.08975372 139.5872653 -42.39835035 137.16669156 -41.70703125 134.74609375 C-40.60444684 130.93104356 -39.49773838 127.11722786 -38.38818359 123.30419922 C-37.32128077 119.62497794 -36.2694456 115.94168904 -35.21875 112.2578125 C-34.88234497 111.12014435 -34.54593994 109.9824762 -34.19934082 108.81033325 C-33.89572632 107.7425766 -33.59211182 106.67481995 -33.27929688 105.57470703 C-33.00758667 104.64079132 -32.73587646 103.70687561 -32.45593262 102.74465942 C-31.92234524 99.53252771 -32.20091458 97.14732418 -33 94 C-36.61492496 90.38507504 -41.01715037 90.77857095 -45.953125 90.46484375 C-46.61334656 90.42186661 -47.27356812 90.37888947 -47.95379639 90.33460999 C-50.05232656 90.19879661 -52.15113819 90.06807768 -54.25 89.9375 C-55.67710494 89.84603967 -57.10418859 89.75424648 -58.53125 89.66210938 C-62.02059502 89.43755038 -65.51021066 89.21755765 -69 89 C-65.21890605 83.13068794 -61.2172593 77.61233734 -56.75 72.25 C-51.4961988 65.86255834 -46.40445231 59.3842429 -41.38671875 52.80908203 C-33.13510784 42.0442164 -24.74808404 31.3817373 -16.35742188 20.72509766 C-14.9088501 18.88416094 -13.4620382 17.04185187 -12.015625 15.19921875 C-11.52151123 14.56983398 -11.02739746 13.94044922 -10.51831055 13.29199219 C-9.57953875 12.09613263 -8.64089014 10.90017635 -7.70239258 9.70410156 C-5.15154855 6.45590796 -2.58515723 3.22094996 0 0 Z " fill="#000000" transform="translate(185,156)"/>
</svg>
