<?xml version="1.0" encoding="UTF-8"?>
<svg version="1.1" xmlns="http://www.w3.org/2000/svg" width="512" height="512">
<path d="M0 0 C1.0358499 -0.00453111 2.07169979 -0.00906223 3.13893908 -0.01373065 C6.61494396 -0.02640556 10.09079278 -0.02475226 13.56681824 -0.02310181 C16.05700889 -0.02908512 18.54719769 -0.03589021 21.03738403 -0.04345703 C27.10272426 -0.05930654 33.16800297 -0.0655663 39.23335818 -0.06668179 C44.16452639 -0.06763259 49.09568178 -0.07174448 54.02684593 -0.07808304 C68.0125186 -0.09569401 81.9981606 -0.10492217 95.98384444 -0.10342209 C97.11449655 -0.10330222 97.11449655 -0.10330222 98.26799011 -0.10317993 C99.40002535 -0.10305729 99.40002535 -0.10305729 100.55492999 -0.10293217 C112.7839286 -0.10211938 125.012804 -0.12125553 137.24176697 -0.14945666 C149.80319052 -0.17819552 162.36455401 -0.1919964 174.92601126 -0.19026911 C181.97638031 -0.18960554 189.02662021 -0.19508337 196.07695961 -0.21662521 C202.70816413 -0.2367568 209.33914261 -0.23615305 215.97037697 -0.22159195 C218.40359902 -0.2194989 220.83683801 -0.22423411 223.27003098 -0.23631287 C226.59318381 -0.25174044 229.91539299 -0.24247258 233.23852539 -0.22705078 C234.20011293 -0.23733791 235.16170046 -0.24762503 236.15242702 -0.25822389 C243.31266066 -0.18485614 248.62069837 1.47284886 254.05192566 6.23226929 C254.59075378 6.88324585 255.12958191 7.53422241 255.68473816 8.20492554 C256.23903503 8.85332397 256.79333191 9.50172241 257.36442566 10.16976929 C260.5086506 14.73314441 261.05927932 18.62358148 261.05583382 24.11399555 C261.05814151 24.79342587 261.06044919 25.4728562 261.06282681 26.17287531 C261.06812903 28.45410911 261.05914099 30.73506174 261.05024719 33.01628113 C261.05111921 34.66639242 261.05287013 36.31650345 261.05542552 37.96661299 C261.05990372 42.50457957 261.05188887 47.04245197 261.0418694 51.58040655 C261.03324401 56.47266157 261.03615442 61.36491115 261.03767395 66.25717163 C261.03872338 74.7345436 261.03244073 83.21188481 261.02119827 91.68924904 C261.00495408 103.94613767 260.99973637 116.20301141 260.99722229 128.45990964 C260.99284349 148.3452196 260.97952936 168.23051316 260.96061707 188.11581421 C260.94226306 207.43417275 260.92810421 226.75252684 260.91960144 246.07089233 C260.91907599 247.26138995 260.91855055 248.45188757 260.91800918 249.67846087 C260.91539913 255.6507521 260.91287171 261.62304337 260.91038537 267.59533465 C260.88964711 317.15271021 260.85386666 366.71006574 260.80973816 416.26742554 C276.64973816 416.26742554 292.48973816 416.26742554 308.80973816 416.26742554 C308.80973816 405.70742554 308.80973816 395.14742554 308.80973816 384.26742554 C304.84973816 384.26742554 300.88973816 384.26742554 296.80973816 384.26742554 C292.35325332 379.81094069 292.35325332 379.81094069 292.29341292 374.80438161 C292.30506429 374.08064375 292.31671566 373.35690588 292.32872009 372.61123657 C292.32530239 371.83602748 292.32188469 371.06081838 292.31836343 370.2621181 C292.31177021 367.66227511 292.33378364 365.0634626 292.3556366 362.4637146 C292.35676477 360.60107955 292.35613181 358.73844273 292.35386658 356.87580872 C292.35271731 351.81613423 292.3762611 346.75683782 292.40416241 341.69725132 C292.4291406 336.41082734 292.43151523 331.12439503 292.43626404 325.83792114 C292.44870434 315.82587666 292.48154028 305.81400655 292.521662 295.80203891 C292.56634685 284.40436415 292.58835849 273.00668113 292.60844374 261.6089406 C292.65027194 238.16167218 292.72064455 214.71455862 292.80973816 191.26742554 C292.0234906 190.96272339 291.23724304 190.65802124 290.4271698 190.34408569 C284.61066815 187.95151296 280.02659162 183.49151124 277.46989441 177.73617554 C275.69322643 171.09206805 275.52297208 163.21211748 278.30973816 156.82992554 C282.01442145 150.6993998 287.26561241 146.88507584 293.80973816 144.26742554 C298.75973816 144.26742554 303.70973816 144.26742554 308.80973816 144.26742554 C308.80973816 96.74742554 308.80973816 49.22742554 308.80973816 0.26742554 C314.08973816 0.26742554 319.36973816 0.26742554 324.80973816 0.26742554 C324.80973816 47.78742554 324.80973816 95.30742554 324.80973816 144.26742554 C329.75973816 144.26742554 334.70973816 144.26742554 339.80973816 144.26742554 C346.56363671 146.51872506 350.77356015 150.40951313 354.80973816 156.26742554 C357.95754612 162.61550493 357.8082459 170.05852583 356.19255066 176.86898804 C353.92668598 182.70409087 350.02262028 186.84647164 344.80973816 190.26742554 C343.48419151 190.63048886 342.15118138 190.96839549 340.80973816 191.26742554 C340.81342533 192.23779377 340.8171125 193.208162 340.82091141 194.20793533 C340.9096447 217.80118584 340.97541027 241.39441475 341.01698685 264.98779678 C341.03762653 276.39731012 341.06577405 287.80671334 341.11149597 299.21615601 C341.15132062 309.15871908 341.17716073 319.10120242 341.18609214 329.04384303 C341.19131429 334.31015437 341.20361749 339.57623756 341.23265839 344.84247589 C341.25975838 349.79677645 341.26819412 354.75075435 341.26216888 359.70512199 C341.26327155 361.52564941 341.27125761 363.34618734 341.28656006 365.16665077 C341.30640359 367.64857868 341.30169853 370.1292815 341.29075623 372.61123657 C341.30240759 373.33497443 341.31405896 374.0587123 341.32606339 374.80438161 C341.26456224 379.94988836 340.7780308 380.29913289 336.80973816 384.26742554 C332.84973816 384.26742554 328.88973816 384.26742554 324.80973816 384.26742554 C324.80973816 394.82742554 324.80973816 405.38742554 324.80973816 416.26742554 C351.20973816 416.26742554 377.60973816 416.26742554 404.80973816 416.26742554 C404.80973816 405.70742554 404.80973816 395.14742554 404.80973816 384.26742554 C400.84973816 384.26742554 396.88973816 384.26742554 392.80973816 384.26742554 C388.35325332 379.81094069 388.35325332 379.81094069 388.29341292 374.80438161 C388.30506429 374.08064375 388.31671566 373.35690588 388.32872009 372.61123657 C388.32530239 371.83602748 388.32188469 371.06081838 388.31836343 370.2621181 C388.31177021 367.66227511 388.33378364 365.0634626 388.3556366 362.4637146 C388.35676477 360.60107955 388.35613181 358.73844273 388.35386658 356.87580872 C388.35271731 351.81613423 388.3762611 346.75683782 388.40416241 341.69725132 C388.4291406 336.41082734 388.43151523 331.12439503 388.43626404 325.83792114 C388.44870434 315.82587666 388.48154028 305.81400655 388.521662 295.80203891 C388.56634685 284.40436415 388.58835849 273.00668113 388.60844374 261.6089406 C388.65027194 238.16167218 388.72064455 214.71455862 388.80973816 191.26742554 C388.0234906 190.96272339 387.23724304 190.65802124 386.4271698 190.34408569 C380.61066815 187.95151296 376.02659162 183.49151124 373.46989441 177.73617554 C371.69322643 171.09206805 371.52297208 163.21211748 374.30973816 156.82992554 C378.01442145 150.6993998 383.26561241 146.88507584 389.80973816 144.26742554 C394.75973816 144.26742554 399.70973816 144.26742554 404.80973816 144.26742554 C404.80973816 96.74742554 404.80973816 49.22742554 404.80973816 0.26742554 C410.08973816 0.26742554 415.36973816 0.26742554 420.80973816 0.26742554 C420.80973816 47.78742554 420.80973816 95.30742554 420.80973816 144.26742554 C425.75973816 144.26742554 430.70973816 144.26742554 435.80973816 144.26742554 C442.56363671 146.51872506 446.77356015 150.40951313 450.80973816 156.26742554 C453.95754612 162.61550493 453.8082459 170.05852583 452.19255066 176.86898804 C449.92668598 182.70409087 446.02262028 186.84647164 440.80973816 190.26742554 C439.48419151 190.63048886 438.15118138 190.96839549 436.80973816 191.26742554 C436.81342533 192.23779377 436.8171125 193.208162 436.82091141 194.20793533 C436.9096447 217.80118584 436.97541027 241.39441475 437.01698685 264.98779678 C437.03762653 276.39731012 437.06577405 287.80671334 437.11149597 299.21615601 C437.15132062 309.15871908 437.17716073 319.10120242 437.18609214 329.04384303 C437.19131429 334.31015437 437.20361749 339.57623756 437.23265839 344.84247589 C437.25975838 349.79677645 437.26819412 354.75075435 437.26216888 359.70512199 C437.26327155 361.52564941 437.27125761 363.34618734 437.28656006 365.16665077 C437.30640359 367.64857868 437.30169853 370.1292815 437.29075623 372.61123657 C437.30240759 373.33497443 437.31405896 374.0587123 437.32606339 374.80438161 C437.28560255 378.1895466 437.02479676 379.98083859 434.96815109 382.72152328 C432.04797599 384.81301616 430.11080717 384.67181984 426.55973816 384.51742554 C425.48208191 384.48133179 424.40442566 384.44523804 423.29411316 384.40805054 C422.47426941 384.36164429 421.65442566 384.31523804 420.80973816 384.26742554 C420.83068542 385.5793689 420.85163269 386.89131226 420.87321472 388.24301147 C420.94561786 393.11073898 420.99153929 397.97841889 421.02946472 402.8465271 C421.04957942 404.95337935 421.07687483 407.06017579 421.11149597 409.1668396 C421.16001984 412.19530001 421.18270832 415.22302232 421.20036316 418.25180054 C421.2210083 419.19360168 421.24165344 420.13540283 421.26292419 421.10574341 C421.26322632 421.98635437 421.26352844 422.86696533 421.26383972 423.77426147 C421.27272217 424.5470343 421.28160461 425.31980713 421.29075623 426.11599731 C420.56983438 429.34043257 419.53110191 430.38607324 416.80973816 432.26742554 C413.84040366 432.83545868 410.92514049 432.77278264 407.9103241 432.7215271 C407.0124115 432.72211121 406.1144989 432.72269531 405.18937683 432.72329712 C402.22389457 432.72051221 399.25941965 432.68940088 396.29411316 432.65805054 C394.23717294 432.6505896 392.18022562 432.64489597 390.12327576 432.64089966 C384.71110894 432.62563181 379.29937195 432.58633979 373.88737488 432.54208374 C368.36415929 432.50115602 362.8408742 432.48289397 357.31755066 432.46273804 C346.48142438 432.4198469 335.64561702 432.3515814 324.80973816 432.26742554 C324.83068542 433.5793689 324.85163269 434.89131226 324.87321472 436.24301147 C324.94561786 441.11073898 324.99153929 445.97841889 325.02946472 450.8465271 C325.04957942 452.95337935 325.07687483 455.06017579 325.11149597 457.1668396 C325.16001984 460.19530001 325.18270832 463.22302232 325.20036316 466.25180054 C325.2210083 467.19360168 325.24165344 468.13540283 325.26292419 469.10574341 C325.26322632 469.98635437 325.26352844 470.86696533 325.26383972 471.77426147 C325.27272217 472.5470343 325.28160461 473.31980713 325.29075623 474.11599731 C324.60469614 477.18450789 323.22457702 478.29491121 320.80973816 480.26742554 C318.19976783 480.76882219 318.19976783 480.76882219 315.17054367 480.7707901 C314.01450913 480.78122109 312.85847459 480.79165208 311.6674087 480.80239916 C310.39661314 480.79347627 309.12581758 480.78455338 307.81651306 480.77536011 C306.45344668 480.779968 305.09038526 480.78632016 303.72733426 480.79426908 C299.97776086 480.81100215 296.22859351 480.80269818 292.47901845 480.79032421 C288.43660656 480.78129183 284.39426558 480.79523464 280.35186768 480.8062439 C272.43012825 480.82405508 264.50854019 480.82017705 256.58679476 480.80859333 C250.14768155 480.79956693 243.70861082 480.79833158 237.2694931 480.8026886 C236.35370028 480.80330153 235.43790745 480.80391446 234.49436332 480.80454597 C232.6340083 480.80582486 230.77365328 480.80712171 228.91329828 480.80843633 C211.45633722 480.8198504 193.9994601 480.80671681 176.5425128 480.78523487 C161.56562785 480.76737509 146.58886695 480.77045715 131.61198425 480.78890991 C114.22452636 480.81032265 96.83714217 480.81873909 79.44967294 480.80646086 C77.59486406 480.80518666 75.74005518 480.80392918 73.88524628 480.8026886 C72.97263143 480.8020715 72.06001658 480.80145439 71.11974673 480.80081859 C64.69086917 480.79736601 58.26203835 480.80319232 51.83316803 480.81260681 C43.99455101 480.82383318 36.15609419 480.82077386 28.3174955 480.79948384 C24.31851077 480.78898012 20.31979299 480.78483971 16.32081032 480.79808044 C12.65776088 480.81002522 8.99522505 480.80340797 5.33222201 480.78217024 C3.38382781 480.77560582 1.43539779 480.78862204 -0.51295877 480.80239916 C-8.61541685 480.72994382 -14.16643897 479.79352816 -20.43244934 474.30258179 C-20.97127747 473.65160522 -21.51010559 473.00062866 -22.06526184 472.32992554 C-22.61955872 471.6815271 -23.17385559 471.03312866 -23.74494934 470.36508179 C-26.99925112 465.64194651 -27.48052137 461.32808747 -27.44753075 455.7091856 C-27.45278986 454.57460493 -27.45278986 454.57460493 -27.45815521 453.41710344 C-27.46748398 450.87402981 -27.46254211 448.33118444 -27.45768738 445.7881012 C-27.46142289 443.9498246 -27.46602402 442.11154959 -27.47141802 440.2732771 C-27.48367562 435.21489869 -27.48338431 430.15658627 -27.48102927 425.09819639 C-27.4806218 419.6454455 -27.49165355 414.19271596 -27.50114441 408.73997498 C-27.51777044 398.054461 -27.52325468 387.36896909 -27.52436917 376.68344327 C-27.52531887 367.99941646 -27.52942526 359.31539695 -27.53577042 350.63137245 C-27.55338709 326.02089743 -27.56262074 301.41043885 -27.56110947 276.7999576 C-27.56106958 276.13656778 -27.56102969 275.47317797 -27.56098859 274.78968543 C-27.56090771 273.44814933 -27.56082412 272.10661322 -27.56073781 270.76507711 C-27.55951228 249.89270381 -27.57452533 229.02039548 -27.60188293 208.14804077 C-27.63260315 184.70051601 -27.64979013 161.25302688 -27.64795649 137.80547982 C-27.64729196 125.38956363 -27.6528119 112.9737207 -27.67431259 100.55782127 C-27.69250015 89.98722953 -27.69689166 79.41674428 -27.68329374 68.84614369 C-27.67675191 63.45175848 -27.67669082 58.05757773 -27.69400024 52.66321182 C-27.70968213 47.72532205 -27.70691731 42.78779967 -27.68943198 37.84991912 C-27.68635131 36.0632608 -27.69003447 34.27657539 -27.70115213 32.48994901 C-27.80548892 14.53410614 -27.80548892 14.53410614 -21.22541809 7.02523804 C-20.57444153 6.48640991 -19.92346497 5.94758179 -19.25276184 5.39242554 C-18.6043634 4.83812866 -17.95596497 4.28383179 -17.28791809 3.71273804 C-11.70354045 -0.13497095 -6.56496211 -0.02099913 0 0 Z M-9.19026184 19.26742554 C-11.37282 23.38483005 -11.44168106 27.00337241 -11.44473743 31.61260891 C-11.44794391 32.34595798 -11.45115039 33.07930706 -11.45445403 33.83487883 C-11.46277511 36.29956974 -11.45682242 38.76401897 -11.45095825 41.22871399 C-11.45397797 43.0106685 -11.45786655 44.79262171 -11.46255082 46.57457262 C-11.47286264 51.47719432 -11.47064091 56.37974316 -11.46637022 61.28237092 C-11.46390878 66.56739051 -11.47290989 71.85239228 -11.48040771 77.1374054 C-11.49317277 87.49338388 -11.49494617 97.84933646 -11.49260745 108.20532148 C-11.49082622 116.62048645 -11.49256974 125.03564354 -11.49683189 133.45080757 C-11.49742708 134.64735384 -11.49802227 135.84390011 -11.4986355 137.07670536 C-11.49984722 139.5072873 -11.50106135 141.93786924 -11.50227787 144.36845119 C-11.51316028 167.17463697 -11.51098755 189.98080797 -11.50489303 212.78699458 C-11.49972272 233.66305587 -11.51098109 254.53907051 -11.52999125 275.41512256 C-11.54935027 296.83808934 -11.55762908 318.26103403 -11.553868 339.68400961 C-11.55195307 351.71643296 -11.55447181 363.7488166 -11.56858253 375.78123283 C-11.58047262 386.02395402 -11.5819279 396.26661104 -11.56979237 406.50933307 C-11.56388711 411.73736576 -11.56284962 416.96528097 -11.57479477 422.19330597 C-11.58559753 426.97683921 -11.58261741 431.76015607 -11.56853309 436.54367895 C-11.56587064 438.2764645 -11.56830088 440.0092667 -11.57626895 441.74203598 C-11.58633471 444.09375392 -11.57798804 446.44471383 -11.56499195 448.79640102 C-11.56504697 450.1037258 -11.56510198 451.41105058 -11.56515867 452.75799125 C-11.15644234 456.58401212 -10.19884963 459.00486039 -8.19026184 462.26742554 C-4.07518059 464.86252182 0.40700323 464.50198417 5.12223816 464.39242554 C6.23308777 464.37889038 6.23308777 464.37889038 7.36637878 464.36508179 C9.18097283 464.34166767 10.99539887 464.30580169 12.80973816 464.26742554 C14.16509578 454.25965419 14.16509578 454.25965419 11.20426941 445.23617554 C9.14044181 444.03893992 9.14044181 444.03893992 6.91520691 443.16195679 C2.85303461 441.4360988 0.6117652 437.90254404 -1.29963684 434.00570679 C-3.4148985 427.50220494 -3.4659359 419.06500488 -0.62776184 412.76742554 C2.62673652 407.3894247 7.68578665 402.91043692 13.80973816 401.26742554 C21.25461914 399.77844934 27.31683459 400.38663131 34.05973816 404.01742554 C39.59087497 408.54290111 43.39448664 413.22596595 44.14567566 420.53695679 C44.23668914 428.79187994 44.02040511 434.91021565 38.12614441 441.00961304 C35.11864375 443.71312976 32.47209039 445.43624942 28.80973816 447.26742554 C28.80973816 452.87742554 28.80973816 458.48742554 28.80973816 464.26742554 C55.82592959 464.33684744 82.84209956 464.39039661 109.8583622 464.42286205 C122.40224365 464.43833642 134.94606869 464.4594369 147.48991394 464.4937439 C158.42206051 464.52362872 169.35416623 464.54299639 180.28635252 464.54969102 C186.07582173 464.55360481 191.86517408 464.56281476 197.65460587 464.58461571 C203.10297809 464.60496627 208.5511852 464.61126218 213.99959183 464.60674858 C215.99987688 464.60757442 218.00016741 464.61354851 220.00041962 464.62504196 C222.73105843 464.63996358 225.4610735 464.63638027 228.19172668 464.62818909 C228.98356688 464.63692761 229.77540708 464.64566614 230.59124243 464.65466946 C235.37889597 464.61584035 238.66020637 463.91206927 242.80973816 461.26742554 C244.88889291 457.71438771 245.0484973 454.59140551 245.00505066 450.52914429 C244.99860535 449.46244507 244.99216003 448.39574585 244.98551941 447.29672241 C244.9687616 446.19392944 244.95200378 445.09113647 244.93473816 443.95492554 C244.921203 442.27173218 244.921203 442.27173218 244.90739441 440.55453491 C244.88388302 437.79194644 244.85101971 435.02979622 244.80973816 432.26742554 C241.78189941 432.05799707 238.83238927 431.95028825 235.80973816 432.26742554 C233.91929 433.73718609 233.91929 433.73718609 233.12223816 435.95492554 C230.09855009 441.8256601 226.19524888 445.19054045 219.80973816 447.26742554 C211.9306414 448.07698626 204.2614471 448.33555121 197.80973816 443.26742554 C192.43912422 438.63419567 189.92089933 433.23355136 188.80973816 426.26742554 C188.56053651 419.99585061 190.2052283 414.40899366 193.80973816 409.26742554 C198.21804984 404.54498238 202.53111251 401.60429747 209.07926941 400.93148804 C217.33419256 400.84047455 223.45252828 401.05675859 229.55192566 406.95101929 C232.25544239 409.95851995 233.97856205 412.60507331 235.80973816 416.26742554 C238.77973816 416.26742554 241.74973816 416.26742554 244.80973816 416.26742554 C244.87837073 366.43108394 244.93124989 316.5947471 244.96293415 266.75836756 C244.96668637 260.87776051 244.97056933 254.99715355 244.97453308 249.11654663 C244.97532001 247.9457995 244.97610694 246.77505237 244.97691772 245.56882806 C244.98997972 226.60007838 245.01363794 207.63135591 245.04119655 188.66262238 C245.06922864 169.20604159 245.08590977 149.74947508 245.09200364 130.29287493 C245.09612464 118.28238693 245.10915112 106.27197585 245.13348756 94.26151152 C245.14931764 86.03095764 245.15414471 77.80044365 245.15024229 69.56987564 C245.14831649 64.81780425 245.15131568 60.06586748 245.16735458 55.31381989 C245.18192586 50.96494036 245.1827086 46.61628631 245.17243484 42.26739652 C245.17116459 40.69259849 245.17499364 39.11778653 245.18438771 37.543016 C245.19640591 35.4043081 245.18995154 33.26641689 245.17888165 31.12772179 C245.18002081 29.93919715 245.18115997 28.75067252 245.18233365 27.52613199 C244.76094493 23.84068178 243.72237028 21.42851765 241.80973816 18.26742554 C237.44866681 15.42275149 232.17051169 15.98594466 227.13751221 16.00672913 C226.15742091 16.00290358 225.17732962 15.99907803 224.16753858 15.99513656 C220.88033 15.98481002 217.59329619 15.98879809 214.30607605 15.99276733 C211.95057005 15.98842069 209.59506546 15.9832377 207.23956299 15.97727966 C200.83881799 15.96387374 194.43813199 15.96331275 188.03737569 15.96584296 C184.04001512 15.96712581 180.04266023 15.96450583 176.04530144 15.96085548 C175.38162453 15.9602603 174.71794762 15.95966511 174.03415928 15.95905188 C172.68588134 15.95784012 171.3376034 15.95662599 169.98932546 15.9554095 C157.34667963 15.9445344 144.70406049 15.94669636 132.06141316 15.95279435 C120.49713497 15.95796393 108.932941 15.94670697 97.36867947 15.92769613 C85.4920539 15.90832157 73.61546818 15.90006103 61.73882669 15.90381938 C55.07196469 15.90573195 48.40516387 15.90297403 41.73831367 15.88910484 C35.46990652 15.87655279 29.20166826 15.87844585 22.93326378 15.89151573 C20.63143482 15.89388673 18.32959407 15.8911282 16.02777863 15.88289261 C12.887971 15.87246798 9.74873459 15.8804917 6.60894775 15.89320374 C5.23953784 15.88214231 5.23953784 15.88214231 3.84246308 15.87085742 C-1.19052661 15.91378725 -4.94848463 16.24698309 -9.19026184 19.26742554 Z M294.80973816 163.26742554 C293.38931995 166.10826195 293.49521544 168.12219831 293.80973816 171.26742554 C296.04180247 174.11523173 297.35966814 175.1174022 300.80973816 176.26742554 C305.33011749 176.49627039 309.85289851 176.49573123 314.37834167 176.50765991 C316.60390378 176.51734574 318.82853408 176.54837085 321.05387878 176.57992554 C322.47900354 176.58645826 323.90413486 176.59170767 325.32926941 176.59555054 C327.2644342 176.60956909 327.2644342 176.60956909 329.23869324 176.62387085 C333.10509836 176.23794404 335.52004765 175.30146882 338.80973816 173.26742554 C340.23015637 170.42658912 340.12426088 168.41265276 339.80973816 165.26742554 C337.57767385 162.41961935 336.25980817 161.41744888 332.80973816 160.26742554 C328.28935882 160.03858068 323.76657781 160.03911984 319.24113464 160.02719116 C317.01557254 160.01750533 314.79094224 159.98648022 312.56559753 159.95492554 C311.14047278 159.94839282 309.71534145 159.9431434 308.29020691 159.93930054 C306.35504211 159.92528198 306.35504211 159.92528198 304.38078308 159.91098022 C300.51437796 160.29690704 298.09942867 161.23338226 294.80973816 163.26742554 Z M390.80973816 163.26742554 C389.38931995 166.10826195 389.49521544 168.12219831 389.80973816 171.26742554 C392.04180247 174.11523173 393.35966814 175.1174022 396.80973816 176.26742554 C401.33011749 176.49627039 405.85289851 176.49573123 410.37834167 176.50765991 C412.60390378 176.51734574 414.82853408 176.54837085 417.05387878 176.57992554 C418.47900354 176.58645826 419.90413486 176.59170767 421.32926941 176.59555054 C423.2644342 176.60956909 423.2644342 176.60956909 425.23869324 176.62387085 C429.10509836 176.23794404 431.52004765 175.30146882 434.80973816 173.26742554 C436.23015637 170.42658912 436.12426088 168.41265276 435.80973816 165.26742554 C433.57767385 162.41961935 432.25980817 161.41744888 428.80973816 160.26742554 C424.28935882 160.03858068 419.76657781 160.03911984 415.24113464 160.02719116 C413.01557254 160.01750533 410.79094224 159.98648022 408.56559753 159.95492554 C407.14047278 159.94839282 405.71534145 159.9431434 404.29020691 159.93930054 C402.35504211 159.92528198 402.35504211 159.92528198 400.38078308 159.91098022 C396.51437796 160.29690704 394.09942867 161.23338226 390.80973816 163.26742554 Z M260.80973816 432.26742554 C260.47973816 442.82742554 260.14973816 453.38742554 259.80973816 464.26742554 C275.97973816 464.26742554 292.14973816 464.26742554 308.80973816 464.26742554 C308.80973816 453.70742554 308.80973816 443.14742554 308.80973816 432.26742554 C292.96973816 432.26742554 277.12973816 432.26742554 260.80973816 432.26742554 Z " fill="#000000" transform="translate(43.19026184082031,15.732574462890625)"/>
<path d="M0 0 C19.41513413 15.83036047 34.05409201 37.67987498 37 63 C38.99936484 91.27427967 34.23100056 117.17178286 15.328125 139.16015625 C-1.08462646 157.71519166 -23.00986243 171.44500696 -48.21777344 173.22753906 C-77.2855558 174.51962109 -102.15293788 168.54301128 -124.1875 148.6875 C-137.24423882 136.4909748 -146.54946777 122.03291322 -152 105 C-152.3196875 104.02933594 -152.639375 103.05867188 -152.96875 102.05859375 C-159.45049562 78.08213658 -155.47410476 51.71925718 -144 30 C-130.70999787 6.97303712 -109.81365095 -9.2252281 -84.38574219 -16.83691406 C-55.40541197 -24.5922137 -23.67765233 -18.10445314 0 0 Z M-67 29 C-67 60.68 -67 92.36 -67 125 C-61.72 125 -56.44 125 -51 125 C-51 93.32 -51 61.64 -51 29 C-56.28 29 -61.56 29 -67 29 Z " fill="#000000" transform="translate(219,251)"/>
<path d="M0 0 C1.32396412 -0.00935994 1.32396412 -0.00935994 2.67467499 -0.01890898 C5.63820449 -0.03488939 8.60091723 -0.02221496 11.56445312 -0.00964355 C13.68660971 -0.01506242 15.80876253 -0.02218375 17.9309082 -0.03088379 C23.69944448 -0.04914793 29.46769519 -0.04203675 35.23623657 -0.02936745 C41.26687401 -0.01925584 47.29748663 -0.02862801 53.328125 -0.03491211 C63.45642497 -0.04219387 73.58460835 -0.03258689 83.71289062 -0.0135498 C95.43046156 0.00821986 107.14775411 0.00116887 118.8653183 -0.02085543 C128.9172072 -0.03899431 138.96901219 -0.04157513 149.02091217 -0.03110075 C155.02822942 -0.02485753 161.03541572 -0.024053 167.04272461 -0.0372467 C172.68986066 -0.04878253 178.33663703 -0.04082075 183.98373413 -0.01766968 C186.05902509 -0.01237048 188.1343462 -0.01391694 190.20962524 -0.02272034 C193.03729732 -0.0336115 195.86380863 -0.01999008 198.69140625 0 C199.51747124 -0.00892289 200.34353622 -0.01784577 201.19463348 -0.02703905 C204.68139403 0.0209486 206.9245969 0.22587014 209.85485077 2.18860626 C211.69573528 5.05248178 211.84848726 6.73034064 211.8536377 10.12512207 C211.86491699 11.26916504 211.87619629 12.41320801 211.88781738 13.59191895 C211.87972046 14.8429541 211.87162354 16.09398926 211.86328125 17.38293457 C211.86870281 18.71692672 211.87582567 20.05091287 211.88452148 21.3848877 C211.90275426 25.00478805 211.89568786 28.62423231 211.88300514 32.24414062 C211.87287708 36.03260527 211.88227027 39.82103089 211.8885498 43.60949707 C211.89582681 49.97154755 211.88623725 56.33341229 211.8671875 62.69543457 C211.84541849 70.05053594 211.85246984 77.4051938 211.87449312 84.76028442 C211.89264574 91.07548824 211.89520617 97.39055855 211.88473845 103.70578003 C211.87850269 107.4774706 211.87766994 111.24895271 211.8908844 115.02062988 C211.90244047 118.5666581 211.89442256 122.1121146 211.87130737 125.65808105 C211.86349626 127.58002944 211.87537835 129.50202619 211.88781738 131.4239502 C211.87653809 132.56799316 211.86525879 133.71203613 211.8536377 134.89074707 C211.85212959 135.88477539 211.85062149 136.87880371 211.84906769 137.9029541 C211.34570312 140.50793457 211.34570312 140.50793457 209.85485077 142.82726288 C206.25523796 145.23834752 202.87798731 145.06109124 198.69140625 145.01586914 C197.8087635 145.0221091 196.92612076 145.02834907 196.01673126 145.03477812 C193.05320176 145.05075853 190.09048902 145.0380841 187.12695312 145.0255127 C185.00479654 145.03093156 182.88264372 145.03805289 180.76049805 145.04675293 C174.99196177 145.06501707 169.22371106 145.05790589 163.45516968 145.04523659 C157.42453224 145.03512498 151.39391962 145.04449715 145.36328125 145.05078125 C135.23498128 145.05806301 125.1067979 145.04845603 114.97851562 145.02941895 C103.26094469 145.00764928 91.54365214 145.01470027 79.82608795 145.03672457 C69.77419905 145.05486346 59.72239406 145.05744427 49.67049408 145.04696989 C43.66317683 145.04072667 37.65599053 145.03992214 31.64868164 145.05311584 C26.00154559 145.06465167 20.35476922 145.05668989 14.70767212 145.03353882 C12.63238116 145.02823962 10.55706005 145.02978609 8.48178101 145.03858948 C5.65410893 145.04948065 2.82759762 145.03585923 0 145.01586914 C-0.82606499 145.02479203 -1.65212997 145.03371491 -2.50322723 145.04290819 C-5.98998778 144.99492054 -8.23319065 144.78999901 -11.16344452 142.82726288 C-13.00432903 139.96338736 -13.15708101 138.2855285 -13.16223145 134.89074707 C-13.17351074 133.7467041 -13.18479004 132.60266113 -13.19641113 131.4239502 C-13.18831421 130.17291504 -13.18021729 128.92187988 -13.171875 127.63293457 C-13.17729656 126.29894242 -13.18441942 124.96495627 -13.19311523 123.63098145 C-13.21134801 120.01108109 -13.20428161 116.39163683 -13.19159889 112.77172852 C-13.18147083 108.98326387 -13.19086402 105.19483825 -13.19714355 101.40637207 C-13.20442056 95.04432159 -13.194831 88.68245685 -13.17578125 82.32043457 C-13.15401224 74.9653332 -13.16106359 67.61067534 -13.18308687 60.25558472 C-13.20123949 53.9403809 -13.20379992 47.62531059 -13.1933322 41.31008911 C-13.18709644 37.53839854 -13.18626369 33.76691643 -13.19947815 29.99523926 C-13.21103422 26.44921104 -13.20301631 22.90375454 -13.17990112 19.35778809 C-13.17209001 17.4358397 -13.1839721 15.51384295 -13.19641113 13.59191895 C-13.18513184 12.44787598 -13.17385254 11.30383301 -13.16223145 10.12512207 C-13.16072334 9.13109375 -13.15921524 8.13706543 -13.15766144 7.11291504 C-12.65429688 4.50793457 -12.65429688 4.50793457 -11.16344452 2.18860626 C-7.56383171 -0.22247838 -4.18658106 -0.04522209 0 0 Z M3.34570312 16.50793457 C3.34570312 53.46793457 3.34570312 90.42793457 3.34570312 128.50793457 C66.70570312 128.50793457 130.06570312 128.50793457 195.34570312 128.50793457 C195.34570312 91.54793457 195.34570312 54.58793457 195.34570312 16.50793457 C131.98570312 16.50793457 68.62570313 16.50793457 3.34570312 16.50793457 Z " fill="#000000" transform="translate(60.654296875,47.4920654296875)"/>
<path d="M0 0 C1.10794922 -0.01260864 2.21589844 -0.02521729 3.35742188 -0.03820801 C4.54916016 -0.03011108 5.74089844 -0.02201416 6.96875 -0.01367188 C8.19658203 -0.01749878 9.42441406 -0.02132568 10.68945312 -0.02526855 C13.28516459 -0.02799029 15.88090336 -0.02061099 18.4765625 -0.00390625 C22.45374599 0.01749738 26.42912282 -0.0037015 30.40625 -0.02929688 C32.92708733 -0.02665365 35.44792353 -0.02152878 37.96875 -0.01367188 C39.16048828 -0.0217688 40.35222656 -0.02986572 41.58007812 -0.03820801 C43.24200195 -0.01929504 43.24200195 -0.01929504 44.9375 0 C45.91138672 0.00318237 46.88527344 0.00636475 47.88867188 0.00964355 C51.32739197 0.68661717 52.4609304 1.65443348 54.46875 4.51757812 C54.97668457 7.70507812 54.97668457 7.70507812 54.98632812 11.51757812 C54.9933374 12.21399414 55.00034668 12.91041016 55.00756836 13.62792969 C55.02514196 15.92488744 55.01352919 18.22060833 55 20.51757812 C55.00269513 22.11653886 55.00657773 23.715498 55.01159668 25.31445312 C55.01749082 28.66357038 55.00893192 32.01226056 54.99023438 35.36132812 C54.96744435 39.65236403 54.98056796 43.94239924 55.00452423 48.23339844 C55.0189848 51.53458179 55.01437515 54.83552823 55.00401306 58.13671875 C55.00134646 59.71875121 55.00461322 61.30080524 55.01393127 62.8828125 C55.02410179 65.09497975 55.0085919 67.30553112 54.98632812 69.51757812 C54.98314575 70.77570313 54.97996338 72.03382813 54.97668457 73.33007812 C54.46875 76.51757812 54.46875 76.51757812 52.78210449 78.92272949 C49.94444632 80.87903808 48.36687042 81.02395008 44.9375 81.03515625 C43.82955078 81.04776489 42.72160156 81.06037354 41.58007812 81.07336426 C40.38833984 81.06526733 39.19660156 81.05717041 37.96875 81.04882812 C36.12700195 81.05456848 36.12700195 81.05456848 34.24804688 81.0604248 C31.65233541 81.06314654 29.05659664 81.05576724 26.4609375 81.0390625 C22.48375401 81.01765887 18.50837718 81.03885775 14.53125 81.06445312 C12.01041267 81.0618099 9.48957647 81.05668503 6.96875 81.04882812 C5.18114258 81.06097351 5.18114258 81.06097351 3.35742188 81.07336426 C2.24947266 81.06075562 1.14152344 81.04814697 0 81.03515625 C-0.97388672 81.03197388 -1.94777344 81.0287915 -2.95117188 81.0255127 C-6.38989197 80.34853908 -7.5234304 79.38072277 -9.53125 76.51757812 C-10.03918457 73.33007812 -10.03918457 73.33007812 -10.04882812 69.51757812 C-10.0558374 68.82116211 -10.06284668 68.12474609 -10.07006836 67.40722656 C-10.08764196 65.11026881 -10.07602919 62.81454792 -10.0625 60.51757812 C-10.06519513 58.91861739 -10.06907773 57.31965825 -10.07409668 55.72070312 C-10.07999082 52.37158587 -10.07143192 49.02289569 -10.05273438 45.67382812 C-10.02994435 41.38279222 -10.04306796 37.09275701 -10.06702423 32.80175781 C-10.0814848 29.50057446 -10.07687515 26.19962802 -10.06651306 22.8984375 C-10.06384646 21.31640504 -10.06711322 19.73435101 -10.07643127 18.15234375 C-10.08660179 15.9401765 -10.0710919 13.72962513 -10.04882812 11.51757812 C-10.04564575 10.25945312 -10.04246338 9.00132813 -10.03918457 7.70507812 C-9.53125 4.51757812 -9.53125 4.51757812 -7.84460449 2.11242676 C-5.00694632 0.15611817 -3.42937042 0.01120617 0 0 Z M6.46875 16.51757812 C6.46875 32.35757813 6.46875 48.19757813 6.46875 64.51757812 C17.02875 64.51757812 27.58875 64.51757812 38.46875 64.51757812 C38.46875 48.67757812 38.46875 32.83757812 38.46875 16.51757812 C27.90875 16.51757812 17.34875 16.51757812 6.46875 16.51757812 Z " fill="#000000" transform="translate(185.53125,79.482421875)"/>
<path d="M0 0 C1.10794922 -0.01260864 2.21589844 -0.02521729 3.35742188 -0.03820801 C4.54916016 -0.03011108 5.74089844 -0.02201416 6.96875 -0.01367188 C8.19658203 -0.01749878 9.42441406 -0.02132568 10.68945312 -0.02526855 C13.28516459 -0.02799029 15.88090336 -0.02061099 18.4765625 -0.00390625 C22.45374599 0.01749738 26.42912282 -0.0037015 30.40625 -0.02929688 C32.92708733 -0.02665365 35.44792353 -0.02152878 37.96875 -0.01367188 C39.16048828 -0.0217688 40.35222656 -0.02986572 41.58007812 -0.03820801 C43.24200195 -0.01929504 43.24200195 -0.01929504 44.9375 0 C45.91138672 0.00318237 46.88527344 0.00636475 47.88867188 0.00964355 C51.32739197 0.68661717 52.4609304 1.65443348 54.46875 4.51757812 C54.97668457 7.70507812 54.97668457 7.70507812 54.98632812 11.51757812 C54.9933374 12.21399414 55.00034668 12.91041016 55.00756836 13.62792969 C55.02514196 15.92488744 55.01352919 18.22060833 55 20.51757812 C55.00269513 22.11653886 55.00657773 23.715498 55.01159668 25.31445312 C55.01749082 28.66357038 55.00893192 32.01226056 54.99023438 35.36132812 C54.96744435 39.65236403 54.98056796 43.94239924 55.00452423 48.23339844 C55.0189848 51.53458179 55.01437515 54.83552823 55.00401306 58.13671875 C55.00134646 59.71875121 55.00461322 61.30080524 55.01393127 62.8828125 C55.02410179 65.09497975 55.0085919 67.30553112 54.98632812 69.51757812 C54.98314575 70.77570313 54.97996338 72.03382813 54.97668457 73.33007812 C54.46875 76.51757812 54.46875 76.51757812 52.78210449 78.92272949 C49.94444632 80.87903808 48.36687042 81.02395008 44.9375 81.03515625 C43.82955078 81.04776489 42.72160156 81.06037354 41.58007812 81.07336426 C40.38833984 81.06526733 39.19660156 81.05717041 37.96875 81.04882812 C36.12700195 81.05456848 36.12700195 81.05456848 34.24804688 81.0604248 C31.65233541 81.06314654 29.05659664 81.05576724 26.4609375 81.0390625 C22.48375401 81.01765887 18.50837718 81.03885775 14.53125 81.06445312 C12.01041267 81.0618099 9.48957647 81.05668503 6.96875 81.04882812 C5.18114258 81.06097351 5.18114258 81.06097351 3.35742188 81.07336426 C2.24947266 81.06075562 1.14152344 81.04814697 0 81.03515625 C-0.97388672 81.03197388 -1.94777344 81.0287915 -2.95117188 81.0255127 C-6.38989197 80.34853908 -7.5234304 79.38072277 -9.53125 76.51757812 C-10.03918457 73.33007812 -10.03918457 73.33007812 -10.04882812 69.51757812 C-10.0558374 68.82116211 -10.06284668 68.12474609 -10.07006836 67.40722656 C-10.08764196 65.11026881 -10.07602919 62.81454792 -10.0625 60.51757812 C-10.06519513 58.91861739 -10.06907773 57.31965825 -10.07409668 55.72070312 C-10.07999082 52.37158587 -10.07143192 49.02289569 -10.05273438 45.67382812 C-10.02994435 41.38279222 -10.04306796 37.09275701 -10.06702423 32.80175781 C-10.0814848 29.50057446 -10.07687515 26.19962802 -10.06651306 22.8984375 C-10.06384646 21.31640504 -10.06711322 19.73435101 -10.07643127 18.15234375 C-10.08660179 15.9401765 -10.0710919 13.72962513 -10.04882812 11.51757812 C-10.04564575 10.25945312 -10.04246338 9.00132813 -10.03918457 7.70507812 C-9.53125 4.51757812 -9.53125 4.51757812 -7.84460449 2.11242676 C-5.00694632 0.15611817 -3.42937042 0.01120617 0 0 Z M6.46875 16.51757812 C6.46875 32.35757813 6.46875 48.19757813 6.46875 64.51757812 C17.02875 64.51757812 27.58875 64.51757812 38.46875 64.51757812 C38.46875 48.67757812 38.46875 32.83757812 38.46875 16.51757812 C27.90875 16.51757812 17.34875 16.51757812 6.46875 16.51757812 Z " fill="#000000" transform="translate(89.53125,79.482421875)"/>
<path d="M0 0 C2.79207857 1.51704904 3.64921775 3.59175944 5.09765625 6.37890625 C5.6184375 7.35601562 6.13921875 8.333125 6.67578125 9.33984375 C7.84765625 12.00390625 7.84765625 12.00390625 7.84765625 15.00390625 C5.328125 16.828125 5.328125 16.828125 2.03515625 18.69140625 C0.95621094 19.31402344 -0.12273437 19.93664062 -1.234375 20.578125 C-4.15234375 22.00390625 -4.15234375 22.00390625 -7.15234375 22.00390625 C-9.01171875 19.51953125 -9.01171875 19.51953125 -10.90234375 16.25390625 C-11.5365625 15.1865625 -12.17078125 14.11921875 -12.82421875 13.01953125 C-14.15234375 10.00390625 -14.15234375 10.00390625 -14.1875 7.8203125 C-12.6297758 5.08694739 -10.58910964 4.1588952 -7.83984375 2.69140625 C-6.87433594 2.15902344 -5.90882813 1.62664062 -4.9140625 1.078125 C-2.15234375 0.00390625 -2.15234375 0.00390625 0 0 Z " fill="#000000" transform="translate(260.15234375,260.99609375)"/>
<path d="M0 0 C4.06225548 0.57823096 6.84762346 1.89117737 10.3125 4.0625 C11.19550781 4.61035156 12.07851562 5.15820312 12.98828125 5.72265625 C13.65214844 6.14417969 14.31601563 6.56570313 15 7 C14.42176904 11.06225548 13.10882263 13.84762346 10.9375 17.3125 C10.38964844 18.19550781 9.84179688 19.07851563 9.27734375 19.98828125 C8.85582031 20.65214844 8.43429688 21.31601562 8 22 C3.93774452 21.42176904 1.15237654 20.10882263 -2.3125 17.9375 C-3.19550781 17.38964844 -4.07851563 16.84179688 -4.98828125 16.27734375 C-5.65214844 15.85582031 -6.31601562 15.43429687 -7 15 C-6.42176904 10.93774452 -5.10882263 8.15237654 -2.9375 4.6875 C-2.38964844 3.80449219 -1.84179688 2.92148437 -1.27734375 2.01171875 C-0.64505859 1.01591797 -0.64505859 1.01591797 0 0 Z " fill="#000000" transform="translate(59,261)"/>
<path d="M0 0 C2.73576364 1.56834726 3.62330841 3.64470898 5.0625 6.4140625 C5.58328125 7.39117187 6.1040625 8.36828125 6.640625 9.375 C7.8125 12.0390625 7.8125 12.0390625 7.8125 15.0390625 C5.29296875 16.86328125 5.29296875 16.86328125 2 18.7265625 C0.92105469 19.34917969 -0.15789062 19.97179687 -1.26953125 20.61328125 C-4.1875 22.0390625 -4.1875 22.0390625 -7.1875 22.0390625 C-9.01171875 19.51953125 -9.01171875 19.51953125 -10.875 16.2265625 C-11.80892578 14.60814453 -11.80892578 14.60814453 -12.76171875 12.95703125 C-14.1875 10.0390625 -14.1875 10.0390625 -14.1875 7.0390625 C-11.703125 5.1796875 -11.703125 5.1796875 -8.4375 3.2890625 C-6.83648437 2.33773437 -6.83648437 2.33773437 -5.203125 1.3671875 C-2.1875 0.0390625 -2.1875 0.0390625 0 0 Z " fill="#000000" transform="translate(107.1875,219.9609375)"/>
<path d="M0 0 C1.859375 2.484375 1.859375 2.484375 3.75 5.75 C4.38421875 6.81734375 5.0184375 7.8846875 5.671875 8.984375 C7 12 7 12 7.03515625 14.18359375 C5.47743205 16.91695886 3.43676589 17.84501105 0.6875 19.3125 C-0.27800781 19.84488281 -1.24351562 20.37726563 -2.23828125 20.92578125 C-5 22 -5 22 -7.15234375 22.00390625 C-9.94442232 20.48685721 -10.8015615 18.41214681 -12.25 15.625 C-12.77078125 14.64789063 -13.2915625 13.67078125 -13.828125 12.6640625 C-15 10 -15 10 -15 7 C-12.48046875 5.17578125 -12.48046875 5.17578125 -9.1875 3.3125 C-7.56908203 2.37857422 -7.56908203 2.37857422 -5.91796875 1.42578125 C-3 0 -3 0 0 0 Z " fill="#000000" transform="translate(220,414)"/>
<path d="M0 0 C4.06225548 0.57823096 6.84762346 1.89117737 10.3125 4.0625 C11.19550781 4.61035156 12.07851562 5.15820312 12.98828125 5.72265625 C13.65214844 6.14417969 14.31601563 6.56570313 15 7 C14.42176904 11.06225548 13.10882263 13.84762346 10.9375 17.3125 C10.38964844 18.19550781 9.84179688 19.07851563 9.27734375 19.98828125 C8.85582031 20.65214844 8.43429688 21.31601562 8 22 C3.93774452 21.42176904 1.15237654 20.10882263 -2.3125 17.9375 C-3.19550781 17.38964844 -4.07851562 16.84179688 -4.98828125 16.27734375 C-5.65214844 15.85582031 -6.31601563 15.43429687 -7 15 C-6.42176904 10.93774452 -5.10882263 8.15237654 -2.9375 4.6875 C-2.38964844 3.80449219 -1.84179688 2.92148437 -1.27734375 2.01171875 C-0.64505859 1.01591797 -0.64505859 1.01591797 0 0 Z " fill="#000000" transform="translate(100,414)"/>
<path d="M0 0 C4.06225548 0.57823096 6.84762346 1.89117737 10.3125 4.0625 C11.19550781 4.61035156 12.07851563 5.15820312 12.98828125 5.72265625 C13.65214844 6.14417969 14.31601562 6.56570313 15 7 C14.42176904 11.06225548 13.10882263 13.84762346 10.9375 17.3125 C10.38964844 18.19550781 9.84179688 19.07851563 9.27734375 19.98828125 C8.85582031 20.65214844 8.43429687 21.31601562 8 22 C3.93774452 21.42176904 1.15237654 20.10882263 -2.3125 17.9375 C-3.19550781 17.38964844 -4.07851562 16.84179688 -4.98828125 16.27734375 C-5.65214844 15.85582031 -6.31601563 15.43429687 -7 15 C-6.42176904 10.93774452 -5.10882263 8.15237654 -2.9375 4.6875 C-2.38964844 3.80449219 -1.84179688 2.92148437 -1.27734375 2.01171875 C-0.64505859 1.01591797 -0.64505859 1.01591797 0 0 Z " fill="#000000" transform="translate(253,373)"/>
<path d="M0 0 C2.73576364 1.56834726 3.62330841 3.64470898 5.0625 6.4140625 C5.58328125 7.39117187 6.1040625 8.36828125 6.640625 9.375 C7.8125 12.0390625 7.8125 12.0390625 7.8125 15.0390625 C5.29296875 16.86328125 5.29296875 16.86328125 2 18.7265625 C0.92105469 19.34917969 -0.15789062 19.97179687 -1.26953125 20.61328125 C-4.1875 22.0390625 -4.1875 22.0390625 -7.1875 22.0390625 C-9.01171875 19.51953125 -9.01171875 19.51953125 -10.875 16.2265625 C-11.80892578 14.60814453 -11.80892578 14.60814453 -12.76171875 12.95703125 C-14.1875 10.0390625 -14.1875 10.0390625 -14.1875 7.0390625 C-11.703125 5.1796875 -11.703125 5.1796875 -8.4375 3.2890625 C-6.83648437 2.33773438 -6.83648437 2.33773438 -5.203125 1.3671875 C-2.1875 0.0390625 -2.1875 0.0390625 0 0 Z " fill="#000000" transform="translate(66.1875,372.9609375)"/>
<path d="M0 0 C4.06225548 0.57823096 6.84762346 1.89117737 10.3125 4.0625 C11.19550781 4.61035156 12.07851562 5.15820312 12.98828125 5.72265625 C13.65214844 6.14417969 14.31601563 6.56570312 15 7 C14.42176904 11.06225548 13.10882263 13.84762346 10.9375 17.3125 C10.38964844 18.19550781 9.84179688 19.07851562 9.27734375 19.98828125 C8.85582031 20.65214844 8.43429688 21.31601563 8 22 C3.93774452 21.42176904 1.15237654 20.10882263 -2.3125 17.9375 C-3.19550781 17.38964844 -4.07851562 16.84179688 -4.98828125 16.27734375 C-5.65214844 15.85582031 -6.31601563 15.43429688 -7 15 C-6.42176904 10.93774452 -5.10882263 8.15237654 -2.9375 4.6875 C-2.38964844 3.80449219 -1.84179688 2.92148438 -1.27734375 2.01171875 C-0.64505859 1.01591797 -0.64505859 1.01591797 0 0 Z " fill="#000000" transform="translate(212,220)"/>
<path d="M0 0 C5.28 0 10.56 0 16 0 C16 5.28 16 10.56 16 16 C10.72 16 5.44 16 0 16 C0 10.72 0 5.44 0 0 Z " fill="#000000" transform="translate(152,432)"/>
<path d="M0 0 C5.28 0 10.56 0 16 0 C16 5.28 16 10.56 16 16 C10.72 16 5.44 16 0 16 C0 10.72 0 5.44 0 0 Z " fill="#000000" transform="translate(264,320)"/>
<path d="M0 0 C5.28 0 10.56 0 16 0 C16 5.28 16 10.56 16 16 C10.72 16 5.44 16 0 16 C0 10.72 0 5.44 0 0 Z " fill="#000000" transform="translate(40,320)"/>
<path d="M0 0 C5.28 0 10.56 0 16 0 C16 5.28 16 10.56 16 16 C10.72 16 5.44 16 0 16 C0 10.72 0 5.44 0 0 Z " fill="#000000" transform="translate(152,208)"/>
<path d="M0 0 C5.28 0 10.56 0 16 0 C16 5.28 16 10.56 16 16 C10.72 16 5.44 16 0 16 C0 10.72 0 5.44 0 0 Z " fill="#000000" transform="translate(152,144)"/>
</svg>
