<?xml version="1.0" encoding="UTF-8"?>
<svg version="1.1" xmlns="http://www.w3.org/2000/svg" width="512" height="512">
<path d="M0 0 C1.29292969 -0.01224609 2.58585937 -0.02449219 3.91796875 -0.03710938 C5.15933594 -0.03904297 6.40070313 -0.04097656 7.6796875 -0.04296875 C8.81905762 -0.04707764 9.95842773 -0.05118652 11.13232422 -0.05541992 C14.06662209 0.18276138 15.72906166 0.50612125 18.125 2.1875 C19.171875 5.0859375 19.171875 5.0859375 19.875 8.5625 C20.11734375 9.70460938 20.3596875 10.84671875 20.609375 12.0234375 C21.125 15.1875 21.125 15.1875 21.125 19.1875 C21.7746875 19.27773438 22.424375 19.36796875 23.09375 19.4609375 C27.93343928 20.62096612 32.36241512 22.78867057 36.88671875 24.8359375 C41.22545476 26.71072784 41.22545476 26.71072784 45.87890625 27.08984375 C49.25262979 25.73448699 51.86892924 23.65231229 54.74609375 21.46484375 C57.83306008 19.80731011 59.64770811 19.81584412 63.125 20.1875 C67.03326598 22.86566675 70.19005541 26.37159008 73.5 29.75 C74.42683594 30.64525391 75.35367188 31.54050781 76.30859375 32.46289062 C77.62150391 33.78256836 77.62150391 33.78256836 78.9609375 35.12890625 C79.76063965 35.93013916 80.5603418 36.73137207 81.38427734 37.55688477 C83.64830504 40.97832914 83.55524472 43.16044465 83.125 47.1875 C81.55859375 49.8828125 81.55859375 49.8828125 79.5625 52.3125 C76.80558444 55.46358375 76.80558444 55.46358375 76.21875 59.39453125 C76.5178125 60.31621094 76.816875 61.23789062 77.125 62.1875 C77.41612671 63.23212402 77.41612671 63.23212402 77.71313477 64.29785156 C80.437614 74.60777731 80.437614 74.60777731 87.03759766 82.40966797 C90.54510689 83.75008111 93.99290429 84.2870009 97.7109375 84.6875 C98.83757812 84.8525 99.96421875 85.0175 101.125 85.1875 C104.31624845 89.97437268 103.45826278 95.46921241 103.44067383 101.06640625 C103.43751091 103.1802105 103.46099013 105.29261846 103.48632812 107.40625 C103.48860095 108.74999824 103.48930469 110.09375023 103.48828125 111.4375 C103.49126221 112.65953125 103.49424316 113.8815625 103.49731445 115.140625 C103.125 118.1875 103.125 118.1875 101.79174805 120.05004883 C99.2381505 121.79271925 96.63108641 122.23519107 93.625 122.875 C92.4803125 123.12636719 91.335625 123.37773437 90.15625 123.63671875 C87.125 124.1875 87.125 124.1875 84.125 124.1875 C84.03476562 124.83589844 83.94453125 125.48429687 83.8515625 126.15234375 C82.68628393 131.02020099 80.51651718 135.4783557 78.4765625 140.03710938 C78.16203125 140.76865234 77.8475 141.50019531 77.5234375 142.25390625 C77.23130371 142.91334229 76.93916992 143.57277832 76.63818359 144.25219727 C76.01155133 146.61533424 76.30739243 147.90458128 77.125 150.1875 C78.61595044 152.42186063 80.21848222 154.54060493 81.84765625 156.67578125 C83.58126345 160.0846786 83.47761962 162.39348499 83.125 166.1875 C81.38427734 168.81811523 81.38427734 168.81811523 78.9609375 171.24609375 C77.64802734 172.56577148 77.64802734 172.56577148 76.30859375 173.91210938 C74.91833984 175.25499023 74.91833984 175.25499023 73.5 176.625 C72.59636719 177.54732422 71.69273437 178.46964844 70.76171875 179.41992188 C63.99970851 186.08815241 63.99970851 186.08815241 59.9909668 186.54345703 C55.39504643 185.97263738 52.47588973 183.28963678 48.80859375 180.62109375 C46.29354577 178.99298025 46.29354577 178.99298025 43.82421875 179.25 C39.18321668 180.86192547 34.69627103 182.80211613 30.1875 184.74804688 C29.45273437 185.05935547 28.71796875 185.37066406 27.9609375 185.69140625 C27.29626465 185.97830322 26.6315918 186.2652002 25.94677734 186.56079102 C24.125 187.1875 24.125 187.1875 21.125 187.1875 C21.05152344 188.04021484 21.05152344 188.04021484 20.9765625 188.91015625 C19.75161738 201.56088262 19.75161738 201.56088262 16.125 205.1875 C11.58370068 205.63391111 7.02772062 205.6016737 2.46704102 205.61303711 C0.19893576 205.62493999 -2.06645336 205.67411031 -4.33398438 205.72460938 C-5.77342421 205.73407298 -7.21288076 205.74130832 -8.65234375 205.74609375 C-10.62062134 205.76627563 -10.62062134 205.76627563 -12.62866211 205.78686523 C-15.875 205.1875 -15.875 205.1875 -17.78076172 202.86083984 C-19.07896833 199.6891838 -19.61653807 196.77117159 -20.0625 193.375 C-20.22105469 192.21355469 -20.37960937 191.05210937 -20.54296875 189.85546875 C-20.70732422 188.53482422 -20.70732422 188.53482422 -20.875 187.1875 C-21.45765625 187.02894531 -22.0403125 186.87039063 -22.640625 186.70703125 C-28.75168269 184.96787804 -34.43622145 182.7293139 -40.2109375 180.078125 C-43.11543547 179.10711981 -44.10677252 178.98906006 -46.875 180.1875 C-48.36319028 181.16429399 -49.82050312 182.18916284 -51.25 183.25 C-53.93731926 185.05615911 -55.78521937 186.16368065 -58.9375 187 C-63.68816182 185.68598716 -66.41866714 182.59241634 -69.875 179.1875 C-70.92159648 178.22224172 -71.96988448 177.25881544 -73.01953125 176.296875 C-74.1186223 175.2619383 -75.21627946 174.22547671 -76.3125 173.1875 C-76.84504395 172.7018457 -77.37758789 172.21619141 -77.92626953 171.71582031 C-80.58013129 169.13503217 -81.86484663 167.22108423 -82.94140625 163.66015625 C-82.86146901 159.47990863 -81.87254541 157.92464173 -79.375 154.625 C-76.49565659 150.90409347 -76.49565659 150.90409347 -75.93359375 146.39453125 C-77.14513383 142.26725155 -78.72946023 138.38121162 -80.4375 134.4375 C-83.875 126.43236301 -83.875 126.43236301 -83.875 124.1875 C-84.75542969 124.07792969 -85.63585937 123.96835937 -86.54296875 123.85546875 C-88.28513672 123.61763672 -88.28513672 123.61763672 -90.0625 123.375 C-91.78533203 123.14876953 -91.78533203 123.14876953 -93.54296875 122.91796875 C-97.09101301 122.14014428 -99.06355271 121.48119619 -101.875 119.1875 C-102.52197266 115.95703125 -102.52197266 115.95703125 -102.5390625 112 C-102.54384613 111.30108643 -102.54862976 110.60217285 -102.55355835 109.88208008 C-102.55695712 108.40606431 -102.54775561 106.92997326 -102.52685547 105.45410156 C-102.50008006 103.194257 -102.52659378 100.93937755 -102.55859375 98.6796875 C-102.55528964 97.2447807 -102.54888334 95.80987699 -102.5390625 94.375 C-102.53342285 93.06917969 -102.5277832 91.76335937 -102.52197266 90.41796875 C-101.875 87.1875 -101.875 87.1875 -99.54174805 85.28393555 C-96.37265031 83.98095853 -93.45803032 83.44587772 -90.0625 83 C-88.90105469 82.84144531 -87.73960937 82.68289063 -86.54296875 82.51953125 C-85.22232422 82.35517578 -85.22232422 82.35517578 -83.875 82.1875 C-83.63716797 81.31351563 -83.63716797 81.31351563 -83.39453125 80.421875 C-81.66215906 74.33464453 -79.43277826 68.68972965 -76.765625 62.94921875 C-75.7410248 59.77205935 -75.7915627 58.32136769 -76.875 55.1875 C-78.36752855 52.90433471 -80.00620282 50.80463928 -81.6953125 48.6640625 C-82.96409178 46.00046626 -83.34429682 44.12645806 -82.76611328 41.20800781 C-80.64342357 36.39502698 -76.45222023 32.87233602 -72.75 29.25 C-71.90695312 28.37537109 -71.06390625 27.50074219 -70.1953125 26.59960938 C-63.97851093 20.41659477 -63.97851093 20.41659477 -59.07421875 19.3984375 C-54.53962268 20.51686046 -51.93476594 22.81690044 -48.40234375 25.75390625 C-45.95359015 27.42836608 -45.95359015 27.42836608 -43.078125 27.125 C-39.09752109 25.9599452 -35.44234292 24.37264578 -31.6875 22.625 C-24.26761252 19.1875 -24.26761252 19.1875 -20.875 19.1875 C-20.76542969 18.30707031 -20.65585937 17.42664063 -20.54296875 16.51953125 C-20.30513672 14.77736328 -20.30513672 14.77736328 -20.0625 13 C-19.83626953 11.27716797 -19.83626953 11.27716797 -19.60546875 9.51953125 C-18.86420688 6.13826723 -17.89807705 3.97496384 -15.875 1.1875 C-11.32650564 -1.08674718 -4.99383178 0.00247464 0 0 Z M-38.875 69.1875 C-48.56929461 82.07357668 -52.26735337 95.16974541 -50.875 111.1875 C-48.31364684 124.62362685 -41.24791761 136.64312031 -30.25 144.8125 C-18.31155453 152.8316676 -6.08355311 155.45018399 8.125 154.1875 C22.9423002 151.24641776 35.43349403 143.49438695 44 130.9375 C51.38345201 118.3175572 53.04225535 104.7948003 50.46484375 90.53515625 C46.71608041 76.88706115 38.42707092 66.12774361 26.59765625 58.5390625 C4.78655085 46.61703649 -21.95451659 50.82473006 -38.875 69.1875 Z " fill="#000000" transform="translate(399.875,295.8125)"/>
<path d="M0 0 C0.08636719 1.2065625 0.17273438 2.413125 0.26171875 3.65625 C1.14124535 14.24261226 2.11213002 21.11213002 9.8125 28.8125 C15.72251534 32.86839288 21.72085379 35.15774355 29 34 C36.64062417 32.08683584 41.73596221 28.65142385 46 22 C49.52296256 15.13607295 49.66037091 7.57724222 50 0 C70.41522902 6.28160893 85.05769266 18.27377201 95.5 37.03125 C102.35542632 50.59928125 103.3553618 64.3272802 103.31567383 79.26171875 C103.31252267 81.73222416 103.33602514 84.20151733 103.36132812 86.671875 C103.45792887 110.7907637 97.10328774 132.64315443 79.87890625 150.24609375 C63.93963718 165.49329143 44.27768706 172.73824695 22.45166016 172.46850586 C0.158573 171.6445093 -18.29208277 162.31011893 -33.6875 146.3125 C-49.04566882 128.61482518 -53.58235736 107.05943662 -53.39111328 84.21557617 C-53.37497615 81.93412795 -53.39111002 79.65444354 -53.41015625 77.37304688 C-53.44539027 53.82708654 -47.24301519 34.6982777 -30.8125 17.3125 C-23.51178917 10.24403862 -10.90105015 0 0 0 Z M-27 68 C-29.06714672 73.10489412 -28.22635269 79.46567726 -28.25 84.875 C-28.270625 86.04675781 -28.29125 87.21851563 -28.3125 88.42578125 C-28.43643783 96.71649008 -28.43643783 96.71649008 -25 104 C-21.61065129 105.69467436 -17.75340528 105.16566034 -14.02392578 105.17700195 C-13.09371613 105.18357315 -12.16350647 105.19014435 -11.20510864 105.19691467 C-8.11850917 105.21666962 -5.03195837 105.22831413 -1.9453125 105.23828125 C-0.89301327 105.24235678 0.15928596 105.2464323 1.24347305 105.25063133 C6.81123917 105.27149976 12.37898056 105.2857991 17.94677734 105.29516602 C23.70621261 105.30624224 29.46526277 105.34065409 35.22456169 105.38033772 C39.64601374 105.40644169 44.06737308 105.41485224 48.48889542 105.41844749 C50.61242402 105.42332824 52.73594809 105.43498425 54.8594017 105.45348549 C57.82829367 105.47774831 60.79617665 105.47693558 63.76513672 105.4699707 C64.64528442 105.48278076 65.52543213 105.49559082 66.43225098 105.50878906 C71.31550118 105.48458105 71.31550118 105.48458105 75.51467896 103.15812683 C79.20555321 97.79539748 78.18412281 91.37279654 78.1875 85.125 C78.19974609 83.94035156 78.21199219 82.75570312 78.22460938 81.53515625 C78.22654297 80.39175781 78.22847656 79.24835938 78.23046875 78.0703125 C78.23457764 77.02633301 78.23868652 75.98235352 78.24291992 74.90673828 C77.98681197 71.84219434 77.42155083 69.72121217 76 67 C72.01471083 64.34314055 68.53754492 64.71232413 63.91040039 64.7253418 C62.98004471 64.72023087 62.04968903 64.71511993 61.09114075 64.70985413 C58.00991415 64.69593244 54.92891059 64.69691683 51.84765625 64.69921875 C49.70918189 64.69533326 47.5707083 64.69099889 45.43223572 64.68623352 C40.94739278 64.67876578 36.46262855 64.67906663 31.9777832 64.68432617 C26.22627246 64.69012171 20.47508364 64.67319031 14.72362614 64.6499815 C10.30645357 64.63526046 5.88935882 64.63437024 1.47216606 64.63749123 C-0.64855143 64.6369772 -2.7692732 64.63172429 -4.88996696 64.62167931 C-7.85386033 64.60936383 -10.81712284 64.61607729 -13.78100586 64.62768555 C-14.65958252 64.62004181 -15.53815918 64.61239807 -16.44335938 64.60452271 C-22.33163159 64.61529115 -22.33163159 64.61529115 -27 68 Z M2 133 C0.67091833 135.89072953 0.67091833 135.89072953 1 139 C2.97980616 141.68643781 4.5871331 143.6569609 7.93289185 144.46929932 C10.26215147 144.66166685 12.54185012 144.69309533 14.87890625 144.6640625 C15.72799057 144.66884613 16.57707489 144.67362976 17.45188904 144.67855835 C19.24130107 144.68195142 21.03077558 144.6727904 22.82006836 144.65185547 C25.55788206 144.62504522 28.29160903 144.65163726 31.02929688 144.68359375 C32.77084237 144.68029019 34.51238532 144.67388507 36.25390625 144.6640625 C37.07065323 144.67418365 37.88740021 144.68430481 38.72889709 144.69473267 C42.84489062 144.60986347 44.42148791 144.53216246 47.55053711 141.65380859 C49.25978583 139.04668471 49.25978583 139.04668471 48.9375 135.875 C47.99835204 132.99494626 47.37365928 131.80398105 45 130 C41.87507581 128.43753791 38.53804567 128.79501873 35.10546875 128.76171875 C34.3210994 128.753647 33.53673004 128.74557526 32.72859192 128.73725891 C31.06672373 128.72341938 29.40482713 128.71269663 27.74291992 128.70483398 C25.20761865 128.68763647 22.67362686 128.64375345 20.13867188 128.59960938 C18.52344708 128.58948085 16.90821121 128.58096524 15.29296875 128.57421875 C14.53759323 128.55671066 13.78221771 128.53920258 13.00395203 128.52116394 C8.04003252 128.54150572 5.4352601 129.38899191 2 133 Z " fill="#000000" transform="translate(155,35)"/>
<path d="M0 0 C1.01535771 -0.00785502 1.01535771 -0.00785502 2.05122769 -0.01586872 C4.32434182 -0.03089648 6.5972314 -0.03157447 8.87039185 -0.03224182 C10.49817282 -0.03986144 12.1259502 -0.0482886 13.75372314 -0.0574646 C18.17936682 -0.0794357 22.60494139 -0.08821197 27.03063345 -0.09329104 C29.7947748 -0.09693146 32.55889795 -0.10316986 35.32303238 -0.11029243 C44.96382698 -0.13479576 54.6045677 -0.14784079 64.24539185 -0.15138245 C73.23582872 -0.15501868 82.22592441 -0.184918 91.21625698 -0.22678703 C98.93184262 -0.26146137 106.64731504 -0.27693039 114.3629781 -0.27762848 C118.97259549 -0.27842226 123.58186545 -0.28720692 128.19140244 -0.31562614 C132.52699371 -0.34175813 136.86194832 -0.34403958 141.19758224 -0.3279705 C142.7887053 -0.32615212 144.37986455 -0.33288191 145.97090912 -0.34878922 C148.14396018 -0.36919063 150.31477108 -0.35873703 152.48779297 -0.34057617 C154.31124646 -0.34359316 154.31124646 -0.34359316 156.1715374 -0.3466711 C160.27754394 0.45009088 161.74924547 2.0940001 164.37088013 5.27415466 C166.06152358 8.65544157 165.51805715 12.49558684 165.5161438 16.21507263 C165.51950241 17.14218552 165.52286102 18.0692984 165.52632141 19.02450562 C165.53585743 22.10513128 165.53777651 25.18570264 165.53884888 28.26634216 C165.542062 30.40950035 165.54542612 32.55265832 165.54893494 34.69581604 C165.55493449 39.20012418 165.55677423 43.70441312 165.55618286 48.20872498 C165.55608173 53.9560394 165.56967875 59.7032289 165.58695507 65.45051384 C165.59812998 69.88429824 165.60010031 74.31805309 165.59957314 78.75185013 C165.60074711 80.86874442 165.60513589 82.98563963 165.6129055 85.10251999 C165.69435344 109.60778258 162.05302472 127.19781577 144.94509888 145.69993591 C136.70347186 153.94156293 127.48286181 161.44096192 117.37088013 167.27415466 C116.71088013 167.27415466 116.05088013 167.27415466 115.37088013 167.27415466 C115.1219313 162.16993768 114.94145673 157.06931496 114.82156372 151.96043396 C114.77155471 150.22673449 114.70351611 148.49345088 114.6164856 146.76121521 C113.9105264 132.33888419 113.9105264 132.33888419 117.52053833 127.23484802 C120.19509888 124.86790466 120.19509888 124.86790466 122.86965942 123.01829529 C128.87938707 118.82761746 132.66426537 111.28115823 134.37088013 104.27415466 C134.82610737 98.95753152 134.81825591 93.65230337 134.80447388 88.32102966 C134.80904071 86.77262647 134.81434777 85.22422529 134.82035828 83.67582703 C134.82925576 80.44484673 134.82690171 77.21411412 134.81692505 73.98313904 C134.80539026 69.84470067 134.82573176 65.7071099 134.85484219 61.56878281 C134.87318238 58.37743217 134.872917 55.18628603 134.86720467 51.99489594 C134.86705144 50.46867425 134.87309654 48.94243872 134.88549614 47.4162674 C134.90037876 45.28599485 134.88975517 43.1573073 134.87258911 41.02708435 C134.87242294 39.81655396 134.87225677 38.60602356 134.87208557 37.35881042 C134.55852085 34.27002839 134.55852085 34.27002839 132.98356628 31.88444519 C128.85238514 29.3382527 124.82684161 29.71760965 120.06619263 29.75657654 C118.49487579 29.74606262 118.49487579 29.74606262 116.89181519 29.7353363 C113.42623452 29.71771911 109.96146922 29.72939287 106.49588013 29.74290466 C104.08979129 29.74021084 101.68370351 29.73632933 99.27761841 29.73130798 C94.23373047 29.72540786 89.19012578 29.73399282 84.14627075 29.75267029 C77.67612157 29.77545967 71.20663605 29.7623394 64.73651123 29.73838043 C59.7677204 29.72393662 54.79908729 29.72852204 49.83029175 29.7388916 C47.44442669 29.74156279 45.05854739 29.73827544 42.67269897 29.72897339 C39.33993516 29.71883156 36.00825089 29.73427706 32.67556763 29.75657654 C31.68635315 29.74847961 30.69713867 29.74038269 29.677948 29.73204041 C24.44501785 29.78249695 24.44501785 29.78249695 19.75918579 31.88642883 C17.90653215 35.0727797 17.86303386 37.31193157 17.853302 40.99534607 C17.84629272 41.66261719 17.83928345 42.32988831 17.83206177 43.01737976 C17.81447838 45.22058434 17.82611216 47.42249973 17.83963013 49.62571716 C17.83693336 51.16546371 17.83304941 52.7052086 17.82803345 54.24494934 C17.82213638 57.47473844 17.83070042 60.70408503 17.84939575 63.93382263 C17.87207115 68.04940808 17.85913738 72.16394347 17.8351059 76.27948952 C17.82055462 79.46253664 17.82529816 82.64534083 17.83561707 85.82839584 C17.8382647 87.34406537 17.83508454 88.85975776 17.82569885 90.37540054 C17.77230632 101.43055423 18.8209682 110.69874386 26.12088013 119.46165466 C26.73447388 120.21833435 27.34806763 120.97501404 27.98025513 121.75462341 C30.1453654 124.26750684 30.1453654 124.26750684 32.41970825 125.48387146 C35.10468233 127.22644329 36.62857603 128.5631815 38.37088013 131.27415466 C39.23673616 137.46933148 38.80444244 143.49225739 38.37088013 149.71165466 C38.28245414 151.41393595 38.1977803 153.11641654 38.11697388 154.81907654 C37.91160897 158.97433284 37.65517894 163.12358239 37.37088013 167.27415466 C17.97560628 159.81738185 0.31177577 140.57669399 -8.62911987 122.27415466 C-12.19848542 113.30751319 -12.77783376 104.19714054 -12.79025269 94.64866638 C-12.79521759 93.72079315 -12.8001825 92.79291992 -12.80529785 91.83692932 C-12.81980684 88.7925592 -12.82669991 85.74824105 -12.83224487 82.70384216 C-12.83800233 80.57730611 -12.84375999 78.45077006 -12.84951782 76.32423401 C-12.85999341 71.87768819 -12.86585964 67.43116029 -12.86935425 62.98460388 C-12.87485449 57.2906262 -12.89892966 51.59688577 -12.9273262 45.90298271 C-12.94595028 41.51577559 -12.9511579 37.12862591 -12.95269012 32.7413826 C-12.95571391 30.64184893 -12.96373318 28.54231621 -12.97687531 26.4428215 C-12.99394282 23.50864738 -12.99205459 20.5750576 -12.98556519 17.64085388 C-12.99477997 16.777323 -13.00399475 15.91379211 -13.01348877 15.02409363 C-12.97900201 10.04259657 -12.44289273 6.5653568 -9.62911987 2.27415466 C-6.00183822 -0.14403311 -4.31970765 0.01653563 0 0 Z " fill="#000000" transform="translate(103.62911987304688,225.72584533691406)"/>
<path d="M0 0 C2.6976898 2.11256476 3.89112468 3.19203447 4.35546875 6.63793945 C4.30003906 7.61980225 4.24460937 8.60166504 4.1875 9.61328125 C4.1575293 10.69432129 4.12755859 11.77536133 4.09667969 12.88916016 C4.06477539 14.0188623 4.03287109 15.14856445 4 16.3125 C3.77369458 23.87894605 3.77369458 23.87894605 6.12695312 30.86962891 C9.22606054 33.85683595 12.83106197 35.24874467 17 36 C20.78882447 35.67524362 23.44662221 34.36882106 26.6875 32.4375 C30.79603399 30 30.79603399 30 33 30 C32.97905273 29.26885986 32.95810547 28.53771973 32.93652344 27.78442383 C32.85319686 24.46058999 32.80128668 21.13697616 32.75 17.8125 C32.71648437 16.66201172 32.68296875 15.51152344 32.6484375 14.32617188 C32.63554687 13.21435547 32.62265625 12.10253906 32.609375 10.95703125 C32.58842773 9.93585205 32.56748047 8.91467285 32.54589844 7.86254883 C33.12211914 4.23018981 34.44163892 2.59509919 37 0 C40.63293114 -1.23674251 42.24191953 -1.34458203 45.75 0.25 C48 2 48 2 50 5 C50.4116696 9.53251685 50.37160195 14.07461075 50.37060547 18.62353516 C50.37497166 20.86047902 50.41127697 23.09543738 50.44921875 25.33203125 C50.45508877 26.76040995 50.45905693 28.18879798 50.4609375 29.6171875 C50.46915527 30.91253418 50.47737305 32.20788086 50.48583984 33.54248047 C49.91574047 37.59963991 48.88130169 39.14179175 46 42 C44.01708984 43.4855957 44.01708984 43.4855957 41.9609375 44.67578125 C41.21585937 45.11083984 40.47078125 45.54589844 39.703125 45.99414062 C38.55070312 46.64672852 38.55070312 46.64672852 37.375 47.3125 C36.59898437 47.76689453 35.82296875 48.22128906 35.0234375 48.68945312 C29.28847509 52 29.28847509 52 27 52 C27 57.94 27 63.88 27 70 C28.65 70.33 30.3 70.66 32 71 C39.64268657 74.29857763 43.73239873 79.95169059 47.0703125 87.3828125 C50.06390223 95.77025761 49.57094211 104.19575983 45.9375 112.3125 C43.24321131 117.18900497 39.63548114 120.90967924 35 124 C34.34 124 33.68 124 33 124 C33.00888245 124.86728729 33.01776489 125.73457458 33.0269165 126.62814331 C33.1073565 134.83658183 33.16811307 143.04488628 33.20724869 151.25362968 C33.22804578 155.47296967 33.25621744 159.69198158 33.30175781 163.91113281 C33.34549932 167.98955597 33.36919622 172.0676653 33.37950897 176.14630508 C33.38684995 177.69551655 33.40118416 179.24471254 33.42292023 180.79378891 C33.57279223 191.92642231 32.7846412 201.89597391 24.84375 210.46484375 C19.13995189 215.21398074 12.09547819 218.15068199 4.671875 218.09765625 C3.87265625 218.09443359 3.0734375 218.09121094 2.25 218.08789062 C1.425 218.07951172 0.6 218.07113281 -0.25 218.0625 C-1.09046875 218.05798828 -1.9309375 218.05347656 -2.796875 218.04882812 C-4.86461401 218.03707961 -6.93231624 218.01914522 -9 218 C-8.76941895 217.12577393 -8.76941895 217.12577393 -8.53417969 216.23388672 C-5.58747715 204.60060679 -6.01700369 191.55911069 -9 180 C-4.71 180 -0.42 180 4 180 C4 161.52 4 143.04 4 124 C2.68 123.34 1.36 122.68 0 122 C-6.30315474 116.32716074 -10.47357495 110.22140199 -11.3359375 101.66796875 C-11.45940913 90.6666462 -9.38085638 83.82163235 -1.87109375 75.73046875 C1.62786901 72.49447605 5.09273065 70 10 70 C10.69538297 63.97772105 11.40582779 57.71509403 9 52 C4.63181791 47.58228929 -1.31948867 45.22201982 -7.02294922 42.97290039 C-9.19066313 41.90617528 -10.46379345 40.85723507 -12 39 C-13.69066316 33.92801052 -13.2253202 28.53916192 -13.24023438 23.23095703 C-13.24993395 21.13924294 -13.28096762 19.04851463 -13.3125 16.95703125 C-13.3190314 15.61979747 -13.32428133 14.2825567 -13.328125 12.9453125 C-13.3374707 11.73375488 -13.34681641 10.52219727 -13.35644531 9.27392578 C-12.96836658 5.70944923 -12.11620704 3.85902037 -10 1 C-6.62055069 -1.56372016 -3.97046734 -1.15805297 0 0 Z M9 89 C5.99868734 92.37647674 5.46103603 95.49314078 5.6484375 100.0078125 C6.42504583 104.40859302 8.94382647 107.14364308 12.3125 109.875 C15.79352761 111.33217435 18.25528098 111.40121989 22 111 C26.10656241 109.18547242 28.558277 106.74978889 31 103 C32.26356929 99.12505417 32.09212647 97.29685195 30.875 93.375 C28.21032607 88.57858693 25.94501014 86.58717287 20.6875 85 C15.92150608 85 12.8637206 86.26754894 9 89 Z " fill="#000000" transform="translate(353,75)"/>
<path d="M0 0 C4.5587717 3.76594184 8.11872037 8.35616111 10 14 C10.09819981 15.68198815 10.13924695 17.36758026 10.14717102 19.05241394 C10.15432632 20.09674591 10.16148163 21.14107788 10.16885376 22.21705627 C10.17154266 23.3625444 10.17423157 24.50803253 10.17700195 25.68823242 C10.18685875 27.49840851 10.18685875 27.49840851 10.19691467 29.34515381 C10.2166646 33.34859464 10.2283169 37.35199538 10.23828125 41.35546875 C10.24232989 42.73560417 10.24644685 44.11573939 10.25063133 45.4958744 C10.26968066 51.98213113 10.28391082 58.46837651 10.2922433 64.95465583 C10.30200762 72.4313565 10.32830681 79.90776049 10.36874419 87.38435668 C10.39895533 93.16963482 10.41371699 98.95482818 10.41702431 104.74018365 C10.41936962 108.19237808 10.42826117 111.64425547 10.45348549 115.09636497 C10.48120729 118.95260361 10.47691978 122.80845558 10.4699707 126.66479492 C10.48278076 127.8001619 10.49559082 128.93552887 10.50878906 130.1053009 C10.45784019 137.87132744 9.29511525 143.23976908 4.03515625 149.2421875 C3.38417969 149.78101563 2.73320312 150.31984375 2.0625 150.875 C1.41410156 151.42929687 0.76570313 151.98359375 0.09765625 152.5546875 C-6.40357557 157.03412097 -13.37140917 156.67463728 -21 156 C-27.65959333 154.31914417 -32.18547447 149.53621678 -36 144 C-37.66401264 140.43474535 -38.25292441 137.63033103 -38.26742554 133.70707703 C-38.27595551 132.65999573 -38.28448547 131.61291443 -38.29327393 130.53410339 C-38.29191437 128.82665703 -38.29191437 128.82665703 -38.29052734 127.0847168 C-38.29724457 125.87764069 -38.30396179 124.67056458 -38.31088257 123.4269104 C-38.32661065 120.12297858 -38.33323675 116.81929818 -38.33451414 113.51534629 C-38.3359381 111.44834367 -38.34021236 109.38136721 -38.34550858 107.31437111 C-38.36400043 100.09506184 -38.37218038 92.87582631 -38.37060547 85.65649414 C-38.36940478 78.94051043 -38.39049475 72.22484845 -38.4220928 65.50894612 C-38.44829824 59.73210735 -38.45897096 53.95537338 -38.45769465 48.17847568 C-38.4571862 44.73303679 -38.46280381 41.28788387 -38.48405075 37.8425045 C-38.50712436 33.99603238 -38.49788611 30.14999673 -38.48583984 26.3034668 C-38.49707886 25.17124191 -38.50831787 24.03901703 -38.51989746 22.8724823 C-38.45546698 14.76553446 -36.91418691 9.46551957 -31.6875 3.25 C-21.62340139 -5.17575698 -11.58036397 -6.14019299 0 0 Z M-19.16197205 56.59741211 C-21.61387086 59.80242452 -21.51309853 61.80286114 -21.53344727 65.81640625 C-21.54206284 66.49331512 -21.55067841 67.170224 -21.55955505 67.86764526 C-21.58221233 70.0996552 -21.57547815 72.33040942 -21.56640625 74.5625 C-21.57164174 76.11662163 -21.57791795 77.67074008 -21.58518982 79.22485352 C-21.59559328 82.4798072 -21.59103335 85.7343237 -21.57641602 88.98925781 C-21.55922106 93.15938979 -21.58273063 97.32814484 -21.61790562 101.49812317 C-21.63987083 104.70667643 -21.63844056 107.91489969 -21.6301403 111.12350464 C-21.62932041 112.66089387 -21.63619115 114.19830724 -21.65091133 115.73562622 C-21.66834484 117.88580885 -21.65383109 120.03351075 -21.63110352 122.18359375 C-21.63014175 123.40618896 -21.62917999 124.62878418 -21.62818909 125.88842773 C-21.25595857 129.17082803 -21.25595857 129.17082803 -18.65586853 131.42993164 C-16.06566735 133.27538481 -16.06566735 133.27538481 -12.875 132.9375 C-9.96328056 131.98802627 -8.74107692 131.47416193 -7 129 C-5.88770569 125.60761066 -5.86101906 122.39524423 -5.83886719 118.84204102 C-5.82445587 116.97474083 -5.82445587 116.97474083 -5.80975342 115.06971741 C-5.80490585 113.71444889 -5.80062692 112.35917824 -5.796875 111.00390625 C-5.79111916 109.60912577 -5.78536148 108.21434529 -5.77960205 106.81956482 C-5.76911206 103.89850497 -5.76325593 100.9774725 -5.75976562 98.05639648 C-5.75427695 94.31942116 -5.73023294 90.58280944 -5.70179367 86.84594822 C-5.6831439 83.96598765 -5.67796052 81.08611441 -5.67642975 78.20609856 C-5.6734093 76.82862288 -5.66540125 75.45114853 -5.65224457 74.07373238 C-5.63513281 72.14501315 -5.63891655 70.21614307 -5.64355469 68.28735352 C-5.63808624 66.64332298 -5.63808624 66.64332298 -5.63250732 64.96607971 C-6.16909542 60.63520955 -7.95711476 58.04288524 -11 55 C-14.4974576 54.54380988 -16.28413644 54.47107127 -19.16197205 56.59741211 Z " fill="#000000" transform="translate(194,345)"/>
<path d="M0 0 C2.98535077 1.46548604 5.75562981 3.09007102 8.5625 4.875 C14.97453571 8.76021867 21.73762495 11.22136123 29 13 C28.99887207 14.28165039 28.99774414 15.56330078 28.99658203 16.88378906 C29.00025381 21.64026131 29.04304902 26.39571761 29.09765625 31.15185547 C29.11582162 33.21005715 29.12338378 35.2683809 29.12011719 37.32666016 C29.11726163 40.28644338 29.15255921 43.24369255 29.1953125 46.203125 C29.18621857 47.12305237 29.17712463 48.04297974 29.16775513 48.99078369 C29.22413903 51.47057259 29.32784465 53.61168528 30 56 C32.79895588 58.55841956 32.79895588 58.55841956 36 60 C37.828125 62.18359375 37.828125 62.18359375 39.25 64.4375 C39.72953125 65.17871094 40.2090625 65.91992188 40.703125 66.68359375 C44.9563361 74.28044369 45.94238423 82.20801903 43.9375 90.6875 C41.03393409 99.82787341 35.43739987 105.56652988 27 110 C24.7265625 110.66015625 24.7265625 110.66015625 23 111 C22.22704408 116.73331655 21.54980633 122.59669736 24 128 C28.70325232 132.59358781 34.95242422 135.24350724 40.93115234 137.8059082 C43.50022486 139.28871841 44.58701966 140.37660136 46 143 C46.31586097 145.56049389 46.4679977 147.87321383 46.46875 150.43359375 C46.48017029 151.50602074 46.48017029 151.50602074 46.49182129 152.60011292 C46.50260226 154.10878008 46.5054835 155.61752175 46.50097656 157.1262207 C46.50000434 159.42721752 46.54163529 161.72487525 46.5859375 164.02539062 C46.59114524 165.49478475 46.59383268 166.9641904 46.59375 168.43359375 C46.61014526 169.11707382 46.62654053 169.80055389 46.64343262 170.50474548 C46.58875451 174.30880903 46.06774357 175.91427185 43.68164062 178.93383789 C41 181 41 181 37.5 181.625 C32.87602406 180.79929001 31.71890944 179.84830259 29 176 C28.53181365 171.86880923 28.78875992 167.77332812 28.9375 163.625 C29.18437025 156.096719 29.18437025 156.096719 26.89355469 149.11865234 C23.79882305 146.05303491 20.24302855 144.61062034 16 144 C12.09841949 144.9011141 9.05404697 146.40062192 5.75 148.625 C2.20809249 151 2.20809249 151 0 151 C0.02618408 151.73114014 0.05236816 152.46228027 0.0793457 153.21557617 C0.18350144 156.53933082 0.24838621 159.86274194 0.3125 163.1875 C0.35439453 164.33798828 0.39628906 165.48847656 0.43945312 166.67382812 C0.56301394 175.1995244 0.56301394 175.1995244 -2.296875 179.265625 C-5.84225684 181.54040757 -7.86350881 181.67688038 -12 181 C-14.36497439 179.13291495 -15.66030715 177.67938569 -17 175 C-17.21168331 170.77167028 -17.18579535 166.53943156 -17.18530273 162.30639648 C-17.18748081 160.20600877 -17.2056167 158.10615355 -17.22460938 156.00585938 C-17.22754516 154.66406429 -17.22952872 153.32226672 -17.23046875 151.98046875 C-17.23457764 150.76254639 -17.23868652 149.54462402 -17.24291992 148.28979492 C-17.00080425 145.01089167 -16.57827473 142.87188059 -15 140 C-13.26000977 138.54614258 -13.26000977 138.54614258 -11.19140625 137.39453125 C-10.44439453 136.96849609 -9.69738281 136.54246094 -8.92773438 136.10351562 C-8.14720703 135.67748047 -7.36667969 135.25144531 -6.5625 134.8125 C-5.02191446 133.94440242 -3.48154147 133.07592752 -1.94140625 132.20703125 C-1.25763916 131.8303833 -0.57387207 131.45373535 0.13061523 131.06567383 C1.79690111 130.11577989 3.40410951 129.06392699 5 128 C5.2208564 125.04935852 5.28060989 122.31631769 5.1875 119.375 C5.17396484 118.57320313 5.16042969 117.77140625 5.14648438 116.9453125 C5.11109051 114.96325622 5.05728234 112.98154449 5 111 C4.43740479 110.73461426 3.87480957 110.46922852 3.29516602 110.19580078 C-5.24035253 106.12406099 -9.70857074 101.47421475 -14 93 C-16.37190371 86.11153714 -16.17843236 76.83677026 -13.4375 70.125 C-10.47364987 64.46192922 -6.31278095 59.54185397 -1 56 C-0.52264442 53.54018574 -0.52264442 53.54018574 -0.56762695 50.63232422 C-0.54783279 49.51131317 -0.52803864 48.39030212 -0.50764465 47.23532104 C-0.49805977 45.41340744 -0.49805977 45.41340744 -0.48828125 43.5546875 C-0.47033005 42.31453888 -0.45237885 41.07439026 -0.43388367 39.79666138 C-0.38880026 36.49883932 -0.35655106 33.20121493 -0.33044434 29.90319824 C-0.30067269 26.53819195 -0.25413089 23.17342267 -0.20898438 19.80859375 C-0.12381922 13.20583821 -0.05556371 6.60306736 0 0 Z M3.0625 75.25 C1.65076215 78.90390972 1.32441728 82.17169791 2 86 C4.22291622 90.36350222 6.45022584 93.09544338 11 95 C15.29791716 95.54700764 17.41495791 95.31502266 21.25 93.25 C24.74968846 90.38661853 26.52723471 88.51960273 27.875 84.1875 C28.07970007 78.96764826 26.31581887 75.42860334 22.8125 71.625 C15.2429363 67.25147431 8.8208229 68.56291534 3.0625 75.25 Z " fill="#000000" transform="translate(26,308)"/>
<path d="M0 0 C29.04 0 58.08 0 88 0 C88.0825 9.590625 88.165 19.18125 88.25 29.0625 C88.28641602 32.07898682 88.32283203 35.09547363 88.36035156 38.20336914 C88.37203868 40.60562428 88.38223045 43.00788735 88.390625 45.41015625 C88.41108887 46.6482605 88.43155273 47.88636475 88.45263672 49.1619873 C88.45598031 57.44154868 87.56082696 61.89636405 82.078125 68.21484375 C81.17320312 69.06755859 81.17320312 69.06755859 80.25 69.9375 C79.32960937 70.81728516 79.32960937 70.81728516 78.390625 71.71484375 C77.93171875 72.13894531 77.4728125 72.56304687 77 73 C76.030625 72.13375 75.06125 71.2675 74.0625 70.375 C64.60622298 62.29418146 55.06392602 56.54521093 42.26171875 56.7890625 C29.92928784 57.9392374 20.12918995 63.90176754 12 73 C10.92534811 72.18239741 9.8660417 71.34463044 8.8125 70.5 C7.92498047 69.80390625 7.92498047 69.80390625 7.01953125 69.09375 C0.97608832 62.82820762 -0.57019975 57.77197272 -0.5657959 49.04882812 C-0.54021606 47.81583984 -0.51463623 46.58285156 -0.48828125 45.3125 C-0.48324585 44.16072266 -0.47821045 43.00894531 -0.47302246 41.82226562 C-0.44699713 37.5479214 -0.37719065 33.27393391 -0.3125 29 C-0.209375 19.43 -0.10625 9.86 0 0 Z " fill="#000000" transform="translate(136,270)"/>
<path d="M0 0 C32.45292821 0 32.45292821 0 42.2890625 8.23828125 C45.44898604 11.49199248 47.80663156 15.0437373 50 19 C50.34160156 19.59167969 50.68320312 20.18335938 51.03515625 20.79296875 C54.75410732 28.62871218 54.34200341 40.31699013 51.5625 48.375 C46.99518671 57.87821678 39.72840791 64.22453484 30 68 C20.50789802 71.16403399 10.00555401 69 0 69 C0 46.23 0 23.46 0 0 Z " fill="#000000" transform="translate(281,239)"/>
<path d="M0 0 C0 22.77 0 45.54 0 69 C-33.75703642 69 -33.75703642 69 -44.796875 58.515625 C-52.37324534 49.8645922 -53.81995925 40.13397769 -53.21337891 29.05078125 C-52.30083099 20.28029787 -47.68063339 13.65596485 -41.328125 7.83984375 C-29.04744533 -1.86519002 -15.68079623 0 0 0 Z " fill="#000000" transform="translate(79,239)"/>
<path d="M0 0 C3.51647559 0.06596563 4.75816226 0.1155294 7.6875 2.1875 C11.2326967 7.58236455 10.3477851 13.93355665 10.36523438 20.14404297 C10.37493395 22.23575706 10.40596762 24.32648537 10.4375 26.41796875 C10.4440314 27.75520253 10.44928133 29.0924433 10.453125 30.4296875 C10.46714355 32.24702393 10.46714355 32.24702393 10.48144531 34.10107422 C10.09343935 37.66488238 9.24351939 39.51805126 7.125 42.375 C3.90977863 44.70326375 1.01669575 44.77211181 -2.875 44.375 C-6.66364658 42.65288792 -8.40662435 41.24453928 -9.875 37.375 C-10.2505199 33.09741105 -10.20432449 28.82339781 -10.19067383 24.53051758 C-10.18751523 22.44754637 -10.21098519 20.3659988 -10.23632812 18.28320312 C-10.23697266 16.96384766 -10.23761719 15.64449219 -10.23828125 14.28515625 C-10.24126221 13.07996338 -10.24424316 11.87477051 -10.24731445 10.63305664 C-9.51078814 4.18784772 -6.57011779 0.09747949 0 0 Z " fill="#000000" transform="translate(179.875,10.625)"/>
<path d="M0 0 C9.44678069 3.1489269 12.86352019 5.04233837 17.9375 13.0625 C20.38136386 19.81367391 20.37132191 28.93683805 17.4375 35.5 C13.04793319 42.69272877 7.87535765 45.04674088 0 48 C0 32.16 0 16.32 0 0 Z " fill="#000000" transform="translate(270,96)"/>
<path d="M0 0 C0 15.84 0 31.68 0 48 C-9.77298199 44.0908072 -12.92338048 42.1276992 -17.875 33.875 C-20.31385645 27.40545864 -20.27783436 18.95846234 -17.5 12.625 C-13.97758169 6.70834006 -7.28716866 0 0 0 Z " fill="#000000" transform="translate(90,96)"/>
<path d="M0 0 C1.13953125 0.28875 2.2790625 0.5775 3.453125 0.875 C22.80057846 5.52219258 39.72897828 4.59224347 59 0 C59 3.96 59 7.92 59 12 C39.53 12 20.06 12 0 12 C0 8.04 0 4.08 0 0 Z " fill="#000000" transform="translate(151,208)"/>
</svg>
