<?xml version="1.0" encoding="UTF-8"?>
<svg version="1.1" xmlns="http://www.w3.org/2000/svg" width="512" height="512">
<path d="M0 0 C1.91039063 0.02126953 1.91039063 0.02126953 3.859375 0.04296875 C3.87150528 0.92381134 3.87150528 0.92381134 3.88388062 1.82244873 C3.97058791 7.98811862 4.07011192 14.15349113 4.17675781 20.31884766 C4.21481211 22.61339281 4.24970399 24.90799286 4.28125 27.20263672 C4.3274164 30.51940402 4.38532086 33.83580101 4.4453125 37.15234375 C4.45686371 38.16222351 4.46841492 39.17210327 4.48031616 40.21258545 C4.76353337 54.18281623 6.79520625 65.74474957 16.859375 76.04296875 C25.49419157 82.97848504 35.85110922 84.49914013 46.63232422 84.44702148 C48.15422867 84.45731636 48.15422867 84.45731636 49.70687866 84.46781921 C53.02608655 84.48596417 56.34481616 84.48226703 59.6640625 84.4765625 C61.99374544 84.48113037 64.32342703 84.48643774 66.65310669 84.4924469 C71.52318819 84.50135404 76.39310551 84.49898236 81.26318359 84.48901367 C87.47552012 84.4775308 93.68728764 84.49773801 99.89954948 84.52693081 C104.70740301 84.54535906 109.51512185 84.54498708 114.32300186 84.53929329 C116.6121208 84.53914087 118.90124932 84.54511912 121.19033432 84.55758476 C143.00885714 84.90242195 143.00885714 84.90242195 161.92578125 75.015625 C171.56743815 65.17918715 173.29461813 53.70198778 173.37109375 40.375 C173.39604919 38.82878967 173.39604919 38.82878967 173.42150879 37.25134277 C173.47872366 33.45291913 173.51141399 29.65415777 173.546875 25.85546875 C173.7015625 13.07828125 173.7015625 13.07828125 173.859375 0.04296875 C207.189375 0.04296875 240.519375 0.04296875 274.859375 0.04296875 C274.89675781 16.32511719 274.93414062 32.60726562 274.97265625 49.3828125 C275.00292571 59.68685753 275.03394471 69.99089124 275.06835938 80.29492188 C275.08639157 85.707763 275.1042726 91.12060456 275.12182617 96.53344727 C275.1251377 97.55102402 275.1251377 97.55102402 275.12851614 98.58915788 C275.1638582 109.53223372 275.18873232 120.47530949 275.20972202 131.4184212 C275.23150679 142.65422213 275.26480405 153.88994933 275.30807656 165.12569147 C275.33201026 171.43444801 275.35073815 177.74312286 275.35698891 184.05192375 C275.36303897 189.99200194 275.38303648 195.93187114 275.41365051 201.87187195 C275.4224319 204.04986685 275.42615311 206.22788907 275.42438316 208.40590096 C275.42272677 211.38513456 275.43946132 214.36373382 275.46064758 217.34288025 C275.45580001 218.19990994 275.45095243 219.05693963 275.44595796 219.93993992 C275.51421214 225.77650921 276.71957154 230.61965802 278.859375 236.04296875 C243.18080175 236.11163173 207.50224008 236.16449594 171.82361436 236.19616474 C167.61165751 236.19991687 163.39970079 236.20379984 159.18774414 236.20776367 C157.92995427 236.20894407 157.92995427 236.20894407 156.64675451 236.21014831 C143.06852442 236.22320309 129.49033242 236.24685733 115.91212492 236.27442714 C101.98017061 236.30247933 88.04823626 236.31914462 74.11625487 236.32523423 C65.51911343 236.32935106 56.92207968 236.3423549 48.32497139 236.36671815 C42.43002672 236.38257304 36.53513775 236.38736967 30.64017331 236.38347288 C27.23880969 236.38155094 23.83763427 236.38450221 20.43630409 236.40058517 C16.74705308 236.41548565 13.05826476 236.41193076 9.3690033 236.4037323 C8.29603671 236.41247082 7.22307013 236.42120935 6.11758941 236.43021268 C0.28571665 236.39512442 -4.08996062 236.08878975 -9.140625 233.04296875 C-12.89185225 228.8714253 -12.56629938 224.4078097 -12.52830505 219.08532715 C-12.53369059 218.18211778 -12.53907613 217.27890841 -12.54462487 216.34832907 C-12.55893452 213.32127357 -12.55179327 210.29465351 -12.54467773 207.26757812 C-12.55037968 205.09763741 -12.55734325 202.92769969 -12.56547546 200.75776672 C-12.58344017 194.86324383 -12.58223238 188.96886953 -12.57653308 183.07432747 C-12.5734464 178.15607232 -12.57952779 173.23784592 -12.58557183 168.31959486 C-12.59962597 156.71938664 -12.59804799 145.11925206 -12.58666992 133.51904297 C-12.57518403 121.54412936 -12.58927028 109.56953988 -12.6160664 97.59464979 C-12.63820183 87.31853133 -12.64486575 77.04248325 -12.63898998 66.76634264 C-12.63561451 60.6265378 -12.6380749 54.48687651 -12.65524101 48.34709167 C-12.67067391 42.57519894 -12.66679509 36.80363869 -12.64793587 31.03175926 C-12.64424005 28.91173047 -12.64738721 26.79167725 -12.65782166 24.67167091 C-12.67096497 21.78093075 -12.6595431 18.89130213 -12.64183044 16.00061035 C-12.65143545 15.15868558 -12.66104046 14.31676082 -12.67093652 13.44932318 C-12.62029435 9.44150529 -12.44650254 7.51688769 -10.21867466 4.0651474 C-6.80987902 0.74800157 -4.70408267 -0.05237339 0 0 Z M206.078125 25.265625 C205.3459375 26.18214844 204.61375 27.09867188 203.859375 28.04296875 C203.405625 28.60999512 202.951875 29.17702148 202.484375 29.76123047 C199.23937736 33.82718662 196.03536643 37.92290233 192.859375 42.04296875 C192.3225003 42.64218517 191.78562559 43.2414016 191.23248196 43.85877609 C189.41613977 46.74802025 189.4793156 48.72493013 189.47169495 52.12677002 C189.46179031 53.37441635 189.45188568 54.62206268 189.44168091 55.90751648 C189.44591899 57.28762916 189.45047686 58.66774088 189.45532227 60.04785156 C189.44961899 61.50342839 189.4426549 62.95900075 189.43452454 64.41456604 C189.41656803 68.36728399 189.41776675 72.31978023 189.42346692 76.27252674 C189.42655679 79.57499088 189.42046821 82.87741231 189.41442817 86.17987037 C189.40037488 93.97493014 189.40194943 101.76988035 189.41333008 109.56494141 C189.42479797 117.59703832 189.41076 125.62880081 189.3839336 133.66085362 C189.36174731 140.56293689 189.35514623 147.46491543 189.36101002 154.36703181 C189.36437553 158.48650155 189.36199233 162.6057572 189.34475899 166.72519684 C189.32924629 170.60279054 189.3332928 174.47989122 189.35206413 178.35746574 C189.35573887 179.77638342 189.35267415 181.19533796 189.34217834 182.61422157 C189.28112605 191.55412472 189.66402247 197.9772517 195.53515625 205.06640625 C196.34533203 205.73542969 196.34533203 205.73542969 197.171875 206.41796875 C197.70425781 206.87945312 198.23664063 207.3409375 198.78515625 207.81640625 C205.88598517 212.01538983 214.09705999 211.3821146 222.04711914 211.35864258 C224.28776691 211.3554816 226.52709291 211.37899037 228.76757812 211.40429688 C237.56813219 211.4440851 245.59384505 211.36576669 252.671875 205.35546875 C253.21457031 204.91847656 253.75726563 204.48148438 254.31640625 204.03125 C259.85585057 196.89307998 259.3462901 188.39911866 259.40625 179.80273438 C259.42671663 178.36938945 259.44828194 176.93605987 259.47085571 175.50274658 C259.53874666 170.81836093 259.57515202 166.13395171 259.609375 161.44921875 C259.62284665 159.82748805 259.63645829 158.20575852 259.65020752 156.58403015 C259.70551718 149.83090457 259.75319888 143.07780796 259.77932739 136.32450104 C259.81663424 126.69282198 259.89841346 117.06398708 260.04445648 107.43332148 C260.1439612 100.63550182 260.19267329 93.83843048 260.20453644 87.03989935 C260.21283513 82.99174511 260.24206101 78.94648465 260.32556152 74.89912415 C261.33267299 54.23402072 261.33267299 54.23402072 252.55078125 36.29882812 C250.89235988 34.6106881 249.20023025 33.01875427 247.41491699 31.46606445 C245.05772113 29.30957153 243.30128392 26.87167869 241.421875 24.29296875 C237.50559697 19.37696574 233.40409067 15.58976886 226.87890625 14.8046875 C217.35677745 14.48447432 212.08195824 18.10629211 206.078125 25.265625 Z M73.921875 114.60546875 C72.47624492 116.80576674 71.70670281 118.50098531 70.859375 121.04296875 C55.019375 121.53796875 55.019375 121.53796875 38.859375 122.04296875 C38.859375 118.74296875 38.859375 115.44296875 38.859375 112.04296875 C34.58802766 107.77162141 31.27159226 108.62204555 25.43359375 108.58398438 C24.43078369 108.5903894 24.43078369 108.5903894 23.40771484 108.59692383 C21.36583929 108.60544178 19.32675585 108.57666041 17.28515625 108.54492188 C15.35736328 108.54588867 15.35736328 108.54588867 13.390625 108.546875 C12.21048828 108.54502197 11.03035156 108.54316895 9.81445312 108.54125977 C6.82485266 108.78444602 6.82485266 108.78444602 4.97387695 110.68701172 C3.55415925 113.68816744 3.48702848 115.91624219 3.49609375 119.234375 C3.49673828 120.42611328 3.49738281 121.61785156 3.49804688 122.84570312 C3.51416016 124.08642578 3.53027344 125.32714844 3.546875 126.60546875 C3.54365234 127.85005859 3.54042969 129.09464844 3.53710938 130.37695312 C3.30973905 137.0888817 3.30973905 137.0888817 5.859375 143.04296875 C9.02846669 143.51136771 9.02846669 143.51136771 12.765625 143.44140625 C13.44612915 143.44427643 14.1266333 143.44714661 14.82775879 143.45010376 C16.26685416 143.4521457 17.70597721 143.44660661 19.14501953 143.43408203 C21.3512156 143.41802812 23.55557984 143.43392406 25.76171875 143.453125 C27.15885822 143.45114259 28.55599655 143.44729895 29.953125 143.44140625 C31.86641602 143.43633057 31.86641602 143.43633057 33.81835938 143.43115234 C34.82189453 143.30305176 35.82542969 143.17495117 36.859375 143.04296875 C39.14000328 139.62202633 39.07862507 138.36109653 38.984375 134.35546875 C38.943125 132.60234375 38.901875 130.84921875 38.859375 129.04296875 C44.799375 129.37296875 50.739375 129.70296875 56.859375 130.04296875 C55.539375 130.97109375 54.219375 131.89921875 52.859375 132.85546875 C40.7629354 142.30818963 34.70484988 156.28865457 31.859375 171.04296875 C31.78506825 172.37569623 31.72032927 173.70905113 31.671875 175.04296875 C30.859375 178.04296875 30.859375 178.04296875 29.19921875 179.10546875 C27.78637097 179.73926962 26.36396115 180.35210807 24.93359375 180.9453125 C20.58516939 183.24645609 18.36913378 187.51369241 16.859375 192.04296875 C16.32088464 198.39715502 17.21964702 202.74239402 20.859375 208.04296875 C25.08475173 212.05707664 28.86309382 214.32803286 34.734375 214.35546875 C40.06151613 214.21486972 43.64084655 213.25105707 47.51953125 209.390625 C52.04670364 204.32832585 53.28247005 200.47360702 53.203125 193.6796875 C52.55166952 188.68272786 50.03157373 184.96536462 46.296875 181.66015625 C43.66590455 179.77901238 42.12942351 179.04296875 38.859375 179.04296875 C41.69370394 160.53394189 46.13599939 146.70869904 61.859375 135.04296875 C65.11219107 133.1712366 68.41805236 131.5373218 71.859375 130.04296875 C72.16875 131.37328125 72.16875 131.37328125 72.484375 132.73046875 C74.63548621 137.91269122 78.7583675 140.90414186 83.859375 143.04296875 C90.65610848 144.02206269 95.37631308 143.12838743 100.859375 139.04296875 C102.83365016 137.12381294 104.25795198 135.32378335 105.859375 133.04296875 C105.859375 132.05296875 105.859375 131.06296875 105.859375 130.04296875 C119.1347449 135.66381686 129.53242521 145.43294539 135.05078125 158.828125 C137.47320821 165.46346842 138.31247668 172.01964301 138.859375 179.04296875 C138.1375 179.12546875 137.415625 179.20796875 136.671875 179.29296875 C132.54530674 180.39338695 130.07700001 182.26001784 127.65625 185.8046875 C125.03270894 190.5067382 123.83297815 194.69326395 124.859375 200.04296875 C126.96324779 206.20832858 130.06115496 209.82333383 135.7109375 213.125 C140.59868318 215.21340043 146.16813435 214.59587435 151.109375 212.98046875 C155.52791791 209.86740443 159.13328499 206.22123879 160.859375 201.04296875 C161.65049786 194.68008061 161.11227468 190.01189017 157.359375 184.734375 C154.36435392 181.35717676 151.09529501 179.45494209 146.859375 178.04296875 C146.77300781 177.18316406 146.68664062 176.32335937 146.59765625 175.4375 C144.65509392 159.09502605 138.61091221 143.98135032 125.859375 133.04296875 C124.539375 132.05296875 123.219375 131.06296875 121.859375 130.04296875 C127.799375 129.71296875 133.739375 129.38296875 139.859375 129.04296875 C139.82682292 132.39583333 139.79427083 135.74869792 139.76171875 139.1015625 C139.52035708 141.93170216 139.52035708 141.93170216 140.859375 143.04296875 C145.25936445 143.26129864 149.66472312 143.22876021 154.06958008 143.22827148 C156.28421282 143.23045626 158.49834623 143.24860406 160.71289062 143.26757812 C162.11458162 143.27051231 163.516275 143.27249694 164.91796875 143.2734375 C166.84080688 143.27960083 166.84080688 143.27960083 168.80249023 143.28588867 C171.96790506 143.36701864 171.96790506 143.36701864 173.859375 141.04296875 C174.25738038 136.92529357 174.18842217 132.80208213 174.17504883 128.66674805 C174.17189196 126.61648261 174.1953326 124.5676647 174.22070312 122.51757812 C174.22166992 120.58301758 174.22166992 120.58301758 174.22265625 118.609375 C174.22563721 117.42287354 174.22861816 116.23637207 174.23168945 115.01391602 C174.06730681 112.11057408 174.06730681 112.11057408 172.74707031 110.15527344 C169.91811157 108.48833914 167.55662897 108.67148791 164.29296875 108.6796875 C162.3584082 108.6806543 162.3584082 108.6806543 160.38476562 108.68164062 C159.37893433 108.69408813 159.37893433 108.69408813 158.3527832 108.70678711 C156.30054612 108.73042646 154.24960467 108.72734023 152.19726562 108.72070312 C145.42598196 108.21510631 145.42598196 108.21510631 139.859375 111.04296875 C139.859375 114.67296875 139.859375 118.30296875 139.859375 122.04296875 C128.969375 122.04296875 118.079375 122.04296875 106.859375 122.04296875 C105.869375 119.07296875 105.869375 119.07296875 104.859375 116.04296875 C101.48769317 111.12994666 98.57119723 108.78555858 92.859375 107.04296875 C85.01805747 106.17171125 78.73201792 108.08136686 73.921875 114.60546875 Z " fill="#000000" transform="translate(72.140625,120.95703125)"/>
<path d="M0 0 C0.89203125 0.00902344 1.7840625 0.01804687 2.703125 0.02734375 C3.37859375 0.03894531 4.0540625 0.05054687 4.75 0.0625 C4.75 3.0325 4.75 6.0025 4.75 9.0625 C3.9765625 9.12566406 3.203125 9.18882813 2.40625 9.25390625 C-5.37143787 10.16836213 -10.19144725 11.95506099 -15.25 18.0625 C-18.59167404 24.0193972 -18.39672703 31.02854189 -18.38371277 37.7026062 C-18.38597833 38.55963422 -18.38824388 39.41666224 -18.39057809 40.2996608 C-18.39689596 43.16446865 -18.39609015 46.02922893 -18.39526367 48.89404297 C-18.39825652 50.95088766 -18.40165934 53.0077318 -18.40544128 55.0645752 C-18.41427217 60.64722664 -18.416619 66.22986275 -18.41725707 71.8125205 C-18.41796803 75.30117419 -18.42010322 78.78982399 -18.42275429 82.27847672 C-18.43200433 94.45144142 -18.43608956 106.62439518 -18.43530273 118.79736328 C-18.43470187 130.14105267 -18.44525638 141.48469452 -18.4610464 152.82837188 C-18.47412445 162.57121469 -18.47948653 172.31404195 -18.47884732 182.05689347 C-18.47859244 187.87424842 -18.48143866 193.69156111 -18.49202538 199.50890732 C-18.50171089 204.98033002 -18.50178238 210.45167008 -18.49450874 215.9230957 C-18.49346351 217.9289881 -18.49582217 219.93488565 -18.5018692 221.9407692 C-18.5096006 224.6834185 -18.5049367 227.42578323 -18.49723816 230.16842651 C-18.50238172 230.95813021 -18.50752529 231.7478339 -18.51282471 232.56146801 C-18.46566383 240.18857308 -17.30787171 247.04773364 -12.25 253.0625 C-7.02973771 256.79296141 -2.43183566 258.18690394 3.92207623 258.19392776 C5.22242233 258.19776891 6.52276843 258.20161005 7.86251897 258.2055676 C9.3141637 258.2047873 10.76580838 258.20390851 12.217453 258.20294189 C13.75289192 258.20552471 15.28833017 258.20853763 16.82376748 258.2119453 C21.05433492 258.22002851 25.28488541 258.2218056 29.51545966 258.22254276 C34.07388937 258.22439104 38.63231025 258.23193728 43.19073486 258.23867798 C53.16391559 258.2522716 63.1370923 258.25828773 73.11028075 258.26268864 C79.33585874 258.26544954 85.56143517 258.26968663 91.7870121 258.27419281 C109.01846691 258.28638723 126.24992047 258.29668594 143.48137951 258.3000679 C145.13633121 258.30039725 145.13633121 258.30039725 146.82471629 258.30073325 C148.48366773 258.30106067 148.48366773 258.30106067 150.17613333 258.3013947 C152.41730829 258.30183817 154.65848325 258.30228473 156.8996582 258.30273438 C158.01136253 258.3029558 159.12306685 258.30317723 160.26845918 258.30340537 C178.28185859 258.30735333 196.29521755 258.32480651 214.30860134 258.3480939 C232.79573944 258.3718011 251.28285723 258.38426948 269.77001077 258.38543582 C280.15262161 258.38635298 290.53517977 258.39211552 300.91777611 258.41025543 C309.75915701 258.42564795 318.60046894 258.43078192 327.4418607 258.42251733 C331.95319322 258.41860771 336.46438681 258.4195556 340.97570229 258.43357468 C345.10684329 258.44629495 349.23774069 258.44513259 353.36888126 258.43298396 C354.86219689 258.4310237 356.35552966 258.43412061 357.84882119 258.44282833 C366.91658775 258.49235034 373.79589916 258.25514276 381.5625 253.25 C387.32980801 247.48269199 387.85425848 240.64810582 387.8884055 232.83361691 C387.8868569 232.0401339 387.8853083 231.24665088 387.88371277 230.42912292 C387.88597833 229.57280047 387.88824388 228.71647802 387.89057809 227.8342064 C387.89689597 224.97173252 387.89609015 222.10930625 387.89526367 219.24682617 C387.89825654 217.19160399 387.90165937 215.13638238 387.90544128 213.0811615 C387.9142725 207.50257501 387.91661903 201.92400386 387.91725707 196.34541106 C387.91796808 192.85875969 387.92010336 189.37211221 387.92275429 185.88546181 C387.93200483 173.71782814 387.93608954 161.55020543 387.93530273 149.38256836 C387.93470203 138.04685136 387.94525316 126.71118197 387.9610464 115.37547702 C387.97412909 105.63771408 387.97948632 95.89996668 387.97884732 86.16219503 C387.97859255 80.34872057 387.98143247 74.53528843 387.99202538 68.72182274 C388.00171857 63.25285925 388.00177711 57.78397841 387.99450874 52.31501198 C387.99346442 50.31115218 387.99581672 48.30728721 388.0018692 46.30343628 C388.0096137 43.561137 388.00492807 40.8191214 387.99723816 38.076828 C388.0049535 36.89664173 388.0049535 36.89664173 388.01282471 35.6926133 C387.96311706 27.63211074 387.10330004 20.45888703 381.37890625 14.5 C376.30956671 10.02633825 371.23647808 9.55389985 364.75 9.0625 C364.75 6.0925 364.75 3.1225 364.75 0.0625 C373.93453682 -0.46233068 380.36336872 1.16566802 388.0625 6.25 C393.15988653 11.58447427 396.86516359 18.05652221 396.88701439 25.54231358 C396.8946262 26.92667255 396.8946262 26.92667255 396.90239179 28.33899838 C396.90288955 29.35453995 396.90338731 30.37008153 396.90390015 31.41639709 C396.9082824 32.49404609 396.91266465 33.57169508 396.9171797 34.6820001 C396.93058873 38.31152068 396.93675133 41.94101696 396.94287109 45.57055664 C396.95077046 48.16557933 396.95903931 50.76060092 396.96765137 53.35562134 C396.99217309 61.15722267 397.00680327 68.95883037 397.01971143 76.76045838 C397.02342388 78.96457128 397.02739708 81.16868355 397.0314641 83.37279582 C397.05670387 97.06382447 397.07875422 110.75485413 397.09119225 124.44590092 C397.09412189 127.61717291 397.09708356 130.78844488 397.10009766 133.9597168 C397.10084371 134.7479101 397.10158976 135.53610341 397.10235842 136.34818136 C397.11500539 149.10945971 397.14821945 161.87059853 397.18989949 174.63181169 C397.23235422 187.7378397 397.25589146 200.84379635 397.26111281 213.94989294 C397.26452319 221.30668242 397.27623395 228.66325395 397.30921555 236.01997566 C397.34020383 242.94339985 397.34561302 249.86643875 397.33383179 256.78992081 C397.33361092 259.32874021 397.34192649 261.86757714 397.35948563 264.40633583 C397.38218615 267.87791904 397.37387622 271.34812649 397.35800171 274.81971741 C397.3718838 275.81964393 397.38576588 276.81957046 397.40006864 277.84979779 C397.31140761 285.742789 395.17458622 292.30107747 389.78948438 298.21584851 C381.13365958 306.55463522 371.69838786 306.49906476 360.34632874 306.45018005 C358.77016093 306.45435576 357.19399613 306.45983457 355.61783689 306.46649987 C351.29782586 306.48094209 346.97800581 306.47671359 342.65798438 306.46933305 C337.99463275 306.46460069 333.33132239 306.47711182 328.66798401 306.48735046 C319.53662912 306.50454219 310.40534303 306.50537773 301.27397615 306.50013756 C293.85194438 306.49609548 286.42993294 306.49753987 279.00790215 306.50288582 C277.42314379 306.50400845 277.42314379 306.50400845 275.80637012 306.50515376 C273.66005997 306.50668525 271.51374982 306.50822359 269.36743968 306.50976873 C249.2422336 306.52349502 229.11706641 306.51805508 208.99186122 306.50658352 C190.58174389 306.49665006 172.17172706 306.50959354 153.76162524 306.53351771 C134.85508057 306.5579018 115.94858272 306.56751833 97.04202265 306.56086498 C86.42861568 306.55737136 75.81528602 306.55961439 65.20189095 306.57711601 C56.16739804 306.5918293 47.13303687 306.59248478 38.09854657 306.5750451 C33.48981205 306.56652574 28.88131295 306.56440844 24.27259064 306.57969666 C20.05146993 306.5935257 15.83078672 306.58880367 11.60969143 306.56945742 C10.08488275 306.56569163 8.56003916 306.5686361 7.03526152 306.57906907 C-3.78540945 306.64782701 -12.50334064 305.46118983 -20.69288355 297.86786169 C-26.63213989 290.98173197 -27.98309178 283.68638872 -27.87818909 274.86009216 C-27.88528347 273.77575663 -27.89237786 272.6914211 -27.89968723 271.57422692 C-27.91720031 267.96374932 -27.89919529 264.35435775 -27.88110352 260.74389648 C-27.88624481 258.14621492 -27.89352766 255.54853685 -27.90278625 252.9508667 C-27.92111198 246.64180804 -27.912685 240.33306023 -27.89469803 234.02401143 C-27.88064185 228.89463288 -27.87678569 223.76533842 -27.8801403 218.63594246 C-27.88061775 217.90442514 -27.88109519 217.17290781 -27.8815871 216.4192233 C-27.88261348 214.9329252 -27.88366884 213.44662712 -27.88475286 211.96032906 C-27.89330951 198.83424918 -27.87667801 185.70831887 -27.84692383 172.58227539 C-27.81808301 159.85890421 -27.811007 147.13574843 -27.82641602 134.41235352 C-27.84319325 120.54031127 -27.84719735 106.66837116 -27.82970566 92.79632622 C-27.82786136 91.31596475 -27.82602663 89.83560327 -27.82420158 88.35524178 C-27.82328949 87.62696884 -27.8223774 86.89869591 -27.82143768 86.14835409 C-27.81584218 81.02733096 -27.81913017 75.90635786 -27.82574654 70.78533745 C-27.83430448 63.88807574 -27.82126863 56.99112906 -27.79389763 50.09391785 C-27.78701756 47.56437156 -27.78691173 45.03479632 -27.79411316 42.50525093 C-27.80281794 39.04913079 -27.78683267 35.5939647 -27.7646637 32.13792419 C-27.77290446 31.13985967 -27.78114523 30.14179514 -27.78963572 29.11348623 C-27.68154474 19.96685789 -24.8801993 12.54536154 -18.25 6.0625 C-12.22280874 2.07677674 -7.26064032 -0.09553474 0 0 Z M174.75 271.0625 C171.92114535 274.23710356 170.83218097 277.39331212 170.3125 281.625 C170.9881467 286.93365266 172.38253759 289.91258843 176.5 293.375 C181.55453774 295.99947152 184.94913936 296.61191511 190.4375 294.9375 C194.8963395 292.41362858 197.13200393 289.9164882 198.75 285.0625 C199.2118597 280.25915909 198.77335393 276.79060408 196.15625 272.640625 C193.6084305 269.78140534 190.37114387 268.20118001 186.75 267.0625 C181.81687122 267.0625 178.77382934 268.25901235 174.75 271.0625 Z " fill="#000000" transform="translate(71.25,104.9375)"/>
<path d="M0 0 C1.18157684 -0.01591187 2.36315369 -0.03182373 3.58053589 -0.04821777 C5.48997482 -0.0485199 5.48997482 -0.0485199 7.43798828 -0.04882812 C8.74986115 -0.05644165 10.06173401 -0.06405518 11.4133606 -0.07189941 C14.18907218 -0.08533489 16.96449941 -0.08691783 19.74023438 -0.08105469 C23.2869271 -0.07516486 26.83224789 -0.10572135 30.37867546 -0.14617157 C33.77348899 -0.17833574 37.16802298 -0.17393222 40.56298828 -0.17382812 C42.46635452 -0.19842102 42.46635452 -0.19842102 44.40817261 -0.22351074 C54.2254628 -0.14660574 54.2254628 -0.14660574 57.91894531 2.83203125 C60.89319101 6.30799646 61.25855254 7.8379726 61.26472855 12.30602741 C61.26856969 13.3449779 61.27241084 14.38392838 61.27636838 15.45436221 C61.2755019 16.60462852 61.27463542 17.75489483 61.27374268 18.9400177 C61.2767138 20.15509732 61.27968492 21.37017695 61.28274608 22.62207717 C61.28994212 26.00558996 61.29260661 29.389052 61.29334354 32.77256882 C61.29519108 36.41752261 61.30273691 40.06246531 61.30947876 43.70741272 C61.32307508 51.68258075 61.32908885 59.65774376 61.33348942 67.63292146 C61.3362497 72.61035599 61.34048667 77.58778857 61.34499359 82.56522179 C61.35718806 96.33956308 61.36748695 110.11390282 61.37086868 123.8882494 C61.37119803 125.21127955 61.37119803 125.21127955 61.37153403 126.56103758 C61.37186145 127.88727909 61.37186145 127.88727909 61.37219548 129.24031335 C61.37263895 131.03203507 61.37308552 132.82375679 61.37353516 134.61547852 C61.37375659 135.50423916 61.37397802 136.39299981 61.37420616 137.3086926 C61.3781549 151.71263193 61.39561044 166.1165207 61.41889468 180.5204405 C61.44259372 195.29996217 61.45506988 210.07945845 61.4562366 224.85899943 C61.45715419 233.16069999 61.4629275 241.46233467 61.48105621 249.76401711 C61.49643771 256.83271535 61.50158925 263.90132737 61.49331811 270.97003917 C61.48940462 274.57773719 61.49037502 278.18526146 61.50437546 281.79293823 C61.51940567 285.70165941 61.51126851 289.61013451 61.50079346 293.51887512 C61.51287806 295.23423634 61.51287806 295.23423634 61.5252068 296.98425132 C61.51532204 298.55441191 61.51532204 298.55441191 61.50523758 300.15629292 C61.50583467 301.05856344 61.50643176 301.96083396 61.50704694 302.89044601 C61.04547241 306.01433535 59.98182702 307.87674826 58.13330078 310.41992188 C52.00975771 314.16911347 45.87172097 313.85623079 38.84814453 313.81835938 C37.0864669 313.82266464 37.0864669 313.82266464 35.28919983 313.82705688 C32.81397009 313.82909263 30.33872409 313.82359716 27.86352539 313.81103516 C24.08003739 313.79496112 20.29761531 313.81090895 16.51416016 313.83007812 C14.1046526 313.82809589 11.6951457 313.82425262 9.28564453 313.81835938 C8.15738754 313.82443207 7.02913055 313.83050476 5.86668396 313.83676147 C0.2473271 313.78653874 -4.07980821 313.72011265 -8.86669922 310.41992188 C-13.03466146 305.59386033 -12.86669922 304.26010913 -12.86669922 297.41992188 C3.46830078 296.92492187 3.46830078 296.92492187 20.13330078 296.41992188 C20.46330078 294.76992188 20.79330078 293.11992187 21.13330078 291.41992188 C9.91330078 291.08992188 -1.30669922 290.75992187 -12.86669922 290.41992188 C-12.86669922 287.77992188 -12.86669922 285.13992188 -12.86669922 282.41992188 C-7.25669922 282.08992188 -1.64669922 281.75992187 4.13330078 281.41992188 C4.46330078 280.09992188 4.79330078 278.77992188 5.13330078 277.41992188 C3.01404474 275.30066583 -1.48630852 276.0016117 -4.42919922 275.85742188 C-5.23550781 275.81423828 -6.04181641 275.77105469 -6.87255859 275.7265625 C-8.87038727 275.62016926 -10.86851991 275.519513 -12.86669922 275.41992188 C-12.86669922 272.11992187 -12.86669922 268.81992187 -12.86669922 265.41992188 C-11.90779785 265.39486572 -10.94889648 265.36980957 -9.9609375 265.34399414 C-6.40871445 265.24993567 -2.85668766 265.14971129 0.6953125 265.04760742 C2.23367731 265.00425262 3.77209041 264.96257792 5.31054688 264.92260742 C7.51984218 264.86491789 9.72889427 264.80122008 11.93798828 264.73632812 C12.97244583 264.71125938 12.97244583 264.71125938 14.02780151 264.6856842 C17.70444342 264.61185192 17.70444342 264.61185192 21.13330078 263.41992188 C21.13330078 262.09992188 21.13330078 260.77992188 21.13330078 259.41992188 C18.18918051 257.94786174 15.17044163 258.18184995 11.93798828 258.10351562 C11.23054474 258.08273453 10.5231012 258.06195343 9.79421997 258.0405426 C7.53234653 257.97511109 5.27035616 257.91619214 3.00830078 257.85742188 C1.47573656 257.81423055 -0.05681579 257.77061606 -1.58935547 257.7265625 C-5.34834995 257.61943632 -9.10746214 257.51815097 -12.86669922 257.41992188 C-12.86669922 255.10992187 -12.86669922 252.79992187 -12.86669922 250.41992188 C-6.92669922 250.08992187 -0.98669922 249.75992188 5.13330078 249.41992188 C5.13330078 247.43992187 5.13330078 245.45992187 5.13330078 243.41992188 C-0.80669922 243.41992188 -6.74669922 243.41992188 -12.86669922 243.41992188 C-12.86669922 239.78992188 -12.86669922 236.15992188 -12.86669922 232.41992188 C-1.64669922 232.08992187 9.57330078 231.75992188 21.13330078 231.41992188 C20.63830078 228.94492187 20.63830078 228.94492187 20.13330078 226.41992188 C9.24330078 226.08992187 -1.64669922 225.75992188 -12.86669922 225.41992188 C-12.86669922 222.77992188 -12.86669922 220.13992188 -12.86669922 217.41992188 C-7.25669922 217.08992187 -1.64669922 216.75992188 4.13330078 216.41992188 C4.46330078 215.09992188 4.79330078 213.77992188 5.13330078 212.41992188 C3.01404474 210.30066583 -1.48630852 211.0016117 -4.42919922 210.85742188 C-5.63866211 210.79264648 -5.63866211 210.79264648 -6.87255859 210.7265625 C-8.87038727 210.62016926 -10.86851991 210.519513 -12.86669922 210.41992188 C-12.86669922 207.11992187 -12.86669922 203.81992188 -12.86669922 200.41992188 C-1.97669922 200.08992187 8.91330078 199.75992188 20.13330078 199.41992188 C20.46330078 197.76992187 20.79330078 196.11992187 21.13330078 194.41992188 C4.30330078 193.92492187 4.30330078 193.92492187 -12.86669922 193.41992188 C-12.86669922 190.77992188 -12.86669922 188.13992187 -12.86669922 185.41992188 C-7.25669922 185.08992187 -1.64669922 184.75992188 4.13330078 184.41992188 C4.46330078 183.09992188 4.79330078 181.77992188 5.13330078 180.41992188 C3.01404474 178.30066583 -1.48630852 179.0016117 -4.42919922 178.85742188 C-5.63866211 178.79264648 -5.63866211 178.79264648 -6.87255859 178.7265625 C-8.87038727 178.62016926 -10.86851991 178.519513 -12.86669922 178.41992188 C-12.86669922 174.78992188 -12.86669922 171.15992188 -12.86669922 167.41992188 C-1.64669922 167.08992187 9.57330078 166.75992188 21.13330078 166.41992188 C20.63830078 163.94492187 20.63830078 163.94492187 20.13330078 161.41992188 C9.24330078 161.08992187 -1.64669922 160.75992188 -12.86669922 160.41992188 C-12.86669922 157.77992188 -12.86669922 155.13992187 -12.86669922 152.41992188 C-6.92669922 152.41992188 -0.98669922 152.41992188 5.13330078 152.41992188 C5.13330078 150.43992188 5.13330078 148.45992187 5.13330078 146.41992188 C-0.80669922 146.08992187 -6.74669922 145.75992188 -12.86669922 145.41992188 C-12.86669922 142.11992187 -12.86669922 138.81992188 -12.86669922 135.41992188 C4.45830078 134.92492187 4.45830078 134.92492187 22.13330078 134.41992188 C22.13330078 132.76992187 22.13330078 131.11992187 22.13330078 129.41992188 C4.80830078 128.92492187 4.80830078 128.92492187 -12.86669922 128.41992188 C-12.86669922 125.77992188 -12.86669922 123.13992187 -12.86669922 120.41992188 C-4.45169922 119.92492187 -4.45169922 119.92492187 4.13330078 119.41992188 C4.46330078 118.09992188 4.79330078 116.77992188 5.13330078 115.41992188 C3.01404474 113.30066583 -1.48630852 114.0016117 -4.42919922 113.85742188 C-5.63866211 113.79264648 -5.63866211 113.79264648 -6.87255859 113.7265625 C-8.87038727 113.62016926 -10.86851991 113.519513 -12.86669922 113.41992188 C-12.86669922 110.11992187 -12.86669922 106.81992188 -12.86669922 103.41992188 C-11.90779785 103.39486572 -10.94889648 103.36980957 -9.9609375 103.34399414 C-6.40871445 103.24993567 -2.85668766 103.14971129 0.6953125 103.04760742 C2.23367731 103.00425262 3.77209041 102.96257792 5.31054688 102.92260742 C7.51984218 102.86491789 9.72889427 102.80122008 11.93798828 102.73632812 C12.62762665 102.71961563 13.31726501 102.70290314 14.02780151 102.6856842 C17.70444342 102.61185192 17.70444342 102.61185192 21.13330078 101.41992188 C21.13330078 100.09992188 21.13330078 98.77992188 21.13330078 97.41992188 C9.91330078 97.08992188 -1.30669922 96.75992188 -12.86669922 96.41992188 C-12.86669922 93.77992188 -12.86669922 91.13992187 -12.86669922 88.41992188 C-11.73490234 88.35933594 -10.60310547 88.29875 -9.43701172 88.23632812 C-7.95522777 88.15192271 -6.47345762 88.06727471 -4.99169922 87.98242188 C-4.24533203 87.94310547 -3.49896484 87.90378906 -2.72998047 87.86328125 C1.33316942 87.70418564 1.33316942 87.70418564 5.13330078 86.41992188 C4.80330078 85.09992188 4.47330078 83.77992187 4.13330078 82.41992188 C-1.47669922 82.08992188 -7.08669922 81.75992188 -12.86669922 81.41992188 C-12.86669922 77.78992188 -12.86669922 74.15992187 -12.86669922 70.41992188 C-1.64669922 70.08992188 9.57330078 69.75992188 21.13330078 69.41992188 C20.80330078 67.76992187 20.47330078 66.11992188 20.13330078 64.41992188 C9.24330078 64.08992188 -1.64669922 63.75992188 -12.86669922 63.41992188 C-12.86669922 60.77992187 -12.86669922 58.13992187 -12.86669922 55.41992188 C-4.45169922 54.92492187 -4.45169922 54.92492187 4.13330078 54.41992188 C4.46330078 52.76992187 4.79330078 51.11992188 5.13330078 49.41992188 C-0.80669922 49.08992188 -6.74669922 48.75992188 -12.86669922 48.41992188 C-12.86669922 45.11992188 -12.86669922 41.81992188 -12.86669922 38.41992188 C-1.97669922 38.08992188 8.91330078 37.75992188 20.13330078 37.41992188 C20.46330078 35.76992187 20.79330078 34.11992188 21.13330078 32.41992188 C9.91330078 32.08992188 -1.30669922 31.75992188 -12.86669922 31.41992188 C-12.86669922 28.77992187 -12.86669922 26.13992187 -12.86669922 23.41992188 C-4.45169922 22.92492187 -4.45169922 22.92492187 4.13330078 22.41992188 C4.46330078 21.09992188 4.79330078 19.77992187 5.13330078 18.41992188 C3.01404474 16.30066583 -1.48630852 17.0016117 -4.42919922 16.85742188 C-5.23550781 16.81423828 -6.04181641 16.77105469 -6.87255859 16.7265625 C-8.87038727 16.62016926 -10.86851991 16.519513 -12.86669922 16.41992188 C-12.99180574 11.14042683 -12.74541246 7.9436141 -9.86669922 3.41992188 C-6.65061178 0.38298467 -4.36505003 0.03537366 0 0 Z " fill="#000000" transform="translate(366.86669921875,43.580078125)"/>
<path d="M0 0 C1.0968663 -0.00846954 2.1937326 -0.01693909 3.32383728 -0.02566528 C6.93891087 -0.04900586 10.55355802 -0.050058 14.16870117 -0.04882812 C16.69065012 -0.05593205 19.21259745 -0.06363139 21.73454285 -0.07189941 C27.01772396 -0.08533793 32.30079593 -0.08709794 37.58398438 -0.08105469 C43.66955775 -0.07442097 49.75452393 -0.09725912 55.83997422 -0.13436842 C61.71810504 -0.16889801 67.59599899 -0.17539158 73.47421837 -0.17127991 C75.96399429 -0.17296863 78.45377839 -0.18258707 80.94349098 -0.20042419 C84.43286266 -0.22267053 87.9207876 -0.2128809 91.41015625 -0.1953125 C92.42919037 -0.20857574 93.44822449 -0.22183899 94.49813843 -0.23550415 C102.76941653 -0.13921534 109.06678983 2.34145262 115.52026367 7.52539062 C116.11967773 8.21246094 116.7190918 8.89953125 117.33666992 9.60742188 C117.95413086 10.28160156 118.5715918 10.95578125 119.20776367 11.65039062 C123.65002452 18.92420804 124.34128679 26.78285792 124.28735352 35.12695312 C124.29523895 36.65586685 124.29523895 36.65586685 124.30328369 38.21566772 C124.31639019 41.55474585 124.30777867 44.89333966 124.29760742 48.23242188 C124.29963084 50.57072032 124.3025445 52.90901815 124.30630493 55.24731445 C124.31071564 60.13596637 124.30433752 65.02445328 124.2902832 69.91308594 C124.27319231 76.16041704 124.28304019 82.40736141 124.3010006 88.65467834 C124.31187223 93.4795622 124.30837656 98.30435527 124.30061722 103.12924194 C124.29862456 105.43199714 124.30104143 107.73476073 124.30805588 110.0375061 C124.31572599 113.26285448 124.30398815 116.48758773 124.28735352 119.71289062 C124.29342621 120.6524057 124.2994989 121.59192078 124.30575562 122.55990601 C124.2198777 131.60704219 122.45202526 140.76950541 115.89916992 147.41992188 C107.40054628 154.45606726 99.12754128 155.72259761 88.40332031 155.69458008 C87.38273026 155.69969101 86.3621402 155.70480194 85.31062317 155.71006775 C81.95596358 155.72390341 78.6015108 155.72301162 75.24682617 155.72070312 C72.90327377 155.7245931 70.55972206 155.72892839 68.21617126 155.73368835 C63.3114086 155.74113742 58.40671794 155.74086859 53.50195312 155.7355957 C47.22982289 155.72980013 40.95798786 155.74674087 34.68590641 155.76994038 C29.84820342 155.784701 25.01057117 155.78554627 20.17284966 155.78243065 C17.86088921 155.78294259 15.54892467 155.78815645 13.23698616 155.79824257 C9.99926909 155.81063583 6.76212261 155.80379781 3.52441406 155.79223633 C2.57816162 155.79988007 1.63190918 155.8075238 0.65698242 155.81539917 C-8.61041648 155.74258229 -16.91516466 153.51661754 -23.69458008 146.85351562 C-30.40760345 139.49880619 -31.54849078 133.02196126 -31.52075195 123.3190918 C-31.5292215 122.22222549 -31.53769104 121.12535919 -31.54641724 119.99525452 C-31.56975782 116.38018093 -31.57080995 112.76553378 -31.56958008 109.15039062 C-31.576684 106.62844168 -31.58438334 104.10649435 -31.59265137 101.58454895 C-31.60608989 96.30136784 -31.6078499 91.01829587 -31.60180664 85.73510742 C-31.59517292 79.64953405 -31.61801107 73.56456787 -31.65512037 67.47911757 C-31.68964997 61.60098676 -31.69614353 55.72309281 -31.69203186 49.84487343 C-31.69372058 47.35509751 -31.70333902 44.86531341 -31.72117615 42.37560081 C-31.74342248 38.88622914 -31.73363286 35.39830419 -31.71606445 31.90893555 C-31.7293277 30.88990143 -31.74259094 29.87086731 -31.7562561 28.82095337 C-31.66342534 20.84672392 -29.60856223 14.21430106 -24.11104584 8.26753521 C-16.67738531 1.22859207 -9.92695475 -0.02837945 0 0 Z M-10.10083008 22.41992188 C-10.56258654 27.06950163 -10.42482082 31.75008463 -10.41333008 36.41992188 C-10.42944336 37.72960937 -10.44555664 39.03929688 -10.4621582 40.38867188 C-10.46280273 41.63648437 -10.46344727 42.88429688 -10.46411133 44.16992188 C-10.46709229 45.31976563 -10.47007324 46.46960938 -10.47314453 47.65429688 C-10.35028076 48.56695312 -10.22741699 49.47960937 -10.10083008 50.41992188 C-6.63986852 52.72722958 -5.27141911 52.67686905 -1.19067383 52.68554688 C0.54085937 52.68941406 0.54085937 52.68941406 2.30737305 52.69335938 C3.51329102 52.685625 4.71920898 52.67789063 5.96166992 52.66992188 C7.77634766 52.68152344 7.77634766 52.68152344 9.62768555 52.69335938 C11.35728516 52.68949219 11.35728516 52.68949219 13.12182617 52.68554688 C14.71136108 52.68216309 14.71136108 52.68216309 16.33300781 52.67871094 C19.06423641 52.67658124 19.06423641 52.67658124 20.89916992 50.41992188 C21.21115531 47.53904264 21.21115531 47.53904264 21.16479492 44.16992188 C21.16737305 42.92210938 21.16995117 41.67429687 21.17260742 40.38867188 C21.16487305 39.07898438 21.15713867 37.76929687 21.14916992 36.41992188 C21.1569043 35.11023438 21.16463867 33.80054688 21.17260742 32.45117188 C21.1700293 31.20335937 21.16745117 29.95554687 21.16479492 28.66992188 C21.16253906 27.52007812 21.1602832 26.37023437 21.15795898 25.18554688 C21.18260669 22.27792356 21.18260669 22.27792356 18.89916992 20.41992188 C16.11609244 20.10813763 16.11609244 20.10813763 12.86791992 20.15429688 C11.66522461 20.15171875 10.4625293 20.14914063 9.22338867 20.14648438 C7.96139648 20.15421875 6.6994043 20.16195312 5.39916992 20.16992188 C4.13717773 20.1621875 2.87518555 20.15445313 1.57495117 20.14648438 C0.37225586 20.1490625 -0.83043945 20.15164062 -2.06958008 20.15429688 C-3.1775293 20.15655273 -4.28547852 20.15880859 -5.42700195 20.16113281 C-8.2534559 20.14874887 -8.2534559 20.14874887 -10.10083008 22.41992188 Z M31.04101562 21.57543945 C29.41643769 24.19970421 29.51059559 26.2213713 29.50073242 29.29492188 C29.49686523 30.44476563 29.49299805 31.59460938 29.48901367 32.77929688 C29.50061523 33.98070312 29.5122168 35.18210937 29.52416992 36.41992188 C29.51256836 37.62132813 29.5009668 38.82273437 29.48901367 40.06054688 C29.49288086 41.21039063 29.49674805 42.36023438 29.50073242 43.54492188 C29.50411621 44.599375 29.5075 45.65382813 29.51098633 46.74023438 C29.71129681 49.39690088 29.71129681 49.39690088 31.05688477 51.2644043 C33.68235843 52.91115315 35.68928168 52.79192416 38.77416992 52.78320312 C39.92401367 52.78255859 41.07385742 52.78191406 42.25854492 52.78125 C43.45995117 52.76513672 44.66135742 52.74902344 45.89916992 52.73242188 C47.10057617 52.73564453 48.30198242 52.73886719 49.53979492 52.7421875 C56.09202019 52.94831546 56.09202019 52.94831546 61.89916992 50.41992188 C62.35017047 47.54385162 62.35017047 47.54385162 62.26245117 44.16992188 C62.26180664 42.92210938 62.26116211 41.67429687 62.26049805 40.38867188 C62.24438477 39.07898438 62.22827148 37.76929687 62.21166992 36.41992188 C62.21489258 35.11023438 62.21811523 33.80054688 62.22143555 32.45117188 C62.70440149 25.83903128 62.70440149 25.83903128 59.89916992 20.41992188 C55.43762184 19.95889114 50.94426354 20.09593394 46.46166992 20.10742188 C45.20805664 20.09130859 43.95444336 20.07519531 42.6628418 20.05859375 C41.46336914 20.05794922 40.26389648 20.05730469 39.02807617 20.05664062 C37.92536377 20.05365967 36.82265137 20.05067871 35.68652344 20.04760742 C32.93569438 20.22070166 32.93569438 20.22070166 31.04101562 21.57543945 Z M70.89916992 22.41992188 C70.43741346 27.06950163 70.57517918 31.75008463 70.58666992 36.41992188 C70.57055664 37.72960937 70.55444336 39.03929688 70.5378418 40.38867188 C70.53719727 41.63648437 70.53655273 42.88429688 70.53588867 44.16992188 C70.53290771 45.31976563 70.52992676 46.46960938 70.52685547 47.65429688 C70.64971924 48.56695312 70.77258301 49.47960937 70.89916992 50.41992188 C74.36013148 52.72722958 75.72858089 52.67686905 79.80932617 52.68554688 C81.54085937 52.68941406 81.54085937 52.68941406 83.30737305 52.69335938 C84.51329102 52.685625 85.71920898 52.67789063 86.96166992 52.66992188 C88.77634766 52.68152344 88.77634766 52.68152344 90.62768555 52.69335938 C92.35728516 52.68949219 92.35728516 52.68949219 94.12182617 52.68554688 C95.71136108 52.68216309 95.71136108 52.68216309 97.33300781 52.67871094 C100.06423641 52.67658124 100.06423641 52.67658124 101.89916992 50.41992188 C102.17808139 47.40728462 102.17808139 47.40728462 102.09448242 43.88085938 C102.08803711 42.57890625 102.0815918 41.27695313 102.07495117 39.93554688 C102.05823922 38.55533592 102.04130931 37.17512759 102.02416992 35.79492188 C102.01413998 34.40690735 102.00501415 33.01888598 101.99682617 31.63085938 C101.97318855 28.22704161 101.94023859 24.82356681 101.89916992 21.41992188 C97.43638682 19.18853033 91.30006661 20.23492489 86.39916992 20.23242188 C85.13717773 20.22017578 83.87518555 20.20792969 82.57495117 20.1953125 C80.7709082 20.19241211 80.7709082 20.19241211 78.93041992 20.18945312 C77.8224707 20.18534424 76.71452148 20.18123535 75.57299805 20.17700195 C72.74611036 20.14616233 72.74611036 20.14616233 70.89916992 22.41992188 Z M-10.10083008 63.41992188 C-10.55183063 66.29599213 -10.55183063 66.29599213 -10.46411133 69.66992188 C-10.4634668 70.91773437 -10.46282227 72.16554688 -10.4621582 73.45117188 C-10.44604492 74.76085937 -10.42993164 76.07054688 -10.41333008 77.41992188 C-10.41655273 78.72960937 -10.41977539 80.03929688 -10.4230957 81.38867188 C-10.90606165 88.00081247 -10.90606165 88.00081247 -8.10083008 93.41992188 C-5.20294687 93.71530078 -5.20294687 93.71530078 -1.81567383 93.65039062 C-0.56334961 93.64845703 0.68897461 93.64652344 1.97924805 93.64453125 C3.29344727 93.63228516 4.60764648 93.62003906 5.96166992 93.60742188 C7.27973633 93.60677734 8.59780273 93.60613281 9.95581055 93.60546875 C15.80820917 94.15383311 15.80820917 94.15383311 20.89916992 92.41992188 C21.14083655 88.30463208 21.12766267 84.18600923 21.1394043 80.06420898 C21.14911457 77.99422089 21.18012704 75.92522373 21.21166992 73.85546875 C21.21682617 72.55802734 21.22198242 71.26058594 21.22729492 69.92382812 C21.23664063 68.7257251 21.24598633 67.52762207 21.25561523 66.29321289 C21.13798828 65.34502686 21.02036133 64.39684082 20.89916992 63.41992188 C17.4935954 61.14953886 16.24197818 61.1632063 12.24291992 61.15429688 C11.13819336 61.15171875 10.0334668 61.14914063 8.89526367 61.14648438 C7.74155273 61.15421875 6.5878418 61.16195312 5.39916992 61.16992188 C4.24545898 61.1621875 3.09174805 61.15445313 1.90307617 61.14648438 C0.79834961 61.1490625 -0.30637695 61.15164062 -1.44458008 61.15429688 C-2.96341797 61.15768066 -2.96341797 61.15768066 -4.51293945 61.16113281 C-7.33810724 61.23927232 -7.33810724 61.23927232 -10.10083008 63.41992188 Z M29.89916992 64.41992188 C29.31478459 67.16975269 29.31478459 67.16975269 29.43823242 70.29492188 C29.44209961 71.44476563 29.4459668 72.59460938 29.44995117 73.77929688 C29.47444336 74.98070313 29.49893555 76.18210937 29.52416992 77.41992188 C29.52545898 78.62132813 29.52674805 79.82273437 29.52807617 81.06054688 C29.35777628 87.61323855 29.35777628 87.61323855 31.89916992 93.41992188 C34.77524017 93.87092242 34.77524017 93.87092242 38.14916992 93.78320312 C39.39698242 93.78255859 40.64479492 93.78191406 41.93041992 93.78125 C43.24010742 93.76513672 44.54979492 93.74902344 45.89916992 93.73242188 C47.20885742 93.73564453 48.51854492 93.73886719 49.86791992 93.7421875 C56.48006052 94.22515345 56.48006052 94.22515345 61.89916992 91.41992188 C62.19437866 88.63628502 62.19437866 88.63628502 62.12963867 85.38867188 C62.12770508 84.18597656 62.12577148 82.98328125 62.1237793 81.74414062 C62.1115332 80.48214844 62.09928711 79.22015625 62.08666992 77.91992188 C62.08602539 76.65792969 62.08538086 75.3959375 62.0847168 74.09570312 C62.37795735 68.07718729 62.37795735 68.07718729 60.89916992 62.41992188 C56.03811118 60.79956896 51.05208416 61.19375061 45.96166992 61.16992188 C44.31521484 61.13898438 44.31521484 61.13898438 42.63549805 61.10742188 C41.57911133 61.10226563 40.52272461 61.09710938 39.43432617 61.09179688 C38.46889893 61.08245117 37.50347168 61.07310547 36.50878906 61.06347656 C33.36559908 61.49280179 32.03891171 62.07188663 29.89916992 64.41992188 Z M70.89916992 63.41992188 C70.44816937 66.29599213 70.44816937 66.29599213 70.53588867 69.66992188 C70.5365332 70.91773437 70.53717773 72.16554688 70.5378418 73.45117188 C70.55395508 74.76085937 70.57006836 76.07054688 70.58666992 77.41992188 C70.58344727 78.72960937 70.58022461 80.03929688 70.5769043 81.38867188 C70.09393835 88.00081247 70.09393835 88.00081247 72.89916992 93.41992188 C75.79705313 93.71530078 75.79705313 93.71530078 79.18432617 93.65039062 C80.43665039 93.64845703 81.68897461 93.64652344 82.97924805 93.64453125 C84.29344727 93.63228516 85.60764648 93.62003906 86.96166992 93.60742188 C88.27973633 93.60677734 89.59780273 93.60613281 90.95581055 93.60546875 C96.80820917 94.15383311 96.80820917 94.15383311 101.89916992 92.41992188 C102.14083655 88.30463208 102.12766267 84.18600923 102.1394043 80.06420898 C102.14911457 77.99422089 102.18012704 75.92522373 102.21166992 73.85546875 C102.21682617 72.55802734 102.22198242 71.26058594 102.22729492 69.92382812 C102.23664063 68.7257251 102.24598633 67.52762207 102.25561523 66.29321289 C102.13798828 65.34502686 102.02036133 64.39684082 101.89916992 63.41992188 C98.4935954 61.14953886 97.24197818 61.1632063 93.24291992 61.15429688 C92.13819336 61.15171875 91.0334668 61.14914063 89.89526367 61.14648438 C88.74155273 61.15421875 87.5878418 61.16195312 86.39916992 61.16992188 C85.24545898 61.1621875 84.09174805 61.15445313 82.90307617 61.14648438 C81.79834961 61.1490625 80.69362305 61.15164062 79.55541992 61.15429688 C78.03658203 61.15768066 78.03658203 61.15768066 76.48706055 61.16113281 C73.66189276 61.23927232 73.66189276 61.23927232 70.89916992 63.41992188 Z M-1.10083008 107.41992188 C-0.77083008 109.06992188 -0.44083008 110.71992188 -0.10083008 112.41992188 C14.74916992 112.41992188 29.59916992 112.41992188 44.89916992 112.41992188 C45.55916992 111.09992188 46.21916992 109.77992188 46.89916992 108.41992188 C45.30314547 106.50994611 44.40621388 105.51576567 41.91941833 105.04570007 C41.1682222 105.0463295 40.41702606 105.04695892 39.64306641 105.04760742 C38.78885605 105.04137863 37.93464569 105.03514984 37.05455017 105.0287323 C35.67632835 105.04254692 35.67632835 105.04254692 34.27026367 105.05664062 C33.32482193 105.05614212 32.37938019 105.05564362 31.4052887 105.05513 C29.40721535 105.05747026 27.40913904 105.06719593 25.41113281 105.08374023 C22.3450296 105.10735748 19.27979423 105.10429778 16.21362305 105.09765625 C14.27416472 105.10323208 12.33471006 105.11034136 10.39526367 105.11914062 C9.4744249 105.11822922 8.55358612 105.11731781 7.60484314 105.11637878 C6.75378494 105.1259108 5.90272675 105.13544281 5.02587891 105.14526367 C3.90027809 105.15217476 3.90027809 105.15217476 2.75193787 105.15922546 C0.65286543 105.26510283 0.65286543 105.26510283 -1.10083008 107.41992188 Z M-1.10083008 122.41992188 C-1.1414684 124.08609303 -1.14355108 125.75380282 -1.10083008 127.41992188 C2.18627831 129.06347607 5.83494641 128.56713346 9.44799805 128.56518555 C10.77497963 128.57022346 10.77497963 128.57022346 12.12876892 128.57536316 C15.06266674 128.58488793 17.99650759 128.58681692 20.93041992 128.58789062 C22.96301294 128.59110173 24.99560572 128.59446569 27.02819824 128.59797668 C31.29199764 128.60397149 35.55577676 128.60581618 39.81958008 128.60522461 C45.29435725 128.60512287 50.76900506 128.61878545 56.24375153 128.63599682 C60.44208377 128.64709106 64.64038446 128.64914463 68.83872986 128.64861488 C70.85782823 128.6497985 72.87692733 128.65424147 74.89601135 128.66194725 C77.71421495 128.67169694 80.53213404 128.66888928 83.3503418 128.6628418 C84.61121864 128.67127106 84.61121864 128.67127106 85.89756775 128.67987061 C90.37091035 128.84664213 90.37091035 128.84664213 93.89916992 126.41992188 C93.49388091 123.63754533 93.49388091 123.63754533 91.89916992 121.41992188 C89.04362411 121.31937074 86.21222969 121.28376644 83.35620117 121.29052734 C82.46033295 121.28877502 81.56446472 121.28702271 80.64144897 121.28521729 C77.66483655 121.28079741 74.68828301 121.28373724 71.71166992 121.28710938 C69.65283191 121.28643637 67.59399398 121.28546638 65.53515625 121.28421021 C61.21410365 121.28273305 56.89307169 121.28488836 52.57202148 121.28955078 C47.01980446 121.29524808 41.46763578 121.29196917 35.91542053 121.28597832 C31.66222771 121.28237319 27.40904643 121.28351107 23.15585327 121.28610611 C21.108022 121.28677551 19.06018969 121.2859465 17.01235962 121.28362656 C14.15559085 121.28110082 11.2989015 121.28493951 8.44213867 121.29052734 C7.15948624 121.287491 7.15948624 121.287491 5.85092163 121.28439331 C2.06853339 120.92991352 2.06853339 120.92991352 -1.10083008 122.41992188 Z " fill="#000000" transform="translate(115.100830078125,43.580078125)"/>
<path d="M0 0 C1.25039063 -0.03738281 2.50078125 -0.07476562 3.7890625 -0.11328125 C4.84407959 -0.144823 4.84407959 -0.144823 5.92041016 -0.17700195 C9.35278507 0.11514078 11.41770675 1.84808896 14 4 C16.60407528 7.90611292 16.28089659 11.1859756 16.26069641 15.71713257 C16.26452196 16.61863309 16.26834751 17.5201336 16.27228898 18.44895232 C16.28264156 21.48214011 16.27862253 24.5151394 16.2746582 27.54833984 C16.27900345 29.71798377 16.28418597 31.88762615 16.29014587 34.05726624 C16.30356789 39.96014583 16.30411094 45.86296152 16.30158257 51.7658534 C16.30051494 56.68897318 16.30539096 61.61207991 16.310188 66.5351969 C16.32129446 78.14782342 16.32171432 89.76041761 16.31567383 101.37304688 C16.30963324 113.362632 16.32194461 125.35205317 16.3432439 137.34162176 C16.36084411 147.62618395 16.36686371 157.91070874 16.36360615 168.19528544 C16.36179048 174.3418049 16.36445767 180.48824069 16.37832069 186.63474655 C16.39086854 192.41476732 16.38898374 198.19460487 16.37590981 203.97462273 C16.37353776 206.09787622 16.37630108 208.22114248 16.38453293 210.34438133 C16.39494898 213.23943535 16.38694098 216.13386881 16.3742218 219.02890015 C16.38159609 219.87218915 16.38897037 220.71547816 16.39656812 221.58432138 C16.35378785 226.20238777 16.02457707 229.26935427 13 233 C7.14183515 236.53930793 1.71263054 236.32774146 -5 236 C-4.25130208 234.37239583 -3.50260417 232.74479167 -2.75390625 231.1171875 C-0.74963822 225.48862133 -0.84856094 219.7053567 -0.84178162 213.81253052 C-0.83684364 212.89677179 -0.83190566 211.98101307 -0.82681805 211.03750408 C-0.81148155 207.97438601 -0.80309285 204.91128884 -0.79467773 201.84814453 C-0.78509619 199.65024126 -0.77508594 197.45233982 -0.76467896 195.25444031 C-0.73765382 189.29012152 -0.71663128 183.32579484 -0.69667697 177.36144876 C-0.67480269 171.12741566 -0.64742105 164.89340683 -0.62062073 158.65939331 C-0.57638444 148.19676777 -0.5355459 137.7341335 -0.49731445 127.27148438 C-0.45793205 116.49640938 -0.41649928 105.72134548 -0.37231445 94.94628906 C-0.36959018 94.28176539 -0.36686591 93.61724172 -0.36405908 92.93258096 C-0.35037915 89.59875674 -0.33665677 86.2649327 -0.32291877 82.93110871 C-0.20912875 55.28742853 -0.1022832 27.64372499 0 0 Z " fill="#000000" transform="translate(436,121)"/>
<path d="M0 0 C7.92 0 15.84 0 24 0 C24 33.33 24 66.66 24 101 C16.08 101 8.16 101 0 101 C0 67.67 0 34.34 0 0 Z " fill="#000000" transform="translate(300,172)"/>
<path d="M0 0 C7.92 0 15.84 0 24 0 C24 33.33 24 66.66 24 101 C16.08 101 8.16 101 0 101 C0 67.67 0 34.34 0 0 Z " fill="#000000" transform="translate(269,172)"/>
<path d="M0 0 C18.15 0 36.3 0 55 0 C55.061875 5.65125 55.12375 11.3025 55.1875 17.125 C55.22846802 19.78393311 55.22846802 19.78393311 55.27026367 22.49658203 C55.27903354 23.91698528 55.2866763 25.33739612 55.29296875 26.7578125 C55.30831665 27.48282959 55.32366455 28.20784668 55.33947754 28.95483398 C55.34191687 33.73104858 54.5018032 36.93461755 52 41 C46.15840886 46.64687144 37.32564682 45.18617364 29.76269531 45.18530273 C27.63846707 45.18748616 25.51476136 45.20566145 23.390625 45.22460938 C22.02343926 45.22754463 20.65625107 45.22952854 19.2890625 45.23046875 C18.05881348 45.23457764 16.82856445 45.23868652 15.56103516 45.24291992 C10.36183682 44.8882509 6.2843223 44.35191821 2.625 40.5 C-0.17587004 36.19096917 -0.13120333 32.95963615 -0.09765625 27.9296875 C-0.09664917 27.22400635 -0.09564209 26.5183252 -0.09460449 25.79125977 C-0.08936828 23.15249001 -0.07540702 20.51374339 -0.0625 17.875 C-0.041875 11.97625 -0.02125 6.0775 0 0 Z " fill="#000000" transform="translate(269,280)"/>
<path d="M0 0 C1.10878505 0.00464581 1.10878505 0.00464581 2.23996979 0.00938547 C3.023604 0.00485435 3.8072382 0.00032324 4.6146189 -0.00434518 C7.25481461 -0.01706082 9.89480594 -0.01536423 12.53502899 -0.01371634 C14.42206073 -0.0196971 16.30909 -0.02650159 18.19611603 -0.03407156 C23.33241187 -0.05178412 28.46864113 -0.05642913 33.60496455 -0.05770314 C37.88700992 -0.05959863 42.16903965 -0.06695205 46.45107901 -0.07404733 C56.55003389 -0.09034859 66.6489531 -0.09521467 76.74791962 -0.09379447 C87.17942371 -0.09259233 97.61072114 -0.11370451 108.04217291 -0.14528179 C116.9865697 -0.17139671 125.93089878 -0.18216379 134.87533343 -0.18088365 C140.22259902 -0.18037263 145.56968104 -0.18613241 150.9169088 -0.20723975 C155.94431255 -0.2265419 160.97135607 -0.22680187 165.9987722 -0.21220648 C167.84712233 -0.21010732 169.69549453 -0.21488466 171.54380661 -0.2269274 C174.06103972 -0.24227013 176.57701358 -0.23314576 179.09421784 -0.21766531 C180.1996568 -0.233096 180.1996568 -0.233096 181.32742786 -0.24883842 C184.56960576 -0.20456532 186.28878076 -0.13092001 188.71957737 2.11240327 C190.14711892 5.16854245 189.6325315 7.08531027 188.73058563 10.276811 C186.25659874 12.7507979 184.83781017 12.52116687 181.46117127 12.55362201 C180.35238622 12.5489762 180.35238622 12.5489762 179.22120148 12.54423654 C178.04575017 12.55103321 178.04575017 12.55103321 176.84655237 12.55796719 C174.20635666 12.57068283 171.56636533 12.56898624 168.92614228 12.56733835 C167.03911054 12.5733191 165.15208127 12.58012359 163.26505524 12.58769357 C158.1287594 12.60540613 152.99253014 12.61005114 147.85620672 12.61132514 C143.57416135 12.61322064 139.29213162 12.62057406 135.01009226 12.62766933 C124.91113738 12.6439706 114.81221817 12.64883667 104.71325165 12.64741647 C94.28174756 12.64621434 83.85045013 12.66732652 73.41899836 12.6989038 C64.47460157 12.72501871 55.53027248 12.7357858 46.58583784 12.73450565 C41.23857225 12.73399464 35.89149023 12.73975442 30.54426247 12.76086175 C25.51685872 12.78016391 20.4898152 12.78042388 15.46239907 12.76582849 C13.61404894 12.76372933 11.76567674 12.76850666 9.91736466 12.78054941 C7.40013155 12.79589214 4.88415769 12.78676776 2.36695343 12.77128732 C1.62999412 12.78157445 0.89303481 12.79186157 0.13374341 12.80246043 C-3.10843449 12.75818732 -4.82760949 12.68454202 -7.2584061 10.44121873 C-8.68594765 7.38507956 -8.17136023 5.46831174 -7.26941437 2.276811 C-4.79542747 -0.1971759 -3.3766389 0.03245514 0 0 Z " fill="#000000" transform="translate(165.2694143652916,455.723188996315)"/>
<path d="M0 0 C1.09920273 0.00222061 2.19840546 0.00444122 3.33091736 0.00672913 C4.57212845 0.00680466 5.81333954 0.00688019 7.09216309 0.00695801 C8.45682311 0.01206541 9.82148274 0.01728142 11.18614197 0.02259827 C12.57476755 0.02446251 13.96339379 0.02588638 15.35202026 0.02688599 C19.01319686 0.03071065 22.67433402 0.04054048 26.335495 0.05158997 C30.06890835 0.06180519 33.80232805 0.06638384 37.53575134 0.07142639 C44.86584748 0.08216281 52.19591108 0.0992386 59.52598572 0.12025452 C60.29888222 2.86968871 61.06932143 5.61977592 61.83848572 8.37025452 C62.05182556 9.12822327 62.26516541 9.88619202 62.48497009 10.66712952 C64.28889904 17.12896456 65.89690386 23.60392708 67.52598572 30.12025452 C41.78598572 30.12025452 16.04598572 30.12025452 -10.47401428 30.12025452 C-3.42607948 0.16653159 -3.42607948 0.16653159 0 0 Z " fill="#000000" transform="translate(226.47401428222656,417.87974548339844)"/>
<path d="M0 0 C33.33 0 66.66 0 101 0 C101 2.97 101 5.94 101 9 C67.67 9 34.34 9 0 9 C0 6.03 0 3.06 0 0 Z " fill="#000000" transform="translate(246,105)"/>
<path d="M0 0 C8.12801648 4.09662468 14.13952431 12.47410216 19 20 C19 20.66 19 21.32 19 22 C3.82 22 -11.36 22 -27 22 C-24.11825093 17.67737639 -21.23213035 13.46335681 -18.125 9.3125 C-17.71636719 8.74466797 -17.30773437 8.17683594 -16.88671875 7.59179688 C-12.31352525 1.5155756 -7.58565417 -0.82752591 0 0 Z " fill="#000000" transform="translate(300,143)"/>
<path d="M0 0 C6.6 0 13.2 0 20 0 C20 6.6 20 13.2 20 20 C13.4 20 6.8 20 0 20 C0 13.4 0 6.8 0 0 Z " fill="#000000" transform="translate(219,237)"/>
<path d="M0 0 C6.6 0 13.2 0 20 0 C20 6.6 20 13.2 20 20 C13.4 20 6.8 20 0 20 C0 13.4 0 6.8 0 0 Z " fill="#000000" transform="translate(84,237)"/>
<path d="M0 0 C3.86728738 1.6814293 5.41933877 3.15233779 7 7 C7.7099797 11.61486808 7.62455021 15.00071966 5.125 19 C1.62836795 22.29094781 -1.0169916 22.38940651 -5.671875 22.359375 C-9.59004236 21.75455722 -11.30358816 19.83123243 -14 17 C-15.61429923 13.77140153 -15.59570657 10.49006347 -15 7 C-11.34916691 0.63828712 -7.07430314 -0.76038575 0 0 Z " fill="#000000" transform="translate(219,306)"/>
<path d="M0 0 C3.86728738 1.6814293 5.41933877 3.15233779 7 7 C7.7099797 11.61486808 7.62455021 15.00071966 5.125 19 C1.62836795 22.29094781 -1.0169916 22.38940651 -5.671875 22.359375 C-9.59004236 21.75455722 -11.30358816 19.83123243 -14 17 C-15.61429923 13.77140153 -15.59570657 10.49006347 -15 7 C-11.34916691 0.63828712 -7.07430314 -0.76038575 0 0 Z " fill="#000000" transform="translate(111,306)"/>
<path d="M0 0 C2.96922861 1.79349379 5.42452071 3.84904142 7 7 C7.55512815 11.63213493 7.6364242 14.98172127 5.125 19 C1.62836795 22.29094781 -1.0169916 22.38940651 -5.671875 22.359375 C-9.59004236 21.75455722 -11.30358816 19.83123243 -14 17 C-15.53214888 13.93570224 -15.22938548 11.3834358 -15 8 C-12.08300896 1.24486286 -7.18978877 -1.00909316 0 0 Z " fill="#000000" transform="translate(165,235)"/>
<path d="M0 0 C5.94 0 11.88 0 18 0 C18 5.94 18 11.88 18 18 C12.06 18 6.12 18 0 18 C0 12.06 0 6.12 0 0 Z " fill="#000000" transform="translate(152,71)"/>
<path d="M0 0 C5.94 0 11.88 0 18 0 C18 5.61 18 11.22 18 17 C12.06 17 6.12 17 0 17 C0 11.39 0 5.78 0 0 Z " fill="#000000" transform="translate(152,113)"/>
<path d="M0 0 C5.61 0 11.22 0 17 0 C17 5.94 17 11.88 17 18 C11.39 18 5.78 18 0 18 C0 12.06 0 6.12 0 0 Z " fill="#000000" transform="translate(193,71)"/>
<path d="M0 0 C5.61 0 11.22 0 17 0 C17 5.94 17 11.88 17 18 C11.39 18 5.78 18 0 18 C0 12.06 0 6.12 0 0 Z " fill="#000000" transform="translate(112,71)"/>
<path d="M0 0 C5.61 0 11.22 0 17 0 C17 5.61 17 11.22 17 17 C11.39 17 5.78 17 0 17 C0 11.39 0 5.78 0 0 Z " fill="#000000" transform="translate(193,113)"/>
<path d="M0 0 C5.61 0 11.22 0 17 0 C17 5.61 17 11.22 17 17 C11.39 17 5.78 17 0 17 C0 11.39 0 5.78 0 0 Z " fill="#000000" transform="translate(112,113)"/>
<path d="M0 0 C2 2 2 2 2.4375 5.375 C2 9 2 9 -0.125 11.5 C-3 13 -3 13 -6.125 12.9375 C-10.49189189 11.51351351 -10.49189189 11.51351351 -12 9 C-12.65044248 2.92920354 -12.65044248 2.92920354 -10.6875 0.125 C-6.61845593 -2.58769604 -4.31172181 -1.74303648 0 0 Z " fill="#000000" transform="translate(261,381)"/>
</svg>
