<?xml version="1.0" encoding="UTF-8"?>
<svg version="1.1" xmlns="http://www.w3.org/2000/svg" width="512" height="512">
<path d="M0 0 C2.44225447 1.66159248 4.74768159 3.38773224 7.0390625 5.25 C7.87179687 5.87648438 8.70453125 6.50296875 9.5625 7.1484375 C18.76036546 14.95356624 26.15845232 28.59050337 27.26025391 40.67626953 C27.73562442 51.64620273 27.94197201 62.1877211 23.0390625 72.25 C22.56855469 73.22324219 22.09804688 74.19648438 21.61328125 75.19921875 C15.66246927 86.71642333 7.63142304 94.45381973 -3.9609375 100.25 C-4.2909375 107.18 -4.6209375 114.11 -4.9609375 121.25 C18.7990625 121.25 42.5590625 121.25 67.0390625 121.25 C67.0390625 142.37 67.0390625 163.49 67.0390625 185.25 C3.6790625 185.25 -59.6809375 185.25 -124.9609375 185.25 C-124.9609375 164.13 -124.9609375 143.01 -124.9609375 121.25 C-101.2009375 121.25 -77.4409375 121.25 -52.9609375 121.25 C-53.4559375 110.855 -53.4559375 110.855 -53.9609375 100.25 C-57.90921346 96.88080451 -59.43724716 95.81775222 -63.9609375 94.25 C-75.12476418 86.43532132 -81.91393912 73.28264874 -84.9609375 60.25 C-85.39781807 56.6756734 -85.48620355 53.16115279 -85.4609375 49.5625 C-85.45521729 48.60569336 -85.44949707 47.64888672 -85.44360352 46.66308594 C-85.12051272 33.70029175 -81.19857916 23.3858007 -72.9609375 13.25 C-72.33445312 12.41726563 -71.70796875 11.58453125 -71.0625 10.7265625 C-54.23488249 -9.10375256 -21.90682862 -12.94757154 0 0 Z M-34.3359375 19.875 C-36.44800256 22.96186432 -36.57288895 24.5782913 -35.9609375 28.25 C-34.4609375 30.75 -34.4609375 30.75 -31.9609375 32.25 C-28.2892288 32.86195145 -26.67280182 32.73706506 -23.5859375 30.625 C-21.47387244 27.53813568 -21.34898605 25.9217087 -21.9609375 22.25 C-23.4609375 19.75 -23.4609375 19.75 -25.9609375 18.25 C-29.6326462 17.63804855 -31.24907318 17.76293494 -34.3359375 19.875 Z M-58.3359375 43.875 C-60.44800256 46.96186432 -60.57288895 48.5782913 -59.9609375 52.25 C-58.4609375 54.75 -58.4609375 54.75 -55.9609375 56.25 C-52.2892288 56.86195145 -50.67280182 56.73706506 -47.5859375 54.625 C-45.47387244 51.53813568 -45.34898605 49.9217087 -45.9609375 46.25 C-47.4609375 43.75 -47.4609375 43.75 -49.9609375 42.25 C-53.6326462 41.63804855 -55.24907318 41.76293494 -58.3359375 43.875 Z M-10.3359375 43.875 C-12.44800256 46.96186432 -12.57288895 48.5782913 -11.9609375 52.25 C-10.4609375 54.75 -10.4609375 54.75 -7.9609375 56.25 C-4.2892288 56.86195145 -2.67280182 56.73706506 0.4140625 54.625 C2.52612756 51.53813568 2.65101395 49.9217087 2.0390625 46.25 C0.5390625 43.75 0.5390625 43.75 -1.9609375 42.25 C-5.6326462 41.63804855 -7.24907318 41.76293494 -10.3359375 43.875 Z M-34.3359375 67.875 C-36.44800256 70.96186432 -36.57288895 72.5782913 -35.9609375 76.25 C-34.4609375 78.75 -34.4609375 78.75 -31.9609375 80.25 C-28.2892288 80.86195145 -26.67280182 80.73706506 -23.5859375 78.625 C-21.47387244 75.53813568 -21.34898605 73.9217087 -21.9609375 70.25 C-23.4609375 67.75 -23.4609375 67.75 -25.9609375 66.25 C-29.6326462 65.63804855 -31.24907318 65.76293494 -34.3359375 67.875 Z " fill="#000000" transform="translate(428.9609375,294.75)"/>
<path d="M0 0 C21.12 0 42.24 0 64 0 C64 13.2 64 26.4 64 40 C103.27 40 142.54 40 183 40 C183 34.72 183 29.44 183 24 C204.45 24 225.9 24 248 24 C248.0825 30.6825 248.165 37.365 248.25 44.25 C248.28641602 46.33344727 248.32283203 48.41689453 248.36035156 50.56347656 C248.53250234 67.32425366 245.3255864 79.20611914 233.6875 91.75 C222.54735572 102.29335084 210.31058717 104.46407535 195.46240234 104.34057617 C194.02252215 104.3397283 192.58264067 104.34020817 191.14276123 104.34190369 C187.26319597 104.34275881 183.38391318 104.32521207 179.50441313 104.30418181 C175.43920572 104.28533381 171.3739907 104.28365821 167.30874634 104.28010559 C159.62375252 104.27080886 151.93888785 104.24622746 144.25395072 104.21605712 C135.49936919 104.18243895 126.74478125 104.16600852 117.99015117 104.15097082 C99.99335905 104.11967558 81.99669468 104.06635202 64 104 C64 111.92 64 119.84 64 128 C42.88 128 21.76 128 0 128 C0 85.76 0 43.52 0 0 Z " fill="#000000" transform="translate(152,152)"/>
<path d="M0 0 C1.19095779 -0.00029205 2.38191559 -0.00058411 3.60896301 -0.00088501 C6.85644865 0.00026524 10.10375938 0.01025925 13.35121036 0.02426291 C16.75179702 0.0368102 20.15238753 0.03794391 23.55299377 0.04031372 C29.98433314 0.04651678 36.41560409 0.06291161 42.8469134 0.0830127 C50.89150007 0.10760748 58.93609798 0.11851873 66.98071289 0.12939453 C81.32256299 0.14884395 95.66426391 0.18891323 110.00610352 0.22705078 C110.00610352 21.34705078 110.00610352 42.46705078 110.00610352 64.22705078 C78.32610352 64.22705078 46.64610352 64.22705078 14.00610352 64.22705078 C14.00610352 74.78705078 14.00610352 85.34705078 14.00610352 96.22705078 C-7.11389648 96.22705078 -28.23389648 96.22705078 -49.99389648 96.22705078 C-50.11764648 82.24330078 -50.11764648 82.24330078 -50.24389648 67.97705078 C-50.2803125 65.05829102 -50.31672852 62.13953125 -50.35424805 59.13232422 C-50.36594533 56.78369886 -50.37613468 54.4350653 -50.38452148 52.08642578 C-50.40498535 50.89549316 -50.42544922 49.70456055 -50.4465332 48.47753906 C-50.45249734 33.96680106 -45.6034409 23.10144346 -35.86889648 12.53955078 C-25.62142748 2.63828006 -13.72254353 -0.08844623 0 0 Z " fill="#000000" transform="translate(385.993896484375,15.77294921875)"/>
<path d="M0 0 C21.12 0 42.24 0 64 0 C64 23.76 64 47.52 64 72 C71.92 72 79.84 72 88 72 C88 93.12 88 114.24 88 136 C51.04 136 14.08 136 -24 136 C-24 114.88 -24 93.76 -24 72 C-16.08 72 -8.16 72 0 72 C0 48.24 0 24.48 0 0 Z " fill="#000000" transform="translate(152,344)"/>
<path d="M0 0 C21.12 0 42.24 0 64 0 C64 23.76 64 47.52 64 72 C42.88 72 21.76 72 0 72 C0 48.24 0 24.48 0 0 Z " fill="#000000" transform="translate(152,16)"/>
<path d="M0 0 C1.08087891 -0.020625 2.16175781 -0.04125 3.27539062 -0.0625 C9.84022828 -0.09473984 14.80322575 0.09080812 19.83203125 4.78515625 C23.60724658 9.7219763 24.31532239 11.86633999 24.34863281 18.08300781 C24.35608017 19.13700523 24.35608017 19.13700523 24.36367798 20.21229553 C24.37831101 22.54258192 24.38510453 24.87280017 24.390625 27.203125 C24.39637685 28.82257082 24.40213458 30.44201662 24.40789795 32.0614624 C24.4184121 35.4610628 24.42425161 38.86063953 24.42773438 42.26025391 C24.43321079 46.60923414 24.45721859 50.95789996 24.48570633 55.30678177 C24.50436569 58.65430604 24.50954013 62.00175521 24.51107025 65.34932709 C24.5140914 66.95205142 24.5221018 68.55477461 24.53525543 70.15744781 C24.55238043 72.40500993 24.55042002 74.65181252 24.54394531 76.89941406 C24.54941376 78.81563568 24.54941376 78.81563568 24.55499268 80.77056885 C24.08598637 85.21113395 22.7103778 88.58038657 19.6875 91.89453125 C13.31594469 96.85571624 8.16361191 96.46323959 0.375 96.5 C-0.70587891 96.520625 -1.78675781 96.54125 -2.90039062 96.5625 C-9.47267981 96.59477644 -14.38061679 96.38026877 -19.45703125 91.75 C-23.34240783 86.76008493 -23.93967349 83.63363676 -23.97363281 77.39526367 C-23.97859772 76.70220627 -23.98356262 76.00914886 -23.98867798 75.29508972 C-24.00328016 73.00270594 -24.0100987 70.71039139 -24.015625 68.41796875 C-24.02137851 66.82237242 -24.02713622 65.22677611 -24.03289795 63.63117981 C-24.04340272 60.28463418 -24.04924866 56.93811253 -24.05273438 53.59155273 C-24.05821487 49.31098049 -24.0822354 45.03072701 -24.11070633 40.75025463 C-24.12936491 37.45334458 -24.13454004 34.15651077 -24.13607025 30.85955238 C-24.13909057 29.28194755 -24.14709813 27.70434386 -24.16025543 26.126791 C-24.17738215 23.91525676 -24.17541988 21.70449426 -24.16894531 19.49291992 C-24.17259094 18.23621994 -24.17623657 16.97951996 -24.17999268 15.68473816 C-23.70758448 11.26941629 -22.31833158 7.90092473 -19.3125 4.60546875 C-12.94094469 -0.35571624 -7.78861191 0.03676041 0 0 Z " fill="#000000" transform="translate(271.8125,399.75)"/>
<path d="M0 0 C1.08087891 -0.020625 2.16175781 -0.04125 3.27539062 -0.0625 C9.84022828 -0.09473984 14.80322575 0.09080812 19.83203125 4.78515625 C23.60724658 9.7219763 24.31532239 11.86633999 24.34863281 18.08300781 C24.35608017 19.13700523 24.35608017 19.13700523 24.36367798 20.21229553 C24.37831101 22.54258192 24.38510453 24.87280017 24.390625 27.203125 C24.39637685 28.82257082 24.40213458 30.44201662 24.40789795 32.0614624 C24.4184121 35.4610628 24.42425161 38.86063953 24.42773438 42.26025391 C24.43321079 46.60923414 24.45721859 50.95789996 24.48570633 55.30678177 C24.50436569 58.65430604 24.50954013 62.00175521 24.51107025 65.34932709 C24.5140914 66.95205142 24.5221018 68.55477461 24.53525543 70.15744781 C24.55238043 72.40500993 24.55042002 74.65181252 24.54394531 76.89941406 C24.54941376 78.81563568 24.54941376 78.81563568 24.55499268 80.77056885 C24.08598637 85.21113395 22.7103778 88.58038657 19.6875 91.89453125 C13.31594469 96.85571624 8.16361191 96.46323959 0.375 96.5 C-0.70587891 96.520625 -1.78675781 96.54125 -2.90039062 96.5625 C-9.47267981 96.59477644 -14.38061679 96.38026877 -19.45703125 91.75 C-23.34240783 86.76008493 -23.93967349 83.63363676 -23.97363281 77.39526367 C-23.97859772 76.70220627 -23.98356262 76.00914886 -23.98867798 75.29508972 C-24.00328016 73.00270594 -24.0100987 70.71039139 -24.015625 68.41796875 C-24.02137851 66.82237242 -24.02713622 65.22677611 -24.03289795 63.63117981 C-24.04340272 60.28463418 -24.04924866 56.93811253 -24.05273438 53.59155273 C-24.05821487 49.31098049 -24.0822354 45.03072701 -24.11070633 40.75025463 C-24.12936491 37.45334458 -24.13454004 34.15651077 -24.13607025 30.85955238 C-24.13909057 29.28194755 -24.14709813 27.70434386 -24.16025543 26.126791 C-24.17738215 23.91525676 -24.17541988 21.70449426 -24.16894531 19.49291992 C-24.17259094 18.23621994 -24.17623657 16.97951996 -24.17999268 15.68473816 C-23.70758448 11.26941629 -22.31833158 7.90092473 -19.3125 4.60546875 C-12.94094469 -0.35571624 -7.78861191 0.03676041 0 0 Z " fill="#000000" transform="translate(95.8125,399.75)"/>
<path d="M0 0 C0.6930574 -0.0049649 1.38611481 -0.00992981 2.10017395 -0.01504517 C4.39255773 -0.02964735 6.68487228 -0.03646588 8.97729492 -0.04199219 C10.57289125 -0.0477457 12.16848756 -0.05350341 13.76408386 -0.05926514 C17.11062949 -0.06976991 20.45715114 -0.07561585 23.80371094 -0.07910156 C28.08428318 -0.08458206 32.36453666 -0.10860259 36.64500904 -0.13707352 C39.9419191 -0.15573209 43.2387529 -0.16090723 46.53571129 -0.16243744 C48.11331612 -0.16545776 49.69091981 -0.17346532 51.26847267 -0.18662262 C53.48000691 -0.20374934 55.69076942 -0.20178707 57.90234375 -0.1953125 C59.15904373 -0.19895813 60.41574371 -0.20260376 61.71052551 -0.20635986 C66.13339111 0.26685546 69.52043803 1.64437158 72.78979492 4.69628906 C77.71646237 11.13885419 77.35948427 15.44127068 77.39526367 23.41113281 C77.41588867 24.54421875 77.43651367 25.67730469 77.45776367 26.84472656 C77.48926184 33.5617102 77.37943317 38.61533761 72.64526367 43.80566406 C67.6553486 47.69104064 64.52890043 48.2883063 58.29052734 48.32226562 C57.25094124 48.32971298 57.25094124 48.32971298 56.19035339 48.33731079 C53.89796962 48.35191297 51.60565506 48.35873151 49.31323242 48.36425781 C47.71763609 48.37001132 46.12203978 48.37576903 44.52644348 48.38153076 C41.17989785 48.39203553 37.8333762 48.39788147 34.48681641 48.40136719 C30.20624416 48.40684768 25.92599068 48.43086822 21.6455183 48.45933914 C18.34860825 48.47799772 15.05177444 48.48317285 11.75481606 48.48470306 C10.17721122 48.48772338 8.59960753 48.49573094 7.02205467 48.50888824 C4.81052043 48.52601496 2.59975793 48.52405269 0.38818359 48.51757812 C-0.86851639 48.52122375 -2.12521637 48.52486938 -3.41999817 48.52862549 C-7.83532003 48.0562173 -11.2038116 46.6669644 -14.49926758 43.66113281 C-19.46045257 37.2895775 -19.06797592 32.13724473 -19.10473633 24.34863281 C-19.12536133 23.26775391 -19.14598633 22.186875 -19.16723633 21.07324219 C-19.19951276 14.50095301 -18.9850051 9.59301602 -14.35473633 4.51660156 C-9.36482126 0.63122498 -6.23837309 0.03395933 0 0 Z " fill="#000000" transform="translate(154.854736328125,287.8388671875)"/>
<path d="M0 0 C0.6930574 -0.0049649 1.38611481 -0.00992981 2.10017395 -0.01504517 C4.39255773 -0.02964735 6.68487228 -0.03646588 8.97729492 -0.04199219 C10.57289125 -0.0477457 12.16848756 -0.05350341 13.76408386 -0.05926514 C17.11062949 -0.06976991 20.45715114 -0.07561585 23.80371094 -0.07910156 C28.08428318 -0.08458206 32.36453666 -0.10860259 36.64500904 -0.13707352 C39.9419191 -0.15573209 43.2387529 -0.16090723 46.53571129 -0.16243744 C48.11331612 -0.16545776 49.69091981 -0.17346532 51.26847267 -0.18662262 C53.48000691 -0.20374934 55.69076942 -0.20178707 57.90234375 -0.1953125 C59.15904373 -0.19895813 60.41574371 -0.20260376 61.71052551 -0.20635986 C66.13339111 0.26685546 69.52043803 1.64437158 72.78979492 4.69628906 C77.71646237 11.13885419 77.35948427 15.44127068 77.39526367 23.41113281 C77.41588867 24.54421875 77.43651367 25.67730469 77.45776367 26.84472656 C77.48926184 33.5617102 77.37943317 38.61533761 72.64526367 43.80566406 C67.6553486 47.69104064 64.52890043 48.2883063 58.29052734 48.32226562 C57.25094124 48.32971298 57.25094124 48.32971298 56.19035339 48.33731079 C53.89796962 48.35191297 51.60565506 48.35873151 49.31323242 48.36425781 C47.71763609 48.37001132 46.12203978 48.37576903 44.52644348 48.38153076 C41.17989785 48.39203553 37.8333762 48.39788147 34.48681641 48.40136719 C30.20624416 48.40684768 25.92599068 48.43086822 21.6455183 48.45933914 C18.34860825 48.47799772 15.05177444 48.48317285 11.75481606 48.48470306 C10.17721122 48.48772338 8.59960753 48.49573094 7.02205467 48.50888824 C4.81052043 48.52601496 2.59975793 48.52405269 0.38818359 48.51757812 C-0.86851639 48.52122375 -2.12521637 48.52486938 -3.41999817 48.52862549 C-7.83532003 48.0562173 -11.2038116 46.6669644 -14.49926758 43.66113281 C-19.46045257 37.2895775 -19.06797592 32.13724473 -19.10473633 24.34863281 C-19.12536133 23.26775391 -19.14598633 22.186875 -19.16723633 21.07324219 C-19.19951276 14.50095301 -18.9850051 9.59301602 -14.35473633 4.51660156 C-9.36482126 0.63122498 -6.23837309 0.03395933 0 0 Z " fill="#000000" transform="translate(338.854736328125,119.8388671875)"/>
<path d="M0 0 C0.6930574 -0.0049649 1.38611481 -0.00992981 2.10017395 -0.01504517 C4.39255773 -0.02964735 6.68487228 -0.03646588 8.97729492 -0.04199219 C10.57289125 -0.0477457 12.16848756 -0.05350341 13.76408386 -0.05926514 C17.11062949 -0.06976991 20.45715114 -0.07561585 23.80371094 -0.07910156 C28.08428318 -0.08458206 32.36453666 -0.10860259 36.64500904 -0.13707352 C39.9419191 -0.15573209 43.2387529 -0.16090723 46.53571129 -0.16243744 C48.11331612 -0.16545776 49.69091981 -0.17346532 51.26847267 -0.18662262 C53.48000691 -0.20374934 55.69076942 -0.20178707 57.90234375 -0.1953125 C59.15904373 -0.19895813 60.41574371 -0.20260376 61.71052551 -0.20635986 C66.13339111 0.26685546 69.52043803 1.64437158 72.78979492 4.69628906 C77.71646237 11.13885419 77.35948427 15.44127068 77.39526367 23.41113281 C77.41588867 24.54421875 77.43651367 25.67730469 77.45776367 26.84472656 C77.48926184 33.5617102 77.37943317 38.61533761 72.64526367 43.80566406 C67.6553486 47.69104064 64.52890043 48.2883063 58.29052734 48.32226562 C57.25094124 48.32971298 57.25094124 48.32971298 56.19035339 48.33731079 C53.89796962 48.35191297 51.60565506 48.35873151 49.31323242 48.36425781 C47.71763609 48.37001132 46.12203978 48.37576903 44.52644348 48.38153076 C41.17989785 48.39203553 37.8333762 48.39788147 34.48681641 48.40136719 C30.20624416 48.40684768 25.92599068 48.43086822 21.6455183 48.45933914 C18.34860825 48.47799772 15.05177444 48.48317285 11.75481606 48.48470306 C10.17721122 48.48772338 8.59960753 48.49573094 7.02205467 48.50888824 C4.81052043 48.52601496 2.59975793 48.52405269 0.38818359 48.51757812 C-0.86851639 48.52122375 -2.12521637 48.52486938 -3.41999817 48.52862549 C-7.83532003 48.0562173 -11.2038116 46.6669644 -14.49926758 43.66113281 C-19.46045257 37.2895775 -19.06797592 32.13724473 -19.10473633 24.34863281 C-19.12536133 23.26775391 -19.14598633 22.186875 -19.16723633 21.07324219 C-19.19951276 14.50095301 -18.9850051 9.59301602 -14.35473633 4.51660156 C-9.36482126 0.63122498 -6.23837309 0.03395933 0 0 Z " fill="#000000" transform="translate(154.854736328125,95.8388671875)"/>
<path d="M0 0 C15.84 0 31.68 0 48 0 C48 21.12 48 42.24 48 64 C32.16 64 16.32 64 0 64 C0 42.88 0 21.76 0 0 Z " fill="#000000" transform="translate(16,416)"/>
</svg>
