<?xml version="1.0" encoding="UTF-8"?>
<svg version="1.1" xmlns="http://www.w3.org/2000/svg" width="512" height="512">
<path d="M0 0 C15.84 0 31.68 0 48 0 C48 68.64 48 137.28 48 208 C32.16 208 16.32 208 0 208 C0 139.36 0 70.72 0 0 Z " fill="#000000" transform="translate(216,140)"/>
<path d="M0 0 C15.84 0 31.68 0 48 0 C48.3125 23.5625 48.3125 23.5625 48.38793945 30.96313477 C48.42024599 32.91424448 48.45362205 34.86533691 48.48828125 36.81640625 C48.49452515 37.81700073 48.50076904 38.81759521 48.50720215 39.84851074 C48.64021124 46.34338498 49.01705813 52.11328206 53.9375 56.875 C57.32260794 58.72142251 60.45726658 59.1246242 64.27740479 59.15821838 C65.12431885 59.1680072 65.97123291 59.17779602 66.84381104 59.18788147 C67.76450378 59.19363693 68.68519653 59.1993924 69.63378906 59.20532227 C70.60973022 59.21522186 71.58567139 59.22512146 72.59118652 59.23532104 C75.8159747 59.2669003 79.0407776 59.29167944 82.265625 59.31640625 C84.50193667 59.33697885 86.73824447 59.35797541 88.97454834 59.37937927 C94.85995353 59.43456824 100.74539363 59.48399158 106.63085938 59.53222656 C113.692737 59.59129785 120.75455084 59.6575084 127.81637573 59.72252655 C138.54421152 59.82049613 149.27208827 59.90937961 160 60 C160 75.84 160 91.68 160 108 C145.2131245 108.09054611 130.42642302 108.16412422 115.63933182 108.20724869 C108.77231113 108.22781078 101.90547585 108.25580842 95.03857422 108.30175781 C88.40553984 108.34612086 81.77264672 108.3691711 75.1394577 108.37950897 C72.61503833 108.38687162 70.09062889 108.40124887 67.56629181 108.42292023 C64.01694927 108.45216578 60.46838989 108.45594706 56.91894531 108.45410156 C55.88675369 108.46848267 54.85456207 108.48286377 53.79109192 108.49768066 C40.43936053 108.42307968 26.56716629 102.91391932 16.68359375 93.8125 C10.17807121 86.80887481 5.335535 78.94647372 2 70 C1.47986328 68.63137817 1.47986328 68.63137817 0.94921875 67.23510742 C-0.74802399 61.17242917 -0.24428397 54.77467972 -0.1953125 48.53515625 C-0.19157708 47.1326874 -0.18873261 45.73021593 -0.18673706 44.32774353 C-0.17914221 40.65673473 -0.15952998 36.98588705 -0.1373291 33.31494141 C-0.11678072 29.56089496 -0.10760622 25.80682141 -0.09765625 22.05273438 C-0.07734386 14.70168116 -0.03818737 7.35106895 0 0 Z " fill="#000000" transform="translate(48,152)"/>
<path d="M0 0 C0.06058594 0.84304687 0.12117188 1.68609375 0.18359375 2.5546875 C0.26738281 3.65039062 0.35117187 4.74609375 0.4375 5.875 C0.51871094 6.96554688 0.59992188 8.05609375 0.68359375 9.1796875 C0.83001703 11.94728971 0.83001703 11.94728971 2 14 C3.32 14 4.64 14 6 14 C7.35091528 11.29816945 7.33858058 8.88191794 7.5625 5.875 C7.64628906 4.77929688 7.73007812 3.68359375 7.81640625 2.5546875 C7.90728516 1.29011719 7.90728516 1.29011719 8 0 C21.27400681 0.56485135 34.20798728 6.12585539 43.34375 15.97265625 C50.88704093 25.20607132 56.45544701 35.81223813 56 48 C55.15695312 48.06058594 54.31390625 48.12117188 53.4453125 48.18359375 C52.34960938 48.26738281 51.25390625 48.35117188 50.125 48.4375 C49.03445313 48.51871094 47.94390625 48.59992188 46.8203125 48.68359375 C44.05271029 48.83001703 44.05271029 48.83001703 42 50 C42 51.32 42 52.64 42 54 C44.70183055 55.35091528 47.11808206 55.33858058 50.125 55.5625 C51.22070312 55.64628906 52.31640625 55.73007813 53.4453125 55.81640625 C54.70988281 55.90728516 54.70988281 55.90728516 56 56 C55.42189714 69.58541724 49.72814175 81.94125774 39.75 91.3125 C30.68704682 98.82136443 19.93496869 104.30999919 8 104 C7.93941406 103.15695312 7.87882812 102.31390625 7.81640625 101.4453125 C7.73261719 100.34960938 7.64882813 99.25390625 7.5625 98.125 C7.48128906 97.03445313 7.40007812 95.94390625 7.31640625 94.8203125 C7.16998297 92.05271029 7.16998297 92.05271029 6 90 C4.68 90 3.36 90 2 90 C0.64908472 92.70183055 0.66141942 95.11808206 0.4375 98.125 C0.35371094 99.22070312 0.26992188 100.31640625 0.18359375 101.4453125 C0.09271484 102.70988281 0.09271484 102.70988281 0 104 C-13.58541724 103.42189714 -25.94125774 97.72814175 -35.3125 87.75 C-42.82136443 78.68704682 -48.30999919 67.93496869 -48 56 C-47.15695312 55.93941406 -46.31390625 55.87882812 -45.4453125 55.81640625 C-44.34960938 55.73261719 -43.25390625 55.64882812 -42.125 55.5625 C-41.03445313 55.48128906 -39.94390625 55.40007812 -38.8203125 55.31640625 C-36.05271029 55.16998297 -36.05271029 55.16998297 -34 54 C-34 52.68 -34 51.36 -34 50 C-36.70183055 48.64908472 -39.11808206 48.66141942 -42.125 48.4375 C-43.22070312 48.35371094 -44.31640625 48.26992187 -45.4453125 48.18359375 C-46.70988281 48.09271484 -46.70988281 48.09271484 -48 48 C-47.43514865 34.72599319 -41.87414461 21.79201272 -32.02734375 12.65625 C-22.79392868 5.11295907 -12.18776187 -0.45544701 0 0 Z M-18 29 C-19.03297885 31.20051492 -19.03297885 31.20051492 -19 34 C-17.06910453 36.10995842 -15.22701398 37.85453149 -13.0625 39.6875 C-7.22547995 44.99238648 -7.22547995 44.99238648 -6.375 48.79296875 C-6.49656798 50.46706116 -6.66946575 52.13851412 -6.90234375 53.80078125 C-7.02470522 56.55636157 -6.3740431 57.47653075 -4.625 59.5625 C-2.26090422 61.98658904 -2.26090422 61.98658904 0 63 C0.64710938 62.89300781 1.29421875 62.78601563 1.9609375 62.67578125 C5.00576259 62.21757942 6.99485996 62.21570247 10 63 C12.95893686 65.25319481 15.40336606 67.9888149 17.80029297 70.81958008 C19.37838995 72.69687775 19.37838995 72.69687775 22 75 C24.79948508 75.03297885 24.79948508 75.03297885 27 74 C26.6990494 69.70180805 25.20152697 67.93947198 22.00048828 65.15698242 C21.48470215 64.71330322 20.96891602 64.26962402 20.4375 63.8125 C15.2056061 59.0178231 15.2056061 59.0178231 14.44921875 55.2734375 C14.56366757 53.58976814 14.72424822 51.9084015 14.9375 50.234375 C15.01482531 47.46999503 14.37911297 46.5304757 12.625 44.4375 C10.26090422 42.01341096 10.26090422 42.01341096 8 41 C7.35289062 41.10699219 6.70578125 41.21398437 6.0390625 41.32421875 C2.99643954 41.7820892 1.00386343 41.77892735 -2 41 C-4.98762473 38.77869362 -7.44561267 36.06359218 -9.88818359 33.26831055 C-11.19412698 31.78596571 -12.59278997 30.38657645 -14 29 C-15.32 29 -16.64 29 -18 29 Z " fill="#000000" transform="translate(388,164)"/>
<path d="M0 0 C51.48 0 102.96 0 156 0 C156 15.84 156 31.68 156 48 C104.52 48 53.04 48 0 48 C0 32.16 0 16.32 0 0 Z " fill="#000000" transform="translate(344,436)"/>
<path d="M0 0 C48.84 0 97.68 0 148 0 C148 15.84 148 31.68 148 48 C99.16 48 50.32 48 0 48 C0 32.16 0 16.32 0 0 Z " fill="#000000" transform="translate(164,436)"/>
<path d="M0 0 C9.1884375 -0.1546875 9.1884375 -0.1546875 18.5625 -0.3125 C20.46201416 -0.35802002 22.36152832 -0.40354004 24.31860352 -0.45043945 C39.60825884 -0.66315896 51.83990437 2.11715864 64 12 C64.83144531 12.62261719 65.66289063 13.24523438 66.51953125 13.88671875 C75.55564274 21.58520114 81.5865106 33.47876682 84 45 C84.38724851 49.92123233 84.3517274 54.82555606 84.29296875 59.7578125 C84.28736035 61.15599101 84.28309615 62.5541755 84.28010559 63.95236206 C84.26875445 67.59876323 84.23937382 71.2447951 84.20599365 74.89105225 C84.17508038 78.62523313 84.16138982 82.35947657 84.14648438 86.09375 C84.11609145 93.39615747 84.05734903 100.69755623 84 108 C68.16 108 52.32 108 36 108 C35.6875 84.4375 35.6875 84.4375 35.61206055 77.03686523 C35.57975401 75.08575552 35.54637795 73.13466309 35.51171875 71.18359375 C35.50547485 70.18299927 35.49923096 69.18240479 35.49279785 68.15148926 C35.35978876 61.65661502 34.98294187 55.88671794 30.0625 51.125 C26.2672908 49.05488589 22.63575961 48.84282084 18.359375 48.68359375 C17.39483398 48.64548584 16.43029297 48.60737793 15.43652344 48.56811523 C14.2199707 48.52501221 13.00341797 48.48190918 11.75 48.4375 C7.8725 48.293125 3.995 48.14875 0 48 C0 32.16 0 16.32 0 0 Z " fill="#000000" transform="translate(12,12)"/>
<path d="M0 0 C39.6 0 79.2 0 120 0 C120 15.84 120 31.68 120 48 C80.4 48 40.8 48 0 48 C0 32.16 0 16.32 0 0 Z " fill="#000000" transform="translate(12,436)"/>
<path d="M0 0 C15.84 0 31.68 0 48 0 C48 31.68 48 63.36 48 96 C32.16 96 16.32 96 0 96 C0 64.32 0 32.64 0 0 Z " fill="#000000" transform="translate(216,12)"/>
<path d="M0 0 C1.57648315 0.01244751 1.57648315 0.01244751 3.18481445 0.02514648 C21.30038546 0.41759699 37.18306364 7.74976225 50.1875 20.4375 C62.23829061 34.01129732 68.81094617 50.12244439 68.625 68.25 C68.61670166 69.30098877 68.60840332 70.35197754 68.59985352 71.43481445 C68.20740301 89.55038546 60.87523775 105.43306364 48.1875 118.4375 C34.61370268 130.48829061 18.50255561 137.06094617 0.375 136.875 C-0.67598877 136.86670166 -1.72697754 136.85840332 -2.80981445 136.84985352 C-20.92538546 136.45740301 -36.80806364 129.12523775 -49.8125 116.4375 C-61.86329061 102.86370268 -68.43594617 86.75255561 -68.25 68.625 C-68.24170166 67.57401123 -68.23340332 66.52302246 -68.22485352 65.44018555 C-67.83240301 47.32461454 -60.50023775 31.44193636 -47.8125 18.4375 C-34.23870268 6.38670939 -18.12755561 -0.18594617 0 0 Z M-43 27.125 C-55.02106904 39.76316704 -59.47937498 54.14149721 -59.35375977 71.19628906 C-58.79230089 87.85433096 -51.65500802 101.61582822 -39.60546875 113.08203125 C-26.88904954 123.80650787 -12.05744107 129.28809255 4.59375 128.21875 C21.7139884 126.24916505 36.04983953 118.65167344 47.1875 105.4375 C57.96785466 90.94587571 60.50794431 76.08790718 59.1875 58.4375 C58.33083463 53.84689103 56.99296843 49.73594967 55.1875 45.4375 C54.86007812 44.58285156 54.53265625 43.72820312 54.1953125 42.84765625 C48.11542228 28.80177849 34.95857581 18.33639071 21.1875 12.4375 C-2.02528383 3.47230625 -25.26572533 10.77082453 -43 27.125 Z " fill="#000000" transform="translate(391.8125,147.5625)"/>
<path d="M0 0 C0.9477832 -0.01260864 1.89556641 -0.02521729 2.87207031 -0.03820801 C4.39719238 -0.02606262 4.39719238 -0.02606262 5.953125 -0.01367188 C7.00338867 -0.01749878 8.05365234 -0.02132568 9.13574219 -0.02526855 C11.35482747 -0.02798883 13.57394474 -0.02061964 15.79296875 -0.00390625 C19.19083095 0.01750067 22.58657861 -0.00370513 25.984375 -0.02929688 C28.14062967 -0.02665362 30.29688302 -0.02152869 32.453125 -0.01367188 C33.46987305 -0.0217688 34.48662109 -0.02986572 35.53417969 -0.03820801 C36.95585449 -0.01929504 36.95585449 -0.01929504 38.40625 0 C39.23801758 0.00318237 40.06978516 0.00636475 40.92675781 0.00964355 C44.08540582 0.71444484 45.26693768 1.9579584 47.203125 4.51757812 C47.71105957 6.94580078 47.71105957 6.94580078 47.72070312 9.68164062 C47.73331177 10.70950684 47.74592041 11.73737305 47.75891113 12.79638672 C47.75081421 13.90062988 47.74271729 15.00487305 47.734375 16.14257812 C47.7382019 17.28162598 47.74202881 18.42067383 47.74597168 19.59423828 C47.74869274 22.0016366 47.7413181 24.40906438 47.72460938 26.81640625 C47.70320425 30.50392495 47.72440632 34.18949512 47.75 37.87695312 C47.74735676 40.2154991 47.74223187 42.55404386 47.734375 44.89257812 C47.74247192 45.99682129 47.75056885 47.10106445 47.75891113 48.23876953 C47.74630249 49.26663574 47.73369385 50.29450195 47.72070312 51.35351562 C47.71592957 52.70775635 47.71592957 52.70775635 47.71105957 54.08935547 C47.02932615 57.34843771 45.84004074 58.52942173 43.203125 60.51757812 C40.92675781 61.0255127 40.92675781 61.0255127 38.40625 61.03515625 C37.4584668 61.04776489 36.51068359 61.06037354 35.53417969 61.07336426 C34.00905762 61.06121887 34.00905762 61.06121887 32.453125 61.04882812 C30.87772949 61.05456848 30.87772949 61.05456848 29.27050781 61.0604248 C27.05142253 61.06314508 24.83230526 61.05577589 22.61328125 61.0390625 C19.21541905 61.01765558 15.81967139 61.03886138 12.421875 61.06445312 C10.26562033 61.06180987 8.10936698 61.05668494 5.953125 61.04882812 C4.93637695 61.05692505 3.91962891 61.06502197 2.87207031 61.07336426 C1.92428711 61.06075562 0.97650391 61.04814697 0 61.03515625 C-0.83176758 61.03197388 -1.66353516 61.0287915 -2.52050781 61.0255127 C-5.67915582 60.32071141 -6.86068768 59.07719785 -8.796875 56.51757812 C-9.30480957 54.08935547 -9.30480957 54.08935547 -9.31445312 51.35351562 C-9.32706177 50.32564941 -9.33967041 49.2977832 -9.35266113 48.23876953 C-9.34456421 47.13452637 -9.33646729 46.0302832 -9.328125 44.89257812 C-9.3319519 43.75353027 -9.33577881 42.61448242 -9.33972168 41.44091797 C-9.34244274 39.03351965 -9.3350681 36.62609187 -9.31835938 34.21875 C-9.29695425 30.5312313 -9.31815632 26.84566113 -9.34375 23.15820312 C-9.34110676 20.81965715 -9.33598187 18.48111239 -9.328125 16.14257812 C-9.33622192 15.03833496 -9.34431885 13.9340918 -9.35266113 12.79638672 C-9.34005249 11.76852051 -9.32744385 10.7406543 -9.31445312 9.68164062 C-9.31127075 8.77881348 -9.30808838 7.87598633 -9.30480957 6.94580078 C-8.22973974 1.80634175 -4.9830974 0.01906551 0 0 Z " fill="#000000" transform="translate(372.796875,327.482421875)"/>
<path d="M0 0 C15.84 0 31.68 0 48 0 C48 15.84 48 31.68 48 48 C32.16 48 16.32 48 0 48 C0 32.16 0 16.32 0 0 Z " fill="#000000" transform="translate(216,380)"/>
<path d="M0 0 C10.56 0 21.12 0 32 0 C32 10.56 32 21.12 32 32 C21.44 32 10.88 32 0 32 C0 21.44 0 10.88 0 0 Z " fill="#000000" transform="translate(376,396)"/>
<path d="M0 0 C1.27875 0.00257813 2.5575 0.00515625 3.875 0.0078125 C5.15375 0.00523437 6.4325 0.00265625 7.75 0 C10.875 0.1328125 10.875 0.1328125 11.875 1.1328125 C11.97420863 3.06043067 12.00299365 4.99170604 12.00439453 6.921875 C12.00754669 8.1598584 12.01069885 9.3978418 12.01394653 10.67333984 C12.01215675 12.03483109 12.0101058 13.39632201 12.0078125 14.7578125 C12.00848559 16.14404314 12.00945566 17.53027367 12.01071167 18.91650391 C12.0121884 21.82520672 12.0100349 24.73387887 12.00537109 27.64257812 C11.99967381 31.37877848 12.00295294 35.11490702 12.00894356 38.85110474 C12.01254985 41.71460516 12.01141027 44.57808843 12.00881577 47.44158936 C12.00814668 48.81955982 12.00897426 50.19753182 12.01129532 51.57550049 C12.01382292 53.49825004 12.00929024 55.42100502 12.00439453 57.34375 C12.00359894 58.43993652 12.00280334 59.53612305 12.00198364 60.66552734 C11.875 63.1328125 11.875 63.1328125 10.875 64.1328125 C8.54339945 64.23190552 6.20870058 64.26251754 3.875 64.2578125 C2.59625 64.26039063 1.3175 64.26296875 0 64.265625 C-3.125 64.1328125 -3.125 64.1328125 -4.125 63.1328125 C-4.22420863 61.20519433 -4.25299365 59.27391896 -4.25439453 57.34375 C-4.25754669 56.1057666 -4.26069885 54.8677832 -4.26394653 53.59228516 C-4.26215675 52.23079391 -4.2601058 50.86930299 -4.2578125 49.5078125 C-4.25848559 48.12158186 -4.25945566 46.73535133 -4.26071167 45.34912109 C-4.2621884 42.44041828 -4.2600349 39.53174613 -4.25537109 36.62304688 C-4.24967381 32.88684652 -4.25295294 29.15071798 -4.25894356 25.41452026 C-4.26254985 22.55101984 -4.26141027 19.68753657 -4.25881577 16.82403564 C-4.25814668 15.44606518 -4.25897426 14.06809318 -4.26129532 12.69012451 C-4.26382292 10.76737496 -4.25929024 8.84461998 -4.25439453 6.921875 C-4.25359894 5.82568848 -4.25280334 4.72950195 -4.25198364 3.60009766 C-4.06186734 -0.09385165 -3.77644402 0.16049887 0 0 Z " fill="#000000" transform="translate(324.125,427.8671875)"/>
<path d="M0 0 C1.27875 0.00257813 2.5575 0.00515625 3.875 0.0078125 C5.15375 0.00523437 6.4325 0.00265625 7.75 0 C10.875 0.1328125 10.875 0.1328125 11.875 1.1328125 C11.97420863 3.06043067 12.00299365 4.99170604 12.00439453 6.921875 C12.00754669 8.1598584 12.01069885 9.3978418 12.01394653 10.67333984 C12.01215675 12.03483109 12.0101058 13.39632201 12.0078125 14.7578125 C12.00848559 16.14404314 12.00945566 17.53027367 12.01071167 18.91650391 C12.0121884 21.82520672 12.0100349 24.73387887 12.00537109 27.64257812 C11.99967381 31.37877848 12.00295294 35.11490702 12.00894356 38.85110474 C12.01254985 41.71460516 12.01141027 44.57808843 12.00881577 47.44158936 C12.00814668 48.81955982 12.00897426 50.19753182 12.01129532 51.57550049 C12.01382292 53.49825004 12.00929024 55.42100502 12.00439453 57.34375 C12.00359894 58.43993652 12.00280334 59.53612305 12.00198364 60.66552734 C11.875 63.1328125 11.875 63.1328125 10.875 64.1328125 C8.54339945 64.23190552 6.20870058 64.26251754 3.875 64.2578125 C2.59625 64.26039063 1.3175 64.26296875 0 64.265625 C-3.125 64.1328125 -3.125 64.1328125 -4.125 63.1328125 C-4.22420863 61.20519433 -4.25299365 59.27391896 -4.25439453 57.34375 C-4.25754669 56.1057666 -4.26069885 54.8677832 -4.26394653 53.59228516 C-4.26215675 52.23079391 -4.2601058 50.86930299 -4.2578125 49.5078125 C-4.25848559 48.12158186 -4.25945566 46.73535133 -4.26071167 45.34912109 C-4.2621884 42.44041828 -4.2600349 39.53174613 -4.25537109 36.62304688 C-4.24967381 32.88684652 -4.25295294 29.15071798 -4.25894356 25.41452026 C-4.26254985 22.55101984 -4.26141027 19.68753657 -4.25881577 16.82403564 C-4.25814668 15.44606518 -4.25897426 14.06809318 -4.26129532 12.69012451 C-4.26382292 10.76737496 -4.25929024 8.84461998 -4.25439453 6.921875 C-4.25359894 5.82568848 -4.25280334 4.72950195 -4.25198364 3.60009766 C-4.06186734 -0.09385165 -3.77644402 0.16049887 0 0 Z " fill="#000000" transform="translate(144.125,427.8671875)"/>
<path d="M0 0 C1.8569751 -0.00472824 1.8569751 -0.00472824 3.75146484 -0.009552 C5.11295609 -0.00776222 6.47444701 -0.00571127 7.8359375 -0.00341797 C9.22216814 -0.00409106 10.60839867 -0.00506113 11.99462891 -0.00631714 C14.90333172 -0.00779387 17.81200387 -0.00564037 20.72070312 -0.00097656 C24.45690348 0.00472073 28.19303202 0.00144159 31.92922974 -0.00454903 C34.79273016 -0.00815532 37.65621343 -0.00701574 40.51971436 -0.00442123 C41.89768482 -0.00375215 43.27565682 -0.00457973 44.65362549 -0.00690079 C46.57637504 -0.00942839 48.49913002 -0.0048957 50.421875 0 C52.06615479 0.00119339 52.06615479 0.00119339 53.74365234 0.00241089 C56.2109375 0.12939453 56.2109375 0.12939453 57.2109375 1.12939453 C57.31003052 3.46099508 57.34064254 5.79569395 57.3359375 8.12939453 C57.33980469 10.04751953 57.33980469 10.04751953 57.34375 12.00439453 C57.2109375 15.12939453 57.2109375 15.12939453 56.2109375 16.12939453 C54.28331933 16.22860316 52.35204396 16.25738818 50.421875 16.25878906 C49.1838916 16.26194122 47.9459082 16.26509338 46.67041016 16.26834106 C45.30891891 16.26655128 43.94742799 16.26450033 42.5859375 16.26220703 C41.19970686 16.26288012 39.81347633 16.26385019 38.42724609 16.2651062 C35.51854328 16.26658293 32.60987113 16.26442943 29.70117188 16.25976562 C25.96497152 16.25406834 22.22884298 16.25734748 18.49264526 16.26333809 C15.62914484 16.26694438 12.76566157 16.2658048 9.90216064 16.2632103 C8.52419018 16.26254122 7.14621818 16.2633688 5.76824951 16.26568985 C3.84549996 16.26821745 1.92274498 16.26368477 0 16.25878906 C-1.64427979 16.25759567 -1.64427979 16.25759567 -3.32177734 16.25637817 C-5.7890625 16.12939453 -5.7890625 16.12939453 -6.7890625 15.12939453 C-6.88815552 12.79779398 -6.91876754 10.46309512 -6.9140625 8.12939453 C-6.91664063 6.85064453 -6.91921875 5.57189453 -6.921875 4.25439453 C-6.69822762 -1.0078967 -4.75890371 0.00345393 0 0 Z " fill="#000000" transform="translate(214.7890625,355.87060546875)"/>
<path d="M0 0 C1.8569751 -0.00472824 1.8569751 -0.00472824 3.75146484 -0.009552 C5.11295609 -0.00776222 6.47444701 -0.00571127 7.8359375 -0.00341797 C9.22216814 -0.00409106 10.60839867 -0.00506113 11.99462891 -0.00631714 C14.90333172 -0.00779387 17.81200387 -0.00564037 20.72070312 -0.00097656 C24.45690348 0.00472073 28.19303202 0.00144159 31.92922974 -0.00454903 C34.79273016 -0.00815532 37.65621343 -0.00701574 40.51971436 -0.00442123 C41.89768482 -0.00375215 43.27565682 -0.00457973 44.65362549 -0.00690079 C46.57637504 -0.00942839 48.49913002 -0.0048957 50.421875 0 C52.06615479 0.00119339 52.06615479 0.00119339 53.74365234 0.00241089 C56.2109375 0.12939453 56.2109375 0.12939453 57.2109375 1.12939453 C57.31003052 3.46099508 57.34064254 5.79569395 57.3359375 8.12939453 C57.33980469 10.04751953 57.33980469 10.04751953 57.34375 12.00439453 C57.2109375 15.12939453 57.2109375 15.12939453 56.2109375 16.12939453 C54.28331933 16.22860316 52.35204396 16.25738818 50.421875 16.25878906 C49.1838916 16.26194122 47.9459082 16.26509338 46.67041016 16.26834106 C45.30891891 16.26655128 43.94742799 16.26450033 42.5859375 16.26220703 C41.19970686 16.26288012 39.81347633 16.26385019 38.42724609 16.2651062 C35.51854328 16.26658293 32.60987113 16.26442943 29.70117188 16.25976562 C25.96497152 16.25406834 22.22884298 16.25734748 18.49264526 16.26333809 C15.62914484 16.26694438 12.76566157 16.2658048 9.90216064 16.2632103 C8.52419018 16.26254122 7.14621818 16.2633688 5.76824951 16.26568985 C3.84549996 16.26821745 1.92274498 16.26368477 0 16.25878906 C-1.64427979 16.25759567 -1.64427979 16.25759567 -3.32177734 16.25637817 C-5.7890625 16.12939453 -5.7890625 16.12939453 -6.7890625 15.12939453 C-6.88815552 12.79779398 -6.91876754 10.46309512 -6.9140625 8.12939453 C-6.91664062 6.85064453 -6.91921875 5.57189453 -6.921875 4.25439453 C-6.69822762 -1.0078967 -4.75890371 0.00345393 0 0 Z " fill="#000000" transform="translate(46.7890625,127.87060546875)"/>
<path d="M0 0 C1.8569751 -0.00472824 1.8569751 -0.00472824 3.75146484 -0.009552 C5.11295609 -0.00776222 6.47444701 -0.00571127 7.8359375 -0.00341797 C9.22216814 -0.00409106 10.60839867 -0.00506113 11.99462891 -0.00631714 C14.90333172 -0.00779387 17.81200387 -0.00564037 20.72070312 -0.00097656 C24.45690348 0.00472073 28.19303202 0.00144159 31.92922974 -0.00454903 C34.79273016 -0.00815532 37.65621343 -0.00701574 40.51971436 -0.00442123 C41.89768482 -0.00375215 43.27565682 -0.00457973 44.65362549 -0.00690079 C46.57637504 -0.00942839 48.49913002 -0.0048957 50.421875 0 C52.06615479 0.00119339 52.06615479 0.00119339 53.74365234 0.00241089 C56.2109375 0.12939453 56.2109375 0.12939453 57.2109375 1.12939453 C57.31003052 3.46099508 57.34064254 5.79569395 57.3359375 8.12939453 C57.33980469 10.04751953 57.33980469 10.04751953 57.34375 12.00439453 C57.2109375 15.12939453 57.2109375 15.12939453 56.2109375 16.12939453 C54.28331933 16.22860316 52.35204396 16.25738818 50.421875 16.25878906 C49.1838916 16.26194122 47.9459082 16.26509338 46.67041016 16.26834106 C45.30891891 16.26655128 43.94742799 16.26450033 42.5859375 16.26220703 C41.19970686 16.26288012 39.81347633 16.26385019 38.42724609 16.2651062 C35.51854328 16.26658293 32.60987113 16.26442943 29.70117188 16.25976562 C25.96497152 16.25406834 22.22884298 16.25734748 18.49264526 16.26333809 C15.62914484 16.26694438 12.76566157 16.2658048 9.90216064 16.2632103 C8.52419018 16.26254122 7.14621818 16.2633688 5.76824951 16.26568985 C3.84549996 16.26821745 1.92274498 16.26368477 0 16.25878906 C-1.64427979 16.25759567 -1.64427979 16.25759567 -3.32177734 16.25637817 C-5.7890625 16.12939453 -5.7890625 16.12939453 -6.7890625 15.12939453 C-6.88815552 12.79779398 -6.91876754 10.46309512 -6.9140625 8.12939453 C-6.91664063 6.85064453 -6.91921875 5.57189453 -6.921875 4.25439453 C-6.69822762 -1.0078967 -4.75890371 0.00345393 0 0 Z " fill="#000000" transform="translate(214.7890625,115.87060546875)"/>
<path d="M0 0 C3.7434375 0.2784375 3.7434375 0.2784375 7.5625 0.5625 C15.83239789 1.1112442 23.74589888 0.72123214 32 0 C32 9.9 32 19.8 32 30 C21.44 30 10.88 30 0 30 C0 20.1 0 10.2 0 0 Z " fill="#000000" transform="translate(376,290)"/>
<path d="M0 0 C0.66209473 -0.00095673 1.32418945 -0.00191345 2.00634766 -0.00289917 C3.40852961 -0.00358076 4.8107147 -0.00172792 6.21289062 0.00244141 C8.36595713 0.00779004 10.51881502 0.0024958 12.671875 -0.00390625 C14.03125046 -0.00324546 15.3906258 -0.00196429 16.75 0 C18.61785156 0.00169189 18.61785156 0.00169189 20.5234375 0.00341797 C23.375 0.1328125 23.375 0.1328125 24.375 1.1328125 C24.46151611 2.54851373 24.48204904 3.9684075 24.47265625 5.38671875 C24.47015869 6.1557251 24.46766113 6.92473145 24.46508789 7.71704102 C24.45598389 8.69987061 24.44687988 9.6827002 24.4375 10.6953125 C24.416875 13.8096875 24.39625 16.9240625 24.375 20.1328125 C13.815 20.1328125 3.255 20.1328125 -7.625 20.1328125 C-7.6559375 15.46125 -7.6559375 15.46125 -7.6875 10.6953125 C-7.696604 9.71248291 -7.70570801 8.72965332 -7.71508789 7.71704102 C-7.71758545 6.94803467 -7.72008301 6.17902832 -7.72265625 5.38671875 C-7.73051147 4.20057983 -7.73051147 4.20057983 -7.73852539 2.99047852 C-7.47406577 -1.33699089 -3.4720131 0.00314494 0 0 Z " fill="#000000" transform="translate(55.625,407.8671875)"/>
<path d="M0 0 C3.114375 -0.020625 6.22875 -0.04125 9.4375 -0.0625 C10.91174438 -0.07615601 10.91174438 -0.07615601 12.41577148 -0.09008789 C13.18477783 -0.09258545 13.95378418 -0.09508301 14.74609375 -0.09765625 C15.93223267 -0.10551147 15.93223267 -0.10551147 17.14233398 -0.11352539 C19 0 19 0 20 1 C20.10012401 3.20650656 20.1308118 5.41622386 20.1328125 7.625 C20.13424759 8.61814209 20.13424759 8.61814209 20.13571167 9.63134766 C20.13639326 11.03352961 20.13454042 12.4357147 20.13037109 13.83789062 C20.12502246 15.99095713 20.1303167 18.14381502 20.13671875 20.296875 C20.13605796 21.65625046 20.13477679 23.0156258 20.1328125 24.375 C20.13168457 25.62023437 20.13055664 26.86546875 20.12939453 28.1484375 C20 31 20 31 19 32 C17.58429877 32.08651611 16.164405 32.10704904 14.74609375 32.09765625 C13.9770874 32.09515869 13.20808105 32.09266113 12.41577148 32.09008789 C11.43294189 32.08098389 10.4501123 32.07187988 9.4375 32.0625 C4.7659375 32.0315625 4.7659375 32.0315625 0 32 C0 21.44 0 10.88 0 0 Z " fill="#000000" transform="translate(428,344)"/>
<path d="M0 0 C3.12578143 1.6720747 5.39281175 3.7856235 7 7 C7.51512617 11.09157355 7.94367269 15.23589546 5.953125 18.95703125 C3.55501226 21.85592636 1.60351712 23.79811835 -2.171875 24.2734375 C-9.98876369 24.58137554 -9.98876369 24.58137554 -13.5625 21.625 C-17.3057723 17.59378368 -17.39037018 14.90519941 -17.359375 9.55078125 C-16.78039966 5.44131496 -15.00085071 3.78650423 -12 1 C-8.27533151 -0.86233425 -4.05504687 -0.57130829 0 0 Z " fill="#000000" transform="translate(69,356)"/>
<path d="M0 0 C3.12578143 1.6720747 5.39281175 3.7856235 7 7 C7.51512617 11.09157355 7.94367269 15.23589546 5.953125 18.95703125 C3.55501226 21.85592636 1.60351712 23.79811835 -2.171875 24.2734375 C-9.98876369 24.58137554 -9.98876369 24.58137554 -13.5625 21.625 C-17.3057723 17.59378368 -17.39037018 14.90519941 -17.359375 9.55078125 C-16.78039966 5.44131496 -15.00085071 3.78650423 -12 1 C-8.27533151 -0.86233425 -4.05504687 -0.57130829 0 0 Z " fill="#000000" transform="translate(493,348)"/>
<path d="M0 0 C3.96 0 7.92 0 12 0 C15.18329081 22.14092446 15.18329081 22.14092446 14 29 C12.15857705 31.41737462 10.96127001 32.74466265 8 33.53125 C7.01 33.51578125 7.01 33.51578125 6 33.5 C5.01 33.51546875 5.01 33.51546875 4 33.53125 C1.03872999 32.74466265 -0.15857705 31.41737462 -2 29 C-3.60647425 19.68789504 -1.33702004 9.29945187 0 0 Z " fill="#000000" transform="translate(482,379)"/>
<path d="M0 0 C1.76867152 2.35547375 2.21708812 3.33292272 2.171875 6.2265625 C2.1821875 6.8865625 2.1925 7.5465625 2.203125 8.2265625 C1.41653765 11.18783251 0.08924962 12.38513955 -2.328125 14.2265625 C-11.64022996 15.83303675 -22.02867313 13.56358254 -31.328125 12.2265625 C-31.328125 8.2665625 -31.328125 4.3065625 -31.328125 0.2265625 C-4.72393108 -3.59843072 -4.72393108 -3.59843072 0 0 Z " fill="#000000" transform="translate(114.328125,361.7734375)"/>
<path d="M0 0 C1.67751619 0.23204954 3.35401997 0.47140056 5.03027344 0.71240234 C5.03027344 4.67240234 5.03027344 8.63240234 5.03027344 12.71240234 C-17.11065103 15.89569315 -17.11065103 15.89569315 -23.96972656 14.71240234 C-26.38710119 12.87097939 -27.71438922 11.67367235 -28.50097656 8.71240234 C-28.49066406 8.05240234 -28.48035156 7.39240234 -28.46972656 6.71240234 C-28.48519531 5.72240234 -28.48519531 5.72240234 -28.50097656 4.71240234 C-25.6044319 -6.19223638 -8.31495988 -1.10853585 0 0 Z " fill="#000000" transform="translate(39.9697265625,361.28759765625)"/>
<path d="M0 0 C0.66 -0.0103125 1.32 -0.020625 2 -0.03125 C4.96127001 0.75533735 6.15857705 2.08262538 8 4.5 C9.60647425 13.81210496 7.33702004 24.20054813 6 33.5 C2.04 33.5 -1.92 33.5 -6 33.5 C-9.18329081 11.35907554 -9.18329081 11.35907554 -8 4.5 C-5.6378636 1.39904561 -3.9461078 -0.06165793 0 0 Z " fill="#000000" transform="translate(488,307.5)"/>
<path d="M0 0 C5.28 0 10.56 0 16 0 C16 4.62 16 9.24 16 14 C10.72 14 5.44 14 0 14 C0 9.38 0 4.76 0 0 Z " fill="#000000" transform="translate(56,386)"/>
<path d="M0 0 C4.62 0 9.24 0 14 0 C14 5.28 14 10.56 14 16 C9.38 16 4.76 16 0 16 C0 10.72 0 5.44 0 0 Z " fill="#000000" transform="translate(456,352)"/>
<path d="M0 0 C3 0.125 3 0.125 4 1.125 C4.125 4.125 4.125 4.125 4 7.125 C3 8.125 3 8.125 0 8.25 C-3 8.125 -3 8.125 -4 7.125 C-4.125 4.125 -4.125 4.125 -4 1.125 C-3 0.125 -3 0.125 0 0 Z " fill="#000000" transform="translate(392,211.875)"/>
</svg>
