<?xml version="1.0" encoding="UTF-8"?>
<svg version="1.1" xmlns="http://www.w3.org/2000/svg" width="512" height="512">
<path d="M0 0 C0.58910156 0.44601563 1.17820312 0.89203125 1.78515625 1.3515625 C15.8310593 12.29392888 25.02935285 31.29856256 27.71875 48.66503906 C29.35309523 62.23350933 28.30463366 75.05777907 24 88 C23.649375 89.05445313 23.29875 90.10890625 22.9375 91.1953125 C15.56718685 110.79829818 0.28905813 125.20939713 -18.06640625 134.5625 C-36.06161989 142.61362088 -58.3026149 144.25813353 -77.07470703 137.73632812 C-99.35603912 129.21483465 -115.01846692 115.13353341 -125.42578125 93.6640625 C-133.96662987 73.78486647 -134.08907049 52.49905256 -126.75 32.25 C-117.99369484 11.24004885 -102.89048641 -4.00212121 -82.07568359 -13.15869141 C-54.47290438 -24.3465504 -22.58526424 -19.35879792 0 0 Z M-60 0 C-60 5.94 -60 11.88 -60 18 C-62.31 18 -64.62 18 -67 18 C-75.3714994 20.66757029 -80.18659012 25.63436397 -84.8125 32.8125 C-87.42518175 39.82548785 -87.66231626 46.44484852 -85.203125 53.54296875 C-81.90305474 60.28239795 -76.75862918 65.25081284 -69.95703125 68.34375 C-65.78510409 69.74271959 -61.78466157 70.12432909 -57.40234375 70.17578125 C-56.35369141 70.19962891 -55.30503906 70.22347656 -54.22460938 70.24804688 C-52.0294964 70.29108831 -49.83412021 70.32229911 -47.63867188 70.34179688 C-46.59130859 70.36951172 -45.54394531 70.39722656 -44.46484375 70.42578125 C-43.512146 70.44036377 -42.55944824 70.45494629 -41.57788086 70.4699707 C-38.290292 71.14592064 -37.08488451 72.42526241 -35 75 C-34.46875 77 -34.46875 77 -34.5 79 C-34.4896875 79.66 -34.479375 80.32 -34.46875 81 C-35.2486151 83.93596275 -36.65908732 85.09771843 -39 87 C-41.79321289 87.4699707 -41.79321289 87.4699707 -44.97265625 87.42578125 C-46.11927734 87.41740234 -47.26589844 87.40902344 -48.44726562 87.40039062 C-49.64029297 87.37138672 -50.83332031 87.34238281 -52.0625 87.3125 C-53.25939453 87.30283203 -54.45628906 87.29316406 -55.68945312 87.28320312 C-64.49219665 87.16926778 -64.49219665 87.16926778 -68 86 C-68.66 83.69 -69.32 81.38 -70 79 C-75.61 79 -81.22 79 -87 79 C-85.78681769 87.6135944 -83.65556827 94.23760527 -76.69921875 99.859375 C-71.14105841 103.48989964 -66.60712682 104.78686688 -60 105 C-60 110.94 -60 116.88 -60 123 C-54.39 123 -48.78 123 -43 123 C-43 117.06 -43 111.12 -43 105 C-40.36 104.67 -37.72 104.34 -35 104 C-27.70904631 101.79401914 -22.59693737 96.58608089 -18.8984375 90.0546875 C-16.33878446 84.14595571 -15.90050481 77.80164437 -17.69140625 71.609375 C-20.89090592 63.7378026 -25.39619543 58.25221903 -33.16796875 54.7265625 C-36.90965355 53.24265339 -39.79783485 52.87796828 -43.8046875 52.859375 C-44.94550781 52.84003906 -46.08632813 52.82070312 -47.26171875 52.80078125 C-49.66259252 52.76703924 -52.06373431 52.74870649 -54.46484375 52.74609375 C-64.24249096 52.53665148 -64.24249096 52.53665148 -67.30859375 49.7421875 C-69.08136812 46.86808217 -69.61341233 45.68007971 -69.1875 42.375 C-69.11917969 41.61960938 -69.05085938 40.86421875 -68.98046875 40.0859375 C-68 38 -68 38 -65.5859375 36.25 C-60.78448132 34.57628978 -56.48415213 34.56196063 -51.4375 34.625 C-50.50486328 34.61339844 -49.57222656 34.60179687 -48.61132812 34.58984375 C-39.7181719 34.62787578 -39.7181719 34.62787578 -36 38 C-35.34 39.65 -34.68 41.3 -34 43 C-28.39 43 -22.78 43 -17 43 C-18.1971611 33.42271123 -20.66663092 28.23190662 -28.17578125 22.25390625 C-33.15084329 18.83421692 -36.78064808 18 -43 18 C-43 12.06 -43 6.12 -43 0 C-48.61 0 -54.22 0 -60 0 Z " fill="#000000" transform="translate(449,177)"/>
<path d="M0 0 C1.57528523 10.30703758 2.73571517 20.60842925 3.7265625 30.984375 C3.88050221 32.57710128 4.03458846 34.16981341 4.18881226 35.76251221 C4.50860363 39.07340169 4.82593968 42.38451515 5.14160156 45.69580078 C5.54405971 49.91441547 5.95383114 54.13228404 6.36556435 58.35000229 C6.68461999 61.62870726 6.99923314 64.90782755 7.312603 68.18708038 C7.46181905 69.74196877 7.61250208 71.29671717 7.76475906 72.85131073 C8.5529744 80.92044294 9.18656693 88.8848373 9 97 C13.96124102 92.83637181 18.6261767 88.44861904 23.1796875 83.84765625 C23.99412323 83.02495743 23.99412323 83.02495743 24.82501221 82.18563843 C27.08975665 79.89315988 29.35065745 77.59696585 31.60742188 75.29663086 C33.2730413 73.60099814 34.94467587 71.91148699 36.6171875 70.22265625 C37.12861298 69.69777115 37.64003845 69.17288605 38.16696167 68.63209534 C39.40717829 67.38304841 40.69933895 66.18597483 42 65 C42.66 65 43.32 65 44 65 C45.18483019 67.17924124 46.34738133 69.36629415 47.5 71.5625 C47.83386719 72.17158203 48.16773438 72.78066406 48.51171875 73.40820312 C48.98544922 74.32182617 48.98544922 74.32182617 49.46875 75.25390625 C49.76201172 75.80377197 50.05527344 76.3536377 50.35742188 76.92016602 C52.30721861 83.23107727 50.35734365 89.76069834 48.88867188 95.97436523 C48.55217369 97.4389341 48.55217369 97.4389341 48.20887756 98.93309021 C47.46940922 102.14331343 46.71915638 105.35091139 45.96875 108.55859375 C45.45241651 110.79045942 44.9367603 113.02248188 44.42175293 115.25465393 C43.06728573 121.11697011 41.70364619 126.97711525 40.33807373 132.83685303 C38.69998802 139.87462087 37.0733276 146.9150371 35.44474792 153.95500946 C32.97190358 164.63872543 30.48458664 175.31897809 28 186 C12.16 186 -3.68 186 -20 186 C-20 156.96 -20 127.92 -20 98 C-25.28 98 -30.56 98 -36 98 C-36 127.04 -36 156.08 -36 186 C-53.82 186 -71.64 186 -90 186 C-90 175.07763563 -89.85699078 164.66728816 -88.75 153.875 C-88.68342194 153.21290527 -88.61684387 152.55081055 -88.54824829 151.86865234 C-83.41271576 101.19261826 -68.26673185 48.18714772 -27.31005859 14.61474609 C-8.25252036 0 -8.25252036 0 0 0 Z " fill="#000000" transform="translate(125,326)"/>
<path d="M0 0 C14.83103182 2.61363971 28.74489573 15.55322695 39.1875 25.8125 C39.74058838 26.35156982 40.29367676 26.89063965 40.86352539 27.44604492 C45.18002078 31.81542026 46.83853895 35.50428929 47.875 41.4375 C49.47752999 48.82626421 53.87072444 53.79777862 60 58 C64.54134496 60.26628046 68.99711824 61.22650481 74 62 C73.97905273 62.66942627 73.95810547 63.33885254 73.93652344 64.02856445 C73.85230522 67.12305081 73.80100985 70.21729493 73.75 73.3125 C73.71648437 74.36501953 73.68296875 75.41753906 73.6484375 76.50195312 C73.517828 87.11397539 76.17321835 95.75175957 82.984375 103.984375 C86.27742326 107.27742326 90.01659843 109.63401291 94 112 C93.43490568 121.03905111 92.38327473 129.90849356 90.96875 138.8515625 C90.77277222 140.11342377 90.57679443 141.37528503 90.37487793 142.67538452 C89.96370609 145.31605644 89.55070174 147.9563519 89.13427734 150.59619141 C88.60112252 153.97677727 88.07480345 157.35838438 87.55068207 160.74038124 C87.0470854 163.98622575 86.53910462 167.23138189 86.03125 170.4765625 C85.84268433 171.68897614 85.65411865 172.90138977 85.45983887 174.15054321 C85.19451355 175.82906876 85.19451355 175.82906876 84.92382812 177.54150391 C84.76918091 178.52599518 84.61453369 179.51048645 84.4552002 180.52481079 C84 183 84 183 83 186 C67.82 186 52.64 186 37 186 C37 156.96 37 127.92 37 98 C31.39 98 25.78 98 20 98 C20 127.04 20 156.08 20 186 C4.49 186 -11.02 186 -27 186 C-31.59980654 168.75072547 -31.59980654 168.75072547 -33.18237305 161.9284668 C-33.45881653 160.74958641 -33.45881653 160.74958641 -33.74084473 159.54689026 C-34.3337352 157.01493184 -34.92304106 154.4821597 -35.51171875 151.94921875 C-35.92956069 150.15614633 -36.34743341 148.36308108 -36.76533508 146.57002258 C-37.63354738 142.84161799 -38.49963299 139.11272638 -39.36450195 135.38354492 C-40.46805251 130.62712559 -41.57969317 125.87263582 -42.69324017 121.11854839 C-43.55626002 117.42789819 -44.41360443 113.73594621 -45.26941872 110.04361916 C-45.67679989 108.29022349 -46.08622085 106.53730034 -46.49780846 104.78488731 C-52.39998964 79.62879588 -52.39998964 79.62879588 -47.5625 71.375 C-47.05493164 70.44107422 -47.05493164 70.44107422 -46.53710938 69.48828125 C-45.71335187 67.97999286 -44.85980179 66.48803601 -44 65 C-41.09456128 66.31376917 -39.03338941 67.72056492 -36.79199219 69.98095703 C-35.89151154 70.88166428 -35.89151154 70.88166428 -34.97283936 71.80056763 C-34.33727112 72.44645844 -33.70170288 73.09234924 -33.046875 73.7578125 C-32.05654266 74.75238968 -32.05654266 74.75238968 -31.04620361 75.76705933 C-28.94272176 77.88171832 -26.84630858 80.00323212 -24.75 82.125 C-23.32337739 83.56165557 -21.89629928 84.99785898 -20.46875 86.43359375 C-16.97386339 89.95050804 -13.48529938 93.47358547 -10 97 C-6.61773129 64.67160134 -3.28581575 32.33834359 0 0 Z " fill="#000000" transform="translate(263,326)"/>
<path d="M0 0 C2.12117625 2.08625977 3.72102235 4.29838746 5.4140625 6.7421875 C8.87772658 11.67321666 14.00806848 15.00306763 19.85546875 16.46337891 C26.8720852 17.56095939 32.56837396 15.78134894 39.25 13.6875 C62.11726662 6.92019803 84.65567487 5.1247052 106.71635437 15.90556335 C108.31908068 16.67366957 109.93865432 17.40712576 111.56916809 18.11433411 C118.5857569 21.2612614 125.2582434 24.79333088 130 31 C133.27233731 40.12258489 132.25889682 50.24088918 131.67510986 59.76953125 C131.52552391 62.56634257 131.46869257 65.36141878 131.41606236 68.16148376 C131.09902953 84.99671631 130.43256546 102.0250177 122.4375 117.25 C121.93367798 118.23021118 121.93367798 118.23021118 121.41967773 119.23022461 C113.64298849 133.5835508 100.30427003 143.65818278 86 151 C85.34 151 84.68 151 84 151 C84.04640625 150.06800781 84.0928125 149.13601563 84.140625 148.17578125 C84.50513607 135.30072968 82.32254099 124.25707836 74 114 C73.49855469 113.37480469 72.99710937 112.74960938 72.48046875 112.10546875 C65.75015433 104.5891322 55.91020553 100.27188467 46 99 C40.8445369 98.73293917 35.70600522 98.6701777 30.54443359 98.68432617 C28.13723325 98.68748395 25.73126771 98.66397561 23.32421875 98.63867188 C6.98649262 98.57201956 -4.81317125 101.77943373 -16.99609375 112.9765625 C-19.04997991 114.84027372 -19.04997991 114.84027372 -20 117 C-20.66 117 -21.32 117 -22 117 C-29.25440983 103.46608126 -30.47637398 89.27490682 -30.43359375 74.16796875 C-30.43817547 72.71502952 -30.44348679 71.26209243 -30.44947815 69.80915833 C-30.45830974 66.79659083 -30.45609746 63.78428992 -30.44604492 60.77172852 C-30.43449776 56.94133975 -30.45490427 53.11186517 -30.48396206 49.28159618 C-30.50242541 46.29328236 -30.50201281 43.3051844 -30.49632454 40.31682777 C-30.49617293 38.90524311 -30.50208173 37.49364229 -30.51461601 36.08211327 C-30.59092191 26.09631874 -29.4141305 17.90907202 -24.375 9.1875 C-18.24329095 3.53987324 -8.70870843 -2.57673395 0 0 Z M89.625 37.4375 C86.75880724 39.84002058 86.75880724 39.84002058 85.875 43.4375 C85.74413438 47.01339732 85.74413438 47.01339732 87.5 49.875 C90.76281849 52.64839572 92.73561227 53.07481382 97 53 C100.14797818 51.22070799 101.59507626 49.96169389 103 46.625 C103 42.9169225 102.14771284 41.02022118 100 38 C95.76137041 35.92067227 94.00122488 35.57355237 89.625 37.4375 Z M0 39 C-2.33204711 40.92642608 -2.33204711 40.92642608 -2.4375 44.3125 C-2.29155376 48.09860511 -2.29155376 48.09860511 0.125 50.9375 C2.83767184 53.17743666 2.83767184 53.17743666 6 53.625 C10.10703441 52.76936783 11.55401113 51.38121991 14 48 C14.63664952 43.96788636 14.69818231 41.98262696 12.3125 38.625 C7.47700818 35.22708683 4.71559201 35.55889232 0 39 Z M42 45 C41.35122822 57.15846375 40.89502942 66.59629308 48 77 C47.0925 77.268125 46.185 77.53625 45.25 77.8125 C41.67863291 78.93997886 41.67863291 78.93997886 38 82 C40.31 86.62 42.62 91.24 45 96 C55.91256316 91.66845782 55.91256316 91.66845782 63.359375 83.16015625 C64.84292206 78.15770794 65.19522184 73.50103361 62.90234375 68.703125 C62.46019531 67.93484375 62.01804687 67.1665625 61.5625 66.375 C57.70827629 59.58111414 58.19491193 52.66653582 58 45 C52.72 45 47.44 45 42 45 Z " fill="#000000" transform="translate(144,123)"/>
<path d="M0 0 C0.93070312 0.30035156 1.86140625 0.60070313 2.8203125 0.91015625 C22.50189643 8.03624698 38.00518273 24.54711002 46.78125 43.171875 C51.556231 54.25227964 51.556231 54.25227964 51 60 C50.29488281 59.27425781 49.58976563 58.54851562 48.86328125 57.80078125 C29.62157799 38.61307084 8.28423177 33.89335568 -18 32 C-18 37.61 -18 43.22 -18 49 C-16.79085937 48.95359375 -15.58171875 48.9071875 -14.3359375 48.859375 C4.16217471 48.36239947 19.10268261 52.59047435 33.58203125 64.67578125 C40.92711946 71.73608413 46.7000638 80.33234772 50 90 C50 90.99 50 91.98 50 93 C46.49056675 91.71364759 43.32836554 90.09151117 40.08959961 88.23266602 C19.11769524 76.31750708 -6.9739882 73.12513952 -30.34082031 79.28466797 C-34.6212252 80.49955074 -38.8349935 81.92746077 -43.0625 83.3125 C-48.3084915 84.95637499 -51.71328303 85.69930188 -57 84 C-60.34749656 81.00862009 -61.74800838 78.86622119 -63 74.5625 C-63 70.13042631 -62.34982581 67.77396266 -60 64 C-55.04446654 60.26304034 -49.00178926 59.05587033 -43 58 C-43.28875 57.09636719 -43.5775 56.19273438 -43.875 55.26171875 C-44.24625 54.08222656 -44.6175 52.90273437 -45 51.6875 C-45.37125 50.51574219 -45.7425 49.34398437 -46.125 48.13671875 C-47 45 -47 45 -47 42 C-49.69296038 42.88149772 -52.37847325 43.77950418 -55.0625 44.6875 C-56.19075195 45.05391602 -56.19075195 45.05391602 -57.34179688 45.42773438 C-64.69543815 47.94261602 -70.48002486 51.10103891 -74.375 58.0625 C-74.85710937 58.89910156 -75.33921875 59.73570313 -75.8359375 60.59765625 C-76.88131942 62.75507195 -77.53489405 64.65824562 -78 67 C-78.90621094 67.17015625 -79.81242187 67.3403125 -80.74609375 67.515625 C-89.26420755 69.21023388 -96.73791495 71.15860997 -104 76 C-104.99 76 -105.98 76 -107 76 C-106.62358863 52.49139885 -98.21334123 33.8812614 -81.921875 16.82421875 C-60.16747537 -3.92303274 -28.0115387 -9.17838399 0 0 Z " fill="#000000" transform="translate(221,39)"/>
<path d="M0 0 C25.62036347 19.28222477 41.97670028 45.49792757 47.11001587 77.26712036 C47.94854089 83.91355651 47.68021536 90.65269411 47.56640625 97.3359375 C47.55130567 98.90558586 47.53762693 100.47524857 47.52539062 102.04492188 C47.49546046 105.83008948 47.43667992 109.61319214 47.37890625 113.3984375 C41.43890625 113.0684375 35.49890625 112.7384375 29.37890625 112.3984375 C29.32283203 110.00464844 29.32283203 110.00464844 29.265625 107.5625 C28.32009922 74.07317523 21.52482656 46.54244189 -3.29296875 22.484375 C-22.42658963 5.34116435 -48.04339659 -2.95409328 -73.52539062 -1.74951172 C-99.36715424 0.07482527 -122.06704821 11.95553697 -139.80859375 30.5859375 C-156.28580363 50.22649358 -162.68594199 72.33534651 -163.24609375 97.5859375 C-163.28438056 99.02931766 -163.323438 100.47267759 -163.36328125 101.91601562 C-163.45950213 105.41003642 -163.53997449 108.90390498 -163.62109375 112.3984375 C-169.89109375 112.7284375 -176.16109375 113.0584375 -182.62109375 113.3984375 C-183.30138759 73.51306142 -177.06003328 41.07724378 -148.5625 11.28125 C-109.98233128 -27.49344058 -43.90142319 -32.04979733 0 0 Z " fill="#000000" transform="translate(261.62109375,20.6015625)"/>
<path d="M0 0 C3.74397677 1.47894978 7.27968187 3.12853914 10.83984375 5 C13.49517175 6.2292296 16.21426923 7.11237028 19 8 C19.01401855 9.04957886 19.01401855 9.04957886 19.02832031 10.12036133 C19.08266047 13.35173625 19.16617935 16.58176053 19.25 19.8125 C19.26417969 20.91271484 19.27835938 22.01292969 19.29296875 23.14648438 C19.61306451 33.99773069 22.17498833 44.08823654 30 52 C39.21625083 59.52347007 47.85167156 61.44366537 59.5 61.6875 C60.60859375 61.72166016 61.7171875 61.75582031 62.859375 61.79101562 C65.57281543 61.87288667 68.28595747 61.94223404 71 62 C70.95359375 61.10539062 70.9071875 60.21078125 70.859375 59.2890625 C70.56511868 49.43147583 71.37347211 41.67458083 78.125 34.125 C87.14300586 26.34125748 97.10238423 26.36526584 108.44042969 26.47851562 C110.99510619 26.49995892 113.54697146 26.47864147 116.1015625 26.453125 C126.65391261 26.43441219 135.60144321 26.90166191 143.875 34.1875 C150.18484359 41.25810487 151.7558701 48.14887237 151.44140625 57.5625 C150.40175087 65.65893131 146.50480611 71.15419936 140.55078125 76.52734375 C131.10234591 81.98225971 120.6440136 81.45803658 110.0859375 81.43359375 C108.34493814 81.43816599 106.60394057 81.44347463 104.86294556 81.44947815 C101.22349698 81.45837771 97.58426817 81.456025 93.94482422 81.44604492 C89.32562415 81.43460073 84.70719379 81.45471273 80.08809471 81.48396206 C76.49308603 81.50249187 72.89825577 81.5019979 69.30321121 81.49632454 C67.60269726 81.49617314 65.90216975 81.50206378 64.20170212 81.51461601 C49.23838263 81.60947462 34.34950192 80.36713921 22 71 C20.73929688 70.04480469 20.73929688 70.04480469 19.453125 69.0703125 C7.68700474 59.3365221 1.85353105 46.89376765 0 32 C-0.0778768 29.43977938 -0.10794293 26.87779037 -0.09765625 24.31640625 C-0.0962413 23.61603745 -0.09482635 22.91566864 -0.09336853 22.19407654 C-0.08782477 19.98350534 -0.07528326 17.77303996 -0.0625 15.5625 C-0.05747771 14.05273585 -0.05291609 12.54297009 -0.04882812 11.03320312 C-0.03787387 7.35543507 -0.0206489 3.67772788 0 0 Z " fill="#000000" transform="translate(61,211)"/>
<path d="M0 0 C1.63621307 -0.00639748 1.63621307 -0.00639748 3.30548096 -0.01292419 C5.10866287 -0.01224442 5.10866287 -0.01224442 6.94827271 -0.0115509 C8.84101929 -0.01658882 8.84101929 -0.01658882 10.77200317 -0.02172852 C14.23898972 -0.0305785 17.70595161 -0.03290707 21.17294836 -0.0335443 C24.06559642 -0.03449283 26.95823871 -0.03817054 29.85088456 -0.0417164 C36.67534242 -0.04986499 43.4997871 -0.05230029 50.32424927 -0.05158997 C57.36676901 -0.05098927 64.40921214 -0.06153857 71.45171249 -0.07733363 C77.49508108 -0.09040541 83.53842463 -0.09577401 89.58180726 -0.09513456 C93.19251389 -0.09487943 96.80315249 -0.09773838 100.41384506 -0.10831261 C104.44099928 -0.11978392 108.4679817 -0.11524899 112.49514771 -0.10920715 C113.69322052 -0.11482666 114.89129333 -0.12044617 116.12567139 -0.12623596 C117.77034393 -0.11994423 117.77034393 -0.11994423 119.44824219 -0.11352539 C120.40062208 -0.11407016 121.35300198 -0.11461493 122.33424187 -0.1151762 C125.02496407 0.15090547 126.59780202 0.65609462 128.85110474 2.13371277 C132.08460769 6.98396719 131.26086322 12.30629016 131.28860474 18.00871277 C131.32147583 19.19336121 131.35434692 20.37800964 131.38821411 21.59855652 C131.39530396 22.74195496 131.4023938 23.88535339 131.40969849 25.06340027 C131.42988037 26.62936951 131.42988037 26.62936951 131.45046997 28.22697449 C130.82313818 31.26934202 129.98231241 32.9446583 127.7156229 35.0787468 C123.41220056 37.513673 118.04683039 36.83052387 113.24563599 36.79655457 C111.965466 36.80692245 110.68529602 36.81729034 109.36633301 36.82797241 C105.86205474 36.85499833 102.35848904 36.85032653 98.85415268 36.83827186 C95.92660921 36.8311348 92.99919705 36.83964354 90.07166386 36.84817725 C83.16501579 36.86812164 76.25871393 36.86256882 69.3520813 36.84049988 C62.23026311 36.81812982 55.10935106 36.83574317 47.98761845 36.87354916 C41.86852397 36.90478994 35.7497099 36.91269733 29.63054562 36.90159541 C25.97776605 36.89511046 22.32550948 36.89709957 18.67279053 36.92091942 C14.6001484 36.94612626 10.52919484 36.92254875 6.45657349 36.89421082 C5.2481076 36.90792725 4.03964172 36.92164368 2.79455566 36.93577576 C-5.14853212 36.82507785 -5.14853212 36.82507785 -8.01229763 34.84588909 C-10.86745244 31.57966534 -11.78108785 28.74396815 -11.77780151 24.47355652 C-11.77973511 23.43263855 -11.7816687 22.39172058 -11.78366089 21.31925964 C-11.75981323 20.24740417 -11.73596558 19.17554871 -11.71139526 18.07121277 C-11.72235229 16.99549011 -11.73330933 15.91976746 -11.74459839 14.81144714 C-11.67200806 7.00556743 -11.67200806 7.00556743 -9.23873901 2.95011902 C-6.00751906 0.1416755 -4.20357907 0.00740264 0 0 Z " fill="#000000" transform="translate(337.1488952636719,334.8662872314453)"/>
<path d="M0 0 C2.475 0.495 2.475 0.495 5 1 C7.87101988 13.35132306 10.73969057 25.7031891 13.60533142 38.05576134 C14.93591895 43.79102609 16.26732671 49.52609788 17.60058594 55.26074219 C18.88630405 60.79103662 20.16989771 66.32182013 21.45199585 71.85295486 C21.9424516 73.96712571 22.43368332 76.08111669 22.9256897 78.19492722 C23.61264777 81.14689988 24.29688802 84.09948982 24.98046875 87.05224609 C25.186185 87.9333757 25.39190125 88.81450531 25.60385132 89.72233582 C27 95.77189568 27 95.77189568 27 98 C10.5 98 -6 98 -23 98 C-18.66824859 78.9661417 -18.66824859 78.9661417 -16.796875 70.74804688 C-15.52829306 65.17708218 -14.25983473 59.60608958 -12.9921875 54.03491211 C-11.96826398 49.53491467 -10.94372364 45.03505803 -9.9187851 40.53529167 C-9.53112316 38.83287321 -9.14367015 37.13040715 -8.75644684 35.42788887 C-7.51056447 29.95047867 -6.25893708 24.47442466 -5 19 C-4.8152562 18.19534679 -4.63051239 17.39069359 -4.44017029 16.56165695 C-3.89375818 14.18745708 -3.34351911 11.81417842 -2.79199219 9.44116211 C-2.62625324 8.71997727 -2.4605143 7.99879244 -2.28975296 7.25575352 C-1.11505803 2.23011607 -1.11505803 2.23011607 0 0 Z " fill="#000000" transform="translate(192,414)"/>
<path d="M0 0 C0 5.94 0 11.88 0 18 C5.61 18 11.22 18 17 18 C17 12.06 17 6.12 17 0 C23.27 0 29.54 0 36 0 C36 5.94 36 11.88 36 18 C41.28 18 46.56 18 52 18 C52 12.06 52 6.12 52 0 C64.226291 -0.49399156 64.226291 -0.49399156 67.86328125 1.828125 C71.90614561 5.93750816 71.30509427 10.74548012 71.31689453 16.22998047 C71.19182922 22.62992744 69.94506152 26.9472861 65.50390625 31.55078125 C61.06225181 35.48291922 57.67417969 36.12587183 51.91137695 36.19287109 C50.02845695 36.21696548 50.02845695 36.21696548 48.10749817 36.24154663 C46.73443279 36.25303648 45.36135978 36.26364462 43.98828125 36.2734375 C43.29493368 36.27876118 42.60158611 36.28408485 41.88722801 36.28956985 C38.21462486 36.31627907 34.54205537 36.33565781 30.86938477 36.35009766 C27.84010468 36.36341424 24.81150186 36.3912259 21.7824707 36.43212891 C18.11549999 36.48163867 14.44914144 36.506241 10.78185081 36.51332474 C9.39006043 36.52000773 7.99828213 36.53515256 6.60668373 36.55921555 C-1.37938898 36.68938853 -7.93883308 36.70834618 -14 31 C-18.2586904 25.87634261 -18.64884414 20.87620612 -18.5625 14.375 C-18.58634766 13.54226563 -18.61019531 12.70953125 -18.63476562 11.8515625 C-18.62458534 7.58941668 -18.35979803 5.52303973 -15.890625 1.93359375 C-10.79617381 -1.47418103 -5.97862402 -0.30195071 0 0 Z " fill="#000000" transform="translate(371,388)"/>
<path d="M0 0 C19.14 0 38.28 0 58 0 C60.24196679 11.95715622 62.1953605 23.96907002 64 36 C41.23 36 18.46 36 -5 36 C-3.90314243 23.93456668 -1.91408461 11.96302879 0 0 Z " fill="#000000" transform="translate(368,476)"/>
<path d="M0 0 C0 17.82 0 35.64 0 54 C-12.02535683 54 -20.58100842 53.59465918 -29.72265625 45.46875 C-34.90010414 40.07504507 -36.59236783 33.80456689 -37.375 26.5 C-36.35000599 16.93338928 -33.35333331 10.39024187 -26 4 C-18.10632805 -1.94026835 -10.03518123 0 0 0 Z " fill="#000000" transform="translate(98,150)"/>
<path d="M0 0 C5.54252224 -0.19447446 9.62866918 0.41519693 15 2 C14.38119583 16.60471782 12.96779289 31.09094481 11.4375 45.625 C11.20078076 47.90360523 10.96445015 50.18225088 10.72851562 52.4609375 C10.15681172 57.97443102 9.58035654 63.4874109 9 69 C6.07706992 67.67624661 3.97170904 66.23343726 1.68432617 63.99072266 C1.06075729 63.38314117 0.43718842 62.77555969 -0.20527649 62.14956665 C-0.86585556 61.49435028 -1.52643463 60.83913391 -2.20703125 60.1640625 C-2.89182053 59.4883017 -3.5766098 58.81254089 -4.28215027 58.11630249 C-5.72459077 56.68834807 -7.16425421 55.25758369 -8.60131836 53.82421875 C-10.80975997 51.6277252 -13.03616401 49.4505715 -15.26367188 47.2734375 C-16.66260331 45.88396432 -18.06042886 44.49337666 -19.45703125 43.1015625 C-20.12773148 42.45039459 -20.7984317 41.79922668 -21.48945618 41.12832642 C-22.40116829 40.20749771 -22.40116829 40.20749771 -23.33129883 39.26806641 C-23.87216629 38.73226959 -24.41303375 38.19647278 -24.97029114 37.6444397 C-26 36 -26 36 -25.79472351 33.97640991 C-24.52754925 30.82505509 -22.37441827 28.35934783 -20.25 25.75 C-19.77062988 25.15026367 -19.29125977 24.55052734 -18.79736328 23.93261719 C-17.20674832 21.94804344 -15.60507968 19.97289094 -14 18 C-13.41379883 17.27941406 -12.82759766 16.55882812 -12.22363281 15.81640625 C-11.62647461 15.08292969 -11.02931641 14.34945313 -10.4140625 13.59375 C-9.82463867 12.86961914 -9.23521484 12.14548828 -8.62792969 11.39941406 C-7.47239697 9.98251851 -6.31425075 8.56774978 -5.15332031 7.15527344 C-4.62577148 6.51106445 -4.09822266 5.86685547 -3.5546875 5.203125 C-3.08530762 4.63239258 -2.61592773 4.06166016 -2.13232422 3.47363281 C-0.91144939 1.98152438 -0.91144939 1.98152438 0 0 Z " fill="#000000" transform="translate(232,318)"/>
<path d="M0 0 C2.78643832 2.14811843 4.73411543 4.80643885 6.8125 7.625 C7.40708008 8.39030029 8.00166016 9.15560059 8.61425781 9.9440918 C9.83375348 11.51701959 11.0432515 13.097749 12.24267578 14.68603516 C13.88895901 16.85378626 15.57084602 18.98495938 17.27734375 21.10546875 C24.64108178 30.28216356 24.64108178 30.28216356 27 35 C15.78 46.22 4.56 57.44 -7 69 C-9.63869265 66.36130735 -9.4313959 64.81888472 -9.77783203 61.12915039 C-9.89780548 59.89769791 -10.01777893 58.66624542 -10.14138794 57.3974762 C-10.26376027 56.04755712 -10.38589606 54.69761658 -10.5078125 53.34765625 C-10.63873584 51.96757591 -10.77040899 50.58756652 -10.90280151 49.20762634 C-11.24944365 45.57136589 -11.58507749 41.93416657 -11.91870117 38.29669189 C-12.19275937 35.32867408 -12.47451629 32.36141153 -12.75671577 29.39415836 C-13.09291234 25.85805878 -13.42593017 22.32166313 -13.7578125 18.78515625 C-13.82121952 18.10966295 -13.88462654 17.43416965 -13.94995499 16.73820686 C-14.12863494 14.82570877 -14.30485276 12.91298113 -14.48095703 11.00024414 C-14.58151398 9.91151505 -14.68207092 8.82278595 -14.78567505 7.70106506 C-15 5 -15 5 -15 2 C-10.10574509 0.3685817 -5.16886153 -1.26379826 0 0 Z " fill="#000000" transform="translate(156,318)"/>
<path d="M0 0 C20.7947695 0 20.7947695 0 28.8125 7.125 C32.43256039 11.04109337 35.01987275 15.7285048 36 21 C34.81264005 24.57621508 32.26848775 27.27273754 29.9375 30.1875 C24.28100967 37.59786963 20.16653506 45.68662982 16 54 C10.72 54 5.44 54 0 54 C0 36.18 0 18.36 0 0 Z " fill="#000000" transform="translate(291,150)"/>
<path d="M0 0 C0.66 0 1.32 0 2 0 C3.11672445 7.17757936 3.8098952 13.91208186 -0.5078125 20.1328125 C-3.2381857 23.58971556 -6.21158002 26.81854759 -9.22070312 30.03320312 C-12.53851047 33.70063671 -15.43916727 37.7008459 -18.39575195 41.66064453 C-20.71351031 44.67431218 -22.55052399 46.45266491 -26 48 C-49 20.41376362 -49 20.41376362 -49 17 C-48.33057373 16.9906543 -47.66114746 16.98130859 -46.97143555 16.97167969 C-43.87610201 16.91729608 -40.78217188 16.83378747 -37.6875 16.75 C-36.63498047 16.73582031 -35.58246094 16.72164063 -34.49804688 16.70703125 C-22.56981434 16.34000871 -13.16662709 12.64739094 -4 5 C-2.61667196 3.37458956 -1.25537882 1.72614587 0 0 Z " fill="#000000" transform="translate(219,291)"/>
<path d="M0 0 C15.51 0 31.02 0 47 0 C49 12 49 12 49 19 C31.84 19 14.68 19 -3 19 C-2 8 -2 8 0 0 Z " fill="#000000" transform="translate(374,441)"/>
<path d="M0 0 C3.76678971 1.58787388 6.37085951 3.94032891 9.3125 6.75 C10.66794922 8.01070313 10.66794922 8.01070313 12.05078125 9.296875 C14 12 14 12 14.046875 14.8359375 C12.74061908 18.78394979 10.96773068 22.25635049 8.9375 25.875 C8.56044922 26.56335938 8.18339844 27.25171875 7.79492188 27.9609375 C6.87106965 29.6449213 5.93660333 31.32307467 5 33 C2.36 33 -0.28 33 -3 33 C-4.54044891 30.09329038 -6.05377922 27.17328662 -7.5625 24.25 C-8.21895508 23.0125 -8.21895508 23.0125 -8.88867188 21.75 C-9.29794922 20.95078125 -9.70722656 20.1515625 -10.12890625 19.328125 C-10.51119385 18.5949707 -10.89348145 17.86181641 -11.28735352 17.10644531 C-12.14537329 14.57030464 -12.00011049 13.46239324 -11 11 C-9.18957493 8.97774673 -7.39650242 7.11362028 -5.4375 5.25 C-4.91736328 4.74339844 -4.39722656 4.23679687 -3.86132812 3.71484375 C-2.58089916 2.46965595 -1.29132446 1.23388498 0 0 Z " fill="#000000" transform="translate(193,365)"/>
</svg>
