<?xml version="1.0" encoding="UTF-8"?>
<svg version="1.1" xmlns="http://www.w3.org/2000/svg" width="512" height="512">
<path d="M0 0 C36.96 0 73.92 0 112 0 C112 15.84 112 31.68 112 48 C122.56 48 133.12 48 144 48 C144 40.08 144 32.16 144 24 C181.29 24 218.58 24 257 24 C257 45.12 257 66.24 257 88 C241.16 88 225.32 88 209 88 C209 106.48 209 124.96 209 144 C214.28 144 219.56 144 225 144 C225 150.27 225 156.54 225 163 C226.381875 163.350625 227.76375 163.70125 229.1875 164.0625 C238.62026063 166.88964843 247.2195638 172.02896757 255 178 C258.04332765 176.6415798 260.12309151 175.11536976 262.453125 172.7421875 C263.071875 172.11699219 263.690625 171.49179688 264.328125 170.84765625 C264.96234375 170.19667969 265.5965625 169.54570312 266.25 168.875 C266.8996875 168.21628906 267.549375 167.55757812 268.21875 166.87890625 C269.81711727 165.25703357 271.41061897 163.6306719 273 162 C276.63303084 163.69586126 278.94549046 165.73800488 281.75 168.625 C282.54921875 169.44226563 283.3484375 170.25953125 284.171875 171.1015625 C284.77515625 171.72804687 285.3784375 172.35453125 286 173 C284.6415798 176.04332765 283.11536976 178.12309151 280.7421875 180.453125 C279.80439453 181.38125 279.80439453 181.38125 278.84765625 182.328125 C278.19667969 182.96234375 277.54570312 183.5965625 276.875 184.25 C276.21628906 184.8996875 275.55757813 185.549375 274.87890625 186.21875 C273.25703357 187.81711727 271.6306719 189.41061897 270 191 C271.344283 194.69677825 273.03286789 197.69669203 275.25 200.9375 C279.41467776 207.35477076 285 216.2005433 285 224 C291.27 224 297.54 224 304 224 C304 239.84 304 255.68 304 272 C297.73 272 291.46 272 285 272 C284.67 273.98 284.34 275.96 284 278 C283.24731445 280.00708008 283.24731445 280.00708008 282.36328125 281.76953125 C282.03585937 282.42695313 281.7084375 283.084375 281.37109375 283.76171875 C281.02175781 284.43847656 280.67242187 285.11523438 280.3125 285.8125 C279.95671875 286.51375 279.6009375 287.215 279.234375 287.9375 C276.51453318 293.21145852 273.51277364 298.20985412 270 303 C271.48653506 306.46629835 273.45722351 308.69022036 276.1328125 311.328125 C276.93847656 312.12734375 277.74414062 312.9265625 278.57421875 313.75 C279.41597656 314.575 280.25773437 315.4 281.125 316.25 C282.39923828 317.51070313 282.39923828 317.51070313 283.69921875 318.796875 C285.79504923 320.86915683 287.89540713 322.93662393 290 325 C288.30413874 328.63303084 286.26199512 330.94549046 283.375 333.75 C282.55773437 334.54921875 281.74046875 335.3484375 280.8984375 336.171875 C280.27195312 336.77515625 279.64546875 337.3784375 279 338 C275.53370165 336.51346494 273.30977964 334.54277649 270.671875 331.8671875 C269.87265625 331.06152344 269.0734375 330.25585938 268.25 329.42578125 C267.425 328.58402344 266.6 327.74226563 265.75 326.875 C264.90953125 326.02550781 264.0690625 325.17601562 263.203125 324.30078125 C261.13084317 322.20495077 259.06337607 320.10459287 257 318 C253.32526704 319.41567894 250.31581318 321.02431271 247.0625 323.25 C240.64522924 327.41467776 231.7994567 333 224 333 C224 339.27 224 345.54 224 352 C218.72 352 213.44 352 208 352 C208 370.48 208 388.96 208 408 C223.84 408 239.68 408 256 408 C256 429.12 256 450.24 256 472 C219.04 472 182.08 472 144 472 C144 464.08 144 456.16 144 448 C133.44 448 122.88 448 112 448 C112 463.84 112 479.68 112 496 C75.04 496 38.08 496 0 496 C0 480.16 0 464.32 0 448 C-18.81 448 -37.62 448 -57 448 C-57.33 449.98 -57.66 451.96 -58 454 C-62.21541785 462.23010152 -68.27232147 467.67363197 -76.7890625 471.1328125 C-85.02648243 473.35751715 -95.46109289 473.39814396 -103.046875 469.2578125 C-103.69140625 468.84273438 -104.3359375 468.42765625 -105 468 C-105.70640625 467.56429688 -106.4128125 467.12859375 -107.140625 466.6796875 C-114.04647084 461.99905865 -117.79716024 455.99978649 -120 448 C-120.99334697 436.95767789 -120.13173502 428.13857774 -113.8125 418.75 C-108.25388255 413.31490738 -103.74544798 410.290908 -96 409 C-96 392.5 -96 376 -96 359 C-90.72 359 -85.44 359 -80 359 C-80 375.5 -80 392 -80 409 C-78.02 409.33 -76.04 409.66 -74 410 C-67.22955315 413.6573068 -61.05470111 419.97993261 -57.5625 426.8125 C-57 429 -57 429 -57 432 C-38.19 432 -19.38 432 0 432 C0 416.16 0 400.32 0 384 C36.96 384 73.92 384 112 384 C112 399.84 112 415.68 112 432 C122.23 432 132.46 432 143 432 C143 424.08 143 416.16 143 408 C158.84 408 174.68 408 191 408 C191 389.52 191 371.04 191 352 C185.72 352 180.44 352 175 352 C175 345.73 175 339.46 175 333 C173.618125 332.649375 172.23625 332.29875 170.8125 331.9375 C161.37973937 329.11035157 152.7804362 323.97103243 145 318 C141.95667235 319.3584202 139.87690849 320.88463024 137.546875 323.2578125 C136.928125 323.88300781 136.309375 324.50820313 135.671875 325.15234375 C135.03765625 325.80332031 134.4034375 326.45429688 133.75 327.125 C133.1003125 327.78371094 132.450625 328.44242187 131.78125 329.12109375 C130.18288273 330.74296643 128.58938103 332.3693281 127 334 C123.36696916 332.30413874 121.05450954 330.26199512 118.25 327.375 C117.05117188 326.14910156 117.05117188 326.14910156 115.828125 324.8984375 C115.22484375 324.27195312 114.6215625 323.64546875 114 323 C115.3584202 319.95667235 116.88463024 317.87690849 119.2578125 315.546875 C119.88300781 314.928125 120.50820313 314.309375 121.15234375 313.671875 C122.12880859 312.72054687 122.12880859 312.72054687 123.125 311.75 C123.78371094 311.1003125 124.44242188 310.450625 125.12109375 309.78125 C126.74296643 308.18288273 128.3693281 306.58938103 130 305 C128.655717 301.30322175 126.96713211 298.30330797 124.75 295.0625 C120.58532224 288.64522924 115 279.7994567 115 272 C108.73 272 102.46 272 96 272 C96 256.16 96 240.32 96 224 C102.27 224 108.54 224 115 224 C115.33 222.02 115.66 220.04 116 218 C116.75268555 215.99291992 116.75268555 215.99291992 117.63671875 214.23046875 C117.96414063 213.57304687 118.2915625 212.915625 118.62890625 212.23828125 C119.15291016 211.22314453 119.15291016 211.22314453 119.6875 210.1875 C120.04328125 209.48625 120.3990625 208.785 120.765625 208.0625 C123.48546682 202.78854148 126.48722636 197.79014588 130 193 C128.6415798 189.95667235 127.11536976 187.87690849 124.7421875 185.546875 C124.11699219 184.928125 123.49179687 184.309375 122.84765625 183.671875 C122.19667969 183.03765625 121.54570312 182.4034375 120.875 181.75 C120.21628906 181.1003125 119.55757812 180.450625 118.87890625 179.78125 C117.25703357 178.18288273 115.6306719 176.58938103 114 175 C115.69586126 171.36696916 117.73800488 169.05450954 120.625 166.25 C121.85089844 165.05117188 121.85089844 165.05117188 123.1015625 163.828125 C123.72804688 163.22484375 124.35453125 162.6215625 125 162 C128.04332765 163.3584202 130.12309151 164.88463024 132.453125 167.2578125 C133.071875 167.88300781 133.690625 168.50820312 134.328125 169.15234375 C135.27945313 170.12880859 135.27945313 170.12880859 136.25 171.125 C136.8996875 171.78371094 137.549375 172.44242188 138.21875 173.12109375 C139.81711727 174.74296643 141.41061897 176.3693281 143 178 C146.69677825 176.655717 149.69669203 174.96713211 152.9375 172.75 C159.35477076 168.58532224 168.2005433 163 176 163 C176 156.73 176 150.46 176 144 C181.28 144 186.56 144 192 144 C192 125.52 192 107.04 192 88 C176.16 88 160.32 88 144 88 C144 80.08 144 72.16 144 64 C133.44 64 122.88 64 112 64 C112 79.84 112 95.68 112 112 C75.04 112 38.08 112 0 112 C0 96.16 0 80.32 0 64 C-18.81 64 -37.62 64 -57 64 C-57.33 65.98 -57.66 67.96 -58 70 C-61.6573068 76.77044685 -67.97993261 82.94529889 -74.8125 86.4375 C-77 87 -77 87 -80 87 C-80 103.5 -80 120 -80 137 C-85.28 137 -90.56 137 -96 137 C-96 120.5 -96 104 -96 87 C-97.98 86.67 -99.96 86.34 -102 86 C-110.23039144 81.78443365 -115.67742132 75.72635777 -119.1328125 67.20703125 C-121.46882481 58.56799474 -121.14998539 48.22033668 -117.2578125 40.109375 C-112.28191068 31.76469493 -105.39435273 26.57550492 -96 24 C-84.95767789 23.00665303 -76.13857774 23.86826498 -66.75 30.1875 C-61.31490738 35.74611745 -58.290908 40.25455202 -57 48 C-38.19 48 -19.38 48 0 48 C0 32.16 0 16.32 0 0 Z M32 32 C32 37.28 32 42.56 32 48 C47.84 48 63.68 48 80 48 C80 42.72 80 37.44 80 32 C64.16 32 48.32 32 32 32 Z M32 64 C32 69.28 32 74.56 32 80 C47.84 80 63.68 80 80 80 C80 74.72 80 69.44 80 64 C64.16 64 48.32 64 32 64 Z M166.5625 184.8125 C165.88123047 185.16892578 165.19996094 185.52535156 164.49804688 185.89257812 C163.83998047 186.24384766 163.18191406 186.59511719 162.50390625 186.95703125 C161.90392822 187.27647705 161.3039502 187.59592285 160.68579102 187.92504883 C158.85643669 189.0915437 157.47677012 190.41796744 156 192 C159.14182102 195.1706695 162.28910875 198.33585554 165.4375 201.5 C166.78424805 202.85931641 166.78424805 202.85931641 168.15820312 204.24609375 C169.01220703 205.10332031 169.86621094 205.96054688 170.74609375 206.84375 C171.53685303 207.63974609 172.3276123 208.43574219 173.14233398 209.25585938 C174.69681756 211.11407993 174.69681756 211.11407993 176 211 C176 201.1 176 191.2 176 181 C172.50975594 181 169.58143836 183.19085014 166.5625 184.8125 Z M224 181 C224 190.9 224 200.8 224 211 C229.41969335 206.40819554 229.41969335 206.40819554 234.52734375 201.5703125 C235.37329102 200.71953125 235.37329102 200.71953125 236.23632812 199.8515625 C236.79771484 199.28179687 237.35910156 198.71203125 237.9375 198.125 C238.52595703 197.53203125 239.11441406 196.9390625 239.72070312 196.328125 C241.14947674 194.88773534 242.57508132 193.4442033 244 192 C240.32043588 188.87961917 236.56596709 186.51980912 232.3125 184.25 C231.17425781 183.63640625 230.03601563 183.0228125 228.86328125 182.390625 C226.23067842 180.8543748 226.23067842 180.8543748 224 181 Z M256 204 C252.8293305 207.14182102 249.66414446 210.28910875 246.5 213.4375 C245.59378906 214.33533203 244.68757813 215.23316406 243.75390625 216.15820312 C242.46806641 217.43920898 242.46806641 217.43920898 241.15625 218.74609375 C239.96225586 219.93223267 239.96225586 219.93223267 238.74414062 221.14233398 C236.88592007 222.69681756 236.88592007 222.69681756 237 224 C246.9 224 256.8 224 267 224 C265.54850621 219.64551864 264.22328792 216.25470086 262.0625 212.3125 C261.55847656 211.38050781 261.05445313 210.44851562 260.53515625 209.48828125 C259.17041792 207.27622447 257.85679649 205.77801744 256 204 Z M143 205 C139.1940213 209.69766513 133 217.79576184 133 224 C142.9 224 152.8 224 163 224 C159.01612811 219.35214946 155.06191834 214.87983532 150.75 210.5625 C150.22148437 210.02173828 149.69296875 209.48097656 149.1484375 208.92382812 C147.80509873 207.57537512 146.40658109 206.28234713 145 205 C144.34 205 143.68 205 143 205 Z M180.2265625 235.15625 C176.29445573 241.06693278 176.30136723 247.12115424 177 254 C178.77342433 260.64472914 183.4466647 265.17367959 189 269 C194.99887004 271.94062257 201.8828353 272.09883788 208.3125 270.3828125 C214.44132861 267.67750925 219.23952792 262.59136305 222.171875 256.609375 C224.07805857 250.60309848 224.06438687 243.49708442 221.5 237.6875 C218.01962742 231.75476525 212.5643807 227.06836256 206 225 C194.27605038 223.57391138 187.69257639 226.31382015 180.2265625 235.15625 Z M133 272 C134.43788953 276.31366859 135.77290681 279.80721382 137.875 283.75 C138.36742187 284.69359375 138.85984375 285.6371875 139.3671875 286.609375 C141.12003166 289.17574013 142.23949404 289.76285017 145 291 C148.00400358 288.02484693 151.00252155 285.04422593 154 282.0625 C154.85851562 281.21236328 155.71703125 280.36222656 156.6015625 279.48632812 C157.41367187 278.67744141 158.22578125 277.86855469 159.0625 277.03515625 C159.81660156 276.2862915 160.57070313 275.53742676 161.34765625 274.76586914 C163.11387428 273.28136427 163.11387428 273.28136427 163 272 C153.1 272 143.2 272 133 272 Z M237 272 C241.59180446 277.41969335 241.59180446 277.41969335 246.4296875 282.52734375 C246.996875 283.09130859 247.5640625 283.65527344 248.1484375 284.23632812 C248.71820313 284.79771484 249.28796875 285.35910156 249.875 285.9375 C250.46796875 286.52595703 251.0609375 287.11441406 251.671875 287.72070312 C253.11226466 289.14947674 254.5557967 290.57508132 256 292 C259.12038083 288.32043588 261.48019088 284.56596709 263.75 280.3125 C264.67039062 278.60513672 264.67039062 278.60513672 265.609375 276.86328125 C267.1456252 274.23067842 267.1456252 274.23067842 267 272 C257.1 272 247.2 272 237 272 Z M173.14233398 286.74414062 C172.35157471 287.54013672 171.56081543 288.33613281 170.74609375 289.15625 C169.89208984 290.01347656 169.03808594 290.87070312 168.15820312 291.75390625 C167.26037109 292.66011719 166.36253906 293.56632812 165.4375 294.5 C164.08495117 295.85931641 164.08495117 295.85931641 162.70507812 297.24609375 C160.46781659 299.49519265 158.23291253 301.74658467 156 304 C159.73632895 307.05898276 163.42093796 309.47320292 167.6875 311.75 C169.39486328 312.67039062 169.39486328 312.67039062 171.13671875 313.609375 C173.76932158 315.1456252 173.76932158 315.1456252 176 315 C176 305.1 176 295.2 176 285 C174.69681756 284.88592007 174.69681756 284.88592007 173.14233398 286.74414062 Z M224 285 C224 294.9 224 304.8 224 315 C228.35448136 313.54850621 231.74529914 312.22328792 235.6875 310.0625 C236.61949219 309.55847656 237.55148437 309.05445313 238.51171875 308.53515625 C240.72377553 307.17041792 242.22198256 305.85679649 244 304 C240.85817898 300.8293305 237.71089125 297.66414446 234.5625 294.5 C233.66466797 293.59378906 232.76683594 292.68757813 231.84179688 291.75390625 C230.98779297 290.89667969 230.13378906 290.03945313 229.25390625 289.15625 C228.46314697 288.36025391 227.6723877 287.56425781 226.85766602 286.74414062 C225.30318244 284.88592007 225.30318244 284.88592007 224 285 Z M32 416 C32 421.28 32 426.56 32 432 C47.84 432 63.68 432 80 432 C80 426.72 80 421.44 80 416 C64.16 416 48.32 416 32 416 Z M32 448 C32 453.28 32 458.56 32 464 C47.84 464 63.68 464 80 464 C80 458.72 80 453.44 80 448 C64.16 448 48.32 448 32 448 Z " fill="#000000" transform="translate(200,8)"/>
<path d="M0 0 C3.19843024 0.00314949 6.39592206 -0.02036437 9.59423828 -0.0456543 C34.07875594 -0.12033336 71.62003645 0.13720514 90.59814453 18.31567383 C92.21042963 21.54024402 92.18940227 24.82859696 91.59814453 28.31567383 C83.43890329 38.87469191 69.29080896 41.96078499 56.84814453 44.50317383 C56.10032715 44.65786133 55.35250977 44.81254883 54.58203125 44.97192383 C38.84295943 47.98920786 23.18416698 48.66409479 7.19628906 48.63134766 C3.99785882 48.62819816 0.800367 48.65171203 -2.39794922 48.67700195 C-28.75085397 48.75840089 -61.89902644 47.61142761 -83.40185547 30.31567383 C-85.01414056 27.09110364 -84.9931132 23.8027507 -84.40185547 20.31567383 C-76.16777943 9.65981072 -61.60135065 6.84777788 -49.08935547 4.12817383 C-48.04485229 3.89614258 -48.04485229 3.89614258 -46.97924805 3.65942383 C-31.43426529 0.47177552 -15.8157011 -0.03239447 0 0 Z " fill="#000000" transform="translate(108.40185546875,159.684326171875)"/>
<path d="M0 0 C4.64546494 1.85607851 4.64546494 1.85607851 6.94677734 2.7902832 C57.57685714 23.1718674 120.56411926 22.45022037 171 2 C172.66642802 1.33273702 174.33305216 0.66596331 176 0 C176.19912394 4.00124233 176.34353456 8.00053573 176.43945312 12.00561523 C176.47946385 13.36485056 176.53389777 14.72374629 176.60351562 16.08178711 C177.16199803 27.26375463 177.16199803 27.26375463 174.40332031 31.38574219 C172.36510102 33.23309145 170.38440257 34.63520049 168 36 C166.96359375 36.60070312 165.9271875 37.20140625 164.859375 37.8203125 C140.50162167 48.04077684 114.50039264 50.59790025 88.3125 50.4375 C87.26850037 50.43479095 86.22450073 50.43208191 85.14886475 50.42929077 C68.81077927 50.36517641 52.99898254 49.59047274 37 46 C36.13906738 45.81276367 35.27813477 45.62552734 34.39111328 45.43261719 C22.33391202 42.7188681 8.18262312 38.79821901 0 29 C-0.56762695 25.77026367 -0.56762695 25.77026367 -0.48828125 22.16796875 C-0.47216797 20.87568359 -0.45605469 19.58339844 -0.43945312 18.25195312 C-0.39768274 16.89711843 -0.35535809 15.54230072 -0.3125 14.1875 C-0.28740069 12.81319134 -0.26459036 11.43883884 -0.24414062 10.06445312 C-0.18526461 6.70852024 -0.1030642 3.3548191 0 0 Z " fill="#000000" transform="translate(24,302)"/>
<path d="M0 0 C4.64546494 1.85607851 4.64546494 1.85607851 6.94677734 2.7902832 C57.57685714 23.1718674 120.56411926 22.45022037 171 2 C172.66642802 1.33273702 174.33305216 0.66596331 176 0 C176.19912394 4.00124233 176.34353456 8.00053573 176.43945312 12.00561523 C176.47946385 13.36485056 176.53389777 14.72374629 176.60351562 16.08178711 C177.16199803 27.26375463 177.16199803 27.26375463 174.40332031 31.38574219 C172.36510102 33.23309145 170.38440257 34.63520049 168 36 C166.96359375 36.60070312 165.9271875 37.20140625 164.859375 37.8203125 C140.50162167 48.04077684 114.50039264 50.59790025 88.3125 50.4375 C87.26850037 50.43479095 86.22450073 50.43208191 85.14886475 50.42929077 C68.81077927 50.36517641 52.99898254 49.59047274 37 46 C36.13906738 45.81276367 35.27813477 45.62552734 34.39111328 45.43261719 C22.33391202 42.7188681 8.18262312 38.79821901 0 29 C-0.56762695 25.77026367 -0.56762695 25.77026367 -0.48828125 22.16796875 C-0.47216797 20.87568359 -0.45605469 19.58339844 -0.43945312 18.25195312 C-0.39768274 16.89711843 -0.35535809 15.54230072 -0.3125 14.1875 C-0.28740069 12.81319134 -0.26459036 11.43883884 -0.24414062 10.06445312 C-0.18526461 6.70852024 -0.1030642 3.3548191 0 0 Z " fill="#000000" transform="translate(24,254)"/>
<path d="M0 0 C4.64546494 1.85607851 4.64546494 1.85607851 6.94677734 2.7902832 C57.57685714 23.1718674 120.56411926 22.45022037 171 2 C172.66642802 1.33273702 174.33305216 0.66596331 176 0 C176.19912394 4.00124233 176.34353456 8.00053573 176.43945312 12.00561523 C176.47946385 13.36485056 176.53389777 14.72374629 176.60351562 16.08178711 C177.16199803 27.26375463 177.16199803 27.26375463 174.40332031 31.38574219 C172.36510102 33.23309145 170.38440257 34.63520049 168 36 C166.96359375 36.60070312 165.9271875 37.20140625 164.859375 37.8203125 C140.50162167 48.04077684 114.50039264 50.59790025 88.3125 50.4375 C87.26850037 50.43479095 86.22450073 50.43208191 85.14886475 50.42929077 C68.81077927 50.36517641 52.99898254 49.59047274 37 46 C36.13906738 45.81276367 35.27813477 45.62552734 34.39111328 45.43261719 C22.33391202 42.7188681 8.18262312 38.79821901 0 29 C-0.56762695 25.77026367 -0.56762695 25.77026367 -0.48828125 22.16796875 C-0.47216797 20.87568359 -0.45605469 19.58339844 -0.43945312 18.25195312 C-0.39768274 16.89711843 -0.35535809 15.54230072 -0.3125 14.1875 C-0.28740069 12.81319134 -0.26459036 11.43883884 -0.24414062 10.06445312 C-0.18526461 6.70852024 -0.1030642 3.3548191 0 0 Z " fill="#000000" transform="translate(24,206)"/>
</svg>
