<?xml version="1.0" encoding="UTF-8"?>
<svg version="1.1" xmlns="http://www.w3.org/2000/svg" width="512" height="512">
<path d="M0 0 C0.46837784 0.40552597 0.93675568 0.81105194 1.41932678 1.22886658 C2.04028732 1.76427567 2.66124786 2.29968475 3.30102539 2.85131836 C3.91377823 3.38059433 4.52653107 3.9098703 5.15785217 4.45518494 C20.24503507 17.10721376 36.78993795 21.13408374 56.13699341 21.15821838 C56.9990001 21.16315636 57.86100679 21.16809434 58.7491349 21.17318195 C61.60635511 21.18840765 64.46355313 21.19687658 67.32080078 21.20532227 C69.38136486 21.21491256 71.44192702 21.2249233 73.50248718 21.23532104 C79.07401903 21.26225143 84.64555924 21.28332491 90.21711969 21.30332303 C96.04807194 21.32525615 101.87899874 21.35260886 107.70993042 21.37937927 C118.74165725 21.4292074 129.77339828 21.47418272 140.80515277 21.51740164 C153.36864494 21.56685866 165.93211157 21.62174529 178.495579 21.67708123 C204.33036331 21.79074953 230.16517119 21.89690467 256 22 C256 43.45 256 64.9 256 87 C250.555 87.99 250.555 87.99 245 89 C237.1011288 92.17573055 231.70383254 97.43265977 228.0078125 105.04296875 C226.20516785 109.4809082 225.70582053 113.05925626 225 118 C219.39 118 213.78 118 208 118 C208 91.6 208 65.2 208 38 C186.88 38 165.76 38 144 38 C144 64.4 144 90.8 144 118 C133.44 118 122.88 118 112 118 C112 144.4 112 170.8 112 198 C100.0375 198.0825 88.075 198.165 75.75 198.25 C71.99592773 198.28641602 68.24185547 198.32283203 64.37402344 198.36035156 C59.73095703 198.37841797 59.73095703 198.37841797 57.54595947 198.3817749 C56.04477166 198.38785089 54.54360131 198.40177879 53.0425415 198.42230225 C36.58209381 198.63578421 24.51406077 195.06597214 12.25 183.6875 C1.33324241 172.15281273 -0.45617412 159.44512852 -0.34057617 144.17724609 C-0.33972852 142.59943661 -0.34020774 141.02162594 -0.34190369 139.44381714 C-0.34275967 135.18824127 -0.32519867 130.93292233 -0.30418181 126.67740583 C-0.28534842 122.21981601 -0.28365934 117.76221942 -0.28010559 113.30459595 C-0.27080462 104.87587234 -0.24621737 96.44726635 -0.21605712 88.01859438 C-0.18245228 78.41759442 -0.16601184 68.81658866 -0.15097082 59.21554446 C-0.11966596 39.47696416 -0.06694358 19.73848951 0 0 Z M48 54 C48 59.28 48 64.56 48 70 C74.4 70 100.8 70 128 70 C128 64.72 128 59.44 128 54 C101.6 54 75.2 54 48 54 Z M48 86 C48 91.28 48 96.56 48 102 C74.4 102 100.8 102 128 102 C128 96.72 128 91.44 128 86 C101.6 86 75.2 86 48 86 Z M48 118 C48 123.28 48 128.56 48 134 C63.84 134 79.68 134 96 134 C96 128.72 96 123.44 96 118 C80.16 118 64.32 118 48 118 Z M48 150 C48 155.28 48 160.56 48 166 C63.84 166 79.68 166 96 166 C96 160.72 96 155.44 96 150 C80.16 150 64.32 150 48 150 Z " fill="#000000" transform="translate(24,290)"/>
<path d="M0 0 C7.23150397 15.21026334 10.71021395 29.86723068 10.52148438 46.72949219 C10.4999959 49.00043364 10.5214587 51.26821412 10.546875 53.5390625 C10.57455368 68.4915873 7.54759986 82.48615578 1 96 C0.69465332 96.64437012 0.38930664 97.28874023 0.07470703 97.95263672 C-8.78142062 116.44972076 -20.14962611 130.69965588 -40 138 C-45.75903343 139.66875906 -50.82594987 140.28247547 -56.80273438 140.22705078 C-57.64270966 140.22734283 -58.48268494 140.22763489 -59.34811401 140.22793579 C-62.09676814 140.22655363 -64.84514382 140.21104539 -67.59375 140.1953125 C-69.51045585 140.1915784 -71.42716362 140.18873331 -73.34387207 140.18673706 C-78.36785226 140.17913183 -83.39171526 140.15951027 -88.41564941 140.1373291 C-93.55052099 140.11680343 -98.68541165 140.10772101 -103.8203125 140.09765625 C-113.88026788 140.07626125 -123.94010582 140.04110467 -134 140 C-134 129.44 -134 118.88 -134 108 C-131.77515869 107.98541748 -129.55031738 107.97083496 -127.25805664 107.95581055 C-119.88188437 107.90532423 -112.50592009 107.83870485 -105.12995243 107.76428509 C-100.6607909 107.71968353 -96.19171839 107.68040529 -91.72241211 107.65356445 C-87.40393703 107.62742905 -83.08580639 107.58695537 -78.7675457 107.53681374 C-77.12549585 107.52021392 -75.48338651 107.50865698 -73.84126472 107.50238609 C-60.18061087 108.02000667 -60.18061087 108.02000667 -48.3316803 102.43583679 C-40.43087706 93.23640642 -35.87516764 79.86585978 -30.78955078 68.93579102 C-28.60728615 64.24764508 -26.32914957 59.61707524 -24 55 C-24.86625 54.731875 -25.7325 54.46375 -26.625 54.1875 C-29.91995819 53.02816286 -32.89419423 51.58770183 -36 50 C-42.00006835 61.27127807 -47.85461176 72.60112837 -53.50708008 84.05126953 C-53.94947021 84.94442871 -54.39186035 85.83758789 -54.84765625 86.7578125 C-55.23961182 87.5533252 -55.63156738 88.34883789 -56.03540039 89.16845703 C-57 91 -57 91 -58 92 C-60.6662603 92.08855161 -63.30647114 92.11524673 -65.97265625 92.09765625 C-66.77029892 92.0962413 -67.56794159 92.09482635 -68.38975525 92.09336853 C-70.94737435 92.08775316 -73.50490718 92.07519812 -76.0625 92.0625 C-77.79231645 92.05748698 -79.52213426 92.05292373 -81.25195312 92.04882812 C-85.50133553 92.03777875 -89.75065312 92.02050386 -94 92 C-94.10056098 87.43259767 -94.17224436 82.86587046 -94.21972656 78.29760742 C-94.23956584 76.75094347 -94.2666464 75.20435161 -94.30175781 73.65795898 C-94.76255147 52.80704609 -89.26131216 34.78026849 -75 19 C-74.37738281 18.30777344 -73.75476563 17.61554688 -73.11328125 16.90234375 C-69.89898569 13.50676471 -67.47011459 11.58395883 -63 10 C-61.41524955 12.99925342 -59.83246479 15.99954008 -58.25 19 C-57.8065625 19.83917969 -57.363125 20.67835938 -56.90625 21.54296875 C-55.59771482 24.02533697 -54.29631708 26.51123099 -53 29 C-52.59716797 29.77214844 -52.19433594 30.54429687 -51.77929688 31.33984375 C-49 36.76118827 -49 36.76118827 -49 39 C-42.86042373 34.16317806 -36.84182034 29.20345143 -30.88989258 24.1394043 C-26.58858447 20.48433167 -22.23071481 16.9044534 -17.84765625 13.34765625 C-15.70909242 11.58458785 -13.59621782 9.80394722 -11.49609375 7.99609375 C-10.90441406 7.48820312 -10.31273437 6.9803125 -9.703125 6.45703125 C-8.54454463 5.45993443 -7.38946284 4.4587549 -6.23828125 3.453125 C-2.22117881 0 -2.22117881 0 0 0 Z " fill="#000000" transform="translate(446,284)"/>
<path d="M0 0 C6.6 0 13.2 0 20 0 C20.71700355 3.8769406 21.43069169 7.75427739 22.13623047 11.63330078 C22.49471242 13.5960496 22.85864403 15.55780055 23.22265625 17.51953125 C23.44824219 18.76347656 23.67382812 20.00742188 23.90625 21.2890625 C24.11572266 22.43068848 24.32519531 23.57231445 24.54101562 24.74853516 C24.98350683 27.88316171 25.08372117 30.83952595 25 34 C26.39567835 34.31319144 27.79155082 34.62551788 29.1875 34.9375 C29.96480469 35.11152344 30.74210937 35.28554687 31.54296875 35.46484375 C32.35378906 35.64144531 33.16460937 35.81804687 34 36 C34.78947021 36.22905029 35.57894043 36.45810059 36.39233398 36.6940918 C39.68330068 37.08015876 40.57541775 36.4039217 43.1796875 34.4296875 C43.94410156 33.8625 44.70851563 33.2953125 45.49609375 32.7109375 C46.28113281 32.10507813 47.06617188 31.49921875 47.875 30.875 C49.43489376 29.7057264 50.99478957 28.53645553 52.5546875 27.3671875 C54.71682594 25.73746754 56.86962157 24.10362429 58.98925781 22.41894531 C63.49859424 18.94375004 63.49859424 18.94375004 66.02172852 19.22680664 C69.23708529 20.483506 71.42050184 22.90805971 73.8125 25.3125 C74.5849707 26.04243164 74.5849707 26.04243164 75.37304688 26.78710938 C76.83203125 28.23828125 76.83203125 28.23828125 79 31 C78.66096133 34.18881789 77.30072867 36.29741366 75.453125 38.86328125 C74.9375 39.58580078 74.421875 40.30832031 73.890625 41.05273438 C73.34921875 41.79845703 72.8078125 42.54417969 72.25 43.3125 C71.46109375 44.41368164 71.46109375 44.41368164 70.65625 45.53710938 C66.56893904 51.2380988 66.56893904 51.2380988 64.49194336 54.01953125 C61.79413249 57.33504444 61.79413249 57.33504444 61.0625 61.375 C61.371875 62.24125 61.68125 63.1075 62 64 C62.36840944 65.60095572 62.72153984 67.20547452 63.0625 68.8125 C63.37448212 70.20844918 63.68680856 71.60432165 64 73 C64.61101562 73.02578125 65.22203125 73.0515625 65.8515625 73.078125 C76.7180109 73.7515387 87.32336727 75.95776153 98 78 C98 84.6 98 91.2 98 98 C94.1230594 98.71700355 90.24572261 99.43069169 86.36669922 100.13623047 C84.4039504 100.49471242 82.44219945 100.85864403 80.48046875 101.22265625 C79.23652344 101.44824219 77.99257812 101.67382812 76.7109375 101.90625 C75.56931152 102.11572266 74.42768555 102.32519531 73.25146484 102.54101562 C70.11683829 102.98350683 67.16047405 103.08372117 64 103 C63.68680856 104.39567835 63.37448212 105.79155082 63.0625 107.1875 C62.88847656 107.96480469 62.71445313 108.74210937 62.53515625 109.54296875 C62.35855469 110.35378906 62.18195313 111.16460937 62 112 C61.61328125 113.22396484 61.61328125 113.22396484 61.21875 114.47265625 C60.90882232 118.05342782 62.28364782 119.44537376 64.4375 122.25 C68 126.962818 68 126.962818 68 128 C29.72 128 -8.56 128 -48 128 C-44 121 -44 121 -42.1875 118.875 C-40.77262363 117.05941397 -40.77262363 117.05941397 -41.1875 114.8125 C-41.455625 113.884375 -41.72375 112.95625 -42 112 C-42.36151285 110.39747288 -42.71519298 108.79316577 -43.0625 107.1875 C-43.37448212 105.79155082 -43.68680856 104.39567835 -44 103 C-44.61101562 102.97421875 -45.22203125 102.9484375 -45.8515625 102.921875 C-56.7180109 102.2484613 -67.32336727 100.04223847 -78 98 C-78 91.4 -78 84.8 -78 78 C-74.1230594 77.28299645 -70.24572261 76.56930831 -66.36669922 75.86376953 C-64.4039504 75.50528758 -62.44219945 75.14135597 -60.48046875 74.77734375 C-59.23652344 74.55175781 -57.99257812 74.32617188 -56.7109375 74.09375 C-55.56931152 73.88427734 -54.42768555 73.67480469 -53.25146484 73.45898438 C-50.11683829 73.01649317 -47.16047405 72.91627883 -44 73 C-43.68680856 71.60432165 -43.37448212 70.20844918 -43.0625 68.8125 C-42.88847656 68.03519531 -42.71445313 67.25789063 -42.53515625 66.45703125 C-42.35855469 65.64621094 -42.18195313 64.83539063 -42 64 C-41.77094971 63.21052979 -41.54189941 62.42105957 -41.3059082 61.60766602 C-40.91984124 58.31669932 -41.5960783 57.42458225 -43.5703125 54.8203125 C-44.1375 54.05589844 -44.7046875 53.29148438 -45.2890625 52.50390625 C-45.89492187 51.71886719 -46.50078125 50.93382812 -47.125 50.125 C-48.2942736 48.56510624 -49.46354447 47.00521043 -50.6328125 45.4453125 C-52.26253246 43.28317406 -53.89637571 41.13037843 -55.58105469 39.01074219 C-59.05624996 34.50140576 -59.05624996 34.50140576 -58.77319336 31.97827148 C-57.516494 28.76291471 -55.09194029 26.57949816 -52.6875 24.1875 C-52.20087891 23.67251953 -51.71425781 23.15753906 -51.21289062 22.62695312 C-49.76171875 21.16796875 -49.76171875 21.16796875 -47 19 C-43.81118211 19.33903867 -41.70258634 20.69927133 -39.13671875 22.546875 C-38.41419922 23.0625 -37.69167969 23.578125 -36.94726562 24.109375 C-36.20154297 24.65078125 -35.45582031 25.1921875 -34.6875 25.75 C-33.95337891 26.2759375 -33.21925781 26.801875 -32.46289062 27.34375 C-26.5721608 31.56709489 -26.5721608 31.56709489 -24.00683594 33.50805664 C-20.35828471 36.36313983 -20.35828471 36.36313983 -15.875 36.9375 C-13.19505528 36.06360498 -10.61108432 35.0585477 -8 34 C-7.01 34 -6.02 34 -5 34 C-4.97421875 33.38898438 -4.9484375 32.77796875 -4.921875 32.1484375 C-4.2484613 21.2819891 -2.04223847 10.67663273 0 0 Z M-21.8125 64.25 C-28.90678065 74.06650462 -30.15356528 84.21460626 -29 96 C-26.74242091 106.78027414 -20.25543852 115.11109065 -11.42578125 121.4921875 C-1.44984101 127.69301348 9.7720243 128.72308289 21.15234375 126.33984375 C32.33709105 122.71617387 40.80255052 114.81122995 46.3203125 104.54296875 C50.37143851 95.09506299 50.6001898 83.82439536 47.4375 74.0625 C42.86091606 63.38913815 34.61086185 55.13908394 23.9375 50.5625 C6.52060611 44.91971951 -10.20609789 50.47509814 -21.8125 64.25 Z " fill="#000000" transform="translate(134,168)"/>
<path d="M0 0 C25.29528909 -0.24065286 25.29528909 -0.24065286 36.0625 -0.29296875 C43.41497717 -0.32886207 50.76700683 -0.37136126 58.11914062 -0.45263672 C64.04545245 -0.51774155 69.97128455 -0.553688 75.89792633 -0.56926346 C78.16105963 -0.58036559 80.42416612 -0.60204536 82.68709564 -0.63438034 C85.85285042 -0.6778242 89.01661317 -0.68393895 92.18261719 -0.68115234 C93.12201141 -0.702724 94.06140564 -0.72429565 95.02926636 -0.746521 C97.49854908 -0.7229415 99.61839147 -0.65377391 102 0 C104.47930908 2.92831421 104.47930908 2.92831421 106 6 C112.76029613 11.75239743 119.27023147 13.75289021 128 15 C128 31.17 128 47.34 128 64 C85.76 64 43.52 64 0 64 C0 42.88 0 21.76 0 0 Z M16 32 C16 37.28 16 42.56 16 48 C21.28 48 26.56 48 32 48 C32 42.72 32 37.44 32 32 C26.72 32 21.44 32 16 32 Z M48 32 C48 37.28 48 42.56 48 48 C53.28 48 58.56 48 64 48 C64 42.72 64 37.44 64 32 C58.72 32 53.44 32 48 32 Z M80 32 C80 37.28 80 42.56 80 48 C85.28 48 90.56 48 96 48 C96 42.72 96 37.44 96 32 C90.72 32 85.44 32 80 32 Z " fill="#000000" transform="translate(152,424)"/>
<path d="M0 0 C2.822052 -0.36076355 2.822052 -0.36076355 6.46923828 -0.34057617 C7.46454056 -0.34123329 7.46454056 -0.34123329 8.47994995 -0.34190369 C10.677035 -0.33981068 12.87336049 -0.31645699 15.0703125 -0.29296875 C16.5920266 -0.28737458 18.1137461 -0.28310364 19.63546753 -0.28010559 C23.64364499 -0.26864261 27.65149712 -0.2391633 31.6595459 -0.20599365 C36.46691667 -0.16993302 41.27439613 -0.1561385 46.0818634 -0.13863373 C53.38813531 -0.10952641 60.69369317 -0.05205021 68 0 C68 10.56 68 21.12 68 32 C71.96 32 75.92 32 80 32 C84.60220994 36.60220994 84.60220994 36.60220994 84.6875 40.25 C84.40738108 46.15181585 81.08623458 49.08958195 77 53 C76.28489258 53.58112549 75.56978516 54.16225098 74.83300781 54.76098633 C70.55143289 58.36330179 70.55143289 58.36330179 68.57226562 63.41137695 C68.74994413 66.22292527 69.19067347 68.86383232 69.75 71.625 C70.09634998 73.73155785 70.44133219 75.83834091 70.78515625 77.9453125 C70.98383301 79.06969727 71.18250977 80.19408203 71.38720703 81.35253906 C72.26318632 86.56653531 72.93506084 91.79934332 73.61108398 97.04248047 C74.38550319 103.03119116 75.19647512 109.01512501 76 115 C65.44 117.97 54.88 120.94 44 124 C44 114.76 44 105.52 44 96 C49.28 96 54.56 96 60 96 C60 90.72 60 85.44 60 80 C58.29070312 80.0314209 58.29070312 80.0314209 56.546875 80.06347656 C52.29033131 80.13626614 48.03384186 80.18194042 43.77685547 80.21972656 C41.93984707 80.23975373 40.10290171 80.26698382 38.26611328 80.30175781 C35.61474998 80.35067065 32.96423459 80.37305763 30.3125 80.390625 C29.50071289 80.41127014 28.68892578 80.43191528 27.85253906 80.45318604 C21.05715206 80.45581746 15.89009564 78.53260994 10.7578125 74.03515625 C10.21898437 73.38417969 9.68015625 72.73320312 9.125 72.0625 C8.57070313 71.41410156 8.01640625 70.76570313 7.4453125 70.09765625 C4.10105276 65.24396036 3.73253624 60.9585431 3.875 55.1875 C3.91625 52.815625 3.9575 50.44375 4 48 C-1.28 48 -6.56 48 -12 48 C-12.16731914 41.57108362 -11.66733083 35.73061628 -10.375 29.4375 C-10.11420654 28.14791382 -10.11420654 28.14791382 -9.84814453 26.83227539 C-7.88617875 17.67896992 -5.23642427 7.8546364 0 0 Z M6.625 18.625 C4.51293494 21.71186432 4.38804855 23.3282913 5 27 C6.5 29.5 6.5 29.5 9 31 C12.6717087 31.61195145 14.28813568 31.48706506 17.375 29.375 C19.48706506 26.28813568 19.61195145 24.6717087 19 21 C17.5 18.5 17.5 18.5 15 17 C11.3282913 16.38804855 9.71186432 16.51293494 6.625 18.625 Z " fill="#000000" transform="translate(356,144)"/>
<path d="M0 0 C5.28 0 10.56 0 16 0 C16 5.28 16 10.56 16 16 C32.17 16 48.34 16 65 16 C65.66 14.35 66.32 12.7 67 11 C70.47288383 5.68007285 74.79126787 1.66024641 81 0 C87.96638754 -0.78941541 95.08009918 -1.133182 101.25390625 2.59765625 C106.13592264 6.51855979 110.12676295 10.95615969 112 17 C112.80514105 24.83608208 113.12460392 32.61922577 108 39 C103.19551361 44.04521222 98.83822945 47.60562995 91.73046875 48.3359375 C83.18114273 48.43019688 77.30690155 48.10501554 71 42.09375 C67.82034459 38.65767077 66.15818909 36.63275636 65 32 C48.83 32 32.66 32 16 32 C16 42.56 16 53.12 16 64 C26.56 64 37.12 64 48 64 C48 69.28 48 74.56 48 80 C32.16 80 16.32 80 0 80 C0 64.16 0 48.32 0 32 C-5.28 32 -10.56 32 -16 32 C-16 53.12 -16 74.24 -16 96 C-21.28 96 -26.56 96 -32 96 C-32 69.6 -32 43.2 -32 16 C-21.44 16 -10.88 16 0 16 C0 10.72 0 5.44 0 0 Z " fill="#000000" transform="translate(200,40)"/>
<path d="M0 0 C0.33 0 0.66 0 1 0 C1 30.69 1 61.38 1 93 C-33.32 93 -67.64 93 -103 93 C-103 77.16 -103 61.32 -103 45 C-86.5 44.625 -86.5 44.625 -81.40429688 44.52197266 C-55.98169265 43.91917203 -33.50390364 39.80396695 -15 21 C-14.37738281 20.37609375 -13.75476563 19.7521875 -13.11328125 19.109375 C-8.43329211 14.10336415 -5.06168234 8.44069587 -1.6015625 2.5625 C-1.07304687 1.716875 -0.54453125 0.87125 0 0 Z " fill="#000000" transform="translate(455,395)"/>
<path d="M0 0 C1.00329346 0.00829834 2.00658691 0.01659668 3.0402832 0.02514648 C20.02895128 0.40979041 33.76883183 6.83740669 46.08203125 18.58203125 C57.95526389 31.59452459 63.6875 46.864644 63.6875 64.4375 C47.8475 64.4375 32.0075 64.4375 15.6875 64.4375 C15.3575 59.1575 15.0275 53.8775 14.6875 48.4375 C13.18901456 42.04238665 13.18901456 42.04238665 9.4375 37 C2.18673305 32.88024605 -5.09523332 33.10263676 -13.24609375 33.0234375 C-14.47916763 33.00407135 -15.71224152 32.9847052 -16.98268127 32.9647522 C-20.90505139 32.90517048 -24.82745119 32.85865612 -28.75 32.8125 C-31.41604703 32.77536031 -34.08203905 32.73524779 -36.74804688 32.6953125 C-43.26942367 32.59948641 -49.79087377 32.5143765 -56.3125 32.4375 C-47.45315071 16.67113522 -34.43946366 7.0028035 -17.171875 1.82421875 C-11.39725867 0.29683054 -5.95363968 -0.0641371 0 0 Z " fill="#000000" transform="translate(424.3125,63.5625)"/>
<path d="M0 0 C5.58730223 3.3716479 9.98188183 8.17752734 11.5625 14.5 C33.0125 14.5 54.4625 14.5 76.5625 14.5 C76.5625 30.34 76.5625 46.18 76.5625 62.5 C71.2825 62.5 66.0025 62.5 60.5625 62.5 C60.5625 51.94 60.5625 41.38 60.5625 30.5 C44.3925 30.5 28.2225 30.5 11.5625 30.5 C10.9025 32.15 10.2425 33.8 9.5625 35.5 C6.00754381 40.62138807 1.92652132 45.34188305 -4.4375 46.5 C-12.33133952 47.24416864 -19.99874134 47.67117306 -26.4375 42.5 C-31.48271222 37.69551361 -35.04312995 33.33822945 -35.7734375 26.23046875 C-35.86733204 17.71423427 -35.5552288 11.82404506 -29.56640625 5.53515625 C-21.52363185 -1.89946886 -10.4806088 -4.64434821 0 0 Z " fill="#000000" transform="translate(43.4375,73.5)"/>
<path d="M0 0 C5.82485779 3.51996782 10.54466582 8.98962934 12.5625 15.5 C13.36748575 23.33457059 13.68829143 31.12123733 8.5625 37.5 C4.79441918 41.45339627 1.92912621 44.15834345 -3.4375 45.5 C-3.4375 72.23 -3.4375 98.96 -3.4375 126.5 C-8.7175 126.5 -13.9975 126.5 -19.4375 126.5 C-19.4375 99.77 -19.4375 73.04 -19.4375 45.5 C-21.0875 44.84 -22.7375 44.18 -24.4375 43.5 C-29.55888807 39.94504381 -34.27938305 35.86402132 -35.4375 29.5 C-36.18166864 21.60616048 -36.60867306 13.93875866 -31.4375 7.5 C-23.13577971 -1.21767287 -11.72105717 -5.1940371 0 0 Z " fill="#000000" transform="translate(155.4375,9.5)"/>
<path d="M0 0 C10.89 0 21.78 0 33 0 C33 31.68 33 63.36 33 96 C18.48 96 3.96 96 -11 96 C-18 86 -18 86 -18 84 C-13.33732247 83.14326433 -8.67423261 82.28882318 -4.01074219 81.43652344 C-2.423712 81.14614174 -0.83679718 80.85512884 0.75 80.56347656 C3.0283466 80.14483037 5.30709584 79.72844184 7.5859375 79.3125 C8.29744965 79.18125732 9.00896179 79.05001465 9.74203491 78.91479492 C14.77225659 78 14.77225659 78 17 78 C17 63.48 17 48.96 17 34 C6.97833283 32.39762137 6.97833283 32.39762137 -3.04394531 30.79907227 C-4.29272461 30.59854248 -5.54150391 30.3980127 -6.828125 30.19140625 C-8.1059082 29.98717041 -9.38369141 29.78293457 -10.70019531 29.57250977 C-13.18050332 29.1421811 -15.57553739 28.66485814 -18 28 C-16.35387841 22.8685716 -13.25032057 18.87574218 -10.125 14.5625 C-9.06439864 13.08514166 -8.00448952 11.60728609 -6.9453125 10.12890625 C-6.47625488 9.47994385 -6.00719727 8.83098145 -5.52392578 8.16235352 C-3.63138234 5.47695504 -1.82234723 2.73352085 0 0 Z " fill="#000000" transform="translate(231,200)"/>
<path d="M0 0 C16.17 0 32.34 0 49 0 C47.3280445 26.75128806 40.11446142 50.35136978 20 69 C7.6639049 79.1120317 7.6639049 79.1120317 2 81 C1.66048381 79.43883181 1.32867456 77.87598662 1 76.3125 C0.814375 75.44238281 0.62875 74.57226562 0.4375 73.67578125 C-0.00893831 70.94533268 -0.36684551 68.74913144 0 66 C1.79296875 63.89453125 1.79296875 63.89453125 4.1875 61.8125 C10.84055819 55.44277394 14.21762426 49.70819966 14.5625 40.375 C14.26663629 33.74920997 12.97650991 29.02386348 8.28125 24.25390625 C5.64449115 21.92439684 2.92924091 19.95282727 0 18 C0 12.06 0 6.12 0 0 Z " fill="#000000" transform="translate(440,144)"/>
<path d="M0 0 C10.56 0 21.12 0 32 0 C32 21.12 32 42.24 32 64 C21.44 64 10.88 64 0 64 C0 42.88 0 21.76 0 0 Z " fill="#000000" transform="translate(184,344)"/>
<path d="M0 0 C1.4921875 1.57885742 1.4921875 1.57885742 2.875 3.60546875 C3.38546875 4.34216797 3.8959375 5.07886719 4.421875 5.83789062 C5.20304687 7.00094727 5.20304687 7.00094727 6 8.1875 C6.78117187 9.32155273 6.78117187 9.32155273 7.578125 10.47851562 C8.59533888 11.95938381 9.60596772 13.44480074 10.609375 14.93505859 C11.48547361 16.23597889 12.36979382 17.53143595 13.265625 18.81884766 C16 22.77959947 16 22.77959947 16 25 C12.79277902 25.63079325 9.58402811 26.2534712 6.375 26.875 C5.49070313 27.04902344 4.60640625 27.22304687 3.6953125 27.40234375 C-3.8623824 28.8598992 -11.35197171 29.90742453 -19 31 C-19 45.52 -19 60.04 -19 75 C-8.60432075 76.60331897 -8.60432075 76.60331897 1.79223633 78.20092773 C3.08411865 78.40145752 4.37600098 78.6019873 5.70703125 78.80859375 C6.38262085 78.91143677 7.05821045 79.01427979 7.75427246 79.12023926 C10.61590671 79.56708667 13.24509726 80.08169909 16 81 C14.44298069 85.67105792 11.91552627 89.08705685 9 93 C-5.04091274 92.40251435 -14.70549903 86.80395609 -24.25 76.6875 C-34.25175168 64.99222463 -35.86490057 52.21051868 -35.19091797 37.37451172 C-34.42216154 27.81322646 -29.95529007 20.28856396 -24 13 C-23.48824219 12.36320313 -22.97648437 11.72640625 -22.44921875 11.0703125 C-17.77943224 5.85591069 -7.25993168 -2.91268851 0 0 Z " fill="#000000" transform="translate(59,203)"/>
<path d="M0 0 C5.82485779 3.51996782 10.54466582 8.98962934 12.5625 15.5 C13.36764105 23.33608208 13.68710392 31.11922577 8.5625 37.5 C3.75801361 42.54521222 -0.59927055 46.10562995 -7.70703125 46.8359375 C-16.22326573 46.92983204 -22.11345494 46.6177288 -28.40234375 40.62890625 C-34.7841668 33.72505269 -35.91792252 28.29832071 -35.7421875 18.9453125 C-35.04689797 11.08319245 -31.38995981 6.95041296 -25.53515625 1.9453125 C-18.47077988 -2.92213491 -7.84396301 -3.47595223 0 0 Z " fill="#000000" transform="translate(155.4375,233.5)"/>
<path d="M0 0 C8.1866821 1.50145788 16.10387677 3.62076868 24.1015625 5.9140625 C25.43238837 6.29268785 26.76331263 6.6709675 28.09432983 7.04891968 C31.56399366 8.03514301 35.03231814 9.02599548 38.50036621 10.0178833 C42.05281839 11.03300085 45.60654274 12.04364451 49.16015625 13.0546875 C56.10800957 15.03213053 63.05445134 17.01447538 70 19 C68.89920187 22.33802179 67.81133376 25.60945292 66.34375 28.8046875 C65.89322266 29.80435547 65.89322266 29.80435547 65.43359375 30.82421875 C64.81414248 32.18493808 64.1917718 33.54433237 63.56640625 34.90234375 C61.4837328 39.54143182 60.11074759 44.03495828 59 49 C44.48136671 45.62047127 30.27577304 41.28273191 16 37 C16 27.76 16 18.52 16 9 C10.72 9 5.44 9 0 9 C0 6.03 0 3.06 0 0 Z " fill="#000000" transform="translate(280,287)"/>
<path d="M0 0 C31.68 0 63.36 0 96 0 C96 5.28 96 10.56 96 16 C64.32 16 32.64 16 0 16 C0 10.72 0 5.44 0 0 Z " fill="#000000" transform="translate(328,112)"/>
<path d="M0 0 C5.28 0 10.56 0 16 0 C16 5.28 16 10.56 16 16 C26.56 16 37.12 16 48 16 C48 21.28 48 26.56 48 32 C32.16 32 16.32 32 0 32 C0 21.44 0 10.88 0 0 Z " fill="#000000" transform="translate(72,40)"/>
<path d="M0 0 C5.259375 0.12375 5.259375 0.12375 10.625 0.25 C10.625 10.81 10.625 21.37 10.625 32.25 C7.11875 32.3325 3.6125 32.415 0 32.5 C-1.09393066 32.53641602 -2.18786133 32.57283203 -3.31494141 32.61035156 C-9.36705053 32.67918861 -12.77877334 32.28642982 -17.375 28.25 C-21.00333663 24.43069828 -21.68500458 21.36720994 -21.875 16.25 C-21.68500458 11.13279006 -21.00333663 8.06930172 -17.375 4.25 C-11.91098882 -0.54852264 -7.04658779 -0.23457488 0 0 Z " fill="#000000" transform="translate(285.375,391.75)"/>
<path d="M0 0 C-6.33486742 5.86924854 -12.75211599 11.52995895 -19.48046875 16.94921875 C-21.72181057 18.77356674 -23.89773308 20.64872055 -26.0625 22.5625 C-29 25 -29 25 -31 25 C-32.00732399 23.06629769 -33.00563288 21.12789694 -34 19.1875 C-34.556875 18.10855469 -35.11375 17.02960938 -35.6875 15.91796875 C-37 13 -37 13 -37 10 C-29.09756228 6.68654745 -21.09648634 4.01832058 -12.875 1.625 C-11.95050049 1.35026855 -11.02600098 1.07553711 -10.07348633 0.79248047 C-9.20103271 0.54385254 -8.3285791 0.29522461 -7.4296875 0.0390625 C-6.64835449 -0.18571777 -5.86702148 -0.41049805 -5.06201172 -0.64208984 C-3 -1 -3 -1 0 0 Z " fill="#000000" transform="translate(433,275)"/>
<path d="M0 0 C5.28 0 10.56 0 16 0 C16 5.28 16 10.56 16 16 C10.72 16 5.44 16 0 16 C0 10.72 0 5.44 0 0 Z " fill="#000000" transform="translate(264,104)"/>
<path d="M0 0 C5.28 0 10.56 0 16 0 C16 5.28 16 10.56 16 16 C10.72 16 5.44 16 0 16 C0 10.72 0 5.44 0 0 Z " fill="#000000" transform="translate(200,8)"/>
<path d="M0 0 C5.28 0 10.56 0 16 0 C16 5.28 16 10.56 16 16 C10.72 16 5.44 16 0 16 C0 10.72 0 5.44 0 0 Z " fill="#000000" transform="translate(72,8)"/>
</svg>
