<?xml version="1.0" encoding="UTF-8"?>
<svg version="1.1" xmlns="http://www.w3.org/2000/svg" width="512" height="512">
<path d="M0 0 C0.65564941 -0.0049649 1.31129883 -0.00992981 1.98681641 -0.01504517 C4.15414482 -0.02964072 6.32140006 -0.03646425 8.48876953 -0.04199219 C9.9970805 -0.04774561 11.50539145 -0.05350332 13.01370239 -0.05926514 C16.17613058 -0.06976758 19.33853339 -0.07561525 22.50097656 -0.07910156 C26.54848652 -0.08458599 30.59566004 -0.10861582 34.6430645 -0.13707352 C37.7589312 -0.15571866 40.87471714 -0.16090648 43.99063492 -0.16243744 C45.48254359 -0.16546006 46.97445097 -0.17347547 48.46630478 -0.18662262 C50.55592032 -0.20372377 52.64471741 -0.20179359 54.734375 -0.1953125 C56.51616653 -0.20078094 56.51616653 -0.20078094 58.33395386 -0.20635986 C61.90735856 0.20886443 63.68356368 0.93762971 66.49658203 3.16113281 C79.02654612 24.04440629 69.49658203 51.8072602 69.49658203 76.16113281 C157.93658203 76.16113281 246.37658203 76.16113281 337.49658203 76.16113281 C337.49658203 53.72113281 337.49658203 31.28113281 337.49658203 8.16113281 C340.49658203 2.16113281 340.49658203 2.16113281 342.76342773 0.80329895 C345.99449455 0.04414616 348.90538139 -0.10057577 352.22705078 -0.11352539 C353.21096298 -0.12119179 353.21096298 -0.12119179 354.2147522 -0.12901306 C356.37128967 -0.14285177 358.52750558 -0.14195696 360.68408203 -0.13964844 C362.1895357 -0.14353797 363.69498828 -0.14787317 365.20043945 -0.15263367 C368.35094771 -0.16008314 371.50134386 -0.15981347 374.65185547 -0.15454102 C378.68364479 -0.14874208 382.71497537 -0.16569341 386.74668884 -0.18888569 C389.85399037 -0.20363464 392.96118163 -0.20449327 396.06851196 -0.20137596 C397.554829 -0.2018884 399.04115233 -0.20711155 400.5274353 -0.21718788 C402.60729621 -0.22956076 404.68626605 -0.2227571 406.76611328 -0.21118164 C407.94794189 -0.21181107 409.12977051 -0.21244049 410.34741211 -0.21308899 C413.85210694 0.20338051 415.69576157 1.04657773 418.49658203 3.16113281 C420.93878316 6.8244345 420.73930695 8.56224322 420.72363281 12.92749023 C420.72392487 13.61067825 420.72421692 14.29386627 420.72451782 14.99775696 C420.72312535 17.25416804 420.70756832 19.51024822 420.69189453 21.76660156 C420.6881641 23.33172933 420.68531727 24.89685942 420.68331909 26.46199036 C420.67568497 30.58021499 420.65603843 34.69829842 420.63391113 38.81646729 C420.61344792 43.01922699 420.60431636 47.22200952 420.59423828 51.42480469 C420.57279229 59.67031217 420.53865906 67.91570493 420.49658203 76.16113281 C421.43977295 76.14542236 422.38296387 76.12971191 423.35473633 76.11352539 C426.86781351 76.06227274 430.38049101 76.0247229 433.89379883 75.99633789 C435.41176641 75.98128928 436.92969079 75.96084543 438.44750977 75.93481445 C440.6345488 75.89825628 442.821011 75.88136759 445.00830078 75.86816406 C446.3227417 75.85245361 447.63718262 75.83674316 448.99145508 75.82055664 C452.73028737 76.18384083 454.55031751 76.88115425 457.49658203 79.16113281 C459.60870707 82.32932037 459.82814667 84.29332533 460.05517578 88.02832031 C459.49658203 90.16113281 459.49658203 90.16113281 454.49658203 95.16113281 C443.27658203 95.16113281 432.05658203 95.16113281 420.49658203 95.16113281 C420.49658203 126.84113281 420.49658203 158.52113281 420.49658203 191.16113281 C431.38658203 191.16113281 442.27658203 191.16113281 453.49658203 191.16113281 C458.49658203 195.16113281 458.49658203 195.16113281 459.49658203 197.16113281 C460.08052364 204.40200872 460.08052364 204.40200872 457.62158203 207.59863281 C447.62792933 214.94690686 432.90102582 210.16113281 420.49658203 210.16113281 C420.49658203 241.84113281 420.49658203 273.52113281 420.49658203 306.16113281 C431.38658203 306.16113281 442.27658203 306.16113281 453.49658203 306.16113281 C458.49658203 310.16113281 458.49658203 310.16113281 459.49658203 312.16113281 C459.89105751 316.34257292 459.94693389 318.47059329 457.62158203 322.03613281 C454.87853172 324.77918312 454.15647415 325.13812713 450.24023438 325.2746582 C448.85431935 325.27440813 447.4683978 325.26888465 446.08251953 325.25878906 C445.43581299 325.25778198 444.78910645 325.2567749 444.12280273 325.2557373 C441.70571114 325.25050306 439.28864482 325.23654179 436.87158203 325.22363281 C431.46783203 325.20300781 426.06408203 325.18238281 420.49658203 325.16113281 C420.49658203 344.63113281 420.49658203 364.10113281 420.49658203 384.16113281 C426.76658203 384.16113281 433.03658203 384.16113281 439.49658203 384.16113281 C445.4401869 387.72729573 445.4401869 387.72729573 446.49658203 391.16113281 C446.72363281 394.55273438 446.72363281 394.55273438 446.69189453 398.55175781 C446.68764969 399.60867828 446.68764969 399.60867828 446.68331909 400.68695068 C446.67216004 402.92852041 446.64706396 405.16968467 446.62158203 407.41113281 C446.61154668 408.93456453 446.60242179 410.45800253 446.59423828 411.98144531 C446.57223494 415.70813868 446.53773475 419.43459614 446.49658203 423.16113281 C448.48225911 423.09602865 450.4679362 423.03092448 452.45361328 422.96582031 C454.49658203 423.16113281 454.49658203 423.16113281 457.49658203 425.16113281 C459.70437113 428.47281646 460.08277108 430.23610948 460.16064453 434.09863281 C459.07656032 437.46567084 457.22804258 438.95624033 454.49658203 441.16113281 C451.4914155 441.65237885 449.05601359 441.83475435 446.0553894 441.79033852 C444.77763716 441.80123932 444.77763716 441.80123932 443.47407174 441.81236035 C440.60596752 441.83067763 437.73918928 441.81322383 434.87109375 441.79605103 C432.79968517 441.80180955 430.7282817 441.80974884 428.65688896 441.81968725 C422.95411045 441.84062061 417.25174861 441.83021578 411.54896832 441.81475616 C405.40299803 441.80347315 399.25710091 441.82089019 393.11114502 441.83465576 C381.76357971 441.85563734 370.41618484 441.85377239 359.06862372 441.84009842 C348.58624185 441.82752876 338.10390885 441.82423332 327.621521 441.83021164 C326.57920585 441.83078453 326.57920585 441.83078453 325.51583384 441.83136899 C322.69521904 441.83292564 319.87460427 441.83451764 317.05398952 441.83616781 C290.58555981 441.85146848 264.11721504 441.83758655 237.64879844 441.81068332 C214.12470684 441.78695464 190.60075057 441.78907775 167.07666016 441.81298828 C140.65715775 441.83975192 114.2377304 441.85038343 87.81821632 441.83492696 C85.00269192 441.83332334 82.1871675 441.83175914 79.37164307 441.83021164 C78.33173518 441.82961856 78.33173518 441.82961856 77.27081905 441.8290135 C66.79411189 441.82332218 56.31745893 441.82998484 45.84075928 441.84260941 C33.9302134 441.85689008 22.01982739 441.85288264 10.10928774 441.82620569 C4.02869116 441.81303679 -2.0516303 441.80796761 -8.13222504 441.82445145 C-13.69361806 441.83930012 -19.25447977 441.83124664 -24.81582427 441.80456369 C-26.83256876 441.79895713 -28.84935771 441.80186748 -30.86607385 441.81394263 C-33.59877074 441.82905542 -36.3296261 441.81365097 -39.06222534 441.79033852 C-39.85304245 441.80204435 -40.64385955 441.81375018 -41.45864081 441.82581073 C-45.50856457 441.75632046 -47.29538861 441.3290585 -50.4894886 438.75071371 C-52.99606083 435.52767538 -53.26298086 434.03084882 -52.97998047 430.09863281 C-52.10618638 426.54615849 -50.48724627 425.15035168 -47.50341797 423.16113281 C-45.46044922 422.96582031 -45.46044922 422.96582031 -43.31591797 423.03613281 C-42.05779297 423.07738281 -40.79966797 423.11863281 -39.50341797 423.16113281 C-39.51912842 422.21794189 -39.53483887 421.27475098 -39.55102539 420.30297852 C-39.60227804 416.78990134 -39.63982788 413.27722383 -39.66821289 409.76391602 C-39.6832615 408.24594843 -39.70370535 406.72802405 -39.72973633 405.21020508 C-39.7662945 403.02316604 -39.7831832 400.83670385 -39.79638672 398.64941406 C-39.81995239 396.67775269 -39.81995239 396.67775269 -39.84399414 394.66625977 C-39.47900765 390.90990778 -38.85133955 389.08569043 -36.50341797 386.16113281 C-32.50341797 384.16113281 -32.50341797 384.16113281 -13.50341797 384.16113281 C-13.50341797 364.69113281 -13.50341797 345.22113281 -13.50341797 325.16113281 C-24.13896237 325.3191005 -24.13896237 325.3191005 -34.77368164 325.52148438 C-36.11457034 325.53317519 -37.45547331 325.54336609 -38.79638672 325.55175781 C-39.48333618 325.57222168 -40.17028564 325.59268555 -40.87805176 325.61376953 C-44.48104622 325.61637144 -46.37143296 325.24701083 -49.42260742 323.26171875 C-52.10901087 320.54978454 -52.4531442 319.69403475 -52.81591797 315.84863281 C-52.45465855 311.58577171 -51.48349743 310.14121227 -48.50341797 307.16113281 C-38.06417577 301.94151171 -25.17484557 306.16113281 -13.50341797 306.16113281 C-13.50341797 274.48113281 -13.50341797 242.80113281 -13.50341797 210.16113281 C-24.39341797 210.16113281 -35.28341797 210.16113281 -46.50341797 210.16113281 C-52.50341797 205.16113281 -52.50341797 205.16113281 -53.22998047 203.09863281 C-52.97705897 198.27366878 -52.11367335 195.66520421 -48.50341797 192.16113281 C-38.06417577 186.94151171 -25.17484557 191.16113281 -13.50341797 191.16113281 C-13.50341797 159.48113281 -13.50341797 127.80113281 -13.50341797 95.16113281 C-24.72341797 95.16113281 -35.94341797 95.16113281 -47.50341797 95.16113281 C-52.50341797 90.16113281 -52.50341797 90.16113281 -53.13232422 88.09863281 C-52.96669633 83.26619547 -52.17580359 80.62366783 -48.50341797 77.16113281 C-44.99717366 75.99238471 -41.85563137 76.03599014 -38.21044922 76.06347656 C-37.15140633 76.06559898 -37.15140633 76.06559898 -36.07096863 76.06776428 C-33.81924171 76.07335517 -31.56761476 76.08590594 -29.31591797 76.09863281 C-27.78792461 76.10364899 -26.2599297 76.10821169 -24.73193359 76.11230469 C-20.98905662 76.12332161 -17.24625424 76.14057994 -13.50341797 76.16113281 C-13.51230042 75.29527054 -13.52118286 74.42940826 -13.53033447 73.53730774 C-13.61053192 65.37146005 -13.67140853 57.2057449 -13.71066666 49.0395937 C-13.73152838 44.84141024 -13.75981965 40.64355259 -13.80517578 36.44555664 C-13.84868482 32.39309176 -13.87256572 28.34093996 -13.88292694 24.28825951 C-13.89030931 22.74328877 -13.9047256 21.19833489 -13.9263382 19.6534977 C-13.95544105 17.48680421 -13.95937134 15.32139898 -13.95751953 13.15454102 C-13.96640198 11.92210159 -13.97528442 10.68966217 -13.98443604 9.4198761 C-13.41045671 5.53135009 -12.28140853 3.89575531 -9.50341797 1.16113281 C-6.13206981 0.03735009 -3.5542232 0.02045761 0 0 Z M5.49658203 19.16113281 C5.49658203 37.97113281 5.49658203 56.78113281 5.49658203 76.16113281 C20.34658203 76.16113281 35.19658203 76.16113281 50.49658203 76.16113281 C50.49658203 57.35113281 50.49658203 38.54113281 50.49658203 19.16113281 C35.64658203 19.16113281 20.79658203 19.16113281 5.49658203 19.16113281 Z M356.49658203 19.16113281 C356.49658203 37.97113281 356.49658203 56.78113281 356.49658203 76.16113281 C371.34658203 76.16113281 386.19658203 76.16113281 401.49658203 76.16113281 C401.49658203 57.35113281 401.49658203 38.54113281 401.49658203 19.16113281 C386.64658203 19.16113281 371.79658203 19.16113281 356.49658203 19.16113281 Z M5.49658203 95.16113281 C5.49658203 101.76113281 5.49658203 108.36113281 5.49658203 115.16113281 C20.34658203 115.16113281 35.19658203 115.16113281 50.49658203 115.16113281 C50.49658203 108.56113281 50.49658203 101.96113281 50.49658203 95.16113281 C35.64658203 95.16113281 20.79658203 95.16113281 5.49658203 95.16113281 Z M69.49658203 95.16113281 C69.49658203 126.84113281 69.49658203 158.52113281 69.49658203 191.16113281 C78.94283203 191.38800781 88.38908203 191.61488281 98.12158203 191.84863281 C102.55072021 191.99884888 102.55072021 191.99884888 107.06933594 192.15209961 C124.20341201 192.75583848 124.20341201 192.75583848 138.49038696 184.50614929 C139.85649684 183.0867417 141.17838115 181.6251412 142.49658203 180.16113281 C143.92998251 178.95381166 145.38509757 177.77120889 146.87158203 176.62988281 C148.08066671 175.64121762 149.28901617 174.65165252 150.49658203 173.66113281 C156.01885319 169.15217161 161.58845409 164.71268477 167.20751953 160.32519531 C171.68094912 156.82337034 176.09525405 153.25302117 180.49658203 149.66113281 C186.01997888 145.15353309 191.58842639 140.7127064 197.20751953 136.32519531 C201.68095045 132.8233693 206.09520581 129.2529636 210.49658203 125.66113281 C215.48189962 121.59364428 220.49175855 117.56355078 225.55908203 113.59863281 C230.67504777 109.59258154 235.7836003 105.57770579 240.87158203 101.53613281 C241.53295166 101.01462646 242.19432129 100.49312012 242.87573242 99.95581055 C244.43485127 98.71420917 245.96860654 97.44086579 247.49658203 96.16113281 C247.49658203 95.83113281 247.49658203 95.50113281 247.49658203 95.16113281 C188.75658203 95.16113281 130.01658203 95.16113281 69.49658203 95.16113281 Z M265.49658203 106.16113281 C264.07145274 107.35065296 262.61116816 108.50050202 261.10595703 109.58691406 C260.14943237 110.30548584 260.14943237 110.30548584 259.17358398 111.03857422 C258.53767334 111.51214355 257.9017627 111.98571289 257.24658203 112.47363281 C250.57567719 117.50744509 244.0913995 122.72850022 237.66381836 128.06835938 C232.74982619 132.14584277 227.77056408 136.12363977 222.73413086 140.04833984 C218.27529368 143.53011563 213.87901337 147.0837983 209.49658203 150.66113281 C203.97485484 155.16749151 198.40905077 159.60839969 192.79003906 163.99267578 C187.58251364 168.06691145 182.46800567 172.25119799 177.35205078 176.43945312 C172.20001337 180.63750326 166.92957101 184.6381568 161.55908203 188.55175781 C160.53814453 189.34839844 160.53814453 189.34839844 159.49658203 190.16113281 C159.49658203 190.49113281 159.49658203 190.82113281 159.49658203 191.16113281 C218.23658203 191.16113281 276.97658203 191.16113281 337.49658203 191.16113281 C337.49658203 159.48113281 337.49658203 127.80113281 337.49658203 95.16113281 C328.02970703 94.93425781 318.56283203 94.70738281 308.80908203 94.47363281 C305.84721924 94.37348877 302.88535645 94.27334473 299.83374023 94.17016602 C284.64652424 93.86968439 275.40839465 94.23700013 265.49658203 106.16113281 Z M356.49658203 95.16113281 C356.49658203 101.76113281 356.49658203 108.36113281 356.49658203 115.16113281 C371.34658203 115.16113281 386.19658203 115.16113281 401.49658203 115.16113281 C401.49658203 108.56113281 401.49658203 101.96113281 401.49658203 95.16113281 C386.64658203 95.16113281 371.79658203 95.16113281 356.49658203 95.16113281 Z M5.49658203 134.16113281 C5.49658203 140.43113281 5.49658203 146.70113281 5.49658203 153.16113281 C20.34658203 153.16113281 35.19658203 153.16113281 50.49658203 153.16113281 C50.49658203 146.89113281 50.49658203 140.62113281 50.49658203 134.16113281 C35.64658203 134.16113281 20.79658203 134.16113281 5.49658203 134.16113281 Z M356.49658203 134.16113281 C356.49658203 140.43113281 356.49658203 146.70113281 356.49658203 153.16113281 C371.34658203 153.16113281 386.19658203 153.16113281 401.49658203 153.16113281 C401.49658203 146.89113281 401.49658203 140.62113281 401.49658203 134.16113281 C386.64658203 134.16113281 371.79658203 134.16113281 356.49658203 134.16113281 Z M5.49658203 172.16113281 C5.49658203 178.43113281 5.49658203 184.70113281 5.49658203 191.16113281 C20.34658203 191.16113281 35.19658203 191.16113281 50.49658203 191.16113281 C50.49658203 184.89113281 50.49658203 178.62113281 50.49658203 172.16113281 C35.64658203 172.16113281 20.79658203 172.16113281 5.49658203 172.16113281 Z M356.49658203 172.16113281 C356.49658203 178.43113281 356.49658203 184.70113281 356.49658203 191.16113281 C371.34658203 191.16113281 386.19658203 191.16113281 401.49658203 191.16113281 C401.49658203 184.89113281 401.49658203 178.62113281 401.49658203 172.16113281 C386.64658203 172.16113281 371.79658203 172.16113281 356.49658203 172.16113281 Z M5.49658203 210.16113281 C5.49658203 216.76113281 5.49658203 223.36113281 5.49658203 230.16113281 C20.34658203 230.16113281 35.19658203 230.16113281 50.49658203 230.16113281 C50.49658203 223.56113281 50.49658203 216.96113281 50.49658203 210.16113281 C35.64658203 210.16113281 20.79658203 210.16113281 5.49658203 210.16113281 Z M69.49658203 210.16113281 C69.49658203 241.84113281 69.49658203 273.52113281 69.49658203 306.16113281 C128.23658203 306.16113281 186.97658203 306.16113281 247.49658203 306.16113281 C243.83219022 302.496741 240.26117044 299.28767718 236.18408203 296.16113281 C230.89904688 292.06057726 225.67637156 287.89383614 220.49658203 283.66113281 C215.53449366 279.61103119 210.54503546 275.6030759 205.49658203 271.66113281 C199.75647535 267.17913171 194.09964957 262.60156724 188.45751953 257.99707031 C184.17206585 254.50583198 179.8532875 251.06294393 175.49658203 247.66113281 C170.44811974 243.7191828 165.45898953 239.71085214 160.49658203 235.66113281 C153.83934266 230.22896026 147.15724783 224.82262624 140.30993652 219.63041687 C138.49658203 218.16113281 138.49658203 218.16113281 136.4576416 216.17195129 C129.41882796 209.6754394 123.96944341 209.0667325 114.61376953 209.37988281 C113.46400635 209.38793945 112.31424316 209.39599609 111.12963867 209.40429688 C106.87629429 209.44583399 102.6238672 209.55752476 98.37158203 209.66113281 C88.84283203 209.82613281 79.31408203 209.99113281 69.49658203 210.16113281 Z M159.49658203 210.16113281 C163.74287541 214.41235568 163.74287541 214.41235568 168.21142578 218.32519531 C168.89019775 218.88408447 169.56896973 219.44297363 170.26831055 220.01879883 C170.98301514 220.60201904 171.69771973 221.18523926 172.43408203 221.78613281 C173.1855249 222.40222412 173.93696777 223.01831543 174.71118164 223.65307617 C179.84387534 227.84791488 185.0280412 231.97134117 190.25610352 236.04638672 C194.71628863 239.52834397 199.1132453 243.08305924 203.49658203 246.66113281 C208.45890447 250.71095349 213.44812223 254.71918475 218.49658203 258.66113281 C223.54504643 262.60308446 228.53409665 266.61150702 233.49658203 270.66113281 C240.18936927 276.12040419 246.94975959 281.48500097 253.75683594 286.80078125 C257.3245591 289.59047441 260.88130066 292.39418064 264.44042969 295.19482422 C265.49745723 296.02573588 266.56104771 296.8483773 267.63153076 297.66188049 C269.49658203 299.16113281 269.49658203 299.16113281 271.3175354 300.93232727 C277.938049 306.97311487 283.58225049 307.0984533 292.28173828 306.84472656 C294.00789368 306.83415222 294.00789368 306.83415222 295.7689209 306.82336426 C300.03281072 306.78697359 304.29599978 306.68924407 308.55908203 306.59863281 C318.10845703 306.45425781 327.65783203 306.30988281 337.49658203 306.16113281 C337.49658203 274.48113281 337.49658203 242.80113281 337.49658203 210.16113281 C278.75658203 210.16113281 220.01658203 210.16113281 159.49658203 210.16113281 Z M356.49658203 210.16113281 C356.49658203 216.76113281 356.49658203 223.36113281 356.49658203 230.16113281 C371.34658203 230.16113281 386.19658203 230.16113281 401.49658203 230.16113281 C401.49658203 223.56113281 401.49658203 216.96113281 401.49658203 210.16113281 C386.64658203 210.16113281 371.79658203 210.16113281 356.49658203 210.16113281 Z M5.49658203 249.16113281 C5.49658203 255.43113281 5.49658203 261.70113281 5.49658203 268.16113281 C20.34658203 268.16113281 35.19658203 268.16113281 50.49658203 268.16113281 C50.49658203 261.89113281 50.49658203 255.62113281 50.49658203 249.16113281 C35.64658203 249.16113281 20.79658203 249.16113281 5.49658203 249.16113281 Z M356.49658203 249.16113281 C356.49658203 255.43113281 356.49658203 261.70113281 356.49658203 268.16113281 C371.34658203 268.16113281 386.19658203 268.16113281 401.49658203 268.16113281 C401.49658203 261.89113281 401.49658203 255.62113281 401.49658203 249.16113281 C386.64658203 249.16113281 371.79658203 249.16113281 356.49658203 249.16113281 Z M5.49658203 287.16113281 C5.49658203 293.43113281 5.49658203 299.70113281 5.49658203 306.16113281 C20.34658203 306.16113281 35.19658203 306.16113281 50.49658203 306.16113281 C50.49658203 299.89113281 50.49658203 293.62113281 50.49658203 287.16113281 C35.64658203 287.16113281 20.79658203 287.16113281 5.49658203 287.16113281 Z M356.49658203 287.16113281 C356.49658203 293.43113281 356.49658203 299.70113281 356.49658203 306.16113281 C371.34658203 306.16113281 386.19658203 306.16113281 401.49658203 306.16113281 C401.49658203 299.89113281 401.49658203 293.62113281 401.49658203 287.16113281 C386.64658203 287.16113281 371.79658203 287.16113281 356.49658203 287.16113281 Z M5.49658203 325.16113281 C5.49658203 344.63113281 5.49658203 364.10113281 5.49658203 384.16113281 C20.34658203 384.16113281 35.19658203 384.16113281 50.49658203 384.16113281 C50.49658203 364.69113281 50.49658203 345.22113281 50.49658203 325.16113281 C35.64658203 325.16113281 20.79658203 325.16113281 5.49658203 325.16113281 Z M69.49658203 325.16113281 C69.49658203 344.63113281 69.49658203 364.10113281 69.49658203 384.16113281 C75.43658203 384.49113281 81.37658203 384.82113281 87.49658203 385.16113281 C92.49658203 388.16113281 92.49658203 388.16113281 93.49658203 390.16113281 C93.65284779 392.6394594 93.75471401 395.09424612 93.81298828 397.57519531 C93.83376938 398.3048349 93.85455048 399.03447449 93.8759613 399.78622437 C93.9414012 402.11943044 94.00031571 404.45275002 94.05908203 406.78613281 C94.10227256 408.36687377 94.14588702 409.9476032 94.18994141 411.52832031 C94.29707684 415.40580785 94.39835985 419.28340967 94.49658203 423.16113281 C114.51463656 425.52261454 114.51463656 425.52261454 132.68457031 419.78588867 C134.62339779 417.8467318 136.41815318 415.83558212 138.14355469 413.70458984 C140.52626748 410.98652592 143.4260565 408.94344218 146.30908203 406.78613281 C147.4845916 405.87507191 148.65774261 404.96096036 149.82861328 404.04394531 C150.72314209 403.34446777 150.72314209 403.34446777 151.63574219 402.63085938 C154.9525885 400.01115132 158.22285465 397.33438191 161.49658203 394.66113281 C167.01983209 390.15335633 172.5884302 385.71270342 178.20751953 381.32519531 C182.68094912 377.82337034 187.09525405 374.25302117 191.49658203 370.66113281 C197.01997888 366.15353309 202.58842639 361.7127064 208.20751953 357.32519531 C213.36312921 353.28935606 218.43897426 349.15906929 223.50927734 345.0168457 C228.60972452 340.85827779 233.76736665 336.77856898 238.98095703 332.76269531 C242.06623677 330.36715359 244.7131802 327.94453464 247.49658203 325.16113281 C188.75658203 325.16113281 130.01658203 325.16113281 69.49658203 325.16113281 Z M264.06933594 336.51211548 C261.47656809 339.23060761 258.49556466 341.41415967 255.49658203 343.66113281 C250.44237108 347.59545571 245.45875146 351.61154627 240.49658203 355.66113281 C234.97318518 360.16873254 229.40473767 364.60955923 223.78564453 368.99707031 C219.31221228 372.49889737 214.89800649 376.06935961 210.49658203 379.66113281 C202.6731407 386.04267279 194.74586138 392.2831239 186.78759766 398.49511719 C179.72491806 404.0115773 172.70677407 409.57816111 165.74658203 415.22363281 C165.0545166 415.78421387 164.36245117 416.34479492 163.64941406 416.92236328 C163.00601074 417.44588379 162.36260742 417.9694043 161.69970703 418.50878906 C161.12897461 418.97293213 160.55824219 419.4370752 159.97021484 419.9152832 C158.36400648 421.23806338 158.36400648 421.23806338 156.49658203 423.16113281 C207.97658203 423.16113281 259.45658203 423.16113281 312.49658203 423.16113281 C312.82658203 412.27113281 313.15658203 401.38113281 313.49658203 390.16113281 C316.49658203 386.16113281 316.49658203 386.16113281 319.49658203 385.16113281 C325.43658203 384.83113281 331.37658203 384.50113281 337.49658203 384.16113281 C337.49658203 364.69113281 337.49658203 345.22113281 337.49658203 325.16113281 C323.38908203 324.75894531 323.38908203 324.75894531 308.99658203 324.34863281 C304.59475586 324.17110474 304.59475586 324.17110474 300.10400391 323.98999023 C284.62727943 323.62824595 274.7018305 324.74141929 264.06933594 336.51211548 Z M356.49658203 325.16113281 C356.49658203 344.63113281 356.49658203 364.10113281 356.49658203 384.16113281 C371.34658203 384.16113281 386.19658203 384.16113281 401.49658203 384.16113281 C401.49658203 364.69113281 401.49658203 345.22113281 401.49658203 325.16113281 C386.64658203 325.16113281 371.79658203 325.16113281 356.49658203 325.16113281 Z " fill="#000000" transform="translate(52.50341796875,0.8388671875)"/>
<path d="M0 0 C0.98397522 -0.01090081 0.98397522 -0.01090081 1.98782873 -0.02202183 C4.18983618 -0.04029551 6.39010684 -0.02290831 8.59210205 -0.00571251 C10.18503587 -0.01147284 11.77796306 -0.01941337 13.37087631 -0.02934873 C17.75111436 -0.0502577 22.13080905 -0.03988867 26.51104927 -0.02441764 C31.23370201 -0.01312455 35.95626001 -0.03055668 40.67889404 -0.04431725 C49.93168639 -0.06657604 59.18427621 -0.06173671 68.43707657 -0.04725404 C75.95552485 -0.03597218 83.47391629 -0.03442633 90.99237061 -0.03987312 C92.06153898 -0.04063929 93.13070735 -0.04140545 94.23227477 -0.04219484 C96.40412046 -0.04379343 98.57596614 -0.04541449 100.74781179 -0.04705779 C121.12375948 -0.06132304 141.49959479 -0.0449104 161.87552404 -0.01805596 C179.36736936 0.0042835 196.85904879 0.00040359 214.35089111 -0.02264977 C234.6528255 -0.04939407 254.95466133 -0.05994967 275.25661087 -0.04458845 C277.42056527 -0.04299566 279.58451969 -0.04142381 281.74847412 -0.03987312 C282.81324219 -0.03910175 283.87801025 -0.03833037 284.97504401 -0.03753562 C292.48637742 -0.03321451 299.99764842 -0.04051402 307.50897217 -0.05227089 C316.66006812 -0.06627921 325.81094957 -0.06253109 334.96202087 -0.03586717 C339.63305978 -0.0227065 344.30374078 -0.0176148 348.97477722 -0.03411293 C353.24833384 -0.04897912 357.52119979 -0.04087992 361.79469347 -0.01422517 C363.34306799 -0.00862597 364.8915005 -0.01151285 366.43983793 -0.02360411 C368.54100915 -0.03875771 370.63979893 -0.02327609 372.74084473 0 C374.49279585 0.00121764 374.49279585 0.00121764 376.28013992 0.00245988 C380.30119623 0.81797765 381.80378712 2.50460565 384.37042236 5.6292057 C385.03448486 7.6917057 385.03448486 7.6917057 384.99542236 9.6292057 C385.00831299 10.2685807 385.02120361 10.9079557 385.03448486 11.5667057 C383.97267883 14.86455033 381.99392357 16.42799467 379.37042236 18.6292057 C376.28013992 19.25595152 376.28013992 19.25595152 372.74084473 19.25841141 C371.7568695 19.26931221 371.7568695 19.26931221 370.753016 19.28043324 C368.55100855 19.29870691 366.35073789 19.28131972 364.14874268 19.26412392 C362.55580885 19.26988425 360.96288167 19.27782478 359.36996841 19.28776014 C354.98973037 19.30866911 350.61003568 19.29830008 346.22979546 19.28282905 C341.50714272 19.27153596 336.78458472 19.28896808 332.06195068 19.30272865 C322.80915833 19.32498745 313.55656852 19.32014811 304.30376816 19.30566545 C296.78531987 19.29438359 289.26692844 19.29283774 281.74847412 19.29828453 C280.67930575 19.2990507 279.61013737 19.29981686 278.50856996 19.30060624 C276.33672426 19.30220483 274.16487859 19.3038259 271.99303293 19.3054692 C251.61708524 19.31973444 231.24124994 19.30332181 210.86532068 19.27646737 C193.37347536 19.2541279 175.88179594 19.25800781 158.38995361 19.28106117 C138.08801923 19.30780548 117.7861834 19.31836107 97.48423386 19.30299985 C95.32027945 19.30140707 93.15632504 19.29983522 90.99237061 19.29828453 C89.92760254 19.29751315 88.86283448 19.29674178 87.76580071 19.29594702 C80.25446731 19.29162591 72.7431963 19.29892542 65.23187256 19.3106823 C56.08077661 19.32469061 46.92989516 19.3209425 37.77882385 19.29427858 C33.10778494 19.28111791 28.43710394 19.27602621 23.7660675 19.29252434 C19.49251089 19.30739053 15.21964494 19.29929133 10.94615126 19.27263658 C9.39777674 19.26703738 7.84934423 19.26992425 6.30100679 19.28201552 C4.19983558 19.29716912 2.1010458 19.28168749 0 19.25841141 C-1.75195112 19.25719377 -1.75195112 19.25719377 -3.5392952 19.25595152 C-7.5603515 18.44043376 -9.0629424 16.75380576 -11.62957764 13.6292057 C-12.29364014 11.5667057 -12.29364014 11.5667057 -12.25457764 9.6292057 C-12.26746826 8.9898307 -12.28035889 8.3504557 -12.29364014 7.6917057 C-10.33932153 1.62182202 -5.87770566 0.00408513 0 0 Z " fill="#000000" transform="translate(69.62957763671875,457.37079429626465)"/>
<path d="M0 0 C1.21355935 -0.00794881 2.42711869 -0.01589762 3.67745256 -0.02408731 C7.04350398 -0.04001221 10.40751957 -0.0290077 13.77340531 -0.00658631 C17.40403238 0.01109549 21.03452025 -0.00578851 24.66514587 -0.01831055 C31.77637001 -0.03729232 38.88718841 -0.02408235 45.99838245 0.00021534 C54.27784601 0.02745142 62.55721282 0.02417998 70.8367098 0.01994868 C85.60846768 0.01356807 100.38003271 0.03690883 115.1517334 0.07608032 C129.48870721 0.11408908 143.825455 0.12825557 158.16247559 0.11709595 C173.77076162 0.10498275 189.37894823 0.10533007 204.98722601 0.12806761 C206.65126896 0.13048222 208.3153119 0.13289419 209.97935486 0.1353035 C210.79811711 0.13651057 211.61687936 0.13771765 212.46045259 0.13896131 C218.23301029 0.14672293 224.00553102 0.1459311 229.77809143 0.14213181 C236.81200944 0.13788932 243.8457294 0.14832491 250.87959158 0.17735891 C254.4691061 0.19185524 258.05833206 0.19999421 261.64787102 0.19087219 C265.53684459 0.18122956 269.42529247 0.20253244 273.31420898 0.22705078 C274.45184582 0.21949213 275.58948266 0.21193349 276.76159334 0.20414579 C284.39278577 0.28961702 284.39278577 0.28961702 288.33478546 2.65603065 C290.53723259 5.18491216 291.10887813 6.20589706 291.40710449 9.5609436 C291.12246515 13.19009517 290.37924543 14.89140525 288.15710449 17.7484436 C285.07390713 19.68251682 282.69768058 19.99999117 279.09016609 20.00571251 C278.06178379 20.0121614 277.03340149 20.01861029 275.97385609 20.02525461 C274.28156402 20.0206088 274.28156402 20.0206088 272.55508423 20.01586914 C271.35533553 20.02040025 270.15558683 20.02493137 268.91948211 20.02959979 C265.58796906 20.0400828 262.2566716 20.04156747 258.92515731 20.03921103 C255.33269814 20.03880327 251.7402713 20.04983809 248.14782715 20.05932617 C241.10912931 20.07594576 234.07046496 20.08143614 227.03174914 20.08255093 C221.31106679 20.08350092 215.5903955 20.08760875 209.86971664 20.09395218 C193.65450425 20.11156695 177.43931834 20.12079064 161.22409631 20.11929123 C159.91258819 20.11917136 159.91258819 20.11917136 158.57458496 20.11904907 C157.69918009 20.11896731 156.82377521 20.11888555 155.92184292 20.11880131 C141.73207943 20.11798827 127.54242207 20.13712987 113.35268928 20.16532581 C98.78666625 20.19404134 84.220695 20.20786685 69.65464294 20.20613825 C61.47532475 20.20547391 53.29611782 20.21098575 45.1168251 20.23249435 C38.15321444 20.25068865 31.18976546 20.25506797 24.22614135 20.24147551 C20.67293949 20.23493699 17.12004796 20.23486004 13.56687546 20.25218201 C9.71546989 20.27076486 5.86451955 20.2583812 2.01309204 20.24291992 C0.32749213 20.25835061 0.32749213 20.25835061 -1.3921603 20.27409303 C-7.48893527 20.21984016 -11.24533109 19.91621241 -15.84289551 15.7484436 C-16.82336426 13.6000061 -16.82336426 13.6000061 -17.03039551 11.3734436 C-17.1270752 10.64383423 -17.22375488 9.91422485 -17.32336426 9.1625061 C-15.41099622 -0.44597719 -8.1470004 -0.10561947 0 0 Z " fill="#000000" transform="translate(118.8428955078125,491.2515563964844)"/>
</svg>
